<?xml version="1.0" encoding="utf-8"?>
<!-- Generator: Adobe Illustrator 15.0.0, SVG Export Plug-In  -->
<!DOCTYPE svg PUBLIC "-//W3C//DTD SVG 1.1//EN" "http://www.w3.org/Graphics/SVG/1.1/DTD/svg11.dtd" [
	<!ENTITY ns_flows "http://ns.adobe.com/Flows/1.0/">
]>
<svg version="1.1"
	 xmlns="http://www.w3.org/2000/svg" xmlns:xlink="http://www.w3.org/1999/xlink" xmlns:a="http://ns.adobe.com/AdobeSVGViewerExtensions/3.0/"
	 x="0px" y="0px" width="73px" height="152px" viewBox="7.52 -1.739 73 152" enable-background="new 7.52 -1.739 73 152"
	 xml:space="preserve">
<defs>
</defs>
<path display="none" fill="#1D1D1B" stroke="#FFFFFF" stroke-width="0.25" stroke-miterlimit="10" d="M54.029,144.829
	c-2.417,1.988-17.674,1.847-19.711,0c-2.037-1.849-3.032-17.341,0-19.712c3.175-2.48,18.147-2.653,19.711,0
	C55.591,127.771,56.444,142.839,54.029,144.829z"/>
<path display="none" fill="#1D1D1B" stroke="#FFFFFF" stroke-width="0.25" stroke-miterlimit="10" d="M54.408,110.776
	c-2.653,2.049-19.121,2.015-20.848,0c-1.99-2.321-7.533-105.994-5.306-108.543c2.11-2.417,30.322-2.641,31.84,0.364
	C61.796,5.971,57.063,108.728,54.408,110.776z"/>
<polygon display="none" fill="#FFFFFF" points="34.881,1.991 41.164,0.644 45.051,3.927 46.833,7.168 47.735,9.892 49.262,36.366 
	49.493,43.177 50.603,67.554 51.436,87.122 51.853,102.844 52.038,111.928 52.824,119.378 53.203,122.343 55.392,133.428 
	49.437,139.428 42.854,125.025 43.377,9.297 42.274,5.04 39.825,4.011 36.77,3.844 "/>
<path display="none" fill="#1D1D1B" stroke="#FFFFFF" stroke-width="0.25" stroke-miterlimit="10" d="M46.323,56.75l0.555,68.115
	c0,0,0.254,9.322,4.697,10.571c3.046,0.856,2.313-9.115,2.313-9.115c0-8.227,1.153-25.74,2.868-37.481
	c1.204-8.237,0.371-13.234,0.371-13.234c6.663,16.937,20.823,16.104,20.823,16.104c-7.219,9.162-6.664,27.208-6.664,27.208
	s1.875,27.233-15.524,28.714s-14.067-34.982-14.067-34.982l0.74-86.068V8.071c-0.741-5.553-8.144-2.221-8.144-2.221L30.22,8.256
	c-1.481,0.926-5.368,0.556-5.368,0.556c-0.555-0.74,0.37-2.221,0.37-2.221s1.481,1.295,8.145-3.702c0,0,6.687-4.652,10.019-1.135
	c0,0,4.605,3.541,4.974,9.834c0.37,6.293,1.851,33.872,1.851,33.872l1.644,39.263l0.833,30.355c0,0,0.438,6.014,0.647,9.206
	c0.243,3.74,0.555,4.722,0.555,4.722s-0.972-0.186-1.202-1.019c-0.231-0.833-0.879-12.588-0.926-13.373
	c-0.047-0.787-0.74-15.965-0.74-15.965l-0.973-27.347l-0.555-15.409c0,0-1.805-43.59-2.082-45.671
	C47.133,8.14,43.87,1.546,39.844,1.06c0,0-3.886,0.139-5.622,2.013c0,0,10.134-4.095,11.522,8.26"/>
<path display="none" fill="#FFFFFF" stroke="#1D1D1B" stroke-miterlimit="10" d="M10.207,7.261l4.257-2.221
	c0,0,3.332-0.741,4.442-0.371c1.11,0.371,5.183,1.666,5.183,1.666s-1.296,2.221,0,3.147l-5.183,0.74l-4.442-0.925L10.207,7.261z"/>
<ellipse transform="matrix(0.713 0.7012 -0.7012 0.713 74.1452 -27.143)" display="none" fill="#FFFFFF" stroke="#1D1D1B" stroke-miterlimit="10" cx="70.229" cy="77" rx="17.588" ry="10.445"/>
<ellipse transform="matrix(0.9771 -0.2127 0.2127 0.9771 -25.9446 14.7091)" display="none" fill="#1D1D1B" stroke="#FFFFFF" stroke-miterlimit="10" cx="55.393" cy="127.94" rx="2.454" ry="4.319"/>
<circle display="none" fill="#1D1D1B" stroke="#FFFFFF" stroke-miterlimit="10" cx="47.202" cy="89.834" r="3.262"/>
<circle display="none" fill="#1D1D1B" stroke="#FFFFFF" stroke-miterlimit="10" cx="47.341" cy="80.256" r="3.262"/>
<circle display="none" fill="#1D1D1B" stroke="#FFFFFF" stroke-miterlimit="10" cx="47.272" cy="70.886" r="2.915"/>
<circle display="none" fill="#1D1D1B" stroke="#FFFFFF" stroke-miterlimit="10" cx="47.272" cy="62.279" r="2.638"/>
<circle display="none" fill="#1D1D1B" stroke="#FFFFFF" stroke-miterlimit="10" cx="46.647" cy="49.855" r="2.429"/>
<circle display="none" fill="#1D1D1B" stroke="#FFFFFF" stroke-miterlimit="10" cx="47.757" cy="98.719" r="3.679"/>
<circle display="none" fill="#1D1D1B" stroke="#FFFFFF" stroke-miterlimit="10" cx="47.896" cy="107.464" r="3.957"/>
<circle display="none" fill="#1D1D1B" stroke="#FFFFFF" stroke-miterlimit="10" cx="47.826" cy="116.695" r="4.164"/>
<g display="none">
	<path display="inline" fill="#FFFFFF" d="M45.051,47.009c0,0-3.471,2.915-0.417,5.414"/>
	<path display="inline" fill="#1D1D1B" d="M45.083,47.047c-0.345,0.396-0.636,0.839-0.856,1.296
		c-0.233,0.448-0.39,0.927-0.416,1.385c-0.036,0.472,0.16,0.855,0.271,1.264c0.133,0.418,0.354,0.847,0.584,1.392l-0.063,0.077
		c-0.585-0.125-1.085-0.502-1.421-1.036c-0.345-0.544-0.314-1.257-0.159-1.829c0.313-1.179,1.12-2.012,1.997-2.626L45.083,47.047z"
		/>
</g>
<circle display="none" fill="#1D1D1B" stroke="#FFFFFF" stroke-miterlimit="10" cx="46.832" cy="39.211" r="2.43"/>
<g display="none">
	<path display="inline" fill="#FFFFFF" d="M45.235,36.366c0,0-3.47,2.916-0.417,5.414"/>
	<path display="inline" fill="#1D1D1B" d="M45.268,36.404c-0.345,0.396-0.635,0.839-0.856,1.296
		c-0.232,0.448-0.39,0.927-0.416,1.386c-0.036,0.472,0.16,0.854,0.271,1.263c0.133,0.418,0.354,0.847,0.584,1.392l-0.063,0.077
		c-0.585-0.125-1.085-0.502-1.421-1.036c-0.345-0.545-0.314-1.257-0.159-1.828c0.313-1.179,1.12-2.013,1.997-2.627L45.268,36.404z"
		/>
</g>
<g display="none">
	<path display="inline" fill="#FFFFFF" d="M45.605,59.364c0,0-3.47,2.916-0.416,5.414"/>
	<path display="inline" fill="#1D1D1B" d="M45.638,59.402c-0.345,0.396-0.635,0.839-0.856,1.296
		c-0.232,0.448-0.389,0.926-0.416,1.385c-0.037,0.472,0.159,0.854,0.271,1.263c0.132,0.418,0.354,0.847,0.584,1.392l-0.063,0.077
		c-0.585-0.125-1.085-0.502-1.421-1.035c-0.345-0.545-0.314-1.257-0.16-1.829c0.313-1.179,1.12-2.012,1.997-2.626L45.638,59.402z"/>
</g>
<g display="none">
	<path display="inline" fill="#FFFFFF" d="M45.189,67.554c0,0-3.609,3.61-0.555,6.108"/>
	<path display="inline" fill="#1D1D1B" d="M45.225,67.589c-0.349,0.463-0.642,0.968-0.872,1.485
		c-0.241,0.509-0.424,1.042-0.478,1.567c-0.063,0.534,0.083,1.005,0.186,1.462c0.102,0.475,0.34,0.938,0.604,1.521L44.603,73.7
		c-0.623-0.162-1.175-0.614-1.476-1.241c-0.328-0.633-0.21-1.376-0.035-1.979c0.369-1.241,1.163-2.196,2.062-2.961L45.225,67.589z"
		/>
</g>
<g display="none">
	<path display="inline" fill="#FFFFFF" d="M44.912,77.549c0,0-3.47,3.749-0.417,6.247"/>
	<path display="inline" fill="#1D1D1B" d="M44.949,77.583c-0.336,0.481-0.613,1.003-0.827,1.535
		c-0.225,0.524-0.39,1.071-0.431,1.606c-0.048,0.544,0.107,1.025,0.216,1.492c0.109,0.484,0.349,0.953,0.619,1.54l-0.063,0.078
		c-0.629-0.167-1.183-0.629-1.488-1.257c-0.331-0.634-0.229-1.377-0.072-1.991c0.332-1.261,1.092-2.262,1.971-3.072L44.949,77.583z"
		/>
</g>
<g display="none">
	<path display="inline" fill="#FFFFFF" d="M44.068,87.122c-0.901,1.171-1.344,2.661-1.023,3.971
		c0.193,0.638,0.382,1.274,0.748,1.856c0.177,0.292,0.384,0.568,0.606,0.835c0.193,0.227,0.496,0.52,0.739,0.776l0.319,0.336
		l-0.313,0.354c-0.483,0.546-0.927,1.214-1.246,1.89c-0.321,0.682-0.526,1.411-0.517,2.122c0.006,0.71,0.244,1.39,0.68,1.959
		c0.419,0.589,1.052,0.992,1.719,1.488l0.68,0.506l-0.79,0.36c-0.636,0.29-1.274,0.827-1.668,1.445
		c-0.409,0.626-0.596,1.373-0.582,2.139c0.012,0.783,0.178,1.561,0.508,2.256c0.319,0.684,0.847,1.342,1.409,1.733l0.048,0.033
		l-0.015-0.011l0.96,0.708l0.817,0.603l-0.993,0.285c-0.802,0.229-1.639,0.65-2.248,1.214c-0.617,0.564-0.999,1.314-0.97,2.128
		l0.029,0.611l0.079,0.687c0.065,0.452,0.152,0.903,0.279,1.343c0.264,0.866,0.621,1.757,1.322,2.397
		c-0.844-0.47-1.416-1.329-1.852-2.189c-0.22-0.438-0.4-0.894-0.558-1.356l-0.215-0.696c-0.071-0.265-0.111-0.522-0.101-0.795
		c-0.011-1.089,0.524-2.172,1.307-2.863c0.786-0.709,1.68-1.158,2.685-1.45l-0.175,0.888l-0.96-0.708l0.033,0.022
		c-0.831-0.582-1.373-1.313-1.785-2.154c-0.397-0.838-0.59-1.758-0.604-2.669c-0.021-0.927,0.218-1.898,0.741-2.696
		c0.532-0.802,1.23-1.415,2.135-1.831l-0.11,0.866c-0.624-0.468-1.387-0.948-1.923-1.69c-0.552-0.714-0.879-1.639-0.882-2.549
		c-0.01-0.914,0.247-1.781,0.612-2.56c0.376-0.785,0.832-1.481,1.421-2.148l0.006,0.689c-0.264-0.28-0.498-0.496-0.786-0.829
		c-0.251-0.299-0.487-0.615-0.693-0.955c-0.41-0.671-0.771-1.44-0.767-2.27C42.106,89.557,42.909,88.044,44.068,87.122z"/>
</g>
<g display="none">
	<path display="inline" fill="#FFFFFF" d="M58.515,125.025c0.378,0.445,0.626,0.961,0.807,1.497
		c0.187,0.537,0.275,1.106,0.293,1.688c-0.008,0.581-0.089,1.187-0.363,1.736c-0.253,0.55-0.729,1.026-1.291,1.187
		c0.304-0.499,0.468-0.958,0.553-1.441c0.083-0.479,0.11-0.971,0.102-1.474C58.615,127.205,58.494,126.174,58.515,125.025z"/>
</g>
<path display="none" fill="none" stroke="#1D1D1B" stroke-miterlimit="10" d="M32.048,4.53c6.849-6.108,25.728-7.589,9.995,15.177
	c-0.338,0.489,4.679-10.139,5.183-9.995c5.182,1.48,3.517,9.995,1.11,13.512"/>
<line display="none" fill="none" stroke="#1D1D1B" stroke-width="0.5" stroke-miterlimit="10" x1="41.302" y1="17.857" x2="40.562" y2="116.512"/>
<line display="none" fill="none" stroke="#1D1D1B" stroke-width="0.5" stroke-miterlimit="10" x1="50.09" y1="23.263" x2="53.986" y2="121.842"/>
<line display="none" fill="none" stroke="#1D1D1B" stroke-width="0.5" stroke-miterlimit="10" x1="39.825" y1="21.929" x2="39.078" y2="120.582"/>
<g display="none">
	<polygon display="inline" fill="#FFFFFF" points="44.6,31.772 41.694,31.316 42.16,30.935 41.333,39.247 41.164,39.064 
		46.995,39.235 41.164,39.405 40.986,39.41 40.994,39.223 41.333,30.877 41.351,30.451 41.799,30.495 44.726,30.78 	"/>
</g>
<circle display="none" fill="#1D1D1B" stroke="#FFFFFF" stroke-miterlimit="10" cx="45.148" cy="22.005" r="1.985"/>
<g display="none">
	<path display="inline" fill="#FFFFFF" d="M43.843,19.68c0,0-2.836,2.382-0.341,4.424"/>
	<path display="inline" fill="#1D1D1B" d="M43.875,19.718c-0.527,0.669-0.938,1.467-0.973,2.197
		c-0.019,0.376,0.162,0.659,0.231,0.98c0.09,0.332,0.246,0.686,0.4,1.17l-0.063,0.077c-0.511-0.064-0.945-0.368-1.238-0.814
		c-0.303-0.458-0.257-1.07-0.12-1.546c0.278-0.986,0.962-1.656,1.698-2.141L43.875,19.718z"/>
</g>
<g display="none">
	<polygon display="inline" fill="#FFFFFF" points="45.636,16.167 47.338,16.006 47.808,15.962 47.815,16.395 47.896,21.829 
		47.898,22.007 47.735,22 44.355,21.839 47.735,21.678 47.575,21.849 46.979,16.447 47.456,16.835 45.778,17.157 	"/>
</g>
<g display="none">
	<polygon display="inline" fill="#FFFFFF" points="48.871,41.331 51.659,41.043 52.113,40.997 52.128,41.428 52.435,49.774 
		52.442,49.957 52.269,49.951 46.716,49.785 52.269,49.619 52.103,49.796 51.298,41.484 51.768,41.869 49.003,42.322 	"/>
</g>
<g display="none">
	<polygon display="inline" fill="#FFFFFF" points="44.772,54.952 42.632,54.509 43.13,54.11 42.419,62.425 42.274,62.273 
		46.579,62.418 42.274,62.563 42.126,62.568 42.129,62.41 42.279,54.066 42.287,53.601 42.777,53.668 44.942,53.966 	"/>
</g>
<g display="none">
	<polygon display="inline" fill="#FFFFFF" points="49.288,62.015 52.076,61.728 52.53,61.681 52.545,62.112 52.852,70.458 
		52.859,70.641 52.686,70.635 47.133,70.469 52.686,70.303 52.52,70.48 51.715,62.168 52.185,62.553 49.42,63.006 	"/>
</g>
<g display="none">
	<polygon display="inline" fill="#FFFFFF" points="44.496,73.419 41.105,72.957 41.556,72.584 40.652,80.896 40.469,80.698 
		47.271,80.881 40.469,81.063 40.276,81.069 40.287,80.866 40.743,72.518 40.765,72.111 41.194,72.146 44.604,72.425 	"/>
</g>
<g display="none">
	<polygon display="inline" fill="#FFFFFF" points="49.388,81.309 53.146,81.033 53.563,81.003 53.588,81.399 54.125,89.747 
		54.139,89.961 53.935,89.956 46.438,89.765 53.935,89.573 53.745,89.781 52.784,81.472 53.226,81.838 49.486,82.305 	"/>
</g>
<g display="none">
	<polygon display="inline" fill="#FFFFFF" points="43.879,105.864 40.607,106.103 40.186,106.133 40.163,105.734 39.726,98.28 
		39.713,98.069 39.914,98.075 46.438,98.264 39.914,98.452 40.102,98.247 40.97,105.664 40.525,105.296 43.778,104.87 	"/>
</g>
<g display="none">
	<polygon display="inline" fill="#FFFFFF" points="49.528,99.355 53.284,99.08 53.701,99.05 53.726,99.446 54.264,107.794 
		54.278,108.008 54.074,108.003 46.578,107.812 54.074,107.62 53.883,107.828 52.921,99.519 53.364,99.885 49.625,100.352 	"/>
</g>
<g display="none">
	<polygon display="inline" fill="#FFFFFF" points="43.599,109.557 41.432,109.185 41.886,108.819 40.936,117.129 40.747,116.923 
		48.104,117.112 40.747,117.302 40.545,117.307 40.558,117.096 41.079,108.748 41.104,108.346 41.534,108.382 43.725,108.564 	"/>
</g>
<g display="none">
	<polygon display="inline" fill="#FFFFFF" points="54.181,120.332 53.01,119.753 53.557,119.468 51.443,127.538 51.332,127.372 
		55.547,128.248 51.285,127.644 51.145,127.624 51.173,127.478 52.768,119.288 52.853,118.853 53.315,119.003 54.558,119.406 	"/>
</g>
<path display="none" fill="#FFFFFF" stroke="#1D1D1B" stroke-miterlimit="10" d="M18.906,4.669c0,0-1.666,2.73,0,5.553"/>
<path display="none" fill="#FFFFFF" stroke="#1D1D1B" stroke-miterlimit="10" d="M14.464,5.04c0,0-1.295,1.805,0,4.257"/>
<path display="none" fill="none" stroke="#FFFFFF" stroke-width="0.25" stroke-miterlimit="10" d="M38.979,0.439
	c0,0,5.25-1.054,7.333,0.696c0,0,3.888,1.734,1.736,8.263c0,0,3.681,1.141,3.098,7.022c0,0-0.375,4.51-2.333,6.842"/>
<path display="none" fill="none" stroke="#FFFFFF" stroke-width="0.25" stroke-miterlimit="10" d="M42.797,1.244
	c0,0,5.803,0.15,4.54,5.942"/>
<path display="none" fill="none" stroke="#FFFFFF" stroke-width="0.25" stroke-miterlimit="10" d="M48.296,10.883
	c0,0,3.46,2.435,0.592,10.188"/>
<line display="none" fill="none" stroke="#FFFFFF" stroke-width="0.25" stroke-miterlimit="10" x1="40.145" y1="21.929" x2="39.452" y2="120.582"/>
<line display="none" fill="none" stroke="#FFFFFF" stroke-width="0.25" stroke-miterlimit="10" x1="40.747" y1="116.512" x2="41.708" y2="17.857"/>
<line display="none" fill="none" stroke="#FFFFFF" stroke-width="0.25" stroke-miterlimit="10" x1="49.739" y1="23.263" x2="53.645" y2="121.842"/>
<line display="none" fill="none" stroke="#FFFFFF" stroke-width="0.25" stroke-miterlimit="10" x1="50.426" y1="23.263" x2="54.141" y2="117.667"/>
<line display="none" fill="none" stroke="#FFFFFF" stroke-width="0.25" stroke-miterlimit="10" x1="40.932" y1="17.857" x2="40.291" y2="116.428"/>
<line display="none" fill="none" stroke="#FFFFFF" stroke-width="0.25" stroke-miterlimit="10" x1="38.791" y1="120.582" x2="39.541" y2="22.005"/>
<polygon fill="#FFFFFF" points="40.267,24.427 36.088,86.996 28.708,90.803 26.16,102.553 20.075,105.053 23.056,113.242 
	38.357,122.928 39.462,135.178 40.267,136.004 46.394,136.168 50.075,132.678 52.906,118.178 68.189,107.924 54.038,80.297 
	51.375,60.427 49.178,56.052 46.75,24.427 "/>
<path fill="#1D1D1B" stroke="#FFFFFF" stroke-miterlimit="10" d="M49.246,88.375c-1.031,0.201-2.666,0.258-3.682,0.316
	c-1.124,0.057-2.209,0.049-3.199-0.008c-1.313-0.068-3.833-0.414-4.117-0.463L37.45,99.969c0.416,0.029,1.875,0.125,3.724,0.18
	c1.539,0.059,3.345,0.086,5.072,0.049c1.38-0.027,2.705-0.115,3.776-0.268L49.246,88.375z M40.932,102.646l0.857,10.07
	c1.218,0.066,2.518,0.096,3.747,0.037l0.859-10.174C44.775,102.684,42.887,102.734,40.932,102.646z M40.932,102.646l0.857,10.07
	c1.218,0.066,2.518,0.096,3.747,0.037l0.859-10.174C44.775,102.684,42.887,102.734,40.932,102.646z M50.169,102.258
	c-0.909,0.105-2.221,0.236-3.774,0.322c-1.62,0.104-3.508,0.154-5.463,0.066c-1.258-0.055-2.544-0.16-3.803-0.332l1.178,10.125
	c0.897,0.098,2.13,0.201,3.481,0.277c1.218,0.066,2.518,0.096,3.747,0.037c1.406-0.037,2.706-0.189,3.669-0.496l0.738-6.758
	l0.347-3.26C50.248,102.24,50.208,102.248,50.169,102.258z M40.932,102.646l0.857,10.07c1.218,0.066,2.518,0.096,3.747,0.037
	l0.859-10.174C44.775,102.684,42.887,102.734,40.932,102.646z M40.932,102.646l0.857,10.07c1.218,0.066,2.518,0.096,3.747,0.037
	l0.859-10.174C44.775,102.684,42.887,102.734,40.932,102.646z"/>
<path fill="#FFFFFF" d="M45.857,11.272l-1.042,2.083l-0.016,0.042l-2.083-0.011l-0.074-0.222v-0.01l-0.535-1.777l-0.105,1.861
	c0.224,0.274,0.834,0.824,1.994,0.824c1.074,0,1.682-0.655,1.906-0.994L45.857,11.272z M46.183,23.02l-4.733,0.106l-0.013,0.264
	h4.765L46.183,23.02z M38.309,112.439l-1.175-10.119c-0.12-0.02-0.239-0.031-0.358-0.053c-0.029,0-0.06-0.01-0.089-0.01l-0.03,0.285
	l0.015,0.105l0.834,9.697v0.01C37.729,112.387,37.997,112.42,38.309,112.439z M38.25,88.227c-0.029-0.01-0.059-0.01-0.089-0.021
	l-0.045,0.477l-1.191,11.473l-0.044,0.391l0.104-0.137l0.343-0.445c0,0,0.044,0,0.134,0.012l1.594-11.609
	C38.756,88.311,38.473,88.27,38.25,88.227z M49.207,112.26c0.061-0.01,0.104-0.031,0.165-0.053l0.58-6.703L49.207,112.26z
	 M49.354,88.691l-0.028-0.527c-0.208,0.053-0.432,0.105-0.669,0.146l1.368,11.59L49.354,88.691z"/>
<path fill="#1D1D1B" stroke="#FFFFFF" stroke-width="0.25" stroke-miterlimit="10" d="M72.472,101.408
	c-5.835,1.689-8.991-2.021-10.329-7.752c-1.325-5.615,0.906-10.838,8.828-7.973c-5.749-5.857,6.727-12.105-1.95-22.51
	c-4.496-5.393-10.229-7.391-18.807-7.973l-1.903-30.145h0.537v-1.67h-0.477c0-0.867-0.061-2.379-0.164-4.039h3.842
	c0.385,1.333,2.039,2.315,4.021,2.315c2.245,0,4.077-1.29,4.077-2.897c0-1.607-1.832-2.897-4.077-2.897
	c-1.847,0-3.411,0.868-3.915,2.051h-4.036c-0.135-1.945-0.283-3.954-0.387-5.339h4.75c0.518,1.163,2.069,2.009,3.884,2.009
	c2.264,0,4.08-1.3,4.08-2.908c0-1.596-1.816-2.897-4.08-2.897c-2.009,0-3.646,1.015-4.019,2.369h-4.719
	c-0.016-0.243-0.031-0.381-0.031-0.381l0.015-0.021l0.058-0.085l1.118-1.427l0.298-0.909c0,0,0.951-0.148,1.696-1.142
	c0.148-0.211-0.148-1.839-0.148-1.839l-1.994-0.243l-0.892-1.491L46.54,3.507l-0.596-2.22c-0.892-0.856-3.886,0.095-3.886,0.095
	L41.955,1.9c0,0.032,0,0.053-0.015,0.074l-0.328,1.533l-1.653,0.328l-0.402,1.227c-0.089,1.512-0.877,2.781-1.146,3.172
	c0.655,0.476,1.399,0.592,1.399,0.592c0,1.058,0.449,2.22,0.449,2.22c-0.166,0.391-0.284,1.237-0.389,2.315h-4.063
	c-0.551-1.142-2.084-1.956-3.871-1.956c-2.249,0-4.079,1.3-4.079,2.908c0,1.607,1.83,2.896,4.079,2.896
	c2.039,0,3.706-1.036,4.02-2.421h3.825c-0.133,2.178-0.192,4.832-0.208,6.777h-4.184c-0.267-1.417-1.979-2.516-4.051-2.516
	c-2.26,0-4.092,1.3-4.092,2.897c0,1.607,1.832,2.918,4.092,2.918c1.728,0,3.218-0.772,3.813-1.872h4.406v0.391h-0.581v1.67h0.478
	l-2.07,30.251c-6.134,0.655-13.249,2.548-17.566,7.433C9.5,74.402,23.032,78.463,17.583,85.049c8.68-0.738,8.367,3.215,7.92,8.914
	c-0.402,5.107-5.227,9.242-10.615,7.232c2.381,7.539-8.382,11.25-4.184,21.771c1.876,4.748,4.184,8.469,11.209,10.711
	c0.016,0,0.031,0.01,0.046,0.01c4.557,1.449,11.076,2.379,20.813,2.443c-0.21-0.021-0.386-0.053-0.551-0.086
	c-0.165,0-1.905-0.92-1.876-3.383l0.06-0.74c0,0,2.545-7.434-2.545-14.01l-0.894-5.637c0,0,0.193,0.033,0.536,0.064
	c0.03,0,0.06,0.01,0.089,0.01l-0.834-9.705v-0.107l0.016-0.273v-0.012c-0.327-0.051-0.67-0.104-0.998-0.178l1.191-1.535l0.014-0.137
	l0.031-0.254l1.191-11.473l0.045-0.455v-0.02c-0.446-0.074-0.701-0.127-0.701-0.127l0.864-23.421l2.724-39.597h5.524l1.891,30.05
	c-0.017,0-0.017,0-0.029,0l1.235,32.968c-0.12,0.031-0.224,0.053-0.344,0.084l0.03,0.529l0.67,11.207v0.031
	c0.164-0.02,0.327-0.041,0.463-0.074l1.056,2.223c0,0-0.459,0.084-1.251,0.168l-0.344,3.258l-0.58,6.703
	c0.135-0.033,0.254-0.086,0.373-0.139l-0.594,5.309c0,0-4.363,7.654-2.549,14.771c0.15,1.109-0.34,2.875-1.532,3.646
	c-0.313,0.201-0.714,0.307-1.145,0.35c3.558,0,6.742-0.285,9.514-0.57c17.447-1.883,20.572-8.871,22.077-11.748
	C80.542,114.359,69.615,107.783,72.472,101.408z M46.181,23.015l-4.733,0.106l-0.313,0.01l0.194-9.474l0.552-0.571
	c0,0,0.029,0.064,0.119,0.148c0.223,0.274,0.834,0.824,1.994,0.824c1.074,0,1.682-0.655,1.906-0.994
	c0.089-0.127,0.134-0.201,0.134-0.201l0.313,0.666l0.313,9.474L46.181,23.015z M42.818,136.131c0.358,0.041,0.759,0.053,1.161,0.01
	C43.592,136.141,43.19,136.141,42.818,136.131z"/>
<g>
	<path fill="#FFFFFF" d="M35.793,94.438c0.211-0.42,0.208-0.912-0.14-1.067c-0.321-0.193-0.786-0.229-1.226-0.242
		c-0.905-0.015-1.8,0.112-2.389,0.629c-0.589,0.506-0.979,1.332-1.233,2.214c-0.258,0.887-0.394,1.834-0.404,2.777
		c-0.057,1.896,0.374,3.784-0.023,5.786c-0.212,0.985-0.753,2.01-1.613,2.657c-0.845,0.655-1.826,0.99-2.782,1.217l-0.114,0.026
		l-0.103-0.021l-0.001-0.001c-0.801-0.243-1.554-0.525-2.255-1.039c-0.323-0.251-0.719-0.646-0.675-1.194
		c0.074-0.521,0.438-0.809,0.749-1.049l0.062-0.048l0.059,0.021l0.975,0.36l-0.027,0.096l-1.019-0.202l0.12-0.026
		c-0.26,0.259-0.494,0.587-0.471,0.865c0.018,0.266,0.274,0.485,0.578,0.65c0.618,0.322,1.386,0.489,2.097,0.584h0.001l-0.216,0.006
		c0.876-0.239,1.728-0.553,2.403-1.052c0.676-0.496,1.129-1.215,1.36-2.073c0.455-1.721,0.579-3.679,0.596-5.569
		c0.023-0.954-0.009-1.913,0.101-2.893c0.115-0.953,0.374-2.047,1.263-2.787c0.906-0.725,2.064-0.772,3.022-0.628
		c0.491,0.081,1.019,0.182,1.463,0.573c0.219,0.198,0.34,0.534,0.285,0.811c-0.045,0.278-0.187,0.499-0.361,0.679L35.793,94.438z"/>
</g>
<g>
	<path fill="#FFFFFF" d="M51.589,94.642c-0.175-0.18-0.316-0.399-0.362-0.678c-0.057-0.276,0.064-0.613,0.283-0.812
		c0.445-0.391,0.973-0.49,1.464-0.571c0.957-0.145,2.115-0.098,3.021,0.627c0.889,0.74,1.147,1.834,1.262,2.787
		c0.109,0.979,0.077,1.938,0.1,2.893c0.018,1.89,0.144,3.847,0.598,5.567c0.231,0.858,0.684,1.577,1.36,2.072
		c0.676,0.499,1.526,0.812,2.402,1.05l-0.214-0.006h0.001c0.711-0.094,1.479-0.26,2.098-0.582c0.303-0.164,0.559-0.385,0.575-0.65
		c0.021-0.278-0.213-0.606-0.474-0.865l0.121,0.026l-1.017,0.204l-0.027-0.096l0.972-0.362l0.059-0.021l0.063,0.048
		c0.311,0.24,0.675,0.527,0.751,1.047c0.046,0.548-0.351,0.946-0.674,1.196c-0.701,0.514-1.454,0.795-2.256,1.037l-0.002,0.001
		l-0.102,0.021l-0.113-0.026c-0.956-0.226-1.938-0.56-2.783-1.214c-0.86-0.647-1.4-1.672-1.612-2.657
		c-0.397-2.001,0.032-3.89-0.025-5.785c-0.01-0.943-0.146-1.89-0.403-2.776c-0.255-0.882-0.644-1.708-1.232-2.214
		c-0.589-0.517-1.483-0.643-2.389-0.628c-0.44,0.014-0.905,0.049-1.227,0.241c-0.348,0.154-0.349,0.647-0.137,1.066L51.589,94.642z"
		/>
</g>
<path fill="#1D1D1B" d="M39.473,5.069c-0.094,1.511-0.885,2.775-1.152,3.166c-0.683-0.494-1.258-1.379-0.75-2.918l1.847-0.105
	L39.473,5.069z"/>
<path fill="none" stroke="#FFFFFF" stroke-width="0.25" stroke-miterlimit="10" d="M40.267,10.981c0,0,1.56-4.233,1.696-9.523"/>
<path fill="none" stroke="#FFFFFF" stroke-width="0.25" stroke-miterlimit="10" d="M43.289,1.436
	c0.242,5.81-0.468,10.63-0.645,11.715"/>
<path fill="none" stroke="#FFFFFF" stroke-width="0.25" stroke-miterlimit="10" d="M48.957,8.329c0,0-0.671-1.438-0.396-3.116"/>
<path fill="none" stroke="#FFFFFF" stroke-width="0.25" stroke-miterlimit="10" d="M47.651,10.855c0,0-1.523-4.199-1.894-9.484"/>
<path fill="none" stroke="#FFFFFF" stroke-width="0.25" stroke-miterlimit="10" d="M44.809,13.349c0,0-0.602-5.404-0.099-12.09"/>
<polyline fill="none" stroke="#FFFFFF" stroke-width="0.5" stroke-miterlimit="10" points="42.126,113 42.092,112.715 
	40.99,102.664 40.974,102.561 41.169,100.158 42.082,88.674 42.174,87.559 "/>
<polyline fill="none" stroke="#FFFFFF" stroke-width="0.5" stroke-miterlimit="10" points="37.689,113.162 37.66,112.879 
	36.804,102.809 36.791,102.703 37.045,100.307 38.238,88.842 38.357,87.729 "/>
<polyline fill="none" stroke="#FFFFFF" stroke-width="0.5" stroke-miterlimit="10" points="45.498,87.57 46.102,88.654 
	46.246,100.197 46.394,102.547 46.394,102.584 45.536,112.758 45.498,113.242 "/>
<polyline fill="none" stroke="#FFFFFF" stroke-width="0.5" stroke-miterlimit="10" points="49.178,87.252 49.246,88.375 
	49.926,99.879 50.075,102.229 50.075,102.268 49.22,112.439 49.178,112.924 "/>
<g>
	<polygon fill="#1D1D1B" points="44.557,135.994 43.682,148.428 42.557,136.014 	"/>
</g>
<rect x="40.063" y="21.583" fill="#1D1D1B" width="6.686" height="1.281"/>
<rect x="40.972" y="17.918" fill="#1D1D1B" width="7.146" height="1.321"/>
<rect x="39.87" y="13.361" fill="#1D1D1B" width="6.632" height="1.378"/>
<polyline fill="none" stroke="#1D1D1B" stroke-width="0.25" stroke-miterlimit="10" points="42.174,24.427 37.575,102.719 
	38.542,112.785 "/>
<polyline fill="none" stroke="#1D1D1B" stroke-width="0.25" stroke-miterlimit="10" points="41.903,112.785 40.932,102.646 
	42.071,88.801 43.314,24.427 "/>
<polyline fill="none" stroke="#1D1D1B" stroke-width="0.25" stroke-miterlimit="10" points="44.809,24.427 46.394,103.178 
	45.536,112.758 "/>
<polyline fill="none" stroke="#1D1D1B" stroke-width="0.25" stroke-miterlimit="10" points="45.946,24.427 50.075,102.615 
	48.908,112.584 "/>
<path display="none" fill="#FFFFFF" stroke="#009FE3" stroke-width="0.5" stroke-miterlimit="10" d="M38.873,21.722
	c-0.006-0.063-0.011-0.124-0.016-0.184"/>
<path display="none" fill="#1D1D1B" stroke="#FFFFFF" stroke-width="0.25" stroke-miterlimit="10" d="M38.857,21.538
	c-0.126-1.466-0.197-2.271-0.197-2.271s-1.931-9.381-7.451-11.313c0,0-27.871-6.071,19.868-7.174
	c47.739-1.104,34.219,6.071,25.664,8.278c0,0-8.555,6.07-9.936,29.803c-1.377,23.731-4.965,81.129-4.965,81.129
	s-3.313,27.596-26.768,28.147C11.617,148.69,8.03,129.098,7.478,119.439c-0.552-9.659,0-85.545,0-85.545s3.036-15.729,17.661-15.454
	c14.625,0.276,20.697,5.243,20.42,14.901c-0.1,3.483-0.151,14.079-0.173,26.204c-0.002,0.743,0.002,1.552,0.001,2.305
	c-0.033,21.037,0.523,45.681,0.523,45.681s1.58,17.704-12.769,18.53c-14.35,0.829-15.324-14.347-15.324-14.347l-0.475-38.694
	c0,0,0.07-8.771,13.867-11.531l37.53-4.967l1.655-0.828l1.38,1.656l-0.828,1.655l-1.932,0.276l-20.696,1.931l-10.116,1.544
	l-6.165,0.94c0,0-11.866,1.38-11.59,9.935c0.275,8.554,1.104,38.079,1.104,38.079s3.586,9.66,9.933,9.107
	c6.348-0.552,7.451-3.587,7.727-10.211c0.159-3.825-0.51-29.306-1.104-50.136c-0.435-15.218-0.828-27.957-0.828-27.957
	s1.656-6.071-10.486-6.899c0,0-9.657,0.828-9.933,7.726c-0.277,6.899,1.099,86.524,1.456,89.733
	c0.341,3.077,1.782,12.335,15.829,10.553c0,0,12.603-2.478,12.049-16.827c-0.16-4.184-0.213-11.622-0.545-24.147"/>
<path display="none" fill="#1D1D1B" stroke="#FFFFFF" stroke-width="0.25" stroke-miterlimit="10" d="M22.655,89.052
	c0,1.237-1.228,2.239-2.741,2.239l0,0c-1.514,0-2.743-1.002-2.743-2.239V57.39c0-1.238,0.338-1.861,1.852-1.861l1.568,0.048
	c1.513,0,2.064,0.576,2.064,1.813V89.052z"/>
<path display="none" fill="#1D1D1B" stroke="#FFFFFF" stroke-width="0.25" stroke-miterlimit="10" d="M28.451,88.792
	c0,1.228-1.236,2.225-2.76,2.225l0,0c-1.524,0-2.76-0.997-2.76-2.225V57.373c0-1.229,0.493-1.844,2.017-1.844h1.664
	c1.524,0,1.839,0.615,1.839,1.844V88.792z"/>
<path display="none" fill="#1D1D1B" stroke="#FFFFFF" stroke-width="0.25" stroke-miterlimit="10" d="M34.5,88.539
	c0,1.218-1.276,2.207-2.851,2.207l0,0c-1.576,0-2.853-0.989-2.853-2.207V57.355c0-1.219,0.707-1.637,2.282-1.637h1.283
	c1.574,0,2.138,0.417,2.138,1.637V88.539z"/>
<path display="none" fill="#1D1D1B" stroke="#FFFFFF" stroke-width="0.25" stroke-miterlimit="10" d="M78.701,53.362
	c0,0,3.864-2.575,3.864,2.759c0,5.336-1.474,4.784-3.128,3.863l-2.208,0.369l-2.575-1.656l-4.6,0.369c0,0,0.736-2.208-0.184-2.76
	c-0.92-0.551,4.415-0.551,4.415-0.551l2.208-2.024L78.701,53.362z"/>
<path display="none" fill="#1D1D1B" stroke="#FFFFFF" stroke-width="0.25" stroke-miterlimit="10" d="M34.509,69.51l-1.319-0.754
	l-2.072,0.377l0.188,1.884l0.659,1.836l0.471,24.729c0,0,0,4.521-5.085,4.332c-5.088-0.188-6.594-2.827-6.594-2.827
	s-2.826,1.509-0.376,3.769c0,0,3.484,2.474,5.745,2.331c2.261-0.14,6.569-0.212,8.266-3.037c0,0,1.483-0.071,1.412-6.995
	c-0.07-6.922-0.142-22.394-0.142-22.394S35.827,70.216,34.509,69.51z"/>
<path display="none" fill="#1D1D1B" stroke="#FFFFFF" stroke-width="0.25" stroke-miterlimit="10" d="M28.17,73.17l-0.804-0.509
	l-1.262,0.254l0.114,1.274l0.401,1.24l0.288,16.718c0,0,0,3.058-3.099,2.93c-3.1-0.126-4.018-1.91-4.018-1.91
	s-1.722,1.019-0.229,2.547c0,0,2.123,1.673,3.5,1.577c1.378-0.095,4.002-0.146,5.036-2.054c0,0,0.903-0.049,0.86-4.729
	c-0.042-4.681-0.086-15.141-0.086-15.141S28.974,73.647,28.17,73.17z"/>
<path display="none" fill="#1D1D1B" stroke="#FFFFFF" stroke-width="0.25" stroke-miterlimit="10" d="M20.792,106.469
	c0,0,8.186,8.418,18.734,0.552v-6.622c0,0-3.621,9.106-15.112,4.415C24.414,104.813,17.486,101.088,20.792,106.469z"/>
<path display="none" stroke="#FFFFFF" stroke-width="0.25" stroke-miterlimit="10" d="M21.844,51.73c0,0.35-0.399,0.628-0.901,0.628
	h-0.605v3.192h-1.003v-3.192h-0.457c-0.502,0-0.901-0.278-0.901-0.628c0-0.342,0.399-0.621,0.901-0.621h2.065
	C21.445,51.109,21.844,51.388,21.844,51.73z"/>
<path display="none" stroke="#FFFFFF" stroke-width="0.25" stroke-miterlimit="10" d="M27.777,51.706
	c0,0.325-0.399,0.596-0.89,0.596h-0.65v3.179h-1.004v-3.179h-0.422c-0.49,0-0.89-0.271-0.89-0.596c0-0.325,0.399-0.597,0.89-0.597
	h2.077C27.377,51.109,27.777,51.381,27.777,51.706z"/>
<path display="none" stroke="#FFFFFF" stroke-width="0.25" stroke-miterlimit="10" d="M33.436,51.802
	c0,0.351-0.399,0.629-0.89,0.629h-0.605v3.256h-1.004v-3.256h-0.468c-0.49,0-0.89-0.278-0.89-0.629c0-0.342,0.399-0.621,0.89-0.621
	h2.077C33.036,51.181,33.436,51.46,33.436,51.802z"/>
<path display="none" fill="#1D1D1B" d="M33.885,61.136l35.604-4.705c0,0,1.426,1.664-0.049,2.424l-35.081,4.183l-0.475,0.95
	l-0.095-2.376L33.885,61.136z"/>
<path display="none" fill="#1D1D1B" stroke="#FFFFFF" stroke-width="0.25" stroke-miterlimit="10" d="M17.294,58.38
	c0,0,3.946,0.713,5.467-0.143c0,0,3.089,1.284,5.894-0.095c0,0,2.994,1.379,6.037-0.143"/>
<path display="none" fill="#1D1D1B" stroke="#FFFFFF" stroke-miterlimit="10" d="M50.741,79.271c0.674,0.229,1.375,0.351,2.09,0.337
	c-0.296,1.254-0.755,2.494-1.307,3.695c-0.028,0.082-0.069,0.147-0.109,0.216c-0.147,0.312-0.297,0.621-0.445,0.917
	c-0.107,0.203-0.229,0.42-0.35,0.621c-0.014,0.027-0.04,0.066-0.055,0.095v0.013c-0.404,0.715-0.836,1.363-1.294,1.982
	c-0.58,0.796-1.215,1.524-1.862,2.172c-0.472,0.458-0.943,0.89-1.442,1.281c-0.013,0-0.013,0-0.013,0
	c-2.266,1.781-4.68,2.671-6.649,2.577c-4.72-0.203-8.753-0.676-12.3-1.417C15.999,89.455,9.633,84.599,2,77.262
	c-3.883-3.735,0.662-12.157,5.679-19.534c0,0,5.276-6.772,11.169-9.833c5.894-3.062,11.146-0.92,14.882,5.175
	c2.724,4.438,14.704,15.143,14.461,15.413c-0.377,0.417-0.687,0.863-0.93,1.335c0,0.013,0,0.027-0.013,0.041
	c-0.081,0.364-0.135,0.742-0.149,1.106c-0.027,0.54,0.014,1.079,0.149,1.591v0.041c-0.081,0.35-0.135,0.714-0.149,1.064
	c-0.027,0.472,0,0.944,0.095,1.417c0.215,1.146,0.796,2.225,1.699,3.06c0.014,0.014,0.026,0.027,0.041,0.041
	c0.539,0.487,1.146,0.864,1.793,1.079C50.741,79.271,50.741,79.271,50.741,79.271z"/>
<g display="none">
	<path display="inline" fill="#1D1D1B" d="M53.276,79.581c-0.147,0.015-0.31,0.027-0.445,0.027c-0.715,0.014-1.416-0.107-2.09-0.337
		c0,0,0,0-0.014-0.014c-0.647-0.215-1.254-0.592-1.793-1.079c-0.015-0.014-0.027-0.027-0.041-0.041
		c-0.903-0.835-1.484-1.913-1.699-3.06c-0.445-0.864-0.647-1.823-0.593-2.792c0.027-0.541,0.134-1.066,0.296-1.579
		c0.095-0.283,0.216-0.58,0.351-0.849c0.013-0.013,0.013-0.027,0.013-0.041c0.243-0.472,0.553-0.917,0.93-1.335
		c0.243-0.27,0.513-0.513,0.783-0.729c0.202-0.162,0.403-0.296,0.606-0.417c-0.176-0.216-0.351-0.432-0.566-0.621
		c-0.053-0.054-0.095-0.122-0.148-0.175c-0.081-0.082-0.147-0.163-0.242-0.243c-0.297-0.336-0.634-0.674-0.984-0.985
		c-0.958-0.876-1.997-1.644-3.062-2.279c-0.027-0.013-0.041-0.027-0.068-0.041c-0.364-0.216-0.742-0.431-1.119-0.606
		c-0.486-0.243-0.971-0.472-1.457-0.648c-0.081-0.027-0.162-0.067-0.243-0.095c-0.512-0.202-1.038-0.391-1.564-0.538
		c-0.512-0.149-1.024-0.283-1.538-0.378c-0.593-0.121-1.187-0.202-1.78-0.256c-5.152-0.512-10.305,1.241-13.864,5.193
		c-6.218,6.877-5.247,17.897,2.157,24.586c0.607,0.554,1.242,1.051,1.902,1.511c6.757,4.731,15.645,4.531,21.458-0.555l0.014-0.013
		c0.216-0.189,0.418-0.376,0.62-0.579c0.243-0.217,0.472-0.473,0.702-0.714c0.121-0.123,0.228-0.23,0.323-0.352
		c0.176-0.202,0.338-0.419,0.485-0.634c0.067-0.082,0.135-0.148,0.188-0.229v-0.014c0.392-0.526,0.741-1.066,1.038-1.632
		c0.446-0.756,0.797-1.538,1.093-2.349l0.014-0.012c0.067-0.201,0.147-0.404,0.202-0.605c0.485-1.499,0.728-3.035,0.742-4.587
		C53.681,79.527,53.478,79.568,53.276,79.581z"/>
</g>
<g display="none">
	<path display="inline" fill="#1D1D1B" d="M57.591,77.248c-0.067,0.081-0.134,0.162-0.215,0.242
		c-0.54,0.595-1.147,1.067-1.821,1.405c-0.283,0.147-0.58,0.281-0.904,0.389c-0.242,0.081-0.512,0.148-0.768,0.203
		c-0.202,0.04-0.405,0.081-0.607,0.094c-0.147,0.015-0.31,0.027-0.445,0.027c-0.715,0.014-1.416-0.107-2.09-0.337
		c0,0,0,0-0.014-0.014c-0.647-0.215-1.254-0.592-1.793-1.079c-0.015-0.014-0.027-0.027-0.041-0.041
		c-0.283-0.038-0.566-0.12-0.85-0.215c0,0,0,0-0.014-0.014c-0.647-0.216-1.254-0.592-1.793-1.079
		c-1.294-1.173-1.929-2.832-1.834-4.518c0.014-0.364,0.068-0.742,0.149-1.107c0.013-0.013,0.013-0.025,0.013-0.04
		c0.243-0.472,0.554-0.918,0.931-1.335c0.243-0.269,0.512-0.512,0.782-0.728c0.203-0.162,0.405-0.296,0.607-0.419
		c-0.176-0.214-0.351-0.431-0.567-0.62c0.378-0.364,0.782-0.66,1.2-0.917c0.378-0.216,0.77-0.404,1.16-0.54
		c0.067-0.041,0.121-0.054,0.188-0.067c0.243-0.095,0.5-0.163,0.743-0.203c0.391-0.067,0.795-0.108,1.186-0.081
		c0.553-0.311,1.147-0.513,1.74-0.621c-1.768-1.551-3.777-2.657-5.867-3.291c-0.216-0.082-0.432-0.149-0.662-0.203
		c-0.269-0.067-0.525-0.134-0.796-0.188c-0.673-0.135-1.334-0.229-1.995-0.27c-0.486-0.042-0.944-0.054-1.403-0.042h-0.122
		c-0.809,0.027-1.604,0.122-2.387,0.284c-0.634,0.135-1.254,0.311-1.875,0.526c-0.296,0.094-0.607,0.216-0.903,0.365
		c-1.646,0.701-3.156,1.767-4.424,3.168c-5.166,5.732-4.316,14.917,1.888,20.527c3.128,2.818,7,4.194,10.722,4.155
		c0.418,0,0.823-0.028,1.241-0.068c0,0,0,0,0.013,0c0.405-0.041,0.822-0.107,1.228-0.177c0.256-0.039,0.499-0.093,0.714-0.16
		c0.77-0.162,1.511-0.419,2.213-0.715c0.04-0.014,0.081-0.042,0.121-0.055c0.512-0.229,0.999-0.484,1.457-0.77h0.013
		c1.065-0.646,2.037-1.443,2.9-2.399c0.013-0.027,0.039-0.041,0.054-0.068c0.795-0.903,1.443-1.874,1.956-2.898
		c0.512-1.053,0.891-2.172,1.104-3.345c0.014,0,0.014,0,0.014,0c0.217-1.08,0.297-2.187,0.23-3.291
		C57.861,76.911,57.726,77.073,57.591,77.248z"/>
</g>
<path display="none" fill="#1D1D1B" stroke="#FFFFFF" stroke-miterlimit="10" d="M57.847,65.475
	c-3.168-2.886-7.363-3.911-11.179-3.129c-0.148,0.027-0.284,0.054-0.432,0.081c-0.594,0.163-1.16,0.337-1.727,0.566
	c-0.013,0-0.013,0.013-0.027,0.013c-0.243,0.109-0.5,0.216-0.742,0.337c-0.257,0.122-0.526,0.243-0.769,0.405
	c-0.351,0.188-0.715,0.418-1.038,0.688c-0.513,0.351-0.999,0.77-1.43,1.228c-0.135,0.135-0.283,0.27-0.418,0.418
	c-4.559,5.058-4.019,12.987,1.214,17.708c2.306,2.078,5.139,3.211,7.971,3.358c0.566,0.041,1.133,0.027,1.698-0.014
	c0.176,0,0.353-0.026,0.526-0.04c0.108-0.014,0.23-0.042,0.337-0.054c0.446-0.068,0.878-0.148,1.309-0.271
	c0.188-0.039,0.378-0.094,0.553-0.162h0.014c0.324-0.106,0.648-0.215,0.958-0.351c0.594-0.229,1.16-0.498,1.712-0.835
	c0.986-0.594,1.89-1.323,2.687-2.212c0.524-0.58,0.982-1.2,1.36-1.848c0.013,0,0.013,0,0.013,0
	C63.446,76.358,62.489,69.642,57.847,65.475z M57.97,76.723c-0.109,0.188-0.244,0.351-0.379,0.525
	c-0.067,0.081-0.134,0.162-0.215,0.242c-0.54,0.595-1.147,1.067-1.821,1.405c-0.283,0.147-0.58,0.281-0.904,0.389
	c-0.242,0.081-0.512,0.148-0.768,0.203c-0.202,0.04-0.405,0.081-0.607,0.094c-0.147,0.015-0.31,0.027-0.445,0.027
	c-0.715,0.014-1.416-0.107-2.09-0.337c0,0,0,0-0.014-0.014c-0.647-0.215-1.254-0.592-1.793-1.079
	c-0.015-0.014-0.027-0.027-0.041-0.041c-0.903-0.835-1.484-1.913-1.699-3.06c-0.095-0.473-0.122-0.945-0.095-1.417
	c0.014-0.351,0.068-0.714,0.149-1.064v-0.041c0.013-0.014,0.013-0.027,0.013-0.041c0.243-1.011,0.743-1.968,1.497-2.805v-0.014
	c0.096-0.093,0.177-0.202,0.257-0.283c0.378-0.364,0.783-0.66,1.2-0.916c0.661-0.393,1.376-0.675,2.092-0.81
	c0.39-0.067,0.794-0.109,1.187-0.082c1.349,0,2.669,0.458,3.708,1.416C59.359,70.964,59.643,74.254,57.97,76.723z"/>
<g display="none">
	<g display="inline">
		<path fill="#1D1D1B" d="M8.156,73.702c-0.087-0.578,0.128,1.028-0.014-0.119c-0.1-0.798-0.178-1.599-0.253-2.4
			c-0.277-2.952-0.393-5.916-0.418-8.88C7.4,54.058,8.377,45.822,10.998,37.982c6.726-20.124,32.784-29.735,51.716-20.923
			C81.774,25.931,88.488,49.826,84,69.029c-3.914,16.748-17.442,28.122-23.944,43.621c-4.24,10.107-4.709,21.462-3.958,32.248
			c0.312,4.478,7.313,4.508,7,0c-0.77-11.048-0.146-22.176,4.593-32.349c3.347-7.184,8.486-13.329,12.957-19.813
			c10.957-15.893,14.942-35.51,8.802-54.081c-6.099-18.44-22.34-31.84-42.059-31.83c-10.482,0.005-22.472,4.023-30.663,10.59
			C9.843,22.934,5.747,30.781,3.306,39.13c-3.375,11.547-3.682,24.559-1.9,36.433C2.074,80.015,8.818,78.116,8.156,73.702
			L8.156,73.702z"/>
	</g>
</g>
<path display="none" fill="none" stroke="#FFFFFF" stroke-width="0.75" stroke-miterlimit="10" d="M1.187,75.178
	c0,0-1.252-16.542-0.647-20.167s0.73-14.375,5.855-24.5c0,0,4.25-12,21.25-19.5c0,0,18.25-7.5,31.625-2.5
	c0,0,21.625,5,30.375,30.125c0,0,6.875,18.926-1.25,39.338c0,0-4.625,11.912-12.25,20.662c0,0-9.625,13.5-11.125,20.75
	c0,0-3.5,15.523-1.875,25.512c0,0,0.125,2.738-2.875,3.363c0,0-3.75,0.125-4.125-2.75c0,0-1.25-11.25,0.25-19.875
	c0,0,1-9.375,6.375-19c0,0,13.875-19.625,15.5-23.75c0,0,8.5-13.625,7-26.5c0,0-0.171-18.265-10.625-30.375
	c0,0-10.133-11.625-25.066-12c0,0-13.652-3.375-30.73,11.25c0,0-11.408,9.695-11.328,33.375"/>
<ellipse display="none" fill="#FFFFFF" cx="53.139" cy="73.632" rx="6.375" ry="6.746"/>
</svg>
