<?xml version="1.0" encoding="utf-8"?>
<!-- Generator: Adobe Illustrator 15.0.0, SVG Export Plug-In  -->
<!DOCTYPE svg PUBLIC "-//W3C//DTD SVG 1.1//EN" "http://www.w3.org/Graphics/SVG/1.1/DTD/svg11.dtd" [
	<!ENTITY ns_flows "http://ns.adobe.com/Flows/1.0/">
]>
<svg version="1.1"
	 xmlns="http://www.w3.org/2000/svg" xmlns:xlink="http://www.w3.org/1999/xlink" xmlns:a="http://ns.adobe.com/AdobeSVGViewerExtensions/3.0/"
	 x="0px" y="0px" width="106px" height="113px" viewBox="-2.665 0.585 106 113" enable-background="new -2.665 0.585 106 113"
	 xml:space="preserve">
<defs>
</defs>
<polygon fill="#FFFFFF" points="33.648,72.21 25.46,75.147 12.398,88.522 25.46,98.022 37.148,85.116 38.148,75.647 86.685,20.554 
	82.992,17.397 "/>
<path fill="#FFFFFF" d="M24.398,101.585l5.063,1.375l-1.188,5.25l-2.688,2.375H13.05c0,0-5.271-3.437-5.757-3.891
	s-4.035-4.68-4.586-5.725s1.379-2.385,1.379-2.385h11.948L24.398,101.585z"/>
<path fill="#1D1D1B" d="M97.446,12.045c-0.511-0.62-1.45-0.63-2.101-0.03c-0.05,0.05-0.1,0.1-0.13,0.15l-0.29-0.31
	c0.03-0.08,0.101-0.14,0.17-0.18l-0.02-0.02l-0.42,0.47l0.35,0.35c-0.31,0.55-0.3,1.23,0.08,1.7c0.12,0.07,0.23,0.17,0.32,0.29
	c0.529,0.35,1.26,0.27,1.79-0.23C97.845,13.635,97.956,12.655,97.446,12.045z M95.085,14.175c-0.49-0.32-1.19-0.27-1.73,0.17
	c-0.06,0.05-0.119,0.1-0.17,0.16l-0.33-0.35l-0.26,0.28l0.36,0.37c-0.33,0.54-0.351,1.21,0,1.69c0.46,0.63,1.39,0.7,2.07,0.14
	c0.689-0.55,0.859-1.51,0.399-2.15c-0.01-0.01-0.01-0.02-0.02-0.02c-0.11-0.06-0.21-0.15-0.301-0.26
	C95.095,14.195,95.085,14.185,95.085,14.175z M93.475,13.445l-0.02,0.02c0.01,0,0.02-0.01,0.03-0.01L93.475,13.445z M91.196,16.725
	l-0.33-0.34l-0.25,0.27l0.31,0.33c-0.47,0.57-0.54,1.35-0.149,1.87c0.46,0.6,1.369,0.62,2.05,0.05c0.67-0.57,0.84-1.51,0.38-2.11
	C92.755,16.205,91.866,16.175,91.196,16.725z M91.885,15.235l-0.1,0.12c0.03-0.04,0.069-0.07,0.12-0.1L91.885,15.235z
	 M91.786,15.355l-0.101,0.11l0.021,0.02C91.725,15.435,91.746,15.395,91.786,15.355z M88.845,19.065l-0.18-0.18
	c0.01-0.02,0.03-0.03,0.05-0.04l-0.02-0.02l-0.29,0.33l0.189,0.19c-0.439,0.63-0.43,1.45,0.03,1.94c0.53,0.55,1.44,0.48,2.05-0.16
	c0.61-0.65,0.68-1.61,0.15-2.16C90.316,18.435,89.456,18.485,88.845,19.065z M90.295,17.035l-0.08,0.08
	c0.021-0.03,0.061-0.05,0.09-0.07L90.295,17.035z M90.145,17.195l-0.06,0.07l0.01,0.01C90.105,17.245,90.125,17.215,90.145,17.195z"
	/>
<path fill="#1D1D1B" stroke="#FFFFFF" stroke-width="0.25" stroke-miterlimit="10" d="M101.866,7.225
	c-0.511-0.59-1.46-0.55-2.13,0.09c-0.03,0.03-0.061,0.06-0.091,0.1l-0.319-0.32c0.95-1.22,1.64-2.43,1.68-3.07
	c0.11-2.15-1.71-3.9-3.82-3.9c-2.1,0-3.56,1.41-4.52,3.33c-0.15,0.3-0.25,0.71-0.3,1.19c-0.221,0.27-0.57,0.54-1.16,0.73
	c0,0-3.53,1.42-3.54,1.42c-1.46,0.66-3.2,0.87-5.33,3.16c-0.06,0.07,1.37,4.92,0.5,7.09l-49.1,54.3
	c-1.65-3.385-4.9-4.26-4.525-7.635c0.391-3.518,5.325-5.955,3.125-6.375c-2.93-0.57-9.93,3.32-13.23,7.03
	c-3.89,4.47-1.39,7.399-4,10.35c-1.66,1.87-3.66,3.25-5.86,4.13l-0.02,0.11c-2.25,0.7-4.26,1.93-5.85,3.72
	c-5.63,6.36-3.76,17.21,4.17,24.25c7.94,7.04,18.94,7.62,24.58,1.271c1.57-1.78,3.16-6.24,3.26-6.36c0.66-1.99,1.72-3.88,3.19-5.54
	c2.47-2.78,5.16-0.78,9.47-5.26c0,0,6.3-8.03,5.79-11.03c-1.27-7.55-4.333,6.247-11.667,4.413c-2.048-0.513-6.144-4.763-3.304-8.583
	l47.791-54.79l0.029,0.04l1.71-1.94l0.011,0.01l0.29-0.33l-0.011-0.01l1.391-1.56l0.01,0.01l0.06-0.07
	c0.011-0.03,0.04-0.06,0.07-0.08l0.08-0.08l-0.01-0.01l0.33-0.37l0.25-0.27l-0.011-0.01l0.82-0.92l0.01,0.01l0.101-0.11l0.1-0.12
	h-0.01l0.72-0.8l0.26-0.28l-0.01-0.01l0.351-0.39c0.04-0.13,0.13-0.23,0.26-0.29l0.02-0.02l-0.01-0.01l1.18-1.32l0.011,0.01
	l0.42-0.47l-0.01-0.01l1.34-1.52h0.01c0.01-0.04,0.02-0.08,0.04-0.12c0.09-0.07,0.17-0.13,0.26-0.21c0.03-0.02,0.07-0.04,0.101-0.07
	l0.439,0.46c-0.33,0.58-0.3,1.3,0.12,1.78c0.53,0.61,1.47,0.61,2.11,0c0.63-0.61,0.72-1.6,0.189-2.21c-0.52-0.61-1.47-0.61-2.1,0
	c-0.04,0.04-0.08,0.08-0.101,0.12l-0.37-0.39c0.69-0.61,1.381-1.35,1.99-2.1l0.32,0.34c-0.38,0.6-0.38,1.33,0.03,1.8
	c0.5,0.59,1.449,0.55,2.12-0.09C102.236,8.795,102.366,7.805,101.866,7.225z M14.125,109.215c-0.48,0.54-1.52,0.49-2.8-0.06
	c1.02,0.34,1.83,0.31,2.23-0.15c0.86-0.96-0.44-3.53-2.91-5.71c-2.46-2.18-5.14-3.17-6-2.2c-0.43,0.49-0.33,1.33,0.18,2.36
	c-0.76-1.26-0.98-2.37-0.49-2.92c0.9-1.021,3.83,0.1,6.53,2.5C13.565,105.425,15.016,108.205,14.125,109.215z M97.986,5.545
	c0.47,0,0.85,0.38,0.85,0.85c0,0.47-0.38,0.86-0.85,0.86c-0.471,0-0.86-0.39-0.86-0.86C97.125,5.925,97.515,5.545,97.986,5.545z
	 M95.685,8.005c0.48,0,0.86,0.38,0.86,0.85s-0.38,0.86-0.86,0.86c-0.47,0-0.85-0.39-0.85-0.86S95.215,8.005,95.685,8.005z
	 M93.526,10.335c0.47,0,0.85,0.38,0.85,0.85c0,0.48-0.38,0.86-0.85,0.86c-0.471,0-0.86-0.38-0.86-0.86
	C92.666,10.715,93.055,10.335,93.526,10.335z M91.605,12.545c0.471,0,0.86,0.38,0.86,0.85c0,0.47-0.39,0.86-0.86,0.86
	c-0.47,0-0.85-0.39-0.85-0.86C90.755,12.925,91.135,12.545,91.605,12.545z M89.605,14.665c0.471,0,0.86,0.39,0.86,0.86
	c0,0.47-0.39,0.85-0.86,0.85c-0.47,0-0.85-0.38-0.85-0.85C88.755,15.055,89.135,14.665,89.605,14.665z M87.486,17.215
	c0.47,0,0.85,0.38,0.85,0.85s-0.38,0.85-0.85,0.85c-0.48,0-0.86-0.38-0.86-0.85S87.005,17.215,87.486,17.215z M16.005,87.375
	c0.72-0.82,0.97-1.01,5.95,3.46c4.88,4.39,4.96,4.58,4.15,5.5c-0.88,0.99-0.83,1.08-5.96-3.46
	C15.186,88.465,15.065,88.415,16.005,87.375z M22.115,108.805c-0.45,0.521-1.27,0.561-1.8,0.07c-0.55-0.47-0.61-1.29-0.16-1.79
	c0.45-0.51,1.26-0.55,1.81-0.07C22.505,107.505,22.565,108.305,22.115,108.805z M26.135,109.055c-0.46,0.521-1.26,0.54-1.81,0.07
	c-0.53-0.49-0.61-1.29-0.15-1.82c0.45-0.51,1.26-0.52,1.8-0.05C26.525,107.755,26.585,108.545,26.135,109.055z M27.436,105.075
	c-0.46,0.51-1.26,0.55-1.81,0.05c-0.54-0.47-0.61-1.28-0.15-1.79c0.46-0.53,1.26-0.54,1.8-0.07
	C27.826,103.755,27.896,104.555,27.436,105.075z M30.306,91.665c-0.88,1-0.81,1.12-5.95-3.45c-4.96-4.41-5.08-4.45-4.14-5.5
	c0.72-0.81,0.97-1,5.94,3.48C31.045,90.585,31.115,90.755,30.306,91.665z M34.956,86.515c-0.87,0.99-0.8,1.101-5.94-3.47
	c-4.95-4.38-5.08-4.43-4.15-5.49c0.73-0.8,0.98-1.01,5.95,3.48C35.695,85.415,35.775,85.595,34.956,86.515z M38.235,75.025
	l-3.64-3.24l0.75-0.851l3.65,3.24L38.235,75.025z M39.425,73.735l-3.65-3.24l0.79-0.88l3.64,3.229L39.425,73.735z M40.565,72.445
	l-3.64-3.24l0.82-0.93l3.65,3.239L40.565,72.445z M41.715,71.175l-3.64-3.24l0.79-0.899l3.65,3.24L41.715,71.175z M42.855,69.854
	l-3.62-3.22l0.72-0.81l3.63,3.22L42.855,69.854z M43.985,68.625l-3.62-3.22l0.81-0.92l3.63,3.22L43.985,68.625z M45.135,67.354
	l-3.63-3.22l0.71-0.8l3.63,3.22L45.135,67.354z M46.266,66.104l-3.63-3.22l0.75-0.84l3.62,3.22L46.266,66.104z M47.396,64.815
	l-3.62-3.221l0.75-0.84l3.62,3.22L47.396,64.815z M48.505,63.604l-3.68-3.27l0.77-0.86l3.68,3.261L48.505,63.604z M49.635,62.295
	l-3.68-3.26l0.8-0.9l3.68,3.26L49.635,62.295z M50.826,60.915l-3.66-3.25l0.8-0.9l3.66,3.25L50.826,60.915z M52.005,59.565
	l-3.61-3.21l1-1.12l3.61,3.2L52.005,59.565z M53.365,58.025l-3.6-3.21l0.92-1.03l3.61,3.2L53.365,58.025z M54.726,56.425l-3.56-3.15
	l1.11-1.25l3.55,3.16L54.726,56.425z M56.246,54.705l-3.55-3.15l1.22-1.37l3.55,3.15L56.246,54.705z M57.895,52.855l-3.56-3.15
	l1.43-1.62l3.561,3.16L57.895,52.855z M59.736,50.705l-3.48-3.1l1.67-1.88l3.49,3.09L59.736,50.705z M61.866,48.235l-3.431-3.04
	l1.801-2.03l3.43,3.04L61.866,48.235z M64.085,45.625l-3.36-2.98l2.15-2.42l3.36,2.98L64.085,45.625z M66.625,42.765l-3.32-2.95
	l2.13-2.4l3.33,2.95L66.625,42.765z M69.206,39.835l-3.28-2.91l2.33-2.62l3.271,2.9L69.206,39.835z M72.036,36.635l-3.271-2.91
	l2.32-2.61l3.27,2.91L72.036,36.635z M74.855,33.345l-3.199-2.84l2.279-2.56l3.2,2.84L74.855,33.345z M77.645,30.175l-3.17-2.81
	l2.25-2.53l3.16,2.81L77.645,30.175z M80.465,26.895l-3.16-2.81l2.3-2.59l3.171,2.81L80.465,26.895z M83.355,23.735l-3.149-2.79
	l2.63-2.96l3.15,2.79L83.355,23.735z"/>
<path fill="none" stroke="#FFFFFF" stroke-width="2" stroke-miterlimit="10" d="M23.524,98.912c0,0,8.642,2.867,11.222,2.337
	c2.58-0.531,7.624-4.023,7.624-4.023"/>
<path fill="none" stroke="#1D1D1B" stroke-width="2" stroke-miterlimit="10" d="M34.814,101.207
	c2.784-0.733,7.723-4.131,7.723-4.131"/>
<path fill="#FFFFFF" d="M95.406,14.465c-0.11-0.06-0.21-0.15-0.301-0.26c-0.01-0.01-0.02-0.02-0.02-0.03
	C95.206,14.245,95.316,14.345,95.406,14.465z"/>
<path fill="#FFFFFF" d="M95.406,14.465c-0.11-0.06-0.21-0.15-0.301-0.26c-0.01-0.01-0.02-0.02-0.02-0.03
	C95.206,14.245,95.316,14.345,95.406,14.465z"/>
<polygon fill="#FFFFFF" points="88.395,19.145 88.406,19.155 86.685,21.085 "/>
<rect x="89.379" y="16.995" transform="matrix(-0.6897 -0.7241 0.7241 -0.6897 137.9676 95.2091)" fill="#FFFFFF" width="0.014" height="2.089"/>
<polygon fill="#FFFFFF" points="90.286,17.025 90.616,16.655 90.295,17.035 "/>
<rect x="91.264" y="15.304" transform="matrix(-0.7071 -0.7071 0.7071 -0.7071 144.5514 91.715)" fill="#FFFFFF" width="0.014" height="1.232"/>
<polygon fill="#FFFFFF" points="91.875,15.235 92.595,14.435 91.885,15.235 "/>
<polygon fill="#FFFFFF" points="92.845,14.145 93.196,13.755 92.855,14.155 "/>
<path fill="#FFFFFF" d="M93.456,13.465l-0.26,0.29C93.236,13.625,93.326,13.525,93.456,13.465z"/>
<rect x="94.053" y="11.894" transform="matrix(-0.7234 -0.6905 0.6905 -0.7234 153.2748 86.9703)" fill="#FFFFFF" width="0.015" height="1.771"/>
<path fill="#FFFFFF" d="M96.715,9.795l-1.64,1.86l-0.01-0.01l1.34-1.52h0.01c0.01-0.04,0.02-0.08,0.04-0.12
	C96.545,9.935,96.625,9.875,96.715,9.795z"/>
<polygon display="none" fill="#FFFFFF" points="76.46,20.751 78.335,19.335 85.585,16.376 87.877,18.21 87.127,20.168 
	81.502,27.585 79.96,27.96 78.294,26.876 "/>
<path display="none" fill="#FFFFFF" d="M11.673,97.126c0,0-6.339-8.125-4.421-12.624c0,0,0.833-6.125,7.625-6.875l4.792,4.5
	l9.792-11.292l3.667,0.333l41.542-45.271l3.083,2.625l-41,45.979l-0.5,4.834l-7.354,11.062l2.703,2.313c0,0-0.349,5.333-3.599,7.438
	c0,0-3.896,2.584-8.896,1.167c0,0-3.812-1.48-5.104-2.521l-0.672-0.229L11.673,97.126z"/>
<path display="none" fill="#1D1D1B" d="M90.663,18.76c-0.678,0.004-1.293,0.32-1.705,0.81l-0.602-0.452
	c0.923-1.947,0.315-4.301-1.53-5.552c-1.26-0.839-2.477-1.334-3.517,0.015c-1.862,2.449-0.062,2.709-1.229,3.771
	c-1.247,1.151-1.694-0.101-4.847,2.021l-0.474-0.492c0.237-0.346,0.378-0.786,0.375-1.242c-0.008-1.23-1.021-2.222-2.259-2.215
	c-1.239,0.008-2.232,1.014-2.224,2.244c0.007,1.231,1.013,2.223,2.253,2.215c0.479-0.003,0.907-0.158,1.268-0.4l0.369,0.382
	c-0.39,0.29-0.827,0.628-1.295,1.023c-1.313,1.095-1.335,2.893-0.628,4.454l-0.182,0.297l0.009,0.016L32.902,70.752
	c-0.611-0.547-1.206-1.063-1.8-1.531c-0.558-0.946-2.832-1.66-0.292-5.688c1.511-2.393-4.077-0.31-5.982,1.78
	c-0.563,0.62-2.479,2.271-3.499,3.985c-1.607,2.393-0.406,3.92-2.112,5.785c-0.866,0.947-1.811,1.712-2.936,2.03
	c0.007,0.009,0.007,0.025,0.007,0.041h-0.007c-0.264-0.014-0.512,0.052-0.768,0.061c-0.199,0.008-0.391,0.026-0.59,0.051
	c-2.324,0.216-4.396,1.245-5.927,2.915c-3.992,4.373-2.591,12.147,3.124,17.368c5.715,5.223,13.583,5.915,17.574,1.551
	c1.365-1.496,2.095-3.379,2.25-5.424c-0.007-0.01-0.007-0.01-0.007-0.01c0.036-0.495,0.041-0.989,0.005-1.493v-0.08h-0.007
	c-0.011-0.304-0.044-0.616-0.094-0.919c0.016,0,0.023-0.008,0.031-0.016c0,0,0.049-1.063,1.82-2.688
	c2.01-1.854,4.225-0.46,6.227-2.223l0.008-0.009c1.646-1.336,2.836-2.679,3.46-3.729c1.431-2.438,3.481-7.837,1.239-6.129
	c-3.61,2.765-4.614,0.893-5.568,0.299c-0.5-0.588-1.063-1.175-1.665-1.764c-0.082-0.078-0.162-0.158-0.242-0.229l40.741-45.833
	l0.015,0.039l0.357-0.402l0.088-0.064c1.127,0.225,2.302,0.049,3.313-0.485l0.683,0.604c-0.221,0.345-0.346,0.752-0.343,1.2
	c0.007,1.223,1.021,2.215,2.259,2.207c1.239-0.008,2.224-1.013,2.215-2.235c-0.008-1.24-1.005-2.231-2.243-2.224
	c-0.495,0.003-0.95,0.166-1.315,0.44L82.4,27.458c0.365-0.29,0.699-0.627,0.983-1.037l0.008,0.009l1.427-2.072l0.529,0.413
	c-0.063,0.192-0.095,0.4-0.093,0.616c0.008,1.238,1.022,2.23,2.26,2.222c1.24-0.007,2.231-1.013,2.225-2.251
	c-0.009-1.23-1.016-2.215-2.252-2.207c-0.72,0.004-1.35,0.328-1.754,0.85l-0.44-0.333l2.62-3.836l0.634,0.492
	c-0.063,0.224-0.101,0.448-0.099,0.688c0.008,1.23,1.005,2.214,2.243,2.207c1.239-0.008,2.24-1.005,2.232-2.236
	C92.915,19.752,91.901,18.751,90.663,18.76z M22.992,79.285c0.302-0.345,0.692-0.531,1.036-0.533
	c0.184-0.002,0.352,0.053,0.48,0.165l5.906,5.18c0.371,0.333,0.295,1.029-0.165,1.56c-0.469,0.529-1.147,0.695-1.524,0.36
	l-5.898-5.179C22.448,80.511,22.523,79.816,22.992,79.285z M20.54,83.137l5.907,5.182c0.37,0.334,0.293,1.027-0.166,1.559
	c-0.468,0.529-1.147,0.693-1.523,0.359l-5.899-5.18c-0.378-0.324-0.302-1.02,0.166-1.551c0.301-0.345,0.691-0.53,1.035-0.532
	C20.243,82.972,20.412,83.027,20.54,83.137z M31.187,93.505c-0.045,0.585-0.137,1.152-0.286,1.703
	c-0.038,0.169-0.085,0.336-0.14,0.497c-0.345,1.153-0.921,2.211-1.738,3.119c-3.396,3.754-9.758,3.579-14.92-0.153
	c0.152,0.058,0.304,0.103,0.456,0.142c1.153,0.29,2.222,0.074,2.825-0.665c0.958-1.187,0.322-3.302-1.429-4.712
	c-1.752-1.412-3.95-1.59-4.909-0.4c-0.468,0.578-0.558,1.386-0.322,2.215v0.009c0.042,0.135,0.09,0.262,0.139,0.391
	c-3.125-3.792-4.225-8.468-2.954-12.096c0.007-0.008,0.007-0.024,0.015-0.04c0.04-0.111,0.079-0.224,0.125-0.336
	c0.347-0.922,0.86-1.78,1.535-2.528c1.356-1.502,3.172-2.449,5.216-2.718c0.016,0.016,0.024,0.031,0.04,0.047
	c0.555,0.39,4.618,4.805,4.658,4.846c-0.296,0.034-1.042,0.806-1.136,1.181c-0.054,0.193-0.077,0.354-0.077,0.488
	c0.147,0.335,0.405,0.646,0.582,0.804l5.554,4.936c0.145,0.135,0.433,0.323,0.746,0.474c0.328,0.039,0.688-0.02,0.998-0.236
	c0.262-0.179,0.659-0.621,0.698-0.876c0.522,0.489,4.135,3.146,4.343,3.231c0.001,0.224-0.014,0.446-0.027,0.671
	C31.178,93.496,31.178,93.496,31.187,93.505z M34.327,81.162c-0.467,0.531-1.146,0.696-1.522,0.37l-5.907-5.181
	c-0.37-0.325-0.294-1.021,0.173-1.55c0.302-0.348,0.691-0.534,1.036-0.535c0.184-0.001,0.352,0.054,0.48,0.164l5.907,5.181
	C34.863,79.937,34.787,80.633,34.327,81.162z M35.048,72.728c-0.53-0.493-1.062-0.977-1.568-1.443l0.326-0.363l3.173,2.688
	l-0.444,0.491C36.054,73.641,35.555,73.188,35.048,72.728z M37.353,73.24l-3.174-2.69l0.682-0.746l3.15,2.689L37.353,73.24z
	 M38.328,72.155l-3.157-2.696l0.698-0.78l3.174,2.696L38.328,72.155z M39.321,71.095l-3.167-2.705l0.674-0.757l3.183,2.688
	L39.321,71.095z M40.296,69.978l-3.149-2.681l0.627-0.676l3.15,2.674L40.296,69.978z M41.273,68.939l-3.149-2.68l0.698-0.781
	l3.15,2.689L41.273,68.939z M42.249,67.869l-3.149-2.679l0.611-0.675l3.158,2.681L42.249,67.869z M43.226,66.81l-3.158-2.672
	l0.642-0.709l3.15,2.681L43.226,66.81z M44.193,65.725l-3.149-2.672l0.65-0.708l3.149,2.672L44.193,65.725z M45.153,64.713
	l-3.206-2.715l0.667-0.738l3.197,2.72L45.153,64.713z M46.113,63.61l-3.198-2.712l0.69-0.756l3.198,2.704L46.113,63.61z
	 M47.137,62.445l-3.183-2.713l0.691-0.747l3.182,2.697L47.137,62.445z M48.152,61.304l-3.142-2.672l0.857-0.933l3.133,2.657
	L48.152,61.304z M49.318,60.011l-3.133-2.674l0.794-0.868l3.133,2.666L49.318,60.011z M50.485,58.661l-3.102-2.619l0.96-1.06
	l3.085,2.633L50.485,58.661z M51.786,57.213l-3.078-2.616l1.04-1.158l3.085,2.618L51.786,57.213z M53.206,55.646l-3.102-2.609
	l1.23-1.359l3.094,2.625L53.206,55.646z M54.792,53.831l-3.029-2.563l1.428-1.583l3.028,2.562L54.792,53.831z M56.608,51.766
	l-2.98-2.531l1.54-1.72l2.989,2.539L56.608,51.766z M58.513,49.571l-2.917-2.483l1.84-2.041l2.918,2.482L58.513,49.571z
	 M60.696,47.16L57.81,44.7l1.833-2.024l2.885,2.451L60.696,47.16z M62.908,44.685l-2.852-2.428l2-2.186l2.836,2.403L62.908,44.685z
	 M65.33,41.992l-2.837-2.412l1.99-2.21l2.845,2.427L65.33,41.992z M67.755,39.22l-2.78-2.364l1.968-2.154l2.766,2.364L67.755,39.22z
	 M70.143,36.551l-2.747-2.332l1.929-2.138l2.748,2.333L70.143,36.551z M72.564,33.779l-2.74-2.34l1.977-2.162l2.754,2.331
	L72.564,33.779z M75.047,31.134l-2.74-2.332l2.254-2.484l2.74,2.316L75.047,31.134z M78.314,22.155
	c-0.615,0.004-1.105-0.48-1.11-1.087c-0.004-0.615,0.481-1.106,1.097-1.109c0.607-0.005,1.097,0.48,1.102,1.095
	C79.407,21.661,78.92,22.151,78.314,22.155z M80.62,27.566c-0.616,0.004-1.106-0.48-1.11-1.087c-0.004-0.615,0.48-1.106,1.095-1.11
	c0.607-0.004,1.107,0.48,1.111,1.095C81.718,27.071,81.225,27.563,80.62,27.566z M83.322,24.257
	c-0.607,0.003-1.104-0.489-1.109-1.088c-0.005-0.615,0.488-1.105,1.097-1.109c0.615-0.003,1.105,0.48,1.109,1.096
	C84.422,23.754,83.938,24.253,83.322,24.257z M86.212,19.971c-0.607,0.004-1.101-0.48-1.104-1.088
	c-0.004-0.615,0.482-1.105,1.089-1.109c0.615-0.004,1.105,0.48,1.109,1.095C87.31,19.476,86.827,19.967,86.212,19.971z"/>
<path display="none" fill="none" stroke="#FFFFFF" stroke-width="0.25" stroke-miterlimit="10" d="M11.976,97.397
	c0,0-2.582-2.581-3.414-4.324c0,0-1.904-3.441-1.839-6.301c0,0-0.307-3.289,1.84-6.074c0,0,2.021-2.9,5.928-3.382
	c0,0,1.68-0.136,2.05-0.285c0,0,1.28-0.615,1.753-1.048c0,0,1.799-1.24,1.982-3.335c0,0,0.061-2.641,2.05-4.729
	c0,0,2.905-3.321,4.45-4.101c0,0,2.246-1.181,2.995-1.266c0,0,1.458-0.358,1.284,0.423l-0.063,0.21l-0.123,0.247
	c0,0-0.855,1.416-1.016,2.018c0,0-0.785,1.809,0.567,3.003l2.481,2.299l2.079-2.256l39.465-42.84l0.173-0.313
	c0,0-1.247-2.322,0.211-4.031l1.712-1.446l-0.369-0.382c0,0-1.616,1.068-2.945-0.337s0.008-3.101,0.365-3.309
	c0,0,1.216-0.919,2.597,0s0.847,2.545,0.735,2.752l-0.165,0.291l0.474,0.492c0,0,1.693-1.047,2.341-1.199
	c0,0,1.004-0.236,1.469-0.272c0,0,0.838-0.213,1.127-0.636c0,0,0.588-0.246,0.252-1.385c0,0-0.07-0.679,0.219-1.216
	c0,0,0.576-0.983,0.729-1.157c0,0,0.746-0.977,1.856-0.716c0,0,1.835,0.534,2.809,1.983c0,0,0.907,1.389,0.737,2.748
	c0,0-0.129,1.111-0.415,1.594l0.602,0.452c0,0,1.188-1.456,2.893-0.478s0.929,3.045,0.629,3.23c0,0-1.335,1.755-3.247,0.369
	c0,0-1.146-0.862-0.686-2.367l-0.634-0.492l-2.62,3.836l0.44,0.333c0,0,1.585-1.924,3.523-0.006c0,0,1.272,1.695-0.332,3.104
	c0,0-1.362,1.134-2.835,0.013c0,0-1.152-0.888-0.742-2.34l-0.529-0.413l-1.289,1.872c0,0-0.736,0.977-1.129,1.229l0.522,0.477
	c0,0,1.96-1.42,3.343,0.833c0,0,0.963,1.903-1.14,3.008c0,0-2.304,0.868-3.078-1.631c0,0-0.136-1.029,0.303-1.6l-0.683-0.604
	c0,0-1.434,0.828-3.313,0.485l-0.648,0.638L37.154,74.688c0,0,2.13,2.253,2.688,2.598c0,0,1.258,1.13,3.001,0.207
	c0,0,1.707-0.917,1.912-1.201c0,0,0.708-0.595,0.855,0.107c0,0,0.024,0.475-0.071,0.878c0,0-0.47,1.608-0.61,1.965
	c0,0-1.452,3.574-2.296,4.342c0,0-2.239,2.367-2.833,2.767c0,0-0.774,0.819-3.104,0.988c0,0-2.006,0.074-3.002,1.134
	c0,0-2.019,1.721-1.791,3.159c0,0,0.157,2.909-0.364,4.22c0,0-0.981,3.131-3.312,4.519c0,0-2.43,2.009-6.927,1.526
	c0,0-3.758-0.365-7.01-2.643C14.291,99.253,12.289,97.851,11.976,97.397z"/>
<path display="none" fill="#FFFFFF" stroke="#1D1D1B" stroke-miterlimit="10" d="M94.968,43.376
	c-10.107,9.943-17.911,8.964-31.451-2.208C49.713,29.778,51.092,20.103,61.203,10.16C71.311,0.216,87.065-0.409,96.387,8.763
	C105.713,17.937,105.079,33.432,94.968,43.376z"/>
<g display="none">
	<path display="inline" fill="#1D1D1B" d="M92.507,5.531c-2.729,0.957-5.511,1.675-8.331,2.221c-1.417,0.241-2.851,0.409-4.26,0.684
		c-1.41,0.273-2.799,0.645-4.182,1.041c-2.763,0.806-5.551,1.493-8.354,2.117c-2.814,0.572-5.643,1.08-8.515,1.392l-0.021-0.098
		c2.734-0.931,5.513-1.665,8.306-2.335c2.804-0.619,5.622-1.174,8.467-1.61c1.421-0.226,2.836-0.475,4.229-0.823
		c1.394-0.346,2.764-0.799,4.15-1.18c2.786-0.696,5.611-1.221,8.489-1.506L92.507,5.531z"/>
</g>
<g display="none">
	<path display="inline" fill="#1D1D1B" d="M97.42,10.262c-3.481,1.106-7.01,1.994-10.58,2.692c-1.792,0.319-3.6,0.566-5.384,0.919
		c-1.783,0.36-3.548,0.803-5.306,1.276c-3.512,0.963-7.051,1.807-10.603,2.588c-3.563,0.729-7.142,1.394-10.762,1.862l-0.021-0.098
		c3.485-1.088,7.013-1.979,10.555-2.806c3.554-0.776,7.121-1.488,10.714-2.081c1.795-0.305,3.583-0.641,5.354-1.058
		c1.769-0.425,3.514-0.956,5.274-1.415c3.536-0.859,7.112-1.526,10.737-1.977L97.42,10.262z"/>
</g>
<g display="none">
	<path display="inline" fill="#1D1D1B" d="M101.443,15.849c-3.913,1.197-7.874,2.176-11.877,2.964
		c-2.008,0.364-4.031,0.656-6.031,1.055c-1.999,0.405-3.979,0.894-5.954,1.412c-3.944,1.054-7.915,1.989-11.899,2.859
		c-3.995,0.82-8.005,1.575-12.058,2.134l-0.021-0.098c3.917-1.179,7.878-2.16,11.852-3.078c3.986-0.866,7.985-1.669,12.011-2.352
		c2.011-0.351,4.015-0.731,6.001-1.194c1.984-0.47,3.946-1.047,5.923-1.551c3.968-0.949,7.977-1.708,12.033-2.248L101.443,15.849z"
		/>
</g>
<g display="none">
	<path display="inline" fill="#1D1D1B" d="M102.463,21.049c-3.831,1.24-7.712,2.264-11.637,3.097
		c-1.97,0.387-3.956,0.702-5.918,1.123c-1.96,0.428-3.9,0.938-5.835,1.479c-3.863,1.098-7.755,2.077-11.66,2.993
		c-3.919,0.864-7.852,1.665-11.83,2.27l-0.023-0.098c3.835-1.222,7.715-2.248,11.61-3.21c3.907-0.911,7.829-1.759,11.779-2.487
		c1.973-0.374,3.938-0.776,5.885-1.262c1.945-0.492,3.865-1.091,5.803-1.617c3.888-0.994,7.82-1.797,11.803-2.384L102.463,21.049z"
		/>
</g>
<g display="none">
	<path display="inline" fill="#1D1D1B" d="M103.311,27.641c-3.603,1.1-7.25,1.982-10.938,2.673
		c-1.851,0.316-3.716,0.559-5.559,0.909c-1.842,0.357-3.665,0.797-5.483,1.267c-3.632,0.957-7.289,1.794-10.959,2.568
		c-3.681,0.722-7.376,1.38-11.111,1.841l-0.021-0.098c3.606-1.082,7.253-1.967,10.913-2.788c3.672-0.769,7.356-1.475,11.066-2.061
		c1.853-0.302,3.699-0.633,5.529-1.048c1.827-0.422,3.633-0.95,5.454-1.406c3.653-0.852,7.348-1.513,11.087-1.956L103.311,27.641z"
		/>
</g>
<g display="none">
	<path display="inline" fill="#1D1D1B" d="M100.856,34.589c-2.934,0.991-5.914,1.765-8.938,2.349
		c-1.519,0.262-3.053,0.451-4.563,0.747c-1.509,0.303-3,0.689-4.484,1.104c-2.964,0.849-5.955,1.578-8.96,2.244
		c-3.017,0.615-6.047,1.165-9.121,1.519l-0.021-0.098c2.938-0.974,5.918-1.75,8.912-2.463c3.006-0.661,6.026-1.259,9.073-1.737
		c1.521-0.248,3.035-0.526,4.532-0.886c1.494-0.368,2.966-0.842,4.453-1.244c2.988-0.744,6.018-1.297,9.096-1.633L100.856,34.589z"
		/>
</g>
<g display="none">
	<path display="inline" fill="#1D1D1B" d="M96.671,41.232c-2.123,0.829-4.299,1.419-6.514,1.837
		c-1.115,0.177-2.246,0.281-3.354,0.492c-1.107,0.209-2.192,0.517-3.272,0.849c-2.157,0.678-4.34,1.237-6.538,1.733
		c-2.209,0.444-4.433,0.825-6.7,1.008l-0.021-0.098c2.129-0.803,4.302-1.409,6.488-1.951c2.199-0.491,4.412-0.918,6.651-1.227
		c1.118-0.162,2.231-0.347,3.322-0.631c1.091-0.283,2.158-0.671,3.241-0.988c2.182-0.569,4.401-0.965,6.675-1.123L96.671,41.232z"/>
</g>
<g display="none">
	<path display="inline" fill="#1D1D1B" d="M98.692,38.978c-0.669-2.594-1.096-5.218-1.347-7.863
		c-0.093-1.327-0.112-2.663-0.239-3.986c-0.126-1.323-0.353-2.633-0.603-3.94c-0.517-2.613-0.911-5.24-1.241-7.876
		c-0.278-2.642-0.491-5.292-0.504-7.968l0.1-0.013c0.643,2.597,1.085,5.219,1.463,7.849c0.325,2.636,0.586,5.281,0.726,7.94
		c0.078,1.329,0.18,2.654,0.381,3.968c0.2,1.313,0.509,2.614,0.744,3.923c0.404,2.627,0.634,5.275,0.62,7.954L98.692,38.978z"/>
</g>
<g display="none">
	<path display="inline" fill="#1D1D1B" d="M93.51,44.657c-0.768-3.372-1.315-6.772-1.668-10.196c-0.146-1.716-0.22-3.442-0.4-5.154
		c-0.188-1.71-0.461-3.411-0.764-5.107c-0.623-3.39-1.125-6.796-1.563-10.21c-0.386-3.42-0.706-6.85-0.826-10.304l0.1-0.013
		c0.75,3.374,1.3,6.774,1.784,10.182c0.433,3.415,0.801,6.837,1.048,10.275c0.133,1.718,0.295,3.432,0.542,5.136
		c0.254,1.702,0.616,3.391,0.904,5.089c0.518,3.404,0.84,6.833,0.942,10.289L93.51,44.657z"/>
</g>
<g display="none">
	<path display="inline" fill="#1D1D1B" d="M87.394,48.941c-0.832-3.853-1.442-7.734-1.859-11.64
		c-0.179-1.957-0.283-3.923-0.496-5.875c-0.221-1.952-0.524-3.892-0.859-5.829c-0.688-3.871-1.253-7.758-1.754-11.653
		c-0.449-3.902-0.833-7.812-1.018-11.748l0.1-0.013c0.813,3.855,1.427,7.736,1.976,11.625c0.497,3.896,0.929,7.8,1.239,11.719
		c0.164,1.958,0.359,3.913,0.638,5.857c0.286,1.943,0.68,3.873,1,5.811c0.581,3.885,0.968,7.794,1.134,11.732L87.394,48.941z"/>
</g>
<g display="none">
	<path display="inline" fill="#1D1D1B" d="M81.977,50.198c-0.901-3.92-1.583-7.873-2.071-11.852
		c-0.214-1.994-0.354-3.999-0.603-5.988c-0.256-1.988-0.596-3.964-0.965-5.936c-0.758-3.941-1.395-7.899-1.967-11.867
		c-0.52-3.975-0.975-7.959-1.23-11.972l0.1-0.015c0.884,3.923,1.567,7.875,2.188,11.835c0.566,3.968,1.069,7.946,1.451,11.94
		c0.2,1.996,0.431,3.988,0.744,5.968c0.321,1.979,0.751,3.942,1.106,5.916c0.651,3.956,1.109,7.94,1.347,11.956L81.977,50.198z"/>
</g>
<g display="none">
	<path display="inline" fill="#1D1D1B" d="M74.752,48.886c-0.772-3.634-1.324-7.295-1.683-10.979
		c-0.148-1.846-0.224-3.7-0.407-5.542c-0.19-1.84-0.465-3.671-0.77-5.498c-0.628-3.652-1.135-7.318-1.577-10.992
		c-0.39-3.68-0.714-7.368-0.839-11.08l0.1-0.012c0.755,3.636,1.309,7.296,1.799,10.965c0.437,3.674,0.81,7.356,1.061,11.053
		c0.135,1.848,0.3,3.691,0.549,5.524c0.257,1.833,0.621,3.652,0.912,5.481c0.521,3.665,0.849,7.352,0.955,11.066L74.752,48.886z"/>
</g>
<g display="none">
	<path display="inline" fill="#1D1D1B" d="M67.582,45.095c-0.725-3.041-1.229-6.109-1.539-9.203c-0.125-1.55-0.176-3.11-0.336-4.656
		c-0.167-1.545-0.417-3.08-0.698-4.61c-0.58-3.059-1.039-6.134-1.434-9.216c-0.342-3.089-0.619-6.187-0.696-9.31l0.1-0.013
		c0.706,3.043,1.213,6.111,1.655,9.188c0.39,3.083,0.714,6.175,0.918,9.282c0.111,1.552,0.252,3.101,0.478,4.639
		c0.232,1.537,0.572,3.06,0.84,4.593c0.474,3.072,0.753,6.169,0.813,9.295L67.582,45.095z"/>
</g>
<g display="none">
	<path display="inline" fill="#1D1D1B" d="M60.644,37.969c-0.584-1.965-0.926-3.96-1.092-5.976c-0.05-1.012-0.026-2.033-0.111-3.041
		c-0.084-1.008-0.268-2.004-0.475-2.997c-0.441-1.983-0.734-3.983-0.986-5.989c-0.2-2.012-0.318-4.033-0.248-6.078l0.1-0.012
		c0.556,1.969,0.923,3.96,1.208,5.962c0.233,2.008,0.426,4.021,0.47,6.051c0.035,1.014,0.095,2.025,0.254,3.023
		c0.157,0.999,0.424,1.985,0.616,2.979c0.319,1.998,0.463,4.016,0.364,6.064L60.644,37.969z"/>
</g>
<path display="none" fill="#1D1D1B" d="M73.139,48.221c-4.402-2.953-6.094-3.995-9.141-6.647c-1.178-1.026-2.815-2.369-4.154-3.845
	c-1.544-1.703-2.85-2.857-4.393-5.219c-0.084-0.105-0.388-0.883-0.474-0.988c-0.2,0-8.215,7.982-27.104,27.138
	C8.444,78.343-3.649,97.921,1.536,103.009c5.17,5.089,25.17-6.71,45.084-25.905c17.221-16.599,27.49-28.157,27.587-28.279
	C73.98,48.667,73.353,48.367,73.139,48.221z M46.435,55.693c0-1.067,0.927-1.924,2.065-1.924c1.153,0,2.08,0.857,2.08,1.924
	c0,1.055-0.926,1.925-2.08,1.925C47.362,57.618,46.435,56.748,46.435,55.693z"/>
<path display="none" fill="none" stroke="#FFFFFF" stroke-miterlimit="10" d="M57.632,47.044c-1.554-1.397-3.733-1.661-4.859-0.58
	l-8.062,7.66c-0.441,0.436-0.669,1.002-0.669,1.634c0,0.95,0.498,2.004,1.438,2.848c1.553,1.398,3.718,1.649,4.857,0.58l8.047-7.672
	c0.457-0.435,0.67-1.002,0.67-1.635C59.055,48.943,58.556,47.875,57.632,47.044z M48.5,57.618c-1.139,0-2.065-0.871-2.065-1.925
	c0-1.067,0.927-1.924,2.065-1.924c1.153,0,2.08,0.857,2.08,1.924C50.58,56.748,49.654,57.618,48.5,57.618z"/>
<g display="none">
	<path display="inline" fill="#FFFFFF" d="M54.239,32.311c0.584,0.994,1.176,1.959,1.835,2.879c0.508,0.998,1.079,1.962,1.69,2.9
		c1.227,1.872,2.644,3.621,4.254,5.165c1.608,1.544,3.414,2.883,5.379,3.922c0.981,0.521,2.003,0.965,3.053,1.33
		c0.995,0.525,2.05,0.932,3.129,1.342c-1.154-0.011-2.306-0.174-3.457-0.397c-1.098-0.381-2.166-0.846-3.192-1.391
		c-2.054-1.086-3.935-2.482-5.604-4.085c-1.671-1.603-3.134-3.41-4.397-5.338c-0.634-0.965-1.212-1.963-1.749-2.984
		C54.799,34.554,54.431,33.454,54.239,32.311z"/>
</g>
<g display="none">
	<path display="inline" fill="#FFFFFF" d="M52.28,33.629c0.584,0.994,1.176,1.959,1.836,2.879c0.507,0.998,1.08,1.962,1.69,2.9
		c1.227,1.872,2.644,3.621,4.254,5.165c1.609,1.544,3.414,2.883,5.38,3.922c0.981,0.521,2.003,0.965,3.053,1.33
		c0.995,0.525,2.05,0.932,3.129,1.341c-1.154-0.011-2.306-0.174-3.457-0.396c-1.098-0.382-2.167-0.846-3.192-1.391
		c-2.055-1.086-3.936-2.482-5.604-4.085c-1.671-1.603-3.134-3.41-4.398-5.338c-0.633-0.964-1.212-1.963-1.749-2.984
		C52.84,35.872,52.472,34.772,52.28,33.629z"/>
</g>
<g display="none">
	<path display="inline" fill="#FFFFFF" d="M0.021,97.239c0.392,0.373,0.759,0.726,1.141,1.058c0.247,0.415,0.532,0.808,0.831,1.188
		c0.598,0.761,1.285,1.449,2.036,2.053c0.754,0.601,1.58,1.105,2.457,1.499c0.441,0.19,0.889,0.367,1.351,0.5
		c0.416,0.289,0.862,0.533,1.321,0.823c-0.527,0.105-1.066,0.145-1.609,0.134c-0.503-0.144-0.991-0.336-1.472-0.544
		c-0.956-0.429-1.854-0.979-2.672-1.63c-0.813-0.654-1.553-1.397-2.197-2.215c-0.325-0.407-0.619-0.837-0.902-1.273
		C0.157,98.312,0.033,97.785,0.021,97.239z"/>
</g>
<path display="none" fill="none" stroke="#FFFFFF" stroke-width="0.25" stroke-miterlimit="10" d="M1.536,103.009
	c0,0-7.179-4.307,13.123-29.615c0,0,5.04-6.096,11.544-13.021c6.736-7.171,15.012-15.247,18.966-19.189l9.521-9.427
	c0,0-1.886-3.421-1.823-6.765s1.875-8.406,3.813-10.531c0,0,6.094-7.587,11.125-9.668c0,0,6.063-2.863,9.969-2.894
	c0,0,7.059-0.675,11.687,1.732c0.032,0.017,0.063,0.033,0.095,0.05c4.625,2.467,5.656,2.624,8.719,6.405
	c0,0,4.063,4.813,4.844,10.75c0,0,1.045,4.795-0.665,11.476c0,0-3.022,8.181-7.46,11.681c0,0-5.688,5.305-9.375,6.199
	c0,0-5.043,1.969-11.506-1.256l-9.483,10.16L53.865,70.021c0,0-14.59,14.295-15.622,14.727S25.688,95.571,18.704,99.073
	c0,0-7.901,4.239-10.462,4.668C8.242,103.741,4.112,105.183,1.536,103.009z"/>
<path display="none" fill="#1D1D1B" stroke="#FFFFFF" stroke-width="0.25" stroke-miterlimit="10" d="M0.988,82.539
	c0,0-1.427,0.536-0.075,3.047c1.353,2.515,2.628,1.73,2.628,1.73s0.3-0.247,0.413-0.658l24.668-15.94L45.97,59.515l11.49-7.497
	l25.532-16.476l18.922-12.027c0,0,2.254-2.966-1.05-3.624l-5.407,3.294c0,0,0.15-1.564-1.314-0.638
	c-1.464,0.926-2.703,2.533-4.955,3.09c0,0-1.805,0.186-0.79,1.606L60.632,44.789L23.235,68.266L0.988,82.539z"/>
<ellipse display="none" fill="#1D1D1B" stroke="#FFFFFF" stroke-miterlimit="10" cx="47.709" cy="56.038" rx="1.802" ry="1.731"/>
<ellipse display="none" fill="#1D1D1B" stroke="#FFFFFF" stroke-miterlimit="10" cx="50.905" cy="52.797" rx="2.084" ry="1.483"/>
<path display="none" fill="#1D1D1B" stroke="#FFFFFF" stroke-miterlimit="10" d="M27.852,68.147c0,0.817-0.934,1.48-2.084,1.48
	c-1.15,0-2.084-0.663-2.084-1.48c0-0.821,0.934-1.483,2.084-1.483C26.918,66.664,27.852,67.326,27.852,68.147z"/>
<path display="none" fill="#1D1D1B" d="M50.139,59.698c0,0.41-0.935,1.231-1.86,0.742c-2.281-1.205-2.759-2.465-2.759-2.873
	c0-0.409,0.534,2.44,2.759,1.391C49.222,58.513,50.139,59.289,50.139,59.698z"/>
<path display="none" fill="#1D1D1B" stroke="#FFFFFF" stroke-miterlimit="10" d="M32.833,65.288c0,0.818-0.933,1.48-2.084,1.48
	c-1.152,0-2.084-0.662-2.084-1.48c0-0.822,0.933-1.484,2.084-1.484C31.899,63.804,32.833,64.466,32.833,65.288z"/>
<ellipse display="none" fill="#1D1D1B" stroke="#FFFFFF" stroke-miterlimit="10" cx="35.198" cy="62.719" rx="2.084" ry="1.484"/>
<ellipse display="none" fill="#1D1D1B" stroke="#FFFFFF" stroke-miterlimit="10" cx="38.93" cy="59.717" rx="2.084" ry="1.483"/>
<ellipse display="none" fill="#1D1D1B" stroke="#FFFFFF" stroke-miterlimit="10" cx="54.734" cy="50.29" rx="2.084" ry="1.482"/>
<ellipse display="none" fill="#1D1D1B" stroke="#FFFFFF" stroke-miterlimit="10" cx="59.056" cy="47.402" rx="2.083" ry="1.482"/>
<ellipse display="none" fill="#1D1D1B" stroke="#FFFFFF" stroke-miterlimit="10" cx="43.759" cy="58.129" rx="1.802" ry="1.729"/>
<path display="none" fill="#FFFFFF" d="M2.761,84.602c0.579,1.01,0.718,2.154,0.292,2.448c-0.424,0.291-1.25-0.38-1.829-1.391
	c-0.578-1.007-0.632-2.206-0.199-2.481C1.482,82.885,2.183,83.593,2.761,84.602z"/>
<path display="none" fill="#FFFFFF" d="M93.196,24.505c0.229,0.334-0.248,1.311-0.851,1.517c-0.672,0.229-1.433-0.014-1.459-0.364
	c-0.034-0.438,0.274-0.292,0.643-0.584C92.051,24.66,92.926,24.106,93.196,24.505z"/>
<path display="none" fill="#FFFFFF" d="M81.96,17.335l-39.5,43c0,0-11.625-2.5-15.75,2.125S4.585,88.96,4.585,88.96l18.875,16.875
	l32.75-34.5l-6.75-5.375l38.625-43.125L81.96,17.335z"/>
<path display="none" fill="#FFFFFF" d="M43.114,66.813c-3.5-3.157-8.874-2.899-12.007,0.576c-3.134,3.475-2.838,8.848,0.663,12.004
	c3.496,3.151,8.871,2.894,12.004-0.581C46.908,75.336,46.61,69.964,43.114,66.813z M32.564,78.513
	c-3.004-2.71-3.256-7.328-0.567-10.312c2.687-2.979,7.306-3.202,10.31-0.493c2.999,2.705,3.251,7.323,0.566,10.302
	C40.183,80.992,35.563,81.216,32.564,78.513z"/>
<path display="none" fill="#009FE3" d="M43.114,66.813c-3.5-3.157-8.874-2.899-12.007,0.576c-3.134,3.475-2.838,8.848,0.663,12.004
	c3.496,3.151,8.871,2.894,12.004-0.581C46.908,75.336,46.61,69.964,43.114,66.813z M32.564,78.513
	c-3.004-2.71-3.256-7.328-0.567-10.312c2.687-2.979,7.306-3.202,10.31-0.493c2.999,2.705,3.251,7.323,0.566,10.302
	C40.183,80.992,35.563,81.216,32.564,78.513z"/>
<path display="none" fill="#1D1D1B" stroke="#1D1D1B" stroke-miterlimit="10" d="M43.114,66.813
	c-3.5-3.157-8.874-2.899-12.007,0.576c-3.134,3.475-2.838,8.848,0.663,12.004c3.496,3.151,8.871,2.894,12.004-0.581
	C46.908,75.336,46.61,69.964,43.114,66.813z M32.564,78.513c-3.004-2.71-3.256-7.328-0.567-10.312
	c2.687-2.979,7.306-3.202,10.31-0.493c2.999,2.705,3.251,7.323,0.566,10.302C40.183,80.992,35.563,81.216,32.564,78.513z"/>
<path display="none" fill="#1D1D1B" stroke="#FFFFFF" stroke-width="0.25" stroke-miterlimit="10" d="M47.943,87.873
	c3.827-4.466,4.59,0.254,10.204-6.697c6.697-8.291,6.378-12.118-2.095-21.497l32.294-36.376c1.386,0.46,2.3-0.192,3.35-1.304
	l0.885,0.797c-0.504,0.733-0.495,1.641,0.063,2.144c0.62,0.559,1.675,0.397,2.362-0.365c0.683-0.758,0.739-1.829,0.12-2.387
	c-0.502-0.453-1.285-0.428-1.933,0.001l-0.916-0.826c0.31-0.343,0.636-0.717,0.997-1.107l1.937-2.28l0.958,0.863
	c-0.265,0.644-0.18,1.341,0.279,1.757c0.62,0.559,1.671,0.393,2.353-0.366c0.689-0.762,0.747-1.824,0.128-2.383
	c-0.594-0.535-1.583-0.406-2.271,0.274l-0.891-0.803l2.963-3.491l0.166-0.185l0.834,0.753c-0.408,0.709-0.366,1.526,0.156,1.998
	c0.619,0.559,1.675,0.396,2.363-0.367c0.682-0.757,0.735-1.823,0.116-2.382c-0.538-0.484-1.403-0.42-2.074,0.097l-0.855-0.771
	c1.844-2.505,1.558-5.073-0.428-6.883L98.07,5.234c-2.033-1.853-4.701-2.062-7.129,0.075l-1.254-1.131
	c0.45-0.716,0.42-1.588-0.116-2.072c-0.62-0.559-1.669-0.392-2.354,0.365c-0.688,0.763-0.744,1.825-0.126,2.384
	c0.523,0.47,1.345,0.433,2.003-0.05l1.218,1.099l-0.013,0.015l-3.417,3.387L85.889,8.41c0.505-0.733,0.49-1.646-0.066-2.148
	c-0.619-0.559-1.67-0.392-2.358,0.371c-0.682,0.757-0.745,1.824-0.125,2.383c0.502,0.452,1.292,0.431,1.938,0.002l0.993,0.895
	l-2.091,2.069c-0.373,0.395-0.724,0.774-1.054,1.127l-0.823-0.742c0.45-0.717,0.421-1.588-0.117-2.073
	c-0.619-0.559-1.67-0.392-2.351,0.365c-0.689,0.763-0.745,1.825-0.127,2.384c0.521,0.471,1.345,0.433,2.003-0.05l0.85,0.766
	c-1.006,1.198-1.518,2.26-0.928,3.6L48.98,53.291c-7.382-6.324-13.585-9.356-23.411,1.54c-4.012,4.448-1.899,7.251-5.163,10.396
	c-4.033,4.787-7.516-1.821-16.571,8.219c-7.14,7.918-3.072,20.83,7.199,30.093c10.272,9.264,22.141,11.362,28.937,3.146
	C49.59,95.057,43.16,93.612,47.943,87.873z M48.407,54.788l1.04-1.15l5.799,5.229l-1.04,1.152L48.407,54.788z M53.814,60.453
	l-0.895,0.993l-5.799-5.229l0.896-0.992L53.814,60.453z M49.974,53.093l0.984-1.09l5.798,5.229l-0.981,1.09L49.974,53.093z
	 M51.63,51.216l1.482-1.643l5.798,5.23l-1.482,1.643L51.63,51.216z M53.681,48.983l1.306-1.448l5.799,5.229l-1.307,1.448
	L53.681,48.983z M55.823,46.608l1.925-2.134l5.797,5.229l-1.923,2.135L55.823,46.608z M58.518,43.62l1.919-2.129l5.8,5.229
	l-1.921,2.13L58.518,43.62z M74.597,25.891l3.076-3.408l5.802,5.233L80.4,31.125L74.597,25.891z M79.418,32.215l-3.079,3.414
	l-5.803-5.235l3.078-3.412L79.418,32.215z M96.716,10.07c0.321-0.357,0.832-0.427,1.128-0.159c0.303,0.272,0.279,0.781-0.043,1.139
	l-0.223,0.245l-1.085-0.978L96.716,10.07z M95.917,10.957l1.085,0.979l-3.23,3.583l-1.086-0.979L95.917,10.957z M92.109,15.179
	l1.084,0.979l-2.998,3.326l-1.085-0.978L92.109,15.179z M88.533,19.146l1.084,0.978l-0.281,0.312
	c-0.323,0.357-0.821,0.428-1.124,0.155c-0.297-0.268-0.283-0.776,0.04-1.133L88.533,19.146z M93.02,6.646
	c0.332-0.368,0.842-0.448,1.143-0.176c0.302,0.273,0.275,0.787-0.057,1.155l-0.269,0.297l-1.084-0.979L93.02,6.646z M92.177,7.583
	l1.084,0.979l-3.231,3.582l-1.086-0.979L92.177,7.583z M88.367,11.805l1.087,0.979l-3.001,3.327l-1.084-0.978L88.367,11.805z
	 M84.792,15.772l1.085,0.979l-0.383,0.424c-0.333,0.369-0.842,0.448-1.142,0.176c-0.303-0.272-0.276-0.786,0.056-1.154
	L84.792,15.772z M81.575,18.114l5.799,5.23L84.3,26.752l-5.8-5.229L81.575,18.114z M69.573,31.382l5.798,5.229l-2.46,2.729
	l-5.798-5.229L69.573,31.382z M71.991,40.402l-2.46,2.727L63.732,37.9l2.46-2.728L71.991,40.402z M63.024,38.562l5.798,5.229
	l-1.924,2.134l-5.799-5.229L63.024,38.562z M46.777,56.547l5.803,5.234l-0.666,0.736l-5.803-5.233L46.777,56.547z M45.699,57.681
	l5.803,5.233l-0.577,0.641l-5.803-5.234L45.699,57.681z M50.561,63.979l-0.577,0.639l-5.804-5.232l0.577-0.64L50.561,63.979z
	 M43.716,59.839l5.798,5.229l-0.577,0.64l-5.799-5.229L43.716,59.839z M23.605,99.406l-10.266-9.26
	c-0.558-0.502-0.63-1.33-0.164-1.846c0.231-0.256,0.556-0.389,0.893-0.393c0.332-0.007,0.679,0.112,0.96,0.367l10.266,9.257
	c0.558,0.503,0.63,1.329,0.164,1.846C24.993,99.894,24.164,99.908,23.605,99.406z M30.707,80.521
	c-4.094-3.692-4.426-10.016-0.729-14.114c3.692-4.094,10.019-4.42,14.113-0.729c4.1,3.696,4.422,10.019,0.729,14.113
	C41.123,83.892,34.806,84.218,30.707,80.521z"/>
<path display="none" fill="#FFFFFF" d="M40.398,54.96L56.96,70.21l-9.75,10.367c0,0-2.646,6.352-2.948,12.992
	c0,0-8.015,22.787-29.284,11.214l-7.218-6.872c0,0-10.394-19.326,3.965-27.326c0,0,12.249-4.75,16.179-3.625l2.355-5.125
	l8.607-7.875L40.398,54.96z"/>
<polygon display="none" fill="#FFFFFF" points="43.606,60.189 82.96,17.46 87.821,22.043 49.062,65.139 "/>
<path display="none" stroke="#FFFFFF" stroke-width="0.25" stroke-miterlimit="10" d="M48.123,77.865
	c0.255,0.23,0.269,0.619,0.038,0.875c-0.231,0.255-0.612,0.274-0.868,0.043c-0.255-0.23-0.281-0.618-0.05-0.874
	C47.473,77.654,47.867,77.634,48.123,77.865z M53.498,69.046c-0.079,1.185-1.855,2.804-2.437,3.445
	c-0.587,0.649-0.92,1.339-0.92,1.339l-0.106-0.009c-0.828,0.055-1.721,0.641-1.721,0.641c-0.979,0.472-1.945,2.345-1.945,2.345
	c-0.332,0.742-0.202,1.61-0.202,1.61c-1.787-2.63,1.825-5.64,1.825-5.64c0.672-0.646,0.883-1.158,0.883-1.158
	c0.665-0.026,2.02-0.859,2.227-1.061c0.207-0.216,1.236-1.242,1.62-2.001c0.491-0.959,0.365-1.889,0.341-2
	C53.429,67.291,53.569,67.856,53.498,69.046z M52.198,66.016c0.25,0.224,0.27,0.618,0.038,0.874
	c-0.231,0.256-0.625,0.275-0.875,0.051c-0.255-0.231-0.275-0.626-0.044-0.881C51.548,65.804,51.942,65.784,52.198,66.016z
	 M97.296,9.273c0.323-0.359,0.8-0.456,1.064-0.219c0.254,0.232,0.193,0.715-0.132,1.074l-0.226,0.249l-0.933-0.856L97.296,9.273z
	 M96.492,10.164l0.925,0.85l-3.265,3.585l-0.935-0.855L96.492,10.164z M92.625,14.385l0.952,0.848l-3.041,3.336l-0.939-0.862
	L92.625,14.385z M89.015,18.364l0.938,0.848l-0.285,0.318c-0.326,0.346-0.797,0.448-1.059,0.211
	c-0.255-0.232-0.207-0.715,0.118-1.074L89.015,18.364z M94.108,6.277c0.337-0.373,0.811-0.482,1.074-0.245
	c0.256,0.244,0.195,0.728-0.136,1.094l-0.274,0.304l-0.933-0.855L94.108,6.277z M93.251,7.21l0.938,0.848l-3.273,3.592l-0.938-0.849
	L93.251,7.21z M89.397,11.43l0.933,0.856l-3.026,3.335l-0.94-0.861L89.397,11.43z M85.784,15.416l0.938,0.849l-0.387,0.428
	c-0.337,0.36-0.819,0.477-1.075,0.233c-0.262-0.237-0.207-0.728,0.129-1.087L85.784,15.416z M82.617,17.822l5.014,4.572
	l-3.116,3.405l-5.009-4.565L82.617,17.822z M78.664,22.18l5.017,4.584l-3.106,3.405l-5.021-4.564L78.664,22.18z M74.567,26.696
	l5.015,4.572l-3.115,3.419l-5.022-4.578L74.567,26.696z M70.479,31.094l5.009,4.578l-2.485,2.722l-5.009-4.566L70.479,31.094z
	 M67.052,34.898l5.008,4.565l-2.478,2.728l-5.021-4.564L67.052,34.898z M63.857,38.294l5.015,4.572l-1.948,2.141l-5.01-4.579
	L63.857,38.294z M66.25,45.792l-1.937,2.128l-5.02-4.564l1.941-2.134L66.25,45.792z M58.513,44.206l5.013,4.571l-1.946,2.142
	l-5.014-4.572L58.513,44.206z M55.729,47.272l5.007,4.565l-1.315,1.458l-5.023-4.578L55.729,47.272z M53.821,49.313l5.022,4.577
	l-1.492,1.637l-5.028-4.571L53.821,49.313z M56.666,56.312l-0.993,1.099l-5.022-4.578l0.994-1.085L56.666,56.312z M50.112,53.388
	l5.021,4.564l-1.043,1.152l-5.028-4.569L50.112,53.388z M48.669,54.97l5.016,4.571l-0.899,0.994l-5.021-4.577L48.669,54.97z
	 M47.418,56.297l5.022,4.577l-0.675,0.733l-5.015-4.571L47.418,56.297z M46.329,57.434l5.022,4.577l-0.575,0.636l-5.021-4.578
	L46.329,57.434z M50.402,63.073l-0.58,0.642L44.8,59.138l0.587-0.635L50.402,63.073z M44.33,59.604l5.021,4.564l-0.58,0.643
	l-5.015-4.572L44.33,59.604z M42.746,57.732c0.249,0.226,0.268,0.619,0.038,0.875c-0.231,0.255-0.626,0.275-0.875,0.051
	c-0.255-0.231-0.275-0.625-0.044-0.88C42.096,57.521,42.49,57.502,42.746,57.732z M34.869,62.558c0,0,0.487-0.94,0.464-1.776
	l-0.024-0.097c0,0,0.652-0.401,1.239-1.052c0.58-0.643,2.012-2.572,3.182-2.77c1.176-0.191,1.753-0.108,2.539,0.175
	c0,0-1.012-0.074-1.976,0.549c-0.715,0.457-1.633,1.585-1.82,1.805c-0.186,0.233-0.879,1.666-0.838,2.329
	c0,0-0.487,0.262-1.064,0.996c0,0-2.631,3.896-5.429,2.381c0,0,0.879,0.043,1.583-0.362C32.725,64.735,34.493,63.586,34.869,62.558z
	 M31.373,63.137c0.256,0.23,0.275,0.625,0.044,0.881c-0.231,0.255-0.625,0.275-0.881,0.044c-0.255-0.231-0.275-0.625-0.044-0.88
	C30.723,62.925,31.117,62.906,31.373,63.137z M12.899,100.395c-0.919-0.832-1.728-1.727-2.43-2.687L9.059,99.27
	c0.869,0.898,1.832,1.818,2.882,2.767c0.746,0.676,1.469,1.303,2.178,1.895l1.411-1.562
	C14.611,101.803,13.727,101.143,12.899,100.395z M46.12,84.938c0.915-5.647,11.867-6.312,13.94-14.378
	c1.413-5.533-1.096-9.032-4.231-11.892l32.706-36.374c1.263,0.338,2.159-0.333,3.217-1.447l0.766,0.693
	c-0.523,0.732-0.585,1.592-0.097,2.021c0.533,0.494,1.529,0.279,2.224-0.488c0.692-0.766,0.828-1.774,0.287-2.261
	c-0.434-0.394-1.169-0.33-1.8,0.117l-0.794-0.718c0.313-0.345,0.648-0.718,1.013-1.106l1.967-2.274l0.823,0.756
	c-0.293,0.614-0.26,1.271,0.129,1.635c0.539,0.487,1.534,0.271,2.223-0.488c0.699-0.773,0.827-1.775,0.287-2.262
	c-0.504-0.469-1.438-0.283-2.122,0.404l-0.779-0.706l3.016-3.474l0.168-0.186l0.725,0.656c-0.433,0.7-0.452,1.459,0.002,1.871
	c0.532,0.494,1.523,0.273,2.224-0.488c0.687-0.759,0.82-1.768,0.281-2.268c-0.477-0.418-1.281-0.305-1.932,0.222l-0.746-0.66
	c1.896-2.489,1.827-4.896,0.1-6.484l-0.807-0.73c-1.756-1.638-4.222-1.659-6.638,0.513l-1.091-0.987
	c0.473-0.703,0.509-1.535,0.048-1.953c-0.539-0.487-1.529-0.265-2.225,0.488c-0.692,0.766-0.825,1.775-0.286,2.262
	c0.456,0.411,1.216,0.32,1.869-0.18l1.058,0.968l-0.021,0.021l-3.427,3.401l-0.854-0.774c0.521-0.732,0.571-1.59,0.087-2.028
	c-0.538-0.486-1.521-0.259-2.214,0.494c-0.694,0.766-0.835,1.769-0.289,2.262c0.435,0.394,1.169,0.33,1.799-0.117l0.857,0.774
	l-2.097,2.096c-0.374,0.388-0.732,0.768-1.056,1.128l-0.713-0.657c0.473-0.702,0.498-1.521,0.034-1.939
	c-0.538-0.487-1.523-0.272-2.222,0.488c-0.687,0.771-0.814,1.773-0.289,2.261c0.456,0.413,1.229,0.321,1.876-0.173l0.726,0.669
	c-1.02,1.198-1.574,2.228-1.116,3.457l-33.018,35.98c-3.036-2.707-8.657-5.041-13.556-2.355
	c-7.266,3.997-5.878,14.136-12.179,15.442c-9.679,2.004-15.222,4.346-18.493,7.963c-5.868,6.478-7.35,13.572,2.732,24.267
	l1.554-1.719c-4.32-6.741-3.795-15.804,1.836-22.031c6.754-7.472,18.278-8.046,25.742-1.297c7.471,6.753,8.051,18.271,1.297,25.742
	c-5.712,6.318-14.835,7.706-22.04,3.891l-1.548,1.713c12.437,9.965,19.083,6.624,24.984,0.151
	C45.466,98.891,44.789,93.06,46.12,84.938z"/>
<path display="none" d="M14.051,84.56c-1.759-0.043,0.128-5.457,0.128-5.457S16.046,84.605,14.051,84.56z"/>
<path display="none" d="M17.048,84.143c-1.673,0.55-1.705-5.184-1.705-5.184S18.942,83.521,17.048,84.143z"/>
<path display="none" d="M10.354,83.79c-1.487-0.94,2.915-4.613,2.915-4.613S12.04,84.856,10.354,83.79z"/>
<path display="none" d="M22.06,75.483c0.318,1.731-5.367,0.985-5.367,0.985S21.7,73.521,22.06,75.483z"/>
<path display="none" d="M20.915,72.182c1.048,1.414-4.384,3.25-4.384,3.25S19.727,70.579,20.915,72.182z"/>
<path display="none" d="M21.645,79.327c-0.593,1.656-5.141-1.835-5.141-1.835S22.315,77.449,21.645,79.327z"/>
<path display="none" d="M15.516,77.77c-0.881,1.06-1.938,0.179-1.938,0.179l1.761-2.115C15.338,75.833,16.398,76.711,15.516,77.77z"
	/>
<path display="none" d="M27.271,75.526c0.042-1.76,5.455,0.128,5.455,0.128S27.223,77.521,27.271,75.526z"/>
<path display="none" d="M27.687,78.522c-0.55-1.672,5.184-1.704,5.184-1.704S28.309,80.418,27.687,78.522z"/>
<path display="none" d="M28.039,71.829c0.94-1.488,4.614,2.914,4.614,2.914S26.973,73.515,28.039,71.829z"/>
<path display="none" d="M36.345,83.536c-1.731,0.316-0.986-5.368-0.986-5.368S38.308,83.176,36.345,83.536z"/>
<path display="none" d="M39.647,82.39c-1.413,1.048-3.25-4.385-3.25-4.385S41.25,81.201,39.647,82.39z"/>
<path display="none" d="M32.502,83.12c-1.658-0.594,1.834-5.141,1.834-5.141S34.379,83.791,32.502,83.12z"/>
<path display="none" d="M34.059,76.991c-1.058-0.881-0.177-1.938-0.177-1.938l2.115,1.761
	C35.996,76.813,35.119,77.872,34.059,76.991z"/>
<path display="none" d="M36.474,88.783c1.76,0.043-0.129,5.456-0.129,5.456S34.479,88.737,36.474,88.783z"/>
<path display="none" d="M33.477,89.199c1.673-0.549,1.706,5.186,1.706,5.186S31.583,89.822,33.477,89.199z"/>
<path display="none" d="M40.171,89.552c1.487,0.941-2.916,4.613-2.916,4.613S38.485,88.485,40.171,89.552z"/>
<path display="none" d="M28.464,97.859c-0.317-1.73,5.367-0.986,5.367-0.986S28.824,99.821,28.464,97.859z"/>
<path display="none" d="M29.609,101.162c-1.047-1.414,4.385-3.251,4.385-3.251S30.798,102.764,29.609,101.162z"/>
<path display="none" d="M28.88,94.016c0.592-1.658,5.14,1.835,5.14,1.835S28.208,95.893,28.88,94.016z"/>
<path display="none" d="M35.008,95.572c0.882-1.058,1.939-0.178,1.939-0.178l-1.762,2.117
	C35.186,97.512,34.127,96.632,35.008,95.572z"/>
<path display="none" d="M20.769,98.435l0.636-0.703l-0.863-0.78c1.34-0.207,2.648-0.153,2.631,0.821
	C23.155,98.585,22.003,98.623,20.769,98.435z"/>
<path display="none" d="M19.858,96.333l-0.912-0.824c1.406-0.901,3.409-1.938,3.807-0.726C23.07,95.723,21.391,96.15,19.858,96.333z
	"/>
<path display="none" d="M22.404,101.47c-0.549,0.872-2.017-0.255-3.159-1.35l0.811-0.897
	C21.505,99.743,22.997,100.538,22.404,101.47z"/>
<path display="none" d="M15.232,92.15l-0.918-0.83l-0.65,0.718c-0.345-1.103-0.409-2.115,0.433-2.27
	C14.926,89.615,15.186,90.842,15.232,92.15z"/>
<path display="none" d="M12.319,93.859l-0.062,0.067c-1.192-1.013-2.378-2.337-1.464-3.017c0.718-0.529,1.56,0.621,2.19,1.88
	l-0.831,0.919L12.319,93.859z"/>
<path display="none" fill="#FFFFFF" d="M13.383,94.82c-0.061-0.044-0.123-0.087-0.178-0.137l0.012-0.013L13.383,94.82z"/>
<path display="none" d="M17.117,93.854l-0.877-0.792c0.186-1.552,0.626-3.261,1.701-2.881
	C18.974,90.552,18.002,92.472,17.117,93.854z"/>
<path display="none" d="M11.974,87.275c0,0,5.014,2.29,8.734-1.721l5.965,5.392c0,0-3.546,5.555-0.63,9.927
	c0,0-0.458-6.208,3.174-10.139c3.633-3.934,9.911-4.335,9.911-4.335s-3.381-2.626-9.742,1.546l-5.872-5.305
	c0,0,3.103-4.924,0.983-9.467c0,0-0.499,6.675-3.582,9.912C17.833,86.324,11.974,87.275,11.974,87.275z"/>
<line display="none" fill="none" stroke="#1D1D1B" stroke-width="0.5" stroke-miterlimit="10" x1="15.946" y1="93.578" x2="83.747" y2="18.582"/>
<line display="none" fill="none" stroke="#1D1D1B" stroke-width="0.5" stroke-miterlimit="10" x1="16.921" y1="94.46" x2="84.723" y2="19.463"/>
<line display="none" fill="none" stroke="#1D1D1B" stroke-width="0.5" stroke-miterlimit="10" x1="18.036" y1="95.467" x2="85.835" y2="20.47"/>
<line display="none" fill="none" stroke="#1D1D1B" stroke-width="0.5" stroke-miterlimit="10" x1="18.946" y1="96.349" x2="86.749" y2="21.352"/>
<line display="none" fill="none" stroke="#1D1D1B" stroke-width="0.5" stroke-miterlimit="10" x1="87.821" y1="22.265" x2="20.021" y2="97.263"/>
<line display="none" fill="none" stroke="#1D1D1B" stroke-width="0.5" stroke-miterlimit="10" x1="14.99" y1="92.715" x2="82.792" y2="17.716"/>
<path display="none" stroke="#FFFFFF" stroke-width="0.25" stroke-miterlimit="10" d="M21.405,97.731l-2.16,2.389l-0.027-0.026
	l-2.616,2.894c-0.358-0.186-0.718-0.397-1.072-0.618l2.79-3.086l-5.103-4.612l-2.747,3.037c-0.253-0.329-0.488-0.667-0.704-1.025
	l2.553-2.823l-0.166-0.15l2.16-2.389L21.405,97.731z"/>
<path display="none" fill="#FFFFFF" d="M8.212,98.401c0.271,0.283,0.55,0.573,0.847,0.868l-0.006,0.006l-0.897-0.812L8.212,98.401z"
	/>
<path display="none" fill="#FFFFFF" d="M14.119,103.931c0.31,0.267,0.626,0.528,0.935,0.77l-0.075,0.083l-0.898-0.812
	L14.119,103.931z"/>
<ellipse transform="matrix(0.7418 0.6706 -0.6706 0.7418 64.7419 5.6638)" display="none" fill="none" stroke="#FFFFFF" stroke-width="0.5" stroke-miterlimit="10" cx="25.016" cy="86.909" rx="19.208" ry="19.296"/>
</svg>
