<?xml version="1.0" encoding="utf-8"?>
<!-- Generator: Adobe Illustrator 15.0.0, SVG Export Plug-In  -->
<!DOCTYPE svg PUBLIC "-//W3C//DTD SVG 1.1//EN" "http://www.w3.org/Graphics/SVG/1.1/DTD/svg11.dtd" [
	<!ENTITY ns_flows "http://ns.adobe.com/Flows/1.0/">
]>
<svg version="1.1"
	 xmlns="http://www.w3.org/2000/svg" xmlns:xlink="http://www.w3.org/1999/xlink" xmlns:a="http://ns.adobe.com/AdobeSVGViewerExtensions/3.0/"
	 x="0px" y="0px" width="153px" height="82px" viewBox="-1.708 -2.207 153 82" enable-background="new -1.708 -2.207 153 82"
	 xml:space="preserve">
<defs>
</defs>
<polygon display="none" fill="#FFFFFF" points="16.908,17.584 146.458,16.525 142.658,25.501 14.074,25.022 "/>
<polygon display="none" fill="#FFFFFF" stroke="#000000" stroke-miterlimit="10" points="4.135,38.636 16.087,25.769 22.064,25.769 
	10.111,38.636 "/>
<polygon display="none" fill="#FFFFFF" stroke="#000000" stroke-miterlimit="10" points="10.111,38.636 22.064,25.769 28.04,25.769 
	16.087,38.636 "/>
<polygon display="none" fill="#FFFFFF" stroke="#000000" stroke-miterlimit="10" points="16.087,38.636 28.04,25.769 34.017,25.769 
	22.064,38.636 "/>
<polygon display="none" fill="#FFFFFF" stroke="#000000" stroke-miterlimit="10" points="22.064,38.636 34.017,25.769 
	39.993,25.769 28.04,38.636 "/>
<polygon display="none" fill="#FFFFFF" stroke="#000000" stroke-miterlimit="10" points="28.04,38.636 39.993,25.769 45.969,25.769 
	34.017,38.636 "/>
<polygon display="none" fill="#FFFFFF" stroke="#000000" stroke-miterlimit="10" points="34.017,38.636 45.969,25.769 
	51.945,25.769 39.993,38.636 "/>
<polygon display="none" fill="#FFFFFF" stroke="#000000" stroke-miterlimit="10" points="39.993,38.636 51.945,25.769 
	57.921,25.769 45.969,38.636 "/>
<polygon display="none" fill="#FFFFFF" stroke="#000000" stroke-miterlimit="10" points="45.969,38.636 57.921,25.769 
	63.897,25.769 51.945,38.636 "/>
<polygon display="none" fill="#FFFFFF" stroke="#000000" stroke-miterlimit="10" points="51.945,38.636 63.897,25.769 
	69.875,25.769 57.921,38.636 "/>
<polygon display="none" fill="#FFFFFF" stroke="#000000" stroke-miterlimit="10" points="57.921,38.636 69.875,25.769 75.85,25.769 
	63.897,38.636 "/>
<polygon display="none" fill="#FFFFFF" stroke="#000000" stroke-miterlimit="10" points="63.897,38.636 75.85,25.769 81.829,25.769 
	69.875,38.636 "/>
<polygon display="none" fill="#FFFFFF" stroke="#000000" stroke-miterlimit="10" points="69.875,38.636 81.829,25.769 
	87.804,25.769 75.85,38.636 "/>
<polygon display="none" fill="#FFFFFF" stroke="#000000" stroke-miterlimit="10" points="75.85,38.636 87.804,25.769 93.779,25.769 
	81.829,38.636 "/>
<polygon display="none" fill="#FFFFFF" stroke="#000000" stroke-miterlimit="10" points="81.829,38.636 93.779,25.769 
	99.756,25.769 87.804,38.636 "/>
<polygon display="none" fill="#FFFFFF" stroke="#000000" stroke-miterlimit="10" points="87.804,38.636 99.756,25.769 
	105.732,25.769 93.779,38.636 "/>
<polygon display="none" fill="#FFFFFF" stroke="#000000" stroke-miterlimit="10" points="93.779,38.636 105.732,25.769 
	111.709,25.769 99.756,38.636 "/>
<polygon display="none" fill="#FFFFFF" stroke="#000000" stroke-miterlimit="10" points="99.756,38.636 111.709,25.769 
	117.686,25.769 105.732,38.636 "/>
<polygon display="none" fill="#FFFFFF" stroke="#000000" stroke-miterlimit="10" points="105.732,38.636 117.686,25.769 
	123.661,25.769 111.709,38.636 "/>
<polygon display="none" fill="#FFFFFF" stroke="#000000" stroke-miterlimit="10" points="111.709,38.636 123.661,25.769 
	129.637,25.769 117.686,38.636 "/>
<polygon display="none" fill="#FFFFFF" stroke="#000000" stroke-miterlimit="10" points="117.686,38.636 129.637,25.769 
	135.616,25.769 123.661,38.636 "/>
<polygon display="none" fill="#FFFFFF" stroke="#000000" stroke-miterlimit="10" points="123.661,38.636 135.616,25.769 
	141.592,25.769 129.637,38.636 "/>
<rect x="4.466" y="38.636" display="none" fill="#FFFFFF" stroke="#000000" stroke-miterlimit="10" width="5.645" height="6.076"/>
<rect x="10.443" y="38.636" display="none" fill="#FFFFFF" stroke="#000000" stroke-miterlimit="10" width="5.644" height="6.076"/>
<rect x="16.418" y="38.636" display="none" fill="#FFFFFF" stroke="#000000" stroke-miterlimit="10" width="5.646" height="6.076"/>
<rect x="22.064" y="38.636" display="none" fill="#FFFFFF" stroke="#000000" stroke-miterlimit="10" width="5.644" height="6.076"/>
<rect x="28.04" y="38.636" display="none" fill="#FFFFFF" stroke="#000000" stroke-miterlimit="10" width="5.643" height="6.076"/>
<rect x="34.349" y="38.636" display="none" fill="#FFFFFF" stroke="#000000" stroke-miterlimit="10" width="5.644" height="6.076"/>
<rect x="40.325" y="38.636" display="none" fill="#FFFFFF" stroke="#000000" stroke-miterlimit="10" width="5.644" height="6.076"/>
<rect x="46.301" y="38.636" display="none" fill="#FFFFFF" stroke="#000000" stroke-miterlimit="10" width="5.645" height="6.076"/>
<rect x="51.945" y="38.636" display="none" fill="#FFFFFF" stroke="#000000" stroke-miterlimit="10" width="5.644" height="6.076"/>
<rect x="57.921" y="38.636" display="none" fill="#FFFFFF" stroke="#000000" stroke-miterlimit="10" width="5.645" height="6.076"/>
<rect x="63.897" y="38.636" display="none" fill="#FFFFFF" stroke="#000000" stroke-miterlimit="10" width="5.645" height="6.076"/>
<rect x="69.542" y="38.636" display="none" fill="#FFFFFF" stroke="#000000" stroke-miterlimit="10" width="5.645" height="6.076"/>
<rect x="75.519" y="38.636" display="none" fill="#FFFFFF" stroke="#000000" stroke-miterlimit="10" width="5.645" height="6.076"/>
<rect x="81.829" y="38.636" display="none" fill="#FFFFFF" stroke="#000000" stroke-miterlimit="10" width="5.643" height="6.076"/>
<rect x="87.804" y="38.636" display="none" fill="#FFFFFF" stroke="#000000" stroke-miterlimit="10" width="5.644" height="6.076"/>
<rect x="93.779" y="38.636" display="none" fill="#FFFFFF" stroke="#000000" stroke-miterlimit="10" width="5.646" height="6.076"/>
<rect x="99.756" y="38.636" display="none" fill="#FFFFFF" stroke="#000000" stroke-miterlimit="10" width="5.644" height="6.076"/>
<rect x="105.732" y="38.636" display="none" fill="#FFFFFF" stroke="#000000" stroke-miterlimit="10" width="5.646" height="6.076"/>
<rect x="111.709" y="38.636" display="none" fill="#FFFFFF" stroke="#000000" stroke-miterlimit="10" width="5.645" height="6.076"/>
<rect x="117.354" y="38.636" display="none" fill="#FFFFFF" stroke="#000000" stroke-miterlimit="10" width="5.645" height="6.076"/>
<rect x="123.33" y="38.636" display="none" fill="#FFFFFF" stroke="#000000" stroke-miterlimit="10" width="5.644" height="6.076"/>
<polygon display="none" fill="#1D1D1B" points="18.744,33.788 25.827,25.792 29.368,25.68 22.284,33.899 "/>
<polygon display="none" fill="#1D1D1B" points="30.488,33.877 37.572,25.881 41.114,25.769 34.029,33.989 "/>
<polygon display="none" fill="#1D1D1B" points="36.589,33.788 43.672,25.792 47.214,25.68 40.131,33.899 "/>
<polygon display="none" fill="#1D1D1B" points="42.649,33.788 49.732,25.792 53.274,25.68 46.19,33.899 "/>
<polygon display="none" fill="#1D1D1B" points="72.24,33.698 79.324,25.702 82.865,25.589 75.781,33.81 "/>
<polygon display="none" fill="#1D1D1B" points="78.341,33.608 85.424,25.613 88.964,25.501 81.881,33.72 "/>
<polygon display="none" fill="#1D1D1B" points="84.4,33.608 91.483,25.613 95.024,25.501 87.943,33.72 "/>
<polygon display="none" fill="#1D1D1B" points="114.158,34.056 121.241,26.061 124.783,25.947 117.698,34.168 "/>
<polygon display="none" fill="#1D1D1B" points="120.259,33.967 127.34,25.971 130.884,25.858 123.799,34.08 "/>
<polygon display="none" fill="#1D1D1B" points="126.319,33.967 133.401,25.971 136.943,25.858 129.858,34.08 "/>
<polygon display="none" fill="#1D1D1B" points="12.933,33.788 20.016,25.792 23.558,25.68 16.474,33.899 "/>
<polygon display="none" fill="#1D1D1B" points="60.495,33.788 67.579,25.792 71.119,25.68 64.036,33.899 "/>
<polygon display="none" fill="#1D1D1B" points="54.685,33.788 61.769,25.792 65.309,25.68 58.226,33.899 "/>
<polygon display="none" fill="#1D1D1B" points="102.662,33.788 109.746,25.792 113.286,25.68 106.203,33.899 "/>
<polygon display="none" fill="#1D1D1B" points="96.852,33.788 103.935,25.792 107.476,25.68 100.391,33.899 "/>
<polygon display="none" points="129.582,51.35 1.836,51.46 1.836,42.171 129.582,42.171 "/>
<polygon display="none" fill="none" stroke="#000000" stroke-miterlimit="10" points="143.119,25.022 13.933,25.022 16.77,17.584 
	146.458,16.525 "/>
<polyline display="none" points="13.265,25.501 1.873,37.917 1.836,42.44 4.135,42.44 4.135,38.636 15.854,25.502 "/>
<polyline display="none" fill="#1D1D1B" points="147.125,16.261 145.118,39.353 145.103,39.526 132.417,51.262 129.229,51.361 
	129.229,39.418 141.104,26.749 "/>
<ellipse display="none" cx="19.417" cy="21.885" rx="0.75" ry="1.191"/>
<ellipse display="none" cx="29.542" cy="21.885" rx="0.75" ry="1.191"/>
<ellipse display="none" cx="38.542" cy="22.083" rx="0.75" ry="1.191"/>
<ellipse display="none" cx="47.542" cy="21.687" rx="0.75" ry="1.191"/>
<ellipse display="none" cx="56.542" cy="21.687" rx="0.75" ry="1.191"/>
<ellipse display="none" cx="66.417" cy="21.687" rx="0.75" ry="1.191"/>
<ellipse display="none" cx="76.167" cy="21.488" rx="0.75" ry="1.191"/>
<ellipse display="none" cx="86.792" cy="21.687" rx="0.75" ry="1.191"/>
<ellipse display="none" cx="100.417" cy="21.488" rx="0.75" ry="1.191"/>
<ellipse display="none" cx="115.292" cy="21.555" rx="0.75" ry="1.191"/>
<ellipse display="none" cx="126.458" cy="21.29" rx="0.75" ry="1.191"/>
<ellipse display="none" cx="140.125" cy="21.555" rx="0.75" ry="1.191"/>
<polygon display="none" fill="none" stroke="#FFFFFF" stroke-width="0.25" stroke-miterlimit="10" points="1.836,51.46 
	1.873,37.917 13.167,25.501 16.401,17.106 147.125,15.856 145.103,39.526 132.417,51.262 129.229,51.361 "/>
<path display="none" fill="#1D1D1B" stroke="#FFFFFF" stroke-width="0.25" stroke-miterlimit="10" d="M28.32,20.522
	c1.179-0.145,2.634-0.065,4.433,0.376c7.994,1.963,72.006,16.33,72.006,16.33s25.51,6.378,27.179,16.523
	c0,0,0.717-21.45,4.053-31.307c0,0-5.722,9.277-43.63,3.48c-37.911-5.799-62.23-9.567-62.23-9.567s-4.522-0.262-7.633,2.821"/>
<path display="none" fill="#1D1D1B" stroke="#FFFFFF" stroke-width="0.5" stroke-miterlimit="10" d="M49.125,56.311
	c0,2.107-1.049,2.658-2.782,2.658h-0.894c-1.735,0-2.604-0.551-2.604-2.658V19.015c0-2.108,0.75-2.222,2.664-2.078h1.012
	c1.555-0.145,2.604-0.031,2.604,2.078V56.311z"/>
<path display="none" fill="#1D1D1B" stroke="#FFFFFF" stroke-width="0.5" stroke-miterlimit="10" d="M54.549,57.893
	c0,2.176-1.048,2.744-2.782,2.744h-0.895c-1.734,0-2.603-0.568-2.603-2.744v-38.52c0-2.177,0.75-2.294,2.664-2.145h1.012
	c1.555-0.149,2.604-0.032,2.604,2.145V57.893z"/>
<path display="none" fill="#1D1D1B" stroke="#FFFFFF" stroke-width="0.5" stroke-miterlimit="10" d="M60.807,59.755
	c0,2.194-1.048,2.768-2.781,2.768h-0.895c-1.733,0-2.603-0.573-2.603-2.768V20.937c0-2.192,0.75-2.313,2.664-2.163h1.013
	c1.555-0.15,2.603-0.03,2.603,2.163V59.755z"/>
<path display="none" fill="#1D1D1B" stroke="#FFFFFF" stroke-width="0.5" stroke-miterlimit="10" d="M20.301,22.762
	c-0.113,1.15-0.477,2.365-0.55,3.807c-0.15,2.988-3.277,15.885,14.247,20.244c15.362,3.819,54.307,15.348,54.307,15.348
	s14.188,4.128,14.544-10.439c0.386-15.646-9.298-17.681-13.589-18.261c-4.294-0.579-76.059-16.522-76.059-16.522
	s-2.622,3.479,0.239,4.348c2.862,0.87,75.82,16.813,75.82,16.813s10.734,1.491,9.774,13.914c-0.656,8.478-10.49,5.219-10.49,5.219
	s-57.08-15.633-59.266-16.262c-3.147-0.904-7.911-5.687-5.638-16.419c0,0,0.131-0.479,0.182-1.081"/>
<path display="none" fill="#1D1D1B" stroke="#FFFFFF" stroke-width="0.25" stroke-miterlimit="10" d="M12.851,16.628l-2.86-0.772
	c0,0-7.47-6.765-8.742-1.546c-1.272,5.218,1.272,6.184,8.106,5.796l2.702,0.388C12.057,20.494,11.579,18.175,12.851,16.628z"/>
<path display="none" fill="#FFFFFF" stroke="#000000" stroke-miterlimit="10" d="M147.919,40.765
	c-1.622,14.922-6.382,26.466-10.627,25.781c-4.244-0.681-6.374-13.33-4.75-28.254c1.622-14.919,6.381-26.461,10.627-25.78
	C147.414,13.196,149.54,25.846,147.919,40.765z"/>
<ellipse display="none" fill="#FFFFFF" stroke="#1D1D1B" stroke-width="0.25" stroke-miterlimit="10" cx="45.946" cy="17.42" rx="2.583" ry="0.725"/>
<path display="none" stroke="#FFFFFF" stroke-width="0.25" stroke-miterlimit="10" d="M48.012,11.443
	c0,0.365-0.744,0.673-1.751,0.757v5.512h-1.268v-5.529c-0.925-0.098-1.593-0.391-1.593-0.74c0-0.435,1.035-0.785,2.31-0.785
	C46.981,10.659,48.012,11.009,48.012,11.443z"/>
<ellipse display="none" fill="#FFFFFF" stroke="#1D1D1B" stroke-width="0.25" stroke-miterlimit="10" cx="51.35" cy="17.758" rx="2.583" ry="0.725"/>
<path display="none" stroke="#FFFFFF" stroke-width="0.25" stroke-miterlimit="10" d="M53.574,12.267
	c0,0.347-0.743,0.639-1.75,0.718v5.211h-1.268v-5.227c-0.926-0.094-1.593-0.37-1.593-0.702c0-0.41,1.035-0.741,2.308-0.741
	C52.544,11.526,53.574,11.857,53.574,12.267z"/>
<ellipse display="none" fill="#FFFFFF" stroke="#1D1D1B" stroke-width="0.25" stroke-miterlimit="10" cx="57.668" cy="19.208" rx="2.583" ry="0.725"/>
<path display="none" stroke="#FFFFFF" stroke-width="0.25" stroke-miterlimit="10" d="M59.734,13.279
	c0,0.365-0.744,0.673-1.75,0.758v5.511h-1.268v-5.527c-0.925-0.098-1.592-0.392-1.592-0.741c0-0.435,1.035-0.785,2.308-0.785
	C58.703,12.495,59.734,12.844,59.734,13.279z"/>
<path display="none" fill="none" stroke="#FFFFFF" stroke-width="0.5" stroke-miterlimit="10" d="M42.803,20.751
	c0,0,3.126,2.149,5.473,0.498c0,0,2.165,2.403,6.182,0.816c0,0,1.67,3.06,6.25,1.205"/>
<path display="none" fill="none" stroke="#FFFFFF" stroke-width="0.5" stroke-miterlimit="10" d="M42.708,54.119
	c0,0,3.048,2.306,5.452,0.777c0,0,2.08,2.507,6.147,1.127c0,0,1.565,3.143,6.205,1.52"/>
<ellipse display="none" fill="none" stroke="#FFFFFF" stroke-width="0.5" stroke-miterlimit="10" cx="64.304" cy="47.529" rx="2.819" ry="4.066"/>
<ellipse display="none" fill="none" stroke="#FFFFFF" stroke-width="0.5" stroke-miterlimit="10" cx="38.215" cy="40.198" rx="2.819" ry="4.065"/>
<line display="none" fill="none" stroke="#FFFFFF" stroke-width="0.5" stroke-miterlimit="10" x1="84.298" y1="36.294" x2="84.167" y2="57.014"/>
<path display="none" fill="none" stroke="#FFFFFF" stroke-width="0.5" stroke-miterlimit="10" d="M83.38,32.467
	c0,0-0.917,2.781-0.131,4.264"/>
<path display="none" fill="none" stroke="#FFFFFF" stroke-width="0.5" stroke-miterlimit="10" d="M82.987,55.779
	c0,0-0.786,1.58-0.263,4.543"/>
<path display="none" fill="none" stroke="#FFFFFF" stroke-width="0.25" stroke-miterlimit="10" d="M134.784,23.602
	c0,0,2.176-6.683,3.634-8.308c0,0,4.876-8.133,8.625,1.059c0,0,2.437,7.629,1.874,18.441c0,0-1,16.875-5.438,26.188
	c0,0-5.563,12.627-10.063,1.72c0,0-1.328-2.194-1.977-10.613"/>
<path display="none" fill="#1D1D1B" stroke="#FFFFFF" stroke-width="0.25" stroke-miterlimit="10" d="M139.712,61.829
	c-2.479,8.563-14.937,5.398-20.384,3.821c-4.55-1.315-69.493-17.41-91.012-22.767c-0.135-0.032-0.453,0.227-0.584,0.194
	c-4.061-1.012-5.837-1.491-5.837-1.491s-3.244-3.114,0.843-2.984c0.522,0.017,2.739,0.715,6.162,1.557
	c0.136,0.034,0.183,0.355,0.324,0.391c22.026,5.43,90.978,22.613,90.978,22.613s15.733,4.722,16.884-2.378
	c0.789-4.841-14.142-8.213-14.142-8.213s-71.732-16.37-74.781-17.342c-1.352-0.43-7.213-1.771-14.497-3.546
	c-0.235-0.057-0.508,0.102-0.746,0.044c-6.845-1.673-14.792-3.922-21.446-5.932c-3.234-0.978-6.16-2.541-8.033-4.478
	c-1.952-2.019-2.648-3.945-2.724-6.324l0.076-1.47l0.259-1.773c0.843-4.377,5.618-3.728,5.618-3.728s18.525,2.354,47.411,5.994
	c28.195,3.542,33.024-1.917,33.231-2.172c-2.523,6.175-3.071,19.606-3.071,19.606C82.97,25.091,63.535,21.1,63.535,21.1
	s-48.85-9.276-55-10.171c-1.608-0.234-4.242-1.234-4.887,1.859c-0.01,0.025-0.389,2.163-0.259,3.2
	c0.103,0.818,0.669,2.582,1.988,3.935c1.069,1.095,3.153,2.351,4.584,2.854c5.847,2.054,14.412,4.157,23.934,6.551
	c0.2,0.049,0.295,0.35,0.496,0.4c5.938,1.486,12.27,2.987,18.625,4.439c20.102,4.597,70.581,15.981,70.581,15.981
	S142.029,53.846,139.712,61.829z"/>
<path display="none" fill="#1D1D1B" stroke="#FFFFFF" stroke-width="0.25" stroke-miterlimit="10" d="M22.102,38.746l-1.839-0.512
	c0,0-4.667-3.882-5.645-1.132c-0.978,2.749,0.651,3.354,5.11,3.384l1.748,0.302C21.476,40.789,21.23,39.531,22.102,38.746z"/>
<ellipse transform="matrix(0.9913 0.1313 -0.1313 0.9913 3.7386 -11.6002)" display="none" fill="#FFFFFF" stroke="#000000" stroke-miterlimit="10" cx="89.846" cy="22.554" rx="5.054" ry="15.76"/>
<line display="none" fill="#FFFFFF" stroke="#050505" stroke-width="0.5" stroke-miterlimit="10" x1="25.109" y1="12.588" x2="24.992" y2="28.355"/>
<line display="none" fill="#FFFFFF" stroke="#050505" stroke-width="0.5" stroke-miterlimit="10" x1="32.633" y1="14.533" x2="32.515" y2="30.301"/>
<polygon display="none" fill="#1D1D1B" points="30.48,29.56 26.899,28.697 26.88,13.464 30.648,13.93 "/>
<line display="none" fill="#FFFFFF" stroke="#050505" stroke-miterlimit="10" x1="36.684" y1="31.598" x2="31.365" y2="41.715"/>
<line display="none" fill="#FFFFFF" stroke="#050505" stroke-width="2" stroke-miterlimit="10" x1="31.495" y1="29.911" x2="26.176" y2="40.029"/>
<path display="none" fill="none" stroke="#FFFFFF" stroke-width="0.25" stroke-miterlimit="10" d="M28.965,40.613
	c0,0-1.102,0.52-0.973,2.205"/>
<path display="none" fill="none" stroke="#FFFFFF" stroke-width="0.25" stroke-miterlimit="10" d="M34.154,29.717
	c0,0-0.519,0.065-0.844,1.751"/>
<path display="none" fill="none" stroke="#FFFFFF" stroke-width="0.25" stroke-miterlimit="10" d="M86.454,12.526
	c0,0,0.756-1.816,1.547-3.066c0,0,1.5-2.088,2.208-2.544c0,0,2.458-2.248,4.375,2.169c0,0,1.959,5.042,0.917,12.667
	c0,0-0.917,9.458-4.167,14.417c0,0-2.833,4.75-5.5,1.167c0,0-1.282-0.592-1.912-6.817v-0.225"/>
<line display="none" fill="none" stroke="#FFFFFF" stroke-width="0.25" stroke-miterlimit="10" x1="24.811" y1="13.832" x2="24.811" y2="27.035"/>
<line display="none" fill="none" stroke="#FFFFFF" stroke-width="0.25" stroke-miterlimit="10" x1="32.958" y1="15.332" x2="32.958" y2="29.093"/>
<polygon display="none" fill="none" stroke="#FFFFFF" stroke-width="0.25" stroke-miterlimit="10" points="25.375,13.832 
	26.88,14.002 26.897,27.567 25.375,27.18 "/>
<polygon display="none" fill="none" stroke="#FFFFFF" stroke-width="0.25" stroke-miterlimit="10" points="30.648,14.914 
	32.322,15.226 32.322,29.093 30.492,28.473 "/>
<line display="none" fill="none" stroke="#FFFFFF" stroke-width="0.25" stroke-miterlimit="10" x1="31.821" y1="31.456" x2="27.471" y2="39.798"/>
<line display="none" fill="none" stroke="#FFFFFF" stroke-width="0.25" stroke-miterlimit="10" x1="29.792" y1="30.943" x2="25.375" y2="39.245"/>
<line display="none" fill="none" stroke="#FFFFFF" stroke-width="0.25" stroke-miterlimit="10" x1="35.771" y1="32.193" x2="31.089" y2="41.009"/>
<line display="none" fill="none" stroke="#FFFFFF" stroke-width="0.25" stroke-miterlimit="10" x1="36.839" y1="32.451" x2="32.148" y2="41.271"/>
<polygon fill="#FFFFFF" points="39.901,2.702 130.648,5.286 83.551,74.495 4.292,47.5 "/>
<g>
	<path fill="#1D1D1B" d="M98.137,37.607c-3.504,5.232-7.715,9.991-12.471,14.125c-2.374,2.071-4.891,3.988-7.575,5.653
		c-2.683,1.656-5.538,3.091-8.605,3.953c-1.534,0.411-3.126,0.681-4.737,0.63c-1.59-0.046-3.259-0.433-4.606-1.391
		c-1.365-0.942-2.271-2.437-2.702-3.995c-0.44-1.568-0.49-3.203-0.352-4.794c0.297-3.194,1.306-6.252,2.568-9.155
		c1.28-2.905,2.851-5.665,4.607-8.303c3.51-5.263,7.733-10.055,12.507-14.222c2.402-2.066,4.948-3.975,7.662-5.631
		c2.714-1.647,5.6-3.072,8.707-3.921c1.557-0.396,3.173-0.649,4.809-0.577c1.608,0.066,3.314,0.481,4.674,1.475
		c1.38,0.98,2.26,2.519,2.663,4.088c0.411,1.583,0.428,3.216,0.259,4.799c-0.354,3.179-1.425,6.198-2.727,9.065
		C101.51,32.279,99.914,35.008,98.137,37.607z M98.055,37.552c1.73-2.624,3.279-5.371,4.532-8.248
		c1.225-2.88,2.172-5.913,2.424-9.012c0.115-1.542,0.043-3.109-0.387-4.565c-0.423-1.452-1.264-2.769-2.483-3.599
		c-1.218-0.849-2.706-1.198-4.226-1.235c-1.513-0.041-3.038,0.223-4.518,0.629c-2.972,0.809-5.791,2.192-8.448,3.805
		c-2.659,1.621-5.166,3.498-7.534,5.532c-4.747,4.061-8.967,8.75-12.492,13.922c-1.75,2.584-3.325,5.302-4.605,8.147
		c-1.264,2.844-2.273,5.837-2.583,8.921c-0.146,1.535-0.106,3.099,0.294,4.569c0.396,1.464,1.211,2.823,2.446,3.692
		c1.229,0.884,2.755,1.264,4.292,1.321c1.538,0.062,3.087-0.186,4.589-0.576c3.012-0.796,5.863-2.17,8.55-3.772
		c2.689-1.612,5.225-3.481,7.622-5.51C90.294,47.479,94.525,42.755,98.055,37.552z"/>
</g>
<g>
	<path fill="#1D1D1B" d="M103.845,12.522L81.7,29.192c-3.693,2.775-7.353,5.596-11.117,8.275c-3.779,2.658-7.548,5.331-11.442,7.831
		l-0.06-0.08c3.556-2.963,7.239-5.752,10.911-8.557c3.687-2.784,7.478-5.426,11.236-8.113l22.56-16.106L103.845,12.522z"/>
</g>
<g>
	<path fill="#1D1D1B" d="M101.498,11.083c-6.598,4.984-13.212,9.946-19.842,14.885c-3.31,2.477-6.585,5.001-9.965,7.382
		c-3.395,2.36-6.779,4.735-10.289,6.937l-0.059-0.08c3.172-2.666,6.471-5.158,9.759-7.665c3.303-2.487,6.709-4.831,10.083-7.221
		c6.734-4.795,13.486-9.569,20.254-14.319L101.498,11.083z"/>
</g>
<g>
	<path fill="#1D1D1B" d="M97.334,10.708c-5.367,4.073-10.75,8.124-16.149,12.151c-2.694,2.022-5.354,4.09-8.119,6.015
		c-2.779,1.904-5.548,3.824-8.442,5.57l-0.059-0.081c2.558-2.21,5.241-4.247,7.913-6.298c2.688-2.031,5.479-3.919,8.236-5.853
		c5.504-3.884,11.024-7.746,16.561-11.585L97.334,10.708z"/>
</g>
<g>
	<path fill="#1D1D1B" d="M90.105,12.354c-3.096,2.462-6.209,4.902-9.339,7.319c-1.559,1.217-3.084,2.479-4.714,3.6
		c-1.632,1.117-3.288,2.204-5.041,3.156l-0.06-0.08c1.429-1.393,2.957-2.653,4.506-3.881c1.553-1.226,3.21-2.309,4.833-3.438
		c3.235-2.274,6.486-4.526,9.755-6.756L90.105,12.354z"/>
</g>
<g>
	<path fill="#1D1D1B" d="M105.13,15.092L81.641,32.715c-3.917,2.934-7.8,5.914-11.789,8.751c-4.003,2.816-7.995,5.648-12.114,8.307
		l-0.059-0.08c3.78-3.122,7.687-6.07,11.582-9.034c3.911-2.942,7.926-5.743,11.907-8.589l23.902-17.058L105.13,15.092z"/>
</g>
<g>
	<path fill="#1D1D1B" d="M105.355,18.793L81.867,36.416c-3.917,2.934-7.801,5.914-11.789,8.751
		c-4.003,2.816-7.995,5.648-12.114,8.307l-0.059-0.08c3.78-3.122,7.687-6.07,11.582-9.033c3.911-2.943,7.925-5.744,11.907-8.59
		l23.902-17.058L105.355,18.793z"/>
</g>
<g>
	<path fill="#1D1D1B" d="M104.812,23.04L81.754,40.393c-3.846,2.89-7.657,5.825-11.573,8.617c-3.932,2.771-7.852,5.559-11.898,8.173
		l-0.06-0.08c3.708-3.076,7.543-5.98,11.366-8.899c3.839-2.897,7.782-5.653,11.691-8.455l23.473-16.79L104.812,23.04z"/>
</g>
<g>
	<path fill="#1D1D1B" d="M103.705,26.927L81.606,43.601c-3.687,2.776-7.338,5.598-11.095,8.277
		c-3.771,2.658-7.532,5.332-11.419,7.833l-0.06-0.08c3.548-2.963,7.223-5.754,10.887-8.559c3.679-2.785,7.463-5.428,11.212-8.116
		l22.515-16.11L103.705,26.927z"/>
</g>
<g>
	<path fill="#1D1D1B" d="M101.539,31.945c-6.582,4.985-13.181,9.949-19.796,14.889c-3.302,2.479-6.57,5.003-9.942,7.385
		c-3.388,2.36-6.764,4.736-10.267,6.939l-0.059-0.08c3.165-2.666,6.456-5.159,9.736-7.667c3.295-2.487,6.694-4.832,10.061-7.223
		c6.72-4.798,13.456-9.572,20.209-14.325L101.539,31.945z"/>
</g>
<g>
	<path fill="#1D1D1B" d="M98.704,37.058c-5.511,4.213-11.037,8.404-16.581,12.572c-2.766,2.092-5.497,4.23-8.334,6.226
		c-2.852,1.975-5.692,3.965-8.66,5.781l-0.059-0.08c2.628-2.28,5.384-4.387,8.128-6.508c2.76-2.102,5.623-4.06,8.453-6.064
		c5.647-4.024,11.313-8.027,16.994-12.007L98.704,37.058z"/>
</g>
<g>
	<path fill="#1D1D1B" d="M92.803,44.348c-3.543,2.805-7.104,5.587-10.681,8.347c-1.783,1.388-3.531,2.821-5.386,4.113
		c-1.869,1.271-3.727,2.557-5.712,3.671l-0.06-0.08c1.645-1.574,3.417-2.977,5.177-4.395c1.775-1.396,3.657-2.651,5.504-3.952
		c3.683-2.617,7.382-5.212,11.099-7.784L92.803,44.348z"/>
</g>
<g>
	<path fill="#1D1D1B" d="M90.306,47.311c-0.286-5.838-0.544-11.676-0.773-17.515c-0.125-2.919-0.308-5.837-0.313-8.759
		c0.021-2.923,0.022-5.845,0.238-8.773l0.1-0.002c0.357,2.914,0.5,5.833,0.662,8.75c0.136,2.919,0.095,5.843,0.111,8.765
		c0.053,5.843,0.077,11.688,0.074,17.532L90.306,47.311z"/>
</g>
<g>
	<path fill="#1D1D1B" d="M94.365,42.463c-0.247-5.298-0.467-10.597-0.658-15.896c-0.104-2.649-0.268-5.298-0.253-7.95
		c0.039-2.652,0.061-5.304,0.296-7.96l0.1-0.002c0.338,2.645,0.462,5.294,0.604,7.943c0.117,2.649,0.057,5.302,0.055,7.953
		c0.014,5.303-0.001,10.606-0.043,15.91L94.365,42.463z"/>
</g>
<g>
	<path fill="#1D1D1B" d="M98.633,36.56c-0.247-4.352-0.467-8.704-0.658-13.057c-0.105-2.176-0.269-4.351-0.254-6.53
		c0.04-2.18,0.061-4.359,0.296-6.543l0.1-0.002c0.338,2.17,0.462,4.346,0.604,6.522c0.116,2.176,0.057,4.356,0.054,6.535
		c0.014,4.357,0,8.715-0.042,13.074L98.633,36.56z"/>
</g>
<g>
	<path fill="#1D1D1B" d="M103.131,28.223c-0.229-2.61-0.429-5.221-0.602-7.833c-0.096-1.306-0.249-2.609-0.226-3.919
		c0.027-1.31,0.093-2.621,0.324-3.937l0.1-0.003c0.315,1.298,0.465,2.603,0.575,3.908c0.107,1.306,0.038,2.617,0.026,3.926
		c-0.005,2.618-0.038,5.236-0.099,7.856L103.131,28.223z"/>
</g>
<g>
	<path fill="#1D1D1B" d="M85.976,51.14c-0.265-6.144-0.502-12.287-0.711-18.432c-0.114-3.072-0.286-6.143-0.28-9.217
		c0.031-3.075,0.043-6.149,0.27-9.228l0.1-0.002c0.347,3.067,0.479,6.139,0.631,9.21c0.125,3.072,0.074,6.147,0.08,9.221
		c0.031,6.147,0.035,12.296,0.011,18.445L85.976,51.14z"/>
</g>
<g>
	<path fill="#1D1D1B" d="M81.081,54.838c-0.265-6.144-0.502-12.287-0.711-18.431c-0.113-3.072-0.285-6.143-0.279-9.217
		c0.03-3.075,0.043-6.149,0.27-9.228l0.1-0.002c0.347,3.067,0.479,6.139,0.63,9.21c0.126,3.072,0.074,6.147,0.081,9.221
		c0.031,6.148,0.034,12.296,0.01,18.445L81.081,54.838z"/>
</g>
<g>
	<path fill="#1D1D1B" d="M76.198,57.925c-0.252-6.027-0.475-12.056-0.67-18.083c-0.107-3.015-0.272-6.027-0.26-9.043
		c0.038-3.017,0.057-6.033,0.29-9.053l0.1-0.002c0.34,3.01,0.466,6.023,0.61,9.037c0.118,3.014,0.061,6.03,0.06,9.046
		c0.019,6.031,0.009,12.063-0.029,18.096L76.198,57.925z"/>
</g>
<g>
	<path fill="#1D1D1B" d="M72.277,59.951c-0.32-5.688-0.612-11.375-0.875-17.063c-0.142-2.845-0.341-5.687-0.363-8.534
		c0.003-2.849-0.012-5.696,0.187-8.551l0.1-0.003c0.374,2.836,0.534,5.68,0.713,8.522c0.153,2.844,0.129,5.693,0.163,8.54
		c0.086,5.694,0.145,11.389,0.176,17.084L72.277,59.951z"/>
</g>
<g>
	<path fill="#1D1D1B" d="M68.182,61.266c-0.234-5.169-0.439-10.339-0.618-15.509c-0.098-2.585-0.254-5.169-0.233-7.756
		c0.046-2.587,0.074-5.174,0.316-7.765l0.1-0.002c0.331,2.581,0.448,5.166,0.584,7.75c0.11,2.585,0.043,5.173,0.034,7.759
		c0,5.174-0.027,10.348-0.083,15.521L68.182,61.266z"/>
</g>
<g>
	<path fill="#1D1D1B" d="M63.821,61.333c-0.17-4.22-0.313-8.439-0.428-12.659c-0.067-2.109-0.191-4.219-0.139-6.33
		c0.078-2.11,0.137-4.221,0.411-6.333l0.1-0.001c0.3,2.109,0.385,4.218,0.489,6.328c0.079,2.109-0.02,4.221-0.061,6.331
		c-0.063,4.222-0.154,8.442-0.272,12.664H63.821z"/>
</g>
<g>
	<path fill="#1D1D1B" d="M60.241,59.939c-0.209-2.814-0.39-5.63-0.543-8.446c-0.086-1.408-0.23-2.814-0.197-4.226
		c0.037-1.41,0.112-2.822,0.353-4.237l0.1-0.002c0.306,1.402,0.445,2.81,0.547,4.217c0.098,1.407,0.019,2.819-0.003,4.229
		c-0.024,2.82-0.076,5.642-0.156,8.463L60.241,59.939z"/>
</g>
<g>
	<path fill="#1D1D1B" d="M49.948,29.048c-2.142,3.249-4.71,6.217-7.619,8.802c-1.458,1.289-3.004,2.482-4.659,3.521
		c-1.655,1.03-3.419,1.929-5.335,2.451c-0.957,0.254-1.957,0.41-2.973,0.351c-1.005-0.055-2.061-0.362-2.873-1.047
		c-0.822-0.674-1.305-1.662-1.522-2.645c-0.221-0.991-0.219-1.999-0.113-2.979c0.226-1.964,0.851-3.835,1.627-5.615
		c0.784-1.781,1.739-3.474,2.804-5.096c2.131-3.232,4.685-6.183,7.576-8.753c1.449-1.281,2.986-2.466,4.626-3.495
		c1.64-1.022,3.388-1.909,5.267-2.421c0.938-0.25,1.914-0.4,2.893-0.343c0.971,0.054,1.967,0.348,2.728,0.99
		c0.77,0.632,1.228,1.563,1.438,2.508c0.212,0.954,0.212,1.937,0.107,2.896c-0.221,1.926-0.838,3.778-1.607,5.542
		c-0.777,1.765-1.727,3.449-2.783,5.058L49.948,29.048z M49.53,28.773c1.039-1.621,1.97-3.313,2.726-5.083
		c0.749-1.768,1.343-3.62,1.541-5.529c0.094-0.952,0.083-1.921-0.135-2.849c-0.214-0.92-0.667-1.808-1.404-2.399
		c-0.729-0.602-1.679-0.874-2.621-0.916c-0.947-0.046-1.898,0.11-2.815,0.365c-1.837,0.521-3.555,1.416-5.166,2.444
		c-1.612,1.035-3.122,2.227-4.544,3.511c-2.837,2.578-5.335,5.528-7.409,8.749c-1.031,1.608-1.957,3.292-2.706,5.044
		c-0.742,1.751-1.328,3.585-1.521,5.457c-0.091,0.932-0.079,1.876,0.13,2.766c0.207,0.884,0.635,1.714,1.32,2.263
		c0.678,0.558,1.568,0.817,2.476,0.858c0.91,0.044,1.836-0.106,2.735-0.356c1.801-0.512,3.501-1.395,5.098-2.414
		c1.598-1.026,3.098-2.209,4.511-3.486c2.821-2.563,5.304-5.496,7.367-8.7L49.53,28.773z"/>
</g>
<g>
	<polygon fill="#1D1D1B" points="53.323,13.548 26.184,33.596 52.717,12.752 	"/>
</g>
<g>
	<polygon fill="#1D1D1B" points="51.921,12.656 27.55,30.475 51.317,11.859 	"/>
</g>
<g>
	<polygon fill="#1D1D1B" points="49.43,12.428 29.495,26.834 48.827,11.629 	"/>
</g>
<g>
	<polygon fill="#1D1D1B" points="45.103,13.459 33.337,21.842 44.495,12.666 	"/>
</g>
<g>
	<polygon fill="#1D1D1B" points="54.084,15.145 25.334,36.382 53.479,14.349 	"/>
</g>
<g>
	<polygon fill="#1D1D1B" points="54.208,17.448 25.459,38.684 53.603,16.652 	"/>
</g>
<g>
	<polygon fill="#1D1D1B" points="53.873,20.091 25.639,40.994 53.267,19.296 	"/>
</g>
<g>
	<polygon fill="#1D1D1B" points="53.201,22.511 26.117,42.565 52.595,21.716 	"/>
</g>
<g>
	<polygon fill="#1D1D1B" points="51.889,25.636 27.574,43.462 51.285,24.839 	"/>
</g>
<g>
	<polygon fill="#1D1D1B" points="50.181,28.821 29.724,43.754 49.575,28.025 	"/>
</g>
<g>
	<polygon fill="#1D1D1B" points="46.633,33.362 33.254,43.027 46.023,32.569 	"/>
</g>
<g>
	<polygon fill="#1D1D1B" points="44.374,34.845 44.458,13.031 45.374,34.826 	"/>
</g>
<g>
	<polygon fill="#1D1D1B" points="46.815,31.822 47.032,12.026 47.815,31.808 	"/>
</g>
<g>
	<polygon fill="#1D1D1B" points="49.384,28.146 49.586,11.879 50.384,28.128 	"/>
</g>
<g>
	<polygon fill="#1D1D1B" points="52.097,22.958 52.339,13.183 53.097,22.931 	"/>
</g>
<g>
	<polygon fill="#1D1D1B" points="41.773,37.23 41.939,14.279 42.773,37.216 	"/>
</g>
<g>
	<polygon fill="#1D1D1B" points="38.834,39.54 39,16.587 39.834,39.524 	"/>
</g>
<g>
	<polygon fill="#1D1D1B" points="35.904,41.462 36.117,18.948 36.904,41.449 	"/>
</g>
<g>
	<polygon fill="#1D1D1B" points="33.553,42.734 33.515,21.476 34.553,42.708 	"/>
</g>
<g>
	<polygon fill="#1D1D1B" points="31.098,43.55 31.361,24.238 32.098,43.539 	"/>
</g>
<g>
	<polygon fill="#1D1D1B" points="28.49,43.591 28.964,27.835 29.49,43.589 	"/>
</g>
<g>
	<polygon fill="#1D1D1B" points="26.352,42.737 26.665,32.208 27.352,42.719 	"/>
</g>
<polygon fill="none" stroke="#1D1D1B" stroke-width="5" stroke-miterlimit="10" points="83.551,74.495 4.292,47.5 39.901,2.702 
	130.648,5.286 "/>
<path fill="#1D1D1B" stroke="#1D1D1B" stroke-miterlimit="10" d="M135.835,3.812c0,0,25.863,60.534,3.656,67.36l-53.738,6.011
	L135.835,3.812z"/>
<path fill="none" stroke="#FFFFFF" stroke-width="0.25" stroke-miterlimit="10" d="M135.958,2.702c0,0,7.416,19.992,7.583,20.792
	s3.5,13.383,3.667,14.716s1.501,9.629,1.667,11.523c0,0,0.229,10.245-0.75,11.863c0,0-1.583,8.614-9,10.114l-4.417,0.416
	l-49.917,5.5L36.404,61.119L0.208,48.671L39,0.127l88.542,2.575H135.958z"/>
<rect x="13.816" y="9.08" display="none" fill="#B2B2B2" stroke="#1D1D1B" stroke-miterlimit="10" width="118.458" height="67.917"/>
<circle display="none" fill="none" stroke="#1D1D1B" stroke-width="2" stroke-miterlimit="10" cx="43.716" cy="44.792" r="26.789"/>
<ellipse display="none" fill="#1D1D1B" cx="43.386" cy="45.341" rx="17.198" ry="17.769"/>
<circle display="none" fill="none" stroke="#1D1D1B" stroke-width="2" stroke-miterlimit="10" cx="102.506" cy="44.792" r="26.79"/>
<ellipse display="none" fill="#1D1D1B" cx="102.176" cy="45.341" rx="17.198" ry="17.769"/>
<polygon display="none" fill="#1D1D1B" stroke="#1D1D1B" stroke-miterlimit="10" points="131.616,8.027 14.145,8.027 17.23,3.378 
	127.439,3.378 "/>
<g display="none">
	<path display="inline" fill="#706F6F" d="M29.084,9.08c8.712,5.487,17.365,11.066,26.008,16.659l25.862,16.882l25.734,17.074
		l12.822,8.606l12.764,8.694l-13.033-8.285l-12.976-8.373l-25.86-16.883L54.671,26.379C46.116,20.652,37.57,14.912,29.084,9.08z"/>
</g>
<g display="none">
	<path display="inline" fill="#706F6F" d="M13.333,9.341c8.859,5.481,17.659,11.055,26.45,16.642l26.305,16.865l26.179,17.061
		l13.046,8.599l12.987,8.688l-13.254-8.276l-13.196-8.364L65.545,43.687L39.366,26.626C30.663,20.904,21.968,15.168,13.333,9.341z"
		/>
</g>
<g display="none">
	<path display="inline" fill="#706F6F" d="M13.572,20.073c7.669,4.585,15.279,9.264,22.881,13.957l22.739,14.182l22.616,14.377
		l11.264,7.259l11.208,7.348l-11.469-6.933L81.398,63.24L58.66,49.056L36.045,34.677C28.528,29.849,21.021,25.007,13.572,20.073z"/>
</g>
<g display="none">
	<path display="inline" fill="#706F6F" d="M13.44,31.448c6.483,3.619,12.911,7.331,19.33,11.059l19.194,11.287L71.04,65.279
		l9.496,5.813l9.441,5.904l-9.692-5.483l-9.639-5.573L51.453,54.651L32.378,43.164C26.041,39.299,19.712,35.421,13.44,31.448z"/>
</g>
<g display="none">
	<path display="inline" fill="#706F6F" d="M14.228,39.298c5.232,2.966,10.406,6.024,15.572,9.099
		c5.167,3.071,10.287,6.219,15.433,9.325c5.104,3.175,10.229,6.313,15.312,9.521l7.613,4.832c2.519,1.642,5.055,3.254,7.558,4.921
		c-2.621-1.474-5.208-3.003-7.814-4.503L60.143,67.9c-5.166-3.073-10.288-6.219-15.432-9.327c-5.102-3.177-10.23-6.312-15.311-9.523
		C24.318,45.839,19.244,42.616,14.228,39.298z"/>
</g>
<g display="none">
	<path display="inline" fill="#706F6F" d="M13.53,48.371c4.028,2.209,8,4.513,11.962,6.829c3.964,2.315,7.881,4.707,11.824,7.058
		c3.901,2.419,7.824,4.801,11.704,7.254l5.809,3.697c1.917,1.264,3.853,2.498,5.754,3.788c-2.02-1.096-4.005-2.247-6.009-3.369
		l-5.954-3.459c-3.962-2.317-7.881-4.706-11.823-7.059c-3.899-2.421-7.824-4.8-11.703-7.256C21.215,53.4,17.344,50.932,13.53,48.371
		z"/>
</g>
<g display="none">
	<path display="inline" fill="#706F6F" d="M13.546,56.201c3.057,1.555,6.058,3.205,9.051,4.869c2.999,1.654,5.957,3.376,8.916,5.098
		c2.946,1.743,5.892,3.487,8.798,5.299l4.358,2.72c1.434,0.938,2.885,1.847,4.304,2.811c-1.534-0.769-3.034-1.593-4.552-2.388
		l-4.5-2.479c-2.998-1.655-5.957-3.377-8.915-5.1c-2.946-1.744-5.892-3.488-8.797-5.3C19.297,59.928,16.394,58.112,13.546,56.201z"
		/>
</g>
<g display="none">
	<path display="inline" fill="#706F6F" d="M13.714,64.887c1.958,0.828,3.864,1.752,5.761,2.69c1.903,0.929,3.769,1.927,5.635,2.925
		c1.854,1.02,3.708,2.04,5.524,3.129l2.723,1.636c0.89,0.578,1.796,1.125,2.672,1.729c-0.984-0.405-1.937-0.866-2.906-1.298
		l-2.856-1.392c-1.903-0.93-3.769-1.927-5.634-2.926c-1.854-1.021-3.707-2.041-5.523-3.13
		C17.289,67.171,15.476,66.078,13.714,64.887z"/>
</g>
<g display="none">
	<path display="inline" fill="#706F6F" d="M43.544,9.55c7.416,4.729,14.771,9.549,22.116,14.383l21.968,14.604l21.838,14.796
		l10.874,7.467l10.814,7.554l-11.088-7.146l-11.029-7.235L87.071,39.367L65.233,24.569C57.977,19.603,50.73,14.622,43.544,9.55z"/>
</g>
<g display="none">
	<path display="inline" fill="#706F6F" d="M56.725,9.8c6.314,3.803,12.568,7.699,18.814,11.609l18.67,11.833l18.546,12.028
		l9.228,6.083l9.172,6.172l-9.436-5.759l-9.38-5.849L93.67,34.083L75.125,22.054C68.967,18.009,62.816,13.951,56.725,9.8z"/>
</g>
<g display="none">
	<path display="inline" fill="#706F6F" d="M73.731,9.945c4.899,2.995,9.737,6.082,14.567,9.183c4.831,3.099,9.611,6.272,14.42,9.404
		c4.764,3.2,9.552,6.364,14.293,9.598l7.101,4.867c2.347,1.652,4.713,3.277,7.043,4.955c-2.455-1.489-4.875-3.032-7.313-4.547
		l-7.255-4.634c-4.829-3.101-9.612-6.271-14.419-9.406c-4.763-3.202-9.552-6.363-14.292-9.599
		C83.134,16.532,78.403,13.284,73.731,9.945z"/>
</g>
<g display="none">
	<path display="inline" fill="#706F6F" d="M88.576,9.769c3.663,2.204,7.265,4.5,10.857,6.809c3.594,2.308,7.138,4.689,10.71,7.03
		c3.526,2.408,7.076,4.781,10.58,7.222l5.245,3.68c1.728,1.257,3.475,2.485,5.186,3.767c-1.837-1.094-3.639-2.241-5.459-3.36
		l-5.399-3.447c-3.593-2.31-7.139-4.688-10.709-7.032c-3.524-2.411-7.077-4.78-10.579-7.224
		C95.503,14.772,92.009,12.316,88.576,9.769z"/>
</g>
<g display="none">
	<path display="inline" fill="#706F6F" d="M104.545,9.265c2.328,1.237,4.598,2.567,6.857,3.911c2.267,1.334,4.491,2.734,6.716,4.135
		c2.211,1.421,4.422,2.843,6.59,4.331l3.252,2.234c1.063,0.776,2.146,1.522,3.194,2.324c-1.17-0.61-2.305-1.274-3.458-1.91
		l-3.4-1.999c-2.267-1.334-4.491-2.734-6.715-4.136c-2.21-1.422-4.421-2.844-6.589-4.332
		C108.818,12.343,106.652,10.85,104.545,9.265z"/>
</g>
<g display="none">
	<path display="inline" fill="#706F6F" d="M118.937,9.257c2.24,0.891,4.321,2.043,6.366,3.257c2.029,1.241,4.02,2.545,5.851,4.113
		c-2.241-0.889-4.323-2.041-6.366-3.257C122.76,12.127,120.769,10.823,118.937,9.257z"/>
</g>
<g display="none">
	<path display="inline" fill="#706F6F" d="M132.622,18.189c-9.765,5.054-19.577,10.01-29.397,14.95L73.708,47.851L44.09,62.355
		l-14.845,7.179l-14.892,7.084l14.675-7.523l14.722-7.429l29.516-14.71l29.619-14.502C112.776,27.656,122.674,22.874,132.622,18.189
		z"/>
</g>
<g display="none">
	<path display="inline" fill="#706F6F" d="M132.168,9.271c-9.754,5.137-19.558,10.176-29.368,15.201L73.313,39.434L43.721,54.191
		l-14.833,7.305l-14.88,7.21l14.66-7.648l14.707-7.554l29.489-14.961l29.593-14.754C112.339,18.906,122.229,14.04,132.168,9.271z"/>
</g>
<g display="none">
	<path display="inline" fill="#706F6F" d="M113.479,9.407c-8.194,4.463-16.439,8.829-24.692,13.18L63.973,35.531l-24.92,12.738
		l-12.498,6.296l-12.546,6.202l12.321-6.638l12.37-6.544l24.815-12.942l24.922-12.736C96.761,17.698,105.095,13.503,113.479,9.407z"
		/>
</g>
<g display="none">
	<path display="inline" fill="#706F6F" d="M93.672,9.332c-6.511,3.792-13.074,7.488-19.646,11.17L54.252,31.438L34.367,42.171
		l-9.982,5.295l-10.032,5.202l9.797-5.632l9.848-5.54l19.775-10.935L73.659,19.83C80.307,16.289,86.963,12.762,93.672,9.332z"/>
</g>
<g display="none">
	<path display="inline" fill="#706F6F" d="M80.001,9.778c-5.374,3.083-10.799,6.07-16.233,9.042
		c-5.432,2.974-10.906,5.869-16.357,8.807c-5.489,2.867-10.958,5.771-16.466,8.603l-8.271,4.229
		c-2.774,1.378-5.532,2.785-8.321,4.136c2.682-1.551,5.395-3.045,8.091-4.568l8.141-4.476c5.434-2.972,10.906-5.87,16.358-8.806
		c5.49-2.864,10.958-5.772,16.467-8.601C68.918,15.313,74.434,12.497,80.001,9.778z"/>
</g>
<g display="none">
	<path display="inline" fill="#706F6F" d="M64.2,9.384c-4.057,2.402-8.165,4.708-12.281,6.998
		c-4.115,2.292-8.272,4.506-12.407,6.763c-4.172,2.186-8.325,4.409-12.516,6.559l-6.297,3.208c-2.116,1.037-4.216,2.104-6.346,3.114
		c2.023-1.21,4.078-2.363,6.115-3.546l6.165-3.453c4.117-2.291,8.272-4.507,12.408-6.762c4.174-2.183,8.324-4.41,12.517-6.557
		C55.75,13.557,59.949,11.422,64.2,9.384z"/>
</g>
<g display="none">
	<path display="inline" fill="#706F6F" d="M50.566,9.391c-2.918,1.852-5.889,3.608-8.868,5.35c-2.974,1.752-5.985,3.435-8.997,5.118
		c-3.023,1.662-6.047,3.322-9.109,4.915l-4.594,2.385c-1.549,0.764-3.082,1.557-4.646,2.293c1.454-0.935,2.939-1.813,4.408-2.722
		l4.459-2.629c2.974-1.751,5.985-3.435,8.998-5.116c3.023-1.661,6.048-3.321,9.11-4.913C44.384,12.47,47.449,10.882,50.566,9.391z"
		/>
</g>
<g display="none">
	<path display="inline" fill="#706F6F" d="M35.439,9.487c-3.313,2.443-6.78,4.626-10.286,6.747c-3.522,2.094-7.083,4.123-10.8,5.889
		c3.311-2.445,6.779-4.628,10.286-6.747C28.162,13.284,31.723,11.255,35.439,9.487z"/>
</g>
<g display="none">
	<path display="inline" fill="#706F6F" d="M131.803,26.377c-8.443,4.319-16.935,8.541-25.434,12.746L80.821,51.63L55.17,63.928
		L42.31,70.003l-12.907,5.98l12.693-6.422l12.739-6.326l25.55-12.505l25.651-12.296C114.604,34.373,123.18,30.326,131.803,26.377z"
		/>
</g>
<g display="none">
	<path display="inline" fill="#706F6F" d="M131.368,33.841c-6.832,3.696-13.714,7.294-20.604,10.877L90.04,55.358L69.211,65.792
		L58.76,70.935l-10.5,5.05l10.277-5.486l10.326-5.393l20.725-10.639l20.829-10.432C117.379,40.594,124.349,37.169,131.368,33.841z"
		/>
</g>
<g display="none">
	<path display="inline" fill="#706F6F" d="M131.115,43.47c-5.425,2.895-10.897,5.691-16.377,8.473
		c-5.479,2.783-10.998,5.486-16.495,8.233c-5.532,2.674-11.046,5.387-16.597,8.025l-8.334,3.938
		c-2.794,1.28-5.574,2.592-8.381,3.845c2.708-1.456,5.444-2.855,8.165-4.284l8.212-4.189c5.48-2.781,10.997-5.487,16.495-8.232
		c5.534-2.672,11.046-5.388,16.598-8.023C119.951,48.618,125.508,45.995,131.115,43.47z"/>
</g>
<g display="none">
	<path display="inline" fill="#706F6F" d="M131.421,51.875c-4.047,2.194-8.142,4.29-12.243,6.371
		c-4.102,2.084-8.242,4.086-12.36,6.133c-4.154,1.974-8.289,3.986-12.461,5.924l-6.267,2.888c-2.104,0.93-4.194,1.891-6.313,2.793
		c2.019-1.106,4.066-2.155,6.099-3.234l6.145-3.139c4.102-2.081,8.24-4.086,12.36-6.131c4.155-1.971,8.289-3.987,12.462-5.922
		C123.015,55.622,127.194,53.699,131.421,51.875z"/>
</g>
<g display="none">
	<path display="inline" fill="#706F6F" d="M132.299,60.917c-2.363,1.439-4.776,2.781-7.197,4.107
		c-2.416,1.337-4.867,2.604-7.319,3.871c-2.462,1.246-4.926,2.489-7.424,3.664l-3.749,1.76c-1.267,0.554-2.518,1.139-3.798,1.665
		c1.177-0.729,2.384-1.4,3.574-2.102l3.623-2.008c2.416-1.336,4.867-2.604,7.319-3.869c2.463-1.244,4.926-2.488,7.425-3.663
		C127.247,63.159,129.749,61.99,132.299,60.917z"/>
</g>
<g display="none">
	<path display="inline" fill="#706F6F" d="M132.313,69.066c-1.952,1.5-4.049,2.731-6.18,3.898c-2.146,1.141-4.327,2.216-6.654,3.02
		c1.951-1.502,4.048-2.733,6.18-3.898C127.806,70.947,129.987,69.872,132.313,69.066z"/>
</g>
<polygon display="none" fill="none" stroke="#FFFFFF" stroke-width="0.25" stroke-miterlimit="10" points="16.927,2.793 
	13.333,8.418 13.333,77.543 132.622,77.543 132.622,8.606 127.792,2.793 "/>
<polygon display="none" fill="#FFFFFF" points="98.932,4.349 135.83,21.037 147.43,29.807 147.43,43.913 146.676,57.76 
	143.014,61.765 133.398,64.565 129.875,62.96 129.875,29.793 91.401,10.577 91.401,8.683 94.204,4.349 "/>
<polygon display="none" fill="#FFFFFF" points="22.75,12.249 57.402,32.317 59.25,36.319 58.45,73.562 56.602,75.83 50.958,76.86 
	42.08,75.886 34.511,69.836 8.601,48.659 8.601,19.966 19.292,12.249 "/>
<path display="none" fill="none" stroke="#1D1D1B" stroke-width="2" stroke-miterlimit="10" d="M59.147,69.662
	c-0.102,5.098-2.282,7.096-6.364,7.096l-2.875,0.103c-4.082,0-8.725-0.6-9.956-7l0.102-26.096c0-3.975,4.414-7.299,9.444-9.698
	l2.772-1.401c1.672-0.209,3.167-0.627,4.331-0.263c1.622,0.507,2.605,2.536,2.546,8.762V69.662z"/>
<path display="none" fill="#1D1D1B" d="M56.602,32.407l-8.233-4.452c0,0-2.771-2.976-8.52,1.746
	c-5.749,4.722-6.467,5.441-6.467,5.441s-1.847,0.512-1.643,8.52c0.206,8.006,0,16.117,0,16.117s-1.128,6.98,2.772,10.059
	c3.9,3.08,8.212,6.569,8.212,6.569s-2.875-1.128-2.771-10.264c0.102-9.14,0-20.017,0-20.017s-1.028-4.928,4.208-8.829l6.468-3.8
	C50.628,33.497,54.775,31.624,56.602,32.407z"/>
<path display="none" fill="#1D1D1B" d="M46.393,26.928c0,0-2.078-1.617-2.771-2.08c-0.693-0.461-5.388-3.232-5.388-3.232
	s-3.543-1.924-6.314,0l-7.161,5.851c0,0-2.848,2.155-2.695,8.239c0.154,6.08,0.309,17.012,0.309,17.012l-0.077,3.156
	c0,0-0.693,3.312,2.233,5.776c2.925,2.462,7.083,6.081,8.236,6.313c0,0-4.849-1.694-4.926-9.471
	c-0.077-7.775-0.155-17.324-0.155-17.324s-0.038-7.504,3.35-10.082l6.276-4.735C37.31,26.351,42.313,23.117,46.393,26.928z"/>
<path display="none" fill="#1D1D1B" d="M36.718,21.026c0,0-3.413-2.31-4.106-2.772c-0.692-0.462-4.722-2.925-4.722-2.925
	s-2.568-1.464-5.337,0.46l-6.672,5.288c0,0-2.927,0.897-2.773,6.981c0.154,6.082,0.104,17.039,0.104,17.039l0.102,3.697
	c0,0-0.205,2.872,1.489,4.412c2.83,2.572,7.494,6.931,8.622,7.29c0,0-4.567-2.569-4.567-8.469c0-7.777-0.412-17.966-0.412-17.966
	s-0.717-6.146,2.669-8.724l6.724-5.39C27.839,19.948,32.639,17.215,36.718,21.026z"/>
<path display="none" fill="#1D1D1B" d="M27.223,14.917c0,0-8.212-4.927-8.725-5.133c-0.513-0.204-2.977-2.668-7.392,0.515
	l-4.722,4.106l-2.053,2.051c0,0-1.231,2.362-1.027,4.928c0.206,2.566,0.72,17.862,0.72,17.862l0.206,2.359
	c0,0-0.104,3.799,2.051,5.339c2.157,1.538,8.008,6.059,8.008,6.059s-3.696-2.62-3.696-6.778c0-4.156-0.411-16.268-0.411-16.268
	l-0.051-4.671c0,0-0.309-3.745,3.233-6.466c3.541-2.72,5.595-4.311,5.595-4.311S21.628,11.94,27.223,14.917z"/>
<path display="none" fill="none" stroke="#1D1D1B" stroke-width="2" stroke-miterlimit="10" d="M146.915,56.162
	c0,3.505-2.979,5.512-7.288,7.185l-5.338,1.279c-3.658,0-3.183-2.202-3.183-5.71l0.309-29.867c0.101-3.395,1.747-5.265,5.441-5.756
	l2.466,0.394c3.23,0.984,8.62,4.562,8.62,8.071L146.915,56.162z"/>
<path display="none" fill="#1D1D1B" d="M139.322,22.515l-11.397-4.825c0,0-3.695-2.258-7.186,3.183v4.002l8.418,4.312l-0.822,28.333
	l-7.905-0.308c0,0,8.728,6.774,11.191,7.697c0,0-0.412-2.361-0.515-4.002c-0.102-1.644,0.309-23.201,0.309-23.201l-0.102-8.829
	l0.51-3.387C131.823,25.491,133.981,20.975,139.322,22.515z"/>
<path display="none" fill="#1D1D1B" d="M127.412,17.484l-10.367-4.927c0,0-3.493-1.743-5.646,0.412l-2.259,2.464l-0.409,3.695
	l7.696,4.003v-4.209c0,0,2.258-2.361,3.078-2.565C120.329,16.151,122.689,15.536,127.412,17.484z"/>
<path display="none" fill="#1D1D1B" d="M115.609,12.352l-10.372-4.928c0,0-3.488-1.744-5.646,0.412l-2.259,2.463l-0.204,2.977
	l7.596,3.798l-0.104-3.284c0,0,2.26-2.361,3.082-2.566C108.524,11.019,110.884,10.402,115.609,12.352z"/>
<path display="none" fill="#1D1D1B" d="M104.108,6.81L93.742,1.881c0,0-3.079-2.053-5.749-0.103l-2.256,2.156l-0.104,3.799
	l7.596,3.798l-0.103-3.285c0,0,2.258-2.362,3.078-2.566C97.026,5.476,99.387,4.859,104.108,6.81z"/>
<path display="none" fill="#FFFFFF" stroke="#1D1D1B" stroke-width="2" stroke-miterlimit="10" d="M24.759,13.379l32.643,18.938
	c0,0,1.848,2.771,1.848,4.002c0,0,22.327-11.7,32.025-12.008c0,0,27.718-2.722,37.881,4.875L85.632,7.734
	C85.632,7.734,59.968-4.585,24.759,13.379z"/>
<path display="none" fill="#FFFFFF" stroke="#1D1D1B" stroke-width="2" stroke-miterlimit="10" d="M59.354,67.066L59.25,36.319
	c0,0,31.308-22.016,69.906-7.132l-0.822,28.333C128.334,57.52,89.944,55.568,59.354,67.066z"/>
<g display="none">
	<path display="inline" fill="#1D1D1B" d="M102.672,41.813c-0.012,2.218-0.545,4.639-2.169,6.453
		c-1.694,1.692-4.05,2.683-6.467,2.669c-2.366,0.012-4.762-0.974-6.438-2.672c-1.698-1.688-2.684-4.047-2.672-6.463
		c-0.012-2.366,0.974-4.762,2.672-6.438c1.684-1.698,4.061-2.683,6.451-2.671c2.392-0.012,4.769,0.974,6.451,2.671
		C102.115,37.182,102.661,39.593,102.672,41.813z M102.672,41.813c0-1.13-0.293-2.255-0.826-3.229
		c-0.54-0.971-1.239-1.824-2.053-2.514c-1.501-1.514-3.612-2.389-5.744-2.379c-2.132-0.009-4.242,0.865-5.744,2.378
		c-1.514,1.507-2.389,3.6-2.379,5.757c-0.01,2.106,0.865,4.235,2.379,5.73c1.507,1.514,3.6,2.388,5.757,2.379
		c2.105,0.009,4.238-0.862,5.729-2.381c0.809-0.694,1.509-1.544,2.049-2.515C102.377,44.068,102.673,42.943,102.672,41.813z"/>
</g>
<g display="none">
	<path display="inline" fill="#1D1D1B" d="M82.604,47.358c-0.01,1.449-0.443,2.963-1.453,4.141
		c-0.979,1.194-2.579,1.894-4.142,1.818c-1.574-0.068-3.017-0.844-4.035-1.926c-1.028-1.08-1.698-2.5-1.782-4.042
		c-0.107-1.509,0.462-3.118,1.564-4.246c1.086-1.144,2.643-1.846,4.267-1.823c1.562,0.009,3.167,0.717,4.14,1.924
		C82.167,44.392,82.606,45.904,82.604,47.358z M82.504,47.356c0.012-1.454-0.745-2.827-1.807-3.687
		c-1.075-0.856-2.355-1.346-3.701-1.323c-1.284,0.008-2.614,0.501-3.574,1.422c-0.963,0.92-1.589,2.196-1.683,3.595
		c-0.098,1.366,0.429,2.832,1.464,3.799c1.029,0.983,2.472,1.405,3.805,1.323c1.346-0.062,2.631-0.561,3.698-1.43
		C81.763,50.186,82.528,48.815,82.504,47.356z"/>
</g>
<g display="none">
	<path display="inline" fill="#1D1D1B" d="M116.887,42.634c-0.01,1.448-0.441,2.963-1.45,4.142
		c-0.984,1.195-2.569,1.894-4.152,1.818c-1.554-0.068-3.011-0.844-4.024-1.925c-1.029-1.077-1.698-2.507-1.783-4.035
		c-0.107-1.522,0.463-3.122,1.564-4.252c1.08-1.144,2.655-1.847,4.252-1.825c1.589,0.009,3.176,0.716,4.153,1.924
		C116.45,39.668,116.889,41.18,116.887,42.634z M116.788,42.632c0.012-1.454-0.745-2.827-1.807-3.687
		c-1.069-0.857-2.368-1.346-3.688-1.323c-1.311,0.009-2.621,0.502-3.587,1.423c-0.963,0.917-1.59,2.203-1.683,3.588
		c-0.098,1.38,0.43,2.835,1.466,3.806c1.033,0.982,2.461,1.404,3.815,1.322c1.324-0.062,2.625-0.56,3.688-1.43
		C116.047,45.463,116.811,44.091,116.788,42.632z"/>
</g>
<path display="none" fill="none" stroke="#FFFFFF" stroke-width="0.25" stroke-miterlimit="10" d="M14.663,8.729
	c0,0,1.599-0.248,3.204,0.672s5.854,3.424,5.854,3.424l8.153-3.866c0,0,10.994-4.083,14.518-4.5c0,0,10.024-2.208,19.524-1.833
	c0,0,11.526,0.346,19.742,4.131l0.078-2.824l2.138-2.043c0,0,1.556-1.544,4.369-0.688c0,0,1.124,0.5,1.498,0.678L99.2,4.477
	l9.248,4.473l6.259,2.966c0,0,1.271,0.116,1.693,0.379c0,0,1.73,0.777,1.963,0.888l8.811,4.204l13.712,5.813
	c0,0,3.094,1.422,4.672,2.859c0,0,2.281,1.969,3.063,3.922c0,0,0.375,1.266,0.313,1.938l-0.125,3.297l-0.266,5.766l-0.25,6.563
	l-0.234,5.141l-0.115,3.641c0,0-0.088,2.203-1.322,3.688c0,0-0.953,1.609-3.922,3.031c0,0-2.156,1.047-2.813,1.25l-5.438,1.297
	c0,0-1.674,0.301-3.298-0.889c0,0-7.841-4.91-9.186-6.315l-8.251,0.126c0,0-8.25,0.391-8.656,0.469c0,0-10.641,0.922-11.766,1.172
	c0,0-10.734,1.516-12.031,1.906c0,0-8.969,1.891-10.469,2.422c0,0-7.688,2.063-10.641,3.375l-0.016,2.271
	c0,0-0.188,2.308-0.469,2.979c0,0-0.453,2.344-2.703,3.672c0,0-1.141,0.813-3.766,0.953c0,0-4.641,0.203-5.938,0
	c0,0-2.296-0.321-3.5-0.871c0,0-1.159-0.438-3.267-2.252c0,0-4.559-3.711-5.615-4.481c0,0-1.558-1.396-1.925-2.102
	c0,0-1.276-0.529-1.481-0.752c0,0-4.566-3.517-4.725-3.748l-2.548-2.17c0,0-0.712-0.748-0.775-0.858c0,0-1.132-0.657-2.227-1.547
	l-3.387-3.001l-3.214-2.945c0,0-0.492-0.144-1.097-0.608L8.11,48.291l-1.828-1.346c0,0-1.638-1.22-1.955-3.936l-0.309-3.966
	L3.814,33.23l-0.198-5.25l-0.217-5.016c0,0-0.315-2.761,0.133-4.229c0,0,0.557-2.036,0.909-2.388l4.053-3.776l2.614-2.273
	C11.106,10.299,12.91,8.947,14.663,8.729z"/>
</svg>
