<?xml version="1.0" encoding="utf-8"?>
<!-- Generator: Adobe Illustrator 15.0.0, SVG Export Plug-In  -->
<!DOCTYPE svg PUBLIC "-//W3C//DTD SVG 1.1//EN" "http://www.w3.org/Graphics/SVG/1.1/DTD/svg11.dtd" [
	<!ENTITY ns_flows "http://ns.adobe.com/Flows/1.0/">
]>
<svg version="1.1"
	 xmlns="http://www.w3.org/2000/svg" xmlns:xlink="http://www.w3.org/1999/xlink" xmlns:a="http://ns.adobe.com/AdobeSVGViewerExtensions/3.0/"
	 x="0px" y="0px" width="173px" height="156px" viewBox="-5.681 -4.441 173 156" enable-background="new -5.681 -4.441 173 156"
	 xml:space="preserve">
<defs>
</defs>
<polygon display="none" fill="#FFFFFF" stroke="#1D1D1B" stroke-miterlimit="10" points="19.759,78.118 31.388,66.953 
	37.204,66.953 25.574,78.118 "/>
<polygon display="none" fill="#FFFFFF" stroke="#1D1D1B" stroke-miterlimit="10" points="25.574,78.118 37.204,66.953 
	43.019,66.953 31.388,78.118 "/>
<polygon display="none" fill="#FFFFFF" stroke="#1D1D1B" stroke-miterlimit="10" points="31.388,78.118 43.019,66.953 
	48.833,66.953 37.204,78.118 "/>
<polygon display="none" fill="#FFFFFF" stroke="#1D1D1B" stroke-miterlimit="10" points="37.204,78.118 48.833,66.953 
	54.648,66.953 43.019,78.118 "/>
<polygon display="none" fill="#FFFFFF" stroke="#1D1D1B" stroke-miterlimit="10" points="43.019,78.118 54.648,66.953 
	60.462,66.953 48.833,78.118 "/>
<polygon display="none" fill="#FFFFFF" stroke="#1D1D1B" stroke-miterlimit="10" points="48.833,78.118 60.462,66.953 
	66.277,66.953 54.648,78.118 "/>
<polygon display="none" fill="#FFFFFF" stroke="#1D1D1B" stroke-miterlimit="10" points="54.648,78.118 66.277,66.953 
	72.091,66.953 60.462,78.118 "/>
<polygon display="none" fill="#FFFFFF" stroke="#1D1D1B" stroke-miterlimit="10" points="60.462,78.118 72.091,66.953 
	77.906,66.953 66.277,78.118 "/>
<polygon display="none" fill="#FFFFFF" stroke="#1D1D1B" stroke-miterlimit="10" points="66.277,78.118 77.906,66.953 
	83.722,66.953 72.091,78.118 "/>
<polygon display="none" fill="#FFFFFF" stroke="#1D1D1B" stroke-miterlimit="10" points="72.091,78.118 83.722,66.953 
	89.535,66.953 77.906,78.118 "/>
<polygon display="none" fill="#FFFFFF" stroke="#1D1D1B" stroke-miterlimit="10" points="77.906,78.118 89.535,66.953 
	95.352,66.953 83.722,78.118 "/>
<polygon display="none" fill="#FFFFFF" stroke="#1D1D1B" stroke-miterlimit="10" points="83.722,78.118 95.352,66.953 
	101.165,66.953 89.535,78.118 "/>
<polygon display="none" fill="#FFFFFF" stroke="#1D1D1B" stroke-miterlimit="10" points="89.535,78.118 101.165,66.953 
	106.978,66.953 95.352,78.118 "/>
<polygon display="none" fill="#FFFFFF" stroke="#1D1D1B" stroke-miterlimit="10" points="95.352,78.118 106.978,66.953 
	112.793,66.953 101.165,78.118 "/>
<polygon display="none" fill="#FFFFFF" stroke="#1D1D1B" stroke-miterlimit="10" points="101.165,78.118 112.793,66.953 
	118.609,66.953 106.978,78.118 "/>
<polygon display="none" fill="#FFFFFF" stroke="#1D1D1B" stroke-miterlimit="10" points="106.978,78.118 118.609,66.953 
	124.423,66.953 112.793,78.118 "/>
<polygon display="none" fill="#FFFFFF" stroke="#1D1D1B" stroke-miterlimit="10" points="112.793,78.118 124.423,66.953 
	130.239,66.953 118.609,78.118 "/>
<polygon display="none" fill="#FFFFFF" stroke="#1D1D1B" stroke-miterlimit="10" points="118.609,78.118 130.239,66.953 
	136.05,66.953 124.423,78.118 "/>
<polygon display="none" fill="#FFFFFF" stroke="#1D1D1B" stroke-miterlimit="10" points="124.423,78.118 136.05,66.953 
	141.868,66.953 130.239,78.118 "/>
<polygon display="none" fill="#FFFFFF" stroke="#1D1D1B" stroke-miterlimit="10" points="130.239,78.118 141.868,66.953 
	147.684,66.953 136.05,78.118 "/>
<polygon display="none" fill="#FFFFFF" stroke="#1D1D1B" stroke-miterlimit="10" points="136.05,78.118 147.684,66.953 
	153.498,66.953 141.868,78.118 "/>
<rect x="20.083" y="78.118" display="none" fill="#FFFFFF" stroke="#1D1D1B" stroke-miterlimit="10" width="5.491" height="5.273"/>
<rect x="25.897" y="78.118" display="none" fill="#FFFFFF" stroke="#1D1D1B" stroke-miterlimit="10" width="5.491" height="5.273"/>
<rect x="31.711" y="78.118" display="none" fill="#FFFFFF" stroke="#1D1D1B" stroke-miterlimit="10" width="5.493" height="5.273"/>
<rect x="37.204" y="78.118" display="none" fill="#FFFFFF" stroke="#1D1D1B" stroke-miterlimit="10" width="5.49" height="5.273"/>
<rect x="43.019" y="78.118" display="none" fill="#FFFFFF" stroke="#1D1D1B" stroke-miterlimit="10" width="5.49" height="5.273"/>
<rect x="49.156" y="78.118" display="none" fill="#FFFFFF" stroke="#1D1D1B" stroke-miterlimit="10" width="5.492" height="5.273"/>
<rect x="54.97" y="78.118" display="none" fill="#FFFFFF" stroke="#1D1D1B" stroke-miterlimit="10" width="5.492" height="5.273"/>
<rect x="60.785" y="78.118" display="none" fill="#FFFFFF" stroke="#1D1D1B" stroke-miterlimit="10" width="5.493" height="5.273"/>
<rect x="66.277" y="78.118" display="none" fill="#FFFFFF" stroke="#1D1D1B" stroke-miterlimit="10" width="5.491" height="5.273"/>
<rect x="72.091" y="78.118" display="none" fill="#FFFFFF" stroke="#1D1D1B" stroke-miterlimit="10" width="5.493" height="5.273"/>
<rect x="77.906" y="78.118" display="none" fill="#FFFFFF" stroke="#1D1D1B" stroke-miterlimit="10" width="5.492" height="5.273"/>
<rect x="83.398" y="78.118" display="none" fill="#FFFFFF" stroke="#1D1D1B" stroke-miterlimit="10" width="5.492" height="5.273"/>
<rect x="89.213" y="78.118" display="none" fill="#FFFFFF" stroke="#1D1D1B" stroke-miterlimit="10" width="5.493" height="5.273"/>
<rect x="95.352" y="78.118" display="none" fill="#FFFFFF" stroke="#1D1D1B" stroke-miterlimit="10" width="5.488" height="5.273"/>
<rect x="101.165" y="78.118" display="none" fill="#FFFFFF" stroke="#1D1D1B" stroke-miterlimit="10" width="5.492" height="5.273"/>
<rect x="106.978" y="78.118" display="none" fill="#FFFFFF" stroke="#1D1D1B" stroke-miterlimit="10" width="5.494" height="5.273"/>
<rect x="112.793" y="78.118" display="none" fill="#FFFFFF" stroke="#1D1D1B" stroke-miterlimit="10" width="5.492" height="5.273"/>
<rect x="118.609" y="78.118" display="none" fill="#FFFFFF" stroke="#1D1D1B" stroke-miterlimit="10" width="5.492" height="5.273"/>
<rect x="124.423" y="78.118" display="none" fill="#FFFFFF" stroke="#1D1D1B" stroke-miterlimit="10" width="5.492" height="5.273"/>
<rect x="129.916" y="78.118" display="none" fill="#FFFFFF" stroke="#1D1D1B" stroke-miterlimit="10" width="5.492" height="5.273"/>
<rect x="135.73" y="78.118" display="none" fill="#FFFFFF" stroke="#1D1D1B" stroke-miterlimit="10" width="5.489" height="5.273"/>
<polygon display="none" fill="#1D1D1B" points="33.974,73.912 40.865,66.973 44.31,66.875 37.418,74.008 "/>
<polygon display="none" fill="#1D1D1B" points="45.4,73.99 52.292,67.051 55.738,66.953 48.846,74.086 "/>
<polygon display="none" fill="#1D1D1B" points="51.335,73.912 58.228,66.973 61.673,66.875 54.783,74.008 "/>
<polygon display="none" fill="#1D1D1B" points="57.232,73.912 64.124,66.973 67.57,66.875 60.678,74.008 "/>
<polygon display="none" fill="#1D1D1B" points="86.022,73.834 92.915,66.895 96.36,66.798 89.468,73.932 "/>
<polygon display="none" fill="#1D1D1B" points="91.958,73.757 98.85,66.818 102.293,66.72 95.404,73.854 "/>
<polygon display="none" fill="#1D1D1B" points="97.852,73.757 104.745,66.818 108.189,66.72 101.3,73.854 "/>
<polygon display="none" fill="#1D1D1B" points="126.807,74.145 133.698,67.206 137.143,67.108 130.25,74.242 "/>
<polygon display="none" fill="#1D1D1B" points="132.743,74.067 139.632,67.127 143.08,67.03 136.186,74.165 "/>
<polygon display="none" fill="#1D1D1B" points="138.637,74.067 145.528,67.127 148.974,67.03 142.082,74.165 "/>
<polygon display="none" fill="#1D1D1B" points="28.319,73.912 35.211,66.973 38.657,66.875 31.766,74.008 "/>
<polygon display="none" fill="#1D1D1B" points="74.595,73.912 81.488,66.973 84.933,66.875 78.041,74.008 "/>
<polygon display="none" fill="#1D1D1B" points="68.942,73.912 75.834,66.973 79.278,66.875 72.387,74.008 "/>
<polygon display="none" fill="#1D1D1B" points="115.622,73.912 122.513,66.973 125.958,66.875 119.067,74.008 "/>
<polygon display="none" fill="#1D1D1B" points="109.968,73.912 116.861,66.973 120.305,66.875 113.413,74.008 "/>
<polygon display="none" fill="#1D1D1B" stroke="#FFFFFF" stroke-width="0.25" stroke-miterlimit="10" points="141.975,86.425 
	17.51,85.984 17.524,80.445 141.99,80.888 "/>
<path display="none" fill="#1D1D1B" d="M31.264,66.397L19.669,77.88l0.082,3.561l-2.228-0.021c0,0-0.028-4.896,0.045-4.963
	c1.493-1.335,5.692-5.927,9.99-9.833"/>
<polygon display="none" fill="#1D1D1B" points="27.286,67.028 27.286,21.036 153.396,20.691 153.111,66.569 "/>
<polygon display="none" fill="#1D1D1B" points="21.887,132.312 23.751,86.007 141.564,86.425 148.744,79.738 147.408,133.229 "/>
<polygon display="none" fill="#1D1D1B" points="141.983,79.02 141.983,85.851 148.9,79.362 147.541,133.23 160.363,118.098 
	161.153,20.169 153.498,20.691 153.215,67.872 153.139,68.11 "/>
<path display="none" fill="#1D1D1B" stroke="#FFFFFF" stroke-miterlimit="10" d="M150.185,58.242c0,4.472,0.246,7.694,0.048,8.843
	L30.523,67.2c0.148-1.378,0.297-4.221,0.444-8.871l0.075-1.206c0.074-4.65,0.222-6.172-1.087-6.919l117.266,0.058
	c2.784,0,2.965,2.935,2.965,7.406V58.242z"/>
<polygon display="none" fill="#1D1D1B" points="150.705,67.351 140.767,77.601 140.767,77.851 141.673,77.851 152.486,67.351 "/>
<polygon display="none" fill="none" stroke="#FFFFFF" stroke-width="0.25" stroke-miterlimit="10" points="21.887,132.312 
	23.751,86.007 23.751,85.897 17.626,85.897 17.518,85.851 17.568,76.458 27.285,66.875 27.286,21.036 153.396,20.691 
	161.153,20.169 160.363,118.098 147.541,133.23 "/>
<polygon display="none" fill="#FFFFFF" points="110.425,40.031 50.736,90.642 41.576,91.696 26.841,95.237 16.522,104.659 
	9.74,131.489 18.082,140.382 37.8,137.065 53.472,127.418 63.397,103.236 69.428,93.743 87.784,71.623 115.112,44.217 "/>
<path display="none" fill="#1D1D1B" d="M41.323,107.188l-8.447,9.176c0.683,0.827,1.448,1.676,2.25,2.404l9.584-8.184
	C43.629,109.648,42.438,108.496,41.323,107.188z M41.323,107.188l-8.447,9.176c0.683,0.827,1.448,1.676,2.25,2.404l9.584-8.184
	C43.629,109.648,42.438,108.496,41.323,107.188z M18.082,136.646c-1.091-1.218-2.381-2.522-3.729-3.821
	c-0.097-0.102-0.163-0.202-0.178-0.32c-0.462-1.904,8.302-6.293,3.538-13.734c-3.852-6.035-9.894-8.43-13.745-9.616
	c-1.455-0.441-3.006,6.386-1.926,12.562c0.008,0.009,0.008,0.024,0.016,0.035c1.548,4.301,5.026,9.391,11.371,15.979
	c2.169,2.253,4.237,4.098,6.188,5.598c0.375-0.018,0.71-0.127,0.987-0.347C22.039,141.858,20.605,139.453,18.082,136.646z
	 M58.801,99.776c-0.806-0.48-1.553-1.033-2.224-1.63c-0.735-0.662-1.907-2.028-2.524-2.644c-0.945-0.942-0.972-1.245-1.384-1.894
	l-11.078,9.074c0.228,0.289,1.032,1.294,2.106,2.511c0.886,1.023,1.962,2.191,3.048,3.251c0.865,0.848,1.749,1.611,2.537,2.16
	L58.801,99.776z M44.709,110.584c-1.08-0.936-2.271-2.088-3.387-3.396c-0.715-0.847-1.405-1.748-2.018-2.694l-8.303,9.433
	c0.461,0.648,1.117,1.517,1.873,2.438c0.683,0.827,1.448,1.676,2.25,2.404c0.891,0.856,1.815,1.549,2.675,1.896l9.588-7.908
	C46.732,112.278,45.773,111.536,44.709,110.584z M41.323,107.188l-8.447,9.176c0.683,0.827,1.448,1.676,2.25,2.404l9.584-8.184
	C43.629,109.648,42.438,108.496,41.323,107.188z M41.323,107.188l-8.447,9.176c0.683,0.827,1.448,1.676,2.25,2.404l9.584-8.184
	C43.629,109.648,42.438,108.496,41.323,107.188z"/>
<path display="none" fill="#1D1D1B" stroke="#FFFFFF" stroke-width="0.25" stroke-miterlimit="10" d="M61.519,125.932
	c-5.071-2.233-3.675-7.412,0.615-13.177c4.189-5.647,10.201-8.728,12.472-1.252c1.722-8.657,14.883-6.119,18.866-20.545
	c2.072-7.459,0.353-12.805-4.351-18.725l25.699-27.059l0.328,0.339l1.479-1.427l-0.291-0.305c0.777-0.75,2.075-2.082,3.501-3.567
	l2.34,2.431c-0.95,1.388-0.826,3.276,0.381,4.529c1.368,1.424,3.637,1.475,5.07,0.098c1.432-1.378,1.466-3.648,0.096-5.07
	c-1.126-1.169-2.851-1.417-4.22-0.72l-2.453-2.55c1.654-1.757,3.352-3.57,4.521-4.829l2.896,3.007
	c-0.724,1.334-0.539,3.034,0.569,4.185c1.38,1.431,3.647,1.467,5.079,0.089c1.421-1.372,1.474-3.639,0.097-5.071
	c-1.223-1.271-3.132-1.439-4.556-0.511l-2.877-2.99c0.211-0.219,0.32-0.342,0.32-0.342l0.143-0.039l1.949-0.521l0.991-0.596
	c0,0,0.706,0.479,2.05,0.098c0.278-0.087,1.546-1.668,1.546-1.668l-0.995-1.473l0.784-1.848l-0.64-0.853l1.62-2.281
	c0.218-1.301-2.465-2.375-2.465-2.375l-2.158,1.538l-1.29-0.763l-1.346,0.806c-1.403,1.237-3.011,1.821-3.522,1.987
	c-0.023,0.822,0.332,1.395,0.332,1.395c-0.947,0.914-1.712,2.188-1.712,2.188c-0.444,0.233-1.272,0.882-2.295,1.736l-2.48-2.574
	c0.683-1.327,0.475-2.985-0.619-4.121c-1.369-1.421-3.639-1.475-5.069-0.096c-1.433,1.378-1.467,3.647-0.096,5.07
	c1.239,1.288,3.182,1.458,4.604,0.479l2.324,2.414c-2.022,1.783-4.418,4.023-6.154,5.679L110.052,34
	c1.1-1.384,1.03-3.406-0.227-4.71c-1.378-1.433-3.655-1.476-5.076-0.105c-1.434,1.378-1.476,3.655-0.098,5.086
	c1.051,1.092,2.643,1.373,3.977,0.808l2.691,2.795l-0.351,0.334l-0.357-0.373l-1.482,1.426l0.294,0.305L81.21,64.201
	c-4.321-3.316-10.337-6.19-17.322-4.735c-16.672,3.466-12.044,15.51-21.232,17.716c5.944,4.852,2.233,8.049-3.119,12.661
	c-4.791,4.125-11.42,4.613-12.903-0.519c-5.263,7.974-15.132,4.352-21.947,16.021c-3.075,5.263-4.994,9.914-2.712,16.287
	c-1.079-6.176,0.472-13.003,1.928-12.562c3.85,1.188,9.892,3.581,13.742,9.616c4.766,7.441-3.997,11.83-3.534,13.735l0.692-0.602
	c0,0,8.173-4.767,10.935-13.631l4.468-5.393c0,0,0.267,0.412,0.729,1.045l8.304-9.432c-0.234-0.361-0.461-0.73-0.669-1.117
	l2.891-0.775c0,0,0.024,0.024,0.066,0.083l11.273-8.783c-0.476-0.765-0.743-1.255-0.743-1.255l21.457-19.694l36.93-32.243
	l3.368,3.499L88.188,71.093c-0.008-0.008-0.008-0.008-0.017-0.017l-28.615,29.051c-0.279-0.14-0.561-0.279-0.822-0.434l-9.52,10.829
	c0.125,0.076,0.238,0.162,0.354,0.229l-1.348,2.57c0,0-0.345-0.221-0.901-0.649l-9.588,7.908c0.165,0.07,0.34,0.132,0.506,0.168
	l-5.104,4.176c0,0-9.794,2.136-14.703,11.057l-0.419,0.582c2.525,2.808,3.959,5.212,2.525,6.332c-0.28,0.221-0.615,0.33-0.988,0.348
	c12.294,9.431,20.426,5.42,23.906,3.896C54.892,142.153,54.099,129.6,61.519,125.932z M112.162,39.444l11.122-9.874l-1.26,1.863
	l-0.007,0.009l-0.162,0.238l1.271,1.32l0.044-0.023l2.489-1.126l-10.596,10.608L112.162,39.444z"/>
<g display="none">
	<path display="inline" fill="#FFFFFF" d="M45.493,96.897c0.456-0.226,0.889-0.604,0.888-1.022c0.024-0.406-0.271-0.816-0.599-1.169
		c-0.669-0.751-1.522-1.001-2.43-0.681c-0.896,0.298-1.814,0.812-2.685,1.385c-0.877,0.573-1.707,1.235-2.463,1.972
		c-1.537,1.457-2.811,3.177-4.554,4.515c-0.87,0.647-1.875,1.272-3.069,1.437c-1.193,0.18-2.387-0.189-3.35-0.731l-0.15-0.085
		l-0.053-0.112c-0.193-0.412-0.328-0.801-0.434-1.227c-0.097-0.421-0.169-0.865-0.104-1.333c0.054-0.459,0.307-0.963,0.725-1.222
		c0.408-0.271,0.867-0.313,1.282-0.302l0.128,0.004l0.028,0.095c0.089,0.304,0.177,0.607,0.255,0.915l-0.092,0.037
		c-0.159-0.274-0.309-0.554-0.456-0.833l0.156,0.099c-0.376,0.071-0.74,0.196-0.979,0.413c-0.24,0.216-0.337,0.517-0.33,0.854
		c0.005,0.67,0.302,1.425,0.658,2.043l-0.203-0.197c0.912,0.414,1.856,0.647,2.778,0.527c0.924-0.106,1.831-0.555,2.673-1.127
		c1.673-1.18,3.339-2.542,4.879-3.989c0.777-0.725,1.519-1.486,2.313-2.216c0.804-0.709,1.654-1.437,2.788-1.779
		c0.557-0.167,1.213-0.221,1.82-0.009c0.602,0.216,1.077,0.646,1.408,1.1c0.323,0.446,0.67,1.026,0.524,1.7
		c-0.2,0.664-0.806,0.951-1.327,1.036L45.493,96.897z"/>
</g>
<g display="none">
	<path display="inline" fill="#FFFFFF" d="M54.951,107.044c0.104-0.518,0.413-1.112,1.084-1.288c0.68-0.121,1.246,0.249,1.679,0.59
		c0.44,0.347,0.853,0.839,1.047,1.447c0.188,0.615,0.11,1.269-0.077,1.819c-0.386,1.12-1.146,1.942-1.885,2.718
		c-0.759,0.766-1.548,1.479-2.302,2.228c-1.505,1.483-2.93,3.097-4.171,4.723c-0.604,0.82-1.087,1.71-1.228,2.629
		c-0.155,0.916,0.044,1.868,0.424,2.795l-0.188-0.21c0.603,0.381,1.346,0.706,2.015,0.736c0.336,0.019,0.64-0.067,0.864-0.3
		c0.226-0.23,0.365-0.589,0.451-0.963l0.092,0.161c-0.273-0.158-0.547-0.317-0.815-0.486l0.041-0.092
		c0.305,0.09,0.605,0.188,0.904,0.289l0.095,0.032l-0.002,0.129c-0.005,0.415-0.065,0.871-0.35,1.269
		c-0.274,0.407-0.787,0.642-1.248,0.679c-0.469,0.047-0.911-0.042-1.328-0.154c-0.421-0.122-0.804-0.271-1.209-0.479l-0.109-0.057
		l-0.079-0.153c-0.506-0.982-0.831-2.188-0.606-3.374c0.208-1.188,0.871-2.169,1.552-3.014c1.403-1.691,3.169-2.898,4.685-4.378
		c0.765-0.728,1.458-1.532,2.063-2.387c0.605-0.848,1.153-1.745,1.484-2.63c0.354-0.896,0.138-1.757-0.589-2.454
		c-0.34-0.34-0.737-0.652-1.144-0.644c-0.419-0.017-0.812,0.403-1.054,0.851L54.951,107.044z"/>
</g>
<path display="none" fill="#009FE3" d="M17.27,137.802l-4.295-4.255l1.2-1.043c0.015,0.118,0.081,0.219,0.178,0.32
	c1.348,1.299,2.638,2.604,3.729,3.821L17.27,137.802z"/>
<path display="none" fill="#1D1D1B" stroke="#FFFFFF" stroke-miterlimit="10" d="M20.604,142.979
	c-0.277,0.22-0.612,0.329-0.987,0.347c-4.372,0.307-14.344-12.17-16.688-18.335c-0.387-1.029-0.676-2.124-0.87-3.241
	c-0.008-0.011-0.008-0.026-0.016-0.035c-1.08-6.176,0.471-13.003,1.926-12.562c3.852,1.187,9.894,3.581,13.745,9.616
	c4.764,7.441-4,11.83-3.538,13.734c0.015,0.118,0.081,0.219,0.178,0.32c1.348,1.299,2.638,2.604,3.729,3.821
	C20.605,139.453,22.039,141.858,20.604,142.979z"/>
<path display="none" fill="#1D1D1B" d="M127.36,22.578c-1.403,1.237-3.012,1.821-3.522,1.987c0.026-0.856,0.463-1.979,2.145-2.978
	l1.218,1.079L127.36,22.578z"/>
<path display="none" fill="none" stroke="#009FE3" stroke-width="0.25" stroke-miterlimit="10" d="M123.837,24.565
	c-0.106,0.022-0.165,0.046-0.165,0.046"/>
<path display="none" fill="none" stroke="#FFFFFF" stroke-width="0.25" stroke-miterlimit="10" d="M122.578,28.152
	c0,0,4.718-2.644,9.516-7.096"/>
<path display="none" fill="none" stroke="#FFFFFF" stroke-width="0.25" stroke-miterlimit="10" d="M132.92,21.877
	c-5.029,5.134-9.755,8.818-10.828,9.638"/>
<path display="none" fill="none" stroke="#009FE3" stroke-width="0.25" stroke-miterlimit="10" d="M122.084,31.525
	c-0.143,0.104-0.22,0.162-0.22,0.162"/>
<path display="none" fill="none" stroke="#FFFFFF" stroke-width="0.25" stroke-miterlimit="10" d="M130.234,31.375
	c0,0,0.871-1.657,2.531-2.925"/>
<path display="none" fill="none" stroke="#FFFFFF" stroke-width="0.25" stroke-miterlimit="10" d="M127.187,32.715
	c0,0,2.812-4.563,7.292-9.332"/>
<path display="none" fill="none" stroke="#FFFFFF" stroke-width="0.25" stroke-miterlimit="10" d="M123.233,33.056
	c0,0,4.448-5.017,10.711-10.433"/>
<polyline display="none" fill="none" stroke="#FFFFFF" stroke-width="0.5" stroke-miterlimit="10" points="54.892,94.454 
	53.963,95.324 43.584,105.065 41.408,107.09 41.323,107.188 32.875,116.363 32.638,116.626 "/>
<polyline display="none" fill="none" stroke="#FFFFFF" stroke-width="0.5" stroke-miterlimit="10" points="30.043,113.932 
	30.28,113.669 38.728,104.492 38.814,104.394 41.102,102.499 51.788,93.077 52.833,92.285 "/>
<polyline display="none" fill="none" stroke="#FFFFFF" stroke-width="0.5" stroke-miterlimit="10" points="34.667,119.158 
	35.125,118.768 44.709,110.584 44.743,110.552 46.746,108.445 56.849,98.379 57.716,97.509 "/>
<polyline display="none" fill="none" stroke="#FFFFFF" stroke-width="0.5" stroke-miterlimit="10" points="59.842,99.539 
	58.884,100.542 49.052,110.841 47.05,112.947 47.015,112.98 37.432,121.165 36.975,121.554 "/>
<line display="none" fill="none" stroke="#009FE3" stroke-width="0.5" stroke-miterlimit="10" x1="37.8" y1="120.664" x2="37.547" y2="120.875"/>
<path display="none" fill="#1D1D1B" d="M144.751,124.589c-0.237,0.392-1.027,0.35-1.77-0.104l-1.763-1.082
	c-0.021,0.235-0.1,0.477-0.236,0.696c-0.483,0.792-1.529,1.036-2.321,0.55l-9.02-5.528c-0.804-0.491-1.053-1.527-0.567-2.319
	c0.136-0.221,0.313-0.4,0.515-0.524l-119.291-73.1c-0.428,0.179-1.161,0.047-1.862-0.384l-3.509-2.149
	c-0.892-0.547-1.384-1.386-1.095-1.857c0.048-0.08,0.105-0.128,0.176-0.181c0.009-0.077,0.025-0.15,0.068-0.22
	c0.24-0.391,1.031-0.333,1.763,0.115l138.01,84.569C144.591,123.525,144.99,124.196,144.751,124.589z"/>
<path display="none" fill="none" stroke="#1D1D1B" stroke-width="0.5" stroke-miterlimit="10" d="M4.219,40.031l0.227,0.943
	c7.661,4.645,124.903,76.881,124.903,76.881"/>
<rect x="112.015" y="38.872" transform="matrix(0.707 0.7072 -0.7072 0.707 61.6779 -69.3557)" display="none" fill="#1D1D1B" width="5.054" height="1.774"/>
<rect x="115" y="35.887" transform="matrix(0.7072 0.7071 -0.7071 0.7072 60.4193 -72.3289)" display="none" fill="#1D1D1B" width="5.054" height="1.775"/>
<rect x="119.336" y="32.054" transform="matrix(0.7071 0.7072 -0.7072 0.7071 58.9935 -76.5259)" display="none" fill="#1D1D1B" width="5.054" height="1.775"/>
<rect x="121.201" y="30.189" transform="matrix(0.7071 0.7071 -0.7071 0.7071 58.2134 -78.3869)" display="none" fill="#1D1D1B" width="5.053" height="1.775"/>
<polyline display="none" fill="none" stroke="#1D1D1B" stroke-width="0.25" stroke-miterlimit="10" points="111.368,40.75 
	39.231,104.048 30.461,113.473 "/>
<polyline display="none" fill="none" stroke="#1D1D1B" stroke-width="0.25" stroke-miterlimit="10" points="111.857,41.542 
	41.323,107.188 32.638,116.626 "/>
<polyline display="none" fill="none" stroke="#1D1D1B" stroke-width="0.25" stroke-miterlimit="10" points="112.824,42.174 
	45.085,110.191 34.667,119.158 "/>
<polyline display="none" fill="none" stroke="#1D1D1B" stroke-width="0.25" stroke-miterlimit="10" points="113.626,42.976 
	47.32,112.674 37.432,121.165 "/>
<path display="none" fill="none" stroke="#FFFFFF" stroke-width="0.25" stroke-miterlimit="10" d="M51.792,66.659L5.104,38.125
	c0,0-0.718-0.419-1.096,0.481c0,0-0.732,0.463,0,1.187l-0.034,0.237l0.245,1.097l45.912,28.278"/>
<path display="none" fill="none" stroke="#FFFFFF" stroke-width="0.25" stroke-miterlimit="10" d="M50.893,68.053L10.298,43.177
	c0,0-0.901,0.155-1.525-0.202L4.631,40.44v0.31l4.844,3.015l40.914,25.167"/>
<path display="none" fill="none" stroke="#FFFFFF" stroke-width="0.25" stroke-miterlimit="10" d="M93.157,92.007l51.24,31.503
	c0,0,1.203,1.49-0.604,1.39l-2.573-1.496c0,0-0.36,1.829-2.06,1.443l-9.811-5.954c0,0-0.556-0.452-0.51-1.037L91.914,95.019"/>
<path display="none" fill="none" stroke="#FFFFFF" stroke-width="0.25" stroke-miterlimit="10" d="M92.572,93.593l37.018,22.685
	c0,0-0.612,0.539-0.68,0.902L91.914,94.561"/>
<polygon display="none" fill="#FFFFFF" points="121.153,24.93 55.152,80.893 45.023,82.059 28.73,85.975 17.319,96.393 
	9.819,126.059 19.043,135.893 40.848,132.226 58.178,121.559 69.152,94.819 75.819,84.323 96.117,59.862 126.336,29.559 "/>
<path display="none" fill="#1D1D1B" d="M44.744,99.188l-9.341,10.146c0.755,0.914,1.601,1.853,2.487,2.658l10.599-9.05
	C47.293,101.91,45.976,100.636,44.744,99.188z M44.744,99.188l-9.341,10.146c0.755,0.914,1.601,1.853,2.487,2.658l10.599-9.05
	C47.293,101.91,45.976,100.636,44.744,99.188z M19.043,131.763c-1.205-1.348-2.632-2.791-4.122-4.227
	c-0.108-0.112-0.18-0.224-0.195-0.354c-0.512-2.106,9.179-6.959,3.91-15.187c-4.258-6.675-10.938-9.321-15.197-10.634
	c-1.61-0.488-3.324,7.062-2.131,13.89c0.009,0.009,0.009,0.027,0.018,0.038c1.713,4.757,5.559,10.385,12.574,17.669
	c2.398,2.492,4.685,4.531,6.841,6.189c0.414-0.019,0.785-0.141,1.092-0.384C23.42,137.526,21.834,134.866,19.043,131.763z
	 M64.07,90.993c-0.891-0.53-1.717-1.144-2.458-1.803c-0.813-0.73-2.11-2.241-2.792-2.923c-1.044-1.042-1.074-1.376-1.529-2.094
	L45.041,94.208c0.251,0.32,1.14,1.431,2.329,2.776c0.98,1.132,2.169,2.423,3.371,3.594c0.956,0.938,1.933,1.783,2.805,2.39
	L64.07,90.993z M48.488,102.943c-1.195-1.033-2.512-2.308-3.745-3.755c-0.791-0.937-1.555-1.934-2.231-2.979l-9.182,10.429
	c0.51,0.718,1.236,1.679,2.072,2.696c0.755,0.914,1.601,1.853,2.487,2.658c0.984,0.947,2.008,1.712,2.958,2.097l10.602-8.744
	C50.724,104.817,49.664,103.997,48.488,102.943z M44.744,99.188l-9.341,10.146c0.755,0.914,1.601,1.853,2.487,2.658l10.599-9.05
	C47.293,101.91,45.976,100.636,44.744,99.188z M44.744,99.188l-9.341,10.146c0.755,0.914,1.601,1.853,2.487,2.658l10.599-9.05
	C47.293,101.91,45.976,100.636,44.744,99.188z"/>
<path display="none" fill="#1D1D1B" stroke="#FFFFFF" stroke-width="0.25" stroke-miterlimit="10" d="M67.076,119.915
	c-5.608-2.47-4.064-8.197,0.68-14.57c4.633-6.245,11.28-9.651,13.792-1.385c1.901-9.573,16.456-6.766,20.86-22.718
	c2.291-8.248,0.39-14.159-4.811-20.704l28.416-29.921l0.363,0.375l1.637-1.578l-0.323-0.337c0.86-0.83,2.296-2.301,3.872-3.944
	l2.588,2.688c-1.051,1.534-0.915,3.623,0.421,5.009c1.513,1.574,4.021,1.63,5.606,0.107c1.582-1.524,1.62-4.033,0.105-5.606
	c-1.245-1.293-3.151-1.567-4.665-0.796l-2.714-2.819c1.829-1.942,3.706-3.948,5-5.339l3.201,3.325
	c-0.8,1.475-0.596,3.355,0.63,4.627c1.525,1.583,4.033,1.622,5.616,0.099c1.572-1.517,1.63-4.024,0.106-5.607
	c-1.352-1.405-3.463-1.592-5.036-0.565l-3.183-3.307c0.233-0.242,0.355-0.378,0.355-0.378l0.157-0.042l2.154-0.576l1.097-0.659
	c0,0,0.781,0.53,2.268,0.108c0.307-0.096,1.709-1.845,1.709-1.845l-1.101-1.628l0.867-2.043l-0.708-0.943l1.792-2.522
	c0.241-1.438-2.726-2.626-2.726-2.626l-2.387,1.701l-1.426-0.844l-1.488,0.891c-1.552,1.368-3.329,2.014-3.896,2.197
	c-0.025,0.909,0.368,1.542,0.368,1.542c-1.048,1.01-1.895,2.419-1.895,2.419c-0.491,0.258-1.406,0.975-2.537,1.92l-2.741-2.847
	c0.753-1.467,0.523-3.301-0.686-4.556c-1.514-1.572-4.023-1.631-5.605-0.106c-1.584,1.523-1.622,4.033-0.106,5.605
	c1.371,1.424,3.518,1.612,5.092,0.529l2.57,2.669c-2.237,1.972-4.885,4.449-6.805,6.28l-2.821-2.932
	c1.215-1.531,1.138-3.766-0.251-5.208c-1.524-1.583-4.042-1.631-5.614-0.116c-1.584,1.524-1.631,4.042-0.107,5.624
	c1.162,1.208,2.923,1.518,4.397,0.894l2.975,3.091l-0.386,0.37l-0.396-0.412l-1.64,1.578l0.325,0.337L88.848,51.656
	c-4.776-3.667-11.429-6.845-19.154-5.236c-18.435,3.833-13.317,17.151-23.477,19.588c6.573,5.366,2.47,8.901-3.448,14
	c-5.298,4.562-12.628,5.103-14.268-0.573C22.68,88.253,11.77,84.247,4.232,97.151c-3.401,5.819-5.522,10.963-3,18.01
	c-1.193-6.828,0.521-14.378,2.131-13.89c4.258,1.313,10.939,3.959,15.197,10.634c5.269,8.228-4.421,13.08-3.91,15.187l0.766-0.665
	c0,0,9.037-5.271,12.092-15.071l4.94-5.963c0,0,0.295,0.455,0.806,1.155l9.182-10.429c-0.26-0.4-0.51-0.809-0.74-1.236l3.197-0.857
	c0,0,0.027,0.027,0.072,0.092l12.465-9.711c-0.526-0.846-0.82-1.389-0.82-1.389L80.336,61.24l40.835-35.652l3.725,3.869
	L96.564,59.277c-0.009-0.009-0.009-0.009-0.018-0.019L64.905,91.382c-0.31-0.154-0.62-0.308-0.91-0.479L53.47,102.877
	c0.137,0.084,0.263,0.179,0.391,0.254l-1.49,2.842c0,0-0.381-0.244-0.996-0.718l-10.602,8.744c0.183,0.078,0.375,0.146,0.558,0.186
	l-5.642,4.618c0,0-10.831,2.361-16.258,12.226l-0.463,0.644c2.791,3.104,4.377,5.764,2.791,7.002
	c-0.308,0.243-0.679,0.365-1.092,0.384c13.594,10.428,22.586,5.993,26.434,4.309C59.748,137.851,58.871,123.97,67.076,119.915z
	 M123.073,24.281l12.299-10.918l-1.393,2.06l-0.008,0.01l-0.181,0.263l1.407,1.46l0.048-0.026l2.753-1.245l-11.716,11.73
	L123.073,24.281z"/>
<g display="none">
	<path display="inline" fill="#FFFFFF" d="M49.356,87.814c0.507-0.242,0.996-0.655,1.005-1.132c0.033-0.463-0.298-0.925-0.659-1.32
		c-0.736-0.843-1.714-1.135-2.73-0.773c-1.004,0.331-2.015,0.911-2.974,1.551c-0.965,0.643-1.879,1.38-2.715,2.194
		c-1.699,1.611-3.127,3.493-5.052,4.965c-0.961,0.712-2.067,1.394-3.374,1.572c-1.305,0.195-2.611-0.205-3.673-0.798l-0.15-0.083
		l-0.054-0.114c-0.212-0.45-0.363-0.878-0.48-1.345c-0.108-0.462-0.188-0.949-0.12-1.458c0.057-0.502,0.329-1.049,0.781-1.332
		c0.442-0.297,0.944-0.347,1.401-0.34l0.127,0.003l0.029,0.096c0.102,0.334,0.202,0.669,0.292,1.008l-0.093,0.037
		c-0.171-0.306-0.333-0.615-0.493-0.926l0.156,0.099c-0.418,0.074-0.826,0.208-1.099,0.451c-0.275,0.24-0.391,0.584-0.387,0.963
		c0,0.756,0.327,1.594,0.722,2.287l-0.204-0.197c1.011,0.464,2.069,0.73,3.103,0.593c1.036-0.12,2.044-0.625,2.977-1.262
		c1.854-1.313,3.674-2.838,5.377-4.44c0.858-0.801,1.683-1.638,2.565-2.437c0.892-0.777,1.836-1.57,3.077-1.947
		c0.61-0.183,1.325-0.241,1.986-0.013c0.655,0.233,1.175,0.701,1.542,1.197c0.358,0.488,0.74,1.12,0.585,1.852
		c-0.21,0.722-0.871,1.044-1.444,1.146L49.356,87.814z"/>
</g>
<g display="none">
	<path display="inline" fill="#FFFFFF" d="M59.818,99.031c0.123-0.569,0.468-1.218,1.197-1.401c0.737-0.128,1.354,0.278,1.828,0.654
		c0.482,0.385,0.93,0.923,1.139,1.585c0.204,0.67,0.118,1.382-0.087,1.984c-0.423,1.226-1.252,2.14-2.062,3.001
		c-0.832,0.852-1.699,1.645-2.532,2.472c-1.666,1.641-3.259,3.402-4.641,5.204c-0.673,0.908-1.215,1.896-1.374,2.927
		c-0.176,1.027,0.051,2.094,0.478,3.121l-0.189-0.21c0.677,0.421,1.501,0.779,2.255,0.809c0.378,0.019,0.725-0.084,0.976-0.351
		c0.253-0.264,0.403-0.666,0.493-1.08l0.092,0.159c-0.303-0.172-0.606-0.345-0.905-0.527l0.041-0.092
		c0.334,0.104,0.665,0.217,0.994,0.331l0.095,0.033l-0.003,0.128c-0.01,0.456-0.08,0.956-0.392,1.386
		c-0.3,0.441-0.856,0.693-1.36,0.73c-0.511,0.049-0.995-0.049-1.452-0.175c-0.461-0.135-0.883-0.302-1.324-0.531l-0.111-0.058
		l-0.078-0.152c-0.553-1.083-0.905-2.404-0.661-3.7c0.227-1.3,0.951-2.379,1.699-3.313c1.543-1.866,3.479-3.222,5.153-4.858
		c0.845-0.806,1.617-1.69,2.295-2.631c0.676-0.934,1.293-1.922,1.662-2.913c0.399-1.001,0.145-1.989-0.671-2.757
		c-0.381-0.376-0.83-0.724-1.293-0.708c-0.477-0.008-0.907,0.466-1.167,0.964L59.818,99.031z"/>
</g>
<path display="none" fill="#009FE3" d="M18.146,133.04l-4.747-4.704l1.328-1.153c0.015,0.13,0.087,0.241,0.195,0.354
	c1.489,1.436,2.917,2.879,4.122,4.227L18.146,133.04z"/>
<path display="none" fill="#1D1D1B" stroke="#FFFFFF" stroke-miterlimit="10" d="M21.834,138.765
	c-0.308,0.243-0.679,0.365-1.092,0.384c-4.833,0.34-15.862-13.457-18.453-20.274c-0.429-1.138-0.747-2.348-0.962-3.584
	c-0.009-0.011-0.009-0.029-0.018-0.038c-1.193-6.828,0.521-14.378,2.131-13.89c4.258,1.313,10.939,3.959,15.197,10.634
	c5.269,8.228-4.421,13.08-3.91,15.187c0.015,0.13,0.087,0.241,0.195,0.354c1.489,1.436,2.917,2.879,4.122,4.227
	C21.834,134.866,23.42,137.526,21.834,138.765z"/>
<path display="none" fill="#1D1D1B" d="M139.878,5.631c-1.552,1.368-3.329,2.014-3.896,2.197c0.03-0.947,0.513-2.188,2.372-3.292
	l1.348,1.193L139.878,5.631z"/>
<path display="none" fill="none" stroke="#009FE3" stroke-width="0.25" stroke-miterlimit="10" d="M135.983,7.828
	c-0.117,0.025-0.183,0.051-0.183,0.051"/>
<path display="none" fill="none" stroke="#FFFFFF" stroke-width="0.25" stroke-miterlimit="10" d="M134.59,11.794
	c0,0,5.218-2.923,10.521-7.845"/>
<path display="none" fill="none" stroke="#FFFFFF" stroke-width="0.25" stroke-miterlimit="10" d="M146.027,4.856
	c-5.561,5.677-10.786,9.751-11.973,10.658"/>
<path display="none" fill="none" stroke="#009FE3" stroke-width="0.25" stroke-miterlimit="10" d="M134.046,15.524
	c-0.159,0.116-0.244,0.179-0.244,0.179"/>
<path display="none" fill="none" stroke="#FFFFFF" stroke-width="0.25" stroke-miterlimit="10" d="M143.056,15.358
	c0,0,0.963-1.833,2.8-3.233"/>
<path display="none" fill="none" stroke="#FFFFFF" stroke-width="0.25" stroke-miterlimit="10" d="M139.687,16.84
	c0,0,3.109-5.046,8.063-10.319"/>
<path display="none" fill="none" stroke="#FFFFFF" stroke-width="0.25" stroke-miterlimit="10" d="M135.316,17.218
	c0,0,4.918-5.548,11.843-11.536"/>
<polyline display="none" fill="none" stroke="#FFFFFF" stroke-width="0.5" stroke-miterlimit="10" points="59.748,85.107 
	58.721,86.071 47.244,96.842 44.838,99.079 44.744,99.188 35.403,109.335 35.14,109.625 "/>
<polyline display="none" fill="none" stroke="#FFFFFF" stroke-width="0.5" stroke-miterlimit="10" points="32.271,106.645 
	32.534,106.355 41.875,96.209 41.969,96.099 44.5,94.004 56.314,83.585 57.47,82.71 "/>
<polyline display="none" fill="none" stroke="#FFFFFF" stroke-width="0.5" stroke-miterlimit="10" points="37.385,112.425 
	37.89,111.993 48.488,102.943 48.525,102.908 50.74,100.578 61.911,89.449 62.87,88.485 "/>
<polyline display="none" fill="none" stroke="#FFFFFF" stroke-width="0.5" stroke-miterlimit="10" points="65.222,90.73 
	64.163,91.84 53.29,103.229 51.076,105.557 51.038,105.594 40.441,114.644 39.936,115.074 "/>
<line display="none" fill="none" stroke="#009FE3" stroke-width="0.5" stroke-miterlimit="10" x1="40.848" y1="114.09" x2="40.567" y2="114.323"/>
<path display="none" fill="#1D1D1B" d="M159.109,118.429c-0.263,0.434-1.135,0.388-1.956-0.113l-1.949-1.196
	c-0.023,0.259-0.11,0.527-0.261,0.769c-0.535,0.877-1.692,1.146-2.566,0.61l-9.975-6.114c-0.889-0.543-1.163-1.688-0.627-2.564
	c0.15-0.244,0.347-0.442,0.569-0.58L10.437,28.409c-0.472,0.197-1.283,0.052-2.058-0.424l-3.88-2.376
	c-0.986-0.605-1.531-1.533-1.211-2.054c0.054-0.088,0.117-0.143,0.196-0.2c0.008-0.085,0.027-0.167,0.074-0.244
	c0.265-0.433,1.141-0.368,1.95,0.127l152.604,93.513C158.932,117.254,159.373,117.997,159.109,118.429z"/>
<path display="none" fill="none" stroke="#1D1D1B" stroke-width="0.5" stroke-miterlimit="10" d="M3.715,24.93l0.25,1.043
	c8.472,5.135,138.112,85.013,138.112,85.013"/>
<rect x="122.912" y="23.648" transform="matrix(0.7071 0.7071 -0.7071 0.7071 54.2341 -81.6738)" display="none" fill="#1D1D1B" width="5.588" height="1.962"/>
<rect x="126.212" y="20.348" transform="matrix(0.7071 0.7071 -0.7071 0.7071 52.8672 -84.9736)" display="none" fill="#1D1D1B" width="5.588" height="1.962"/>
<rect x="131.007" y="16.11" transform="matrix(0.7071 0.7071 -0.7071 0.7071 51.2744 -89.6057)" display="none" fill="#1D1D1B" width="5.588" height="1.962"/>
<rect x="133.069" y="14.047" transform="matrix(0.7071 0.7071 -0.7071 0.7071 50.4202 -91.6681)" display="none" fill="#1D1D1B" width="5.588" height="1.963"/>
<polyline display="none" fill="none" stroke="#1D1D1B" stroke-width="0.25" stroke-miterlimit="10" points="122.195,25.726 
	42.43,95.717 32.734,106.138 "/>
<polyline display="none" fill="none" stroke="#1D1D1B" stroke-width="0.25" stroke-miterlimit="10" points="122.736,26.601 
	44.744,99.188 35.14,109.625 "/>
<polyline display="none" fill="none" stroke="#1D1D1B" stroke-width="0.25" stroke-miterlimit="10" points="123.805,27.299 
	48.903,102.51 37.385,112.425 "/>
<polyline display="none" fill="none" stroke="#1D1D1B" stroke-width="0.25" stroke-miterlimit="10" points="124.693,28.186 
	51.375,105.255 40.441,114.644 "/>
<path display="none" fill="none" stroke="#FFFFFF" stroke-width="0.25" stroke-miterlimit="10" d="M56.319,54.374L4.694,22.823
	c0,0-0.795-0.464-1.21,0.532c0,0-0.811,0.512,0,1.313l-0.04,0.262l0.271,1.212l50.769,31.269"/>
<path display="none" fill="none" stroke="#FFFFFF" stroke-width="0.25" stroke-miterlimit="10" d="M55.326,55.916L10.437,28.409
	c0,0-0.997,0.172-1.685-0.223l-4.581-2.803v0.343l5.356,3.333L54.77,56.888"/>
<path display="none" fill="none" stroke="#FFFFFF" stroke-width="0.25" stroke-miterlimit="10" d="M102.058,82.402l56.659,34.835
	c0,0,1.331,1.646-0.669,1.536l-2.845-1.654c0,0-0.399,2.022-2.277,1.596l-10.849-6.584c0,0-0.613-0.5-0.563-1.146l-40.831-25.253"/>
<path display="none" fill="none" stroke="#FFFFFF" stroke-width="0.25" stroke-miterlimit="10" d="M101.412,84.156l40.933,25.083
	c0,0-0.677,0.597-0.753,0.998l-40.907-25.012"/>
<polygon display="none" fill="#FFFFFF" points="82.197,29.726 78.505,92.294 71.986,96.101 69.736,107.851 64.361,110.351 
	66.993,118.54 80.51,128.226 81.486,140.476 82.197,141.302 87.61,141.466 90.86,137.976 93.361,123.476 106.861,113.222 
	94.361,85.596 92.008,65.726 90.069,61.351 87.923,29.726 "/>
<path display="none" fill="#1D1D1B" stroke="#FFFFFF" stroke-miterlimit="10" d="M90.128,93.674c-0.912,0.2-2.354,0.258-3.252,0.315
	c-0.994,0.058-1.952,0.05-2.827-0.008c-1.16-0.068-3.385-0.413-3.637-0.462l-0.704,11.748c0.367,0.028,1.656,0.124,3.288,0.18
	c1.36,0.058,2.956,0.086,4.481,0.049c1.218-0.028,2.39-0.115,3.336-0.269L90.128,93.674z M82.784,107.945l0.757,10.07
	c1.075,0.065,2.223,0.095,3.31,0.037l0.759-10.175C86.18,107.982,84.511,108.032,82.784,107.945z M82.784,107.945l0.757,10.07
	c1.075,0.065,2.223,0.095,3.31,0.037l0.759-10.175C86.18,107.982,84.511,108.032,82.784,107.945z M90.945,107.556
	c-0.805,0.105-1.964,0.237-3.334,0.322c-1.431,0.104-3.1,0.154-4.827,0.067c-1.111-0.056-2.247-0.161-3.359-0.332l1.042,10.125
	c0.792,0.098,1.88,0.2,3.075,0.277c1.075,0.065,2.223,0.095,3.31,0.037c1.242-0.037,2.39-0.19,3.241-0.496l0.652-6.759l0.306-3.259
	C91.014,107.539,90.979,107.547,90.945,107.556z M82.784,107.945l0.757,10.07c1.075,0.065,2.223,0.095,3.31,0.037l0.759-10.175
	C86.18,107.982,84.511,108.032,82.784,107.945z M82.784,107.945l0.757,10.07c1.075,0.065,2.223,0.095,3.31,0.037l0.759-10.175
	C86.18,107.982,84.511,108.032,82.784,107.945z"/>
<path display="none" fill="#FFFFFF" d="M87.135,16.571l-0.921,2.083l-0.013,0.042l-1.841-0.011l-0.066-0.222v-0.01l-0.473-1.777
	l-0.092,1.861c0.197,0.274,0.737,0.824,1.762,0.824c0.948,0,1.486-0.655,1.684-0.994L87.135,16.571z M87.424,28.318l-4.182,0.106
	l-0.013,0.264h4.209L87.424,28.318z M80.467,117.738l-1.039-10.119c-0.105-0.021-0.21-0.031-0.316-0.053
	c-0.026,0-0.053-0.011-0.079-0.011l-0.026,0.285l0.014,0.106l0.737,9.696v0.01C79.955,117.686,80.192,117.718,80.467,117.738z
	 M80.415,93.524c-0.026-0.01-0.053-0.01-0.079-0.021l-0.041,0.476l-1.051,11.473l-0.04,0.391l0.092-0.137l0.303-0.444
	c0,0,0.039,0,0.118,0.011l1.408-11.609C80.862,93.609,80.612,93.567,80.415,93.524z M90.094,117.559
	c0.053-0.011,0.092-0.032,0.145-0.053l0.514-6.703L90.094,117.559z M90.225,93.99l-0.026-0.528
	c-0.184,0.053-0.382,0.105-0.591,0.147l1.209,11.589L90.225,93.99z"/>
<path display="none" fill="#1D1D1B" stroke="#FFFFFF" stroke-width="0.25" stroke-miterlimit="10" d="M110.646,106.706
	c-5.154,1.69-7.943-2.021-9.125-7.751c-1.171-5.615,0.801-10.838,7.799-7.973c-5.077-5.857,5.942-12.106-1.724-22.511
	c-3.972-5.393-9.034-7.391-16.61-7.973l-1.683-30.145h0.473v-1.67h-0.42c0-0.867-0.053-2.379-0.145-4.039h3.394
	c0.34,1.333,1.801,2.315,3.551,2.315c1.984,0,3.603-1.29,3.603-2.897c0-1.607-1.618-2.897-3.603-2.897
	c-1.632,0-3.013,0.868-3.459,2.051h-3.564c-0.119-1.945-0.25-3.954-0.343-5.339h4.196c0.459,1.163,1.827,2.009,3.431,2.009
	c2,0,3.604-1.3,3.604-2.908c0-1.596-1.604-2.897-3.604-2.897c-1.774,0-3.221,1.015-3.549,2.369h-4.169
	c-0.015-0.243-0.027-0.381-0.027-0.381l0.013-0.021l0.053-0.085l0.987-1.427l0.263-0.909c0,0,0.84-0.148,1.498-1.142
	c0.132-0.211-0.131-1.839-0.131-1.839l-1.762-0.243l-0.789-1.491l-1.066-0.106l-0.526-2.22C86.423,5.729,83.78,6.68,83.78,6.68
	l-0.092,0.518c0,0.032,0,0.053-0.013,0.074l-0.289,1.533l-1.46,0.328L81.57,10.36c-0.08,1.512-0.776,2.781-1.013,3.172
	c0.579,0.476,1.236,0.592,1.236,0.592c0,1.058,0.396,2.22,0.396,2.22c-0.146,0.391-0.25,1.237-0.343,2.315h-3.59
	c-0.487-1.142-1.841-1.956-3.419-1.956c-1.985,0-3.604,1.3-3.604,2.908c0,1.607,1.618,2.896,3.604,2.896
	c1.802,0,3.274-1.036,3.551-2.421h3.379c-0.118,2.178-0.171,4.832-0.184,6.777h-3.696c-0.237-1.417-1.749-2.516-3.578-2.516
	c-1.998,0-3.616,1.3-3.616,2.897c0,1.607,1.618,2.918,3.616,2.918c1.526,0,2.841-0.772,3.367-1.872h3.893v0.391h-0.514v1.67h0.422
	L79.65,60.605c-5.418,0.655-11.704,2.548-15.518,7.433c-9.114,11.663,2.84,15.723-1.973,22.31c7.667-0.739,7.39,3.215,6.996,8.914
	c-0.355,5.107-4.617,9.241-9.376,7.232c2.104,7.538-7.404,11.25-3.695,21.771c1.656,4.748,3.695,8.469,9.902,10.711
	c0.014,0,0.027,0.01,0.04,0.01c4.024,1.449,9.785,2.379,18.385,2.443c-0.185-0.021-0.342-0.053-0.487-0.085
	c-0.145,0-1.683-0.92-1.657-3.384l0.053-0.74c0,0,2.249-7.433-2.249-14.01l-0.789-5.636c0,0,0.171,0.032,0.474,0.064
	c0.026,0,0.052,0.01,0.079,0.01l-0.737-9.706v-0.106l0.013-0.274v-0.011c-0.289-0.052-0.591-0.104-0.881-0.179l1.053-1.534
	l0.013-0.137l0.026-0.254l1.052-11.473l0.04-0.455v-0.021c-0.395-0.074-0.619-0.127-0.619-0.127l0.763-23.421l2.407-39.597h4.879
	l1.669,30.05c-0.013,0-0.013,0-0.025,0l1.091,32.968c-0.105,0.032-0.197,0.053-0.303,0.085l0.027,0.528l0.592,11.208v0.031
	c0.144-0.021,0.289-0.042,0.408-0.074l0.934,2.222c0,0-0.406,0.084-1.105,0.169l-0.303,3.257l-0.512,6.703
	c0.119-0.032,0.224-0.085,0.33-0.138l-0.525,5.308c0,0-3.854,7.655-2.25,14.771c0.132,1.11-0.301,2.876-1.354,3.647
	c-0.276,0.201-0.632,0.307-1.012,0.35c3.143,0,5.958-0.285,8.404-0.571c15.413-1.883,18.174-8.871,19.503-11.747
	C117.774,119.658,108.122,113.081,110.646,106.706z M87.422,28.313l-4.182,0.106l-0.276,0.01l0.171-9.474l0.487-0.571
	c0,0,0.026,0.064,0.105,0.148c0.197,0.274,0.737,0.824,1.762,0.824c0.948,0,1.486-0.655,1.684-0.994
	c0.079-0.127,0.119-0.201,0.119-0.201l0.276,0.666l0.276,9.474L87.422,28.313z M84.45,141.429c0.316,0.042,0.671,0.053,1.026,0.011
	C85.134,141.439,84.779,141.439,84.45,141.429z"/>
<g display="none">
	<path display="inline" fill="#FFFFFF" d="M78.239,99.74c0.169-0.41,0.171-0.893-0.13-1.065c-0.278-0.2-0.717-0.242-1.134-0.25
		c-0.864-0.017-1.664,0.17-2.129,0.759c-0.475,0.578-0.792,1.413-1.006,2.271c-0.218,0.865-0.337,1.773-0.338,2.68
		c-0.042,1.821,0.352,3.632,0.047,5.544c-0.156,0.938-0.54,1.96-1.304,2.688c-0.756,0.732-1.719,1.099-2.638,1.328l-0.141,0.035
		l-0.098-0.028c-0.39-0.113-0.736-0.245-1.092-0.409c-0.351-0.165-0.698-0.358-1.018-0.635c-0.3-0.267-0.621-0.722-0.54-1.232
		c0.084-0.49,0.404-0.786,0.701-1.019l0.093-0.073l0.076,0.035c0.282,0.129,0.565,0.255,0.844,0.396l-0.03,0.096
		c-0.309-0.047-0.612-0.108-0.917-0.167l0.169-0.038c-0.21,0.267-0.39,0.569-0.376,0.816c0.008,0.237,0.189,0.435,0.449,0.602
		c0.506,0.343,1.212,0.549,1.853,0.668l-0.238,0.007c0.822-0.27,1.6-0.62,2.173-1.154c0.592-0.515,0.954-1.26,1.146-2.098
		c0.366-1.684,0.526-3.549,0.54-5.364c0.018-0.915-0.018-1.833,0.042-2.771c0.075-0.92,0.213-1.938,0.926-2.769
		c0.355-0.404,0.855-0.702,1.368-0.825c0.506-0.115,1.035-0.113,1.498-0.038c0.473,0.077,1.001,0.184,1.406,0.611
		c0.194,0.222,0.267,0.541,0.213,0.798c-0.046,0.26-0.17,0.476-0.33,0.656L78.239,99.74z"/>
</g>
<g display="none">
	<path display="inline" fill="#FFFFFF" d="M92.193,99.938c-0.16-0.181-0.284-0.396-0.331-0.656
		c-0.054-0.256,0.019-0.576,0.213-0.797c0.405-0.428,0.934-0.534,1.406-0.611c0.462-0.075,0.991-0.076,1.497,0.039
		c0.513,0.123,1.013,0.421,1.367,0.824c0.713,0.831,0.85,1.849,0.925,2.77c0.061,0.938,0.024,1.854,0.043,2.77
		c0.014,1.815,0.174,3.68,0.539,5.363c0.193,0.837,0.555,1.583,1.146,2.097c0.572,0.533,1.352,0.883,2.173,1.151l-0.236-0.007
		c0.64-0.118,1.347-0.323,1.852-0.666c0.26-0.167,0.44-0.364,0.447-0.602c0.014-0.246-0.166-0.55-0.376-0.816l0.169,0.038
		c-0.304,0.06-0.607,0.121-0.915,0.169l-0.031-0.096c0.278-0.141,0.561-0.269,0.842-0.397l0.076-0.035l0.094,0.074
		c0.296,0.231,0.616,0.527,0.701,1.017c0.082,0.511-0.237,0.967-0.538,1.233c-0.319,0.276-0.667,0.47-1.018,0.634
		c-0.357,0.164-0.703,0.296-1.093,0.408l-0.098,0.027l-0.14-0.034c-0.92-0.228-1.883-0.594-2.64-1.325
		c-0.765-0.729-1.148-1.75-1.304-2.688c-0.306-1.912,0.088-3.723,0.046-5.543c-0.001-0.906-0.119-1.814-0.338-2.679
		c-0.214-0.859-0.53-1.694-1.005-2.272c-0.466-0.588-1.265-0.774-2.129-0.758c-0.418,0.008-0.856,0.049-1.135,0.249
		c-0.301,0.173-0.299,0.654-0.129,1.064L92.193,99.938z"/>
</g>
<path display="none" fill="#1D1D1B" d="M81.496,10.367c-0.083,1.511-0.782,2.775-1.018,3.166c-0.604-0.494-1.111-1.379-0.663-2.918
	l1.632-0.105L81.496,10.367z"/>
<path display="none" fill="none" stroke="#FFFFFF" stroke-width="0.25" stroke-miterlimit="10" d="M82.197,16.279
	c0,0,1.376-4.233,1.497-9.523"/>
<path display="none" fill="none" stroke="#FFFFFF" stroke-width="0.25" stroke-miterlimit="10" d="M84.866,6.734
	c0.213,5.81-0.414,10.63-0.569,11.715"/>
<path display="none" fill="none" stroke="#FFFFFF" stroke-width="0.25" stroke-miterlimit="10" d="M89.873,13.627
	c0,0-0.593-1.438-0.351-3.116"/>
<path display="none" fill="none" stroke="#FFFFFF" stroke-width="0.25" stroke-miterlimit="10" d="M88.72,16.154
	c0,0-1.346-4.199-1.674-9.484"/>
<path display="none" fill="none" stroke="#FFFFFF" stroke-width="0.25" stroke-miterlimit="10" d="M86.209,18.647
	c0,0-0.533-5.404-0.088-12.09"/>
<polyline display="none" fill="none" stroke="#FFFFFF" stroke-width="0.5" stroke-miterlimit="10" points="83.839,118.298 
	83.809,118.013 82.835,107.962 82.821,107.859 82.994,105.457 83.799,93.972 83.881,92.856 "/>
<polyline display="none" fill="none" stroke="#FFFFFF" stroke-width="0.5" stroke-miterlimit="10" points="79.919,118.461 
	79.895,118.177 79.138,108.106 79.127,108.001 79.351,105.605 80.405,94.141 80.51,93.027 "/>
<polyline display="none" fill="none" stroke="#FFFFFF" stroke-width="0.5" stroke-miterlimit="10" points="86.817,92.868 
	87.352,93.953 87.478,105.496 87.61,107.845 87.61,107.882 86.852,118.057 86.817,118.54 "/>
<polyline display="none" fill="none" stroke="#FFFFFF" stroke-width="0.5" stroke-miterlimit="10" points="90.069,92.55 
	90.128,93.674 90.73,105.177 90.86,107.526 90.86,107.565 90.104,117.738 90.069,118.222 "/>
<path display="none" fill="#1D1D1B" d="M154.343,57.451c0.092,0.359-0.374,0.794-1.054,0.972l-1.618,0.421
	c0.125,0.145,0.22,0.326,0.272,0.528c0.189,0.727-0.255,1.473-0.98,1.661l-8.282,2.155c-0.736,0.192-1.48-0.243-1.669-0.971
	c-0.052-0.202-0.057-0.408-0.017-0.595L31.497,90.121c-0.135,0.35-0.623,0.702-1.267,0.87l-3.221,0.838
	c-0.818,0.213-1.584,0.031-1.697-0.402c-0.019-0.072-0.015-0.132-0.004-0.204c-0.042-0.048-0.075-0.1-0.091-0.163
	c-0.094-0.359,0.384-0.789,1.056-0.965l126.677-32.969C153.632,56.948,154.249,57.093,154.343,57.451z"/>
<path display="none" fill="none" stroke="#1D1D1B" stroke-width="0.5" stroke-miterlimit="10" d="M141.78,62.65
	c0,0-107.845,27.786-114.849,29.644l-0.676-0.396"/>
<g display="none">
	<polygon display="inline" fill="#1D1D1B" points="86.104,141.293 85.213,153.726 84.104,141.311 	"/>
</g>
<rect x="82.017" y="26.882" display="none" fill="#1D1D1B" width="5.906" height="1.281"/>
<rect x="82.819" y="23.217" display="none" fill="#1D1D1B" width="6.313" height="1.321"/>
<rect x="81.846" y="18.66" display="none" fill="#1D1D1B" width="5.858" height="1.378"/>
<polyline display="none" fill="none" stroke="#1D1D1B" stroke-width="0.25" stroke-miterlimit="10" points="83.881,29.726 
	79.819,108.018 80.673,118.084 "/>
<polyline display="none" fill="none" stroke="#1D1D1B" stroke-width="0.25" stroke-miterlimit="10" points="83.642,118.084 
	82.784,107.945 83.791,94.1 84.888,29.726 "/>
<polyline display="none" fill="none" stroke="#1D1D1B" stroke-width="0.25" stroke-miterlimit="10" points="86.209,29.726 
	87.61,108.476 86.852,118.057 "/>
<polyline display="none" fill="none" stroke="#1D1D1B" stroke-width="0.25" stroke-miterlimit="10" points="87.213,29.726 
	90.86,107.913 89.83,117.882 "/>
<path display="none" fill="none" stroke="#FFFFFF" stroke-width="0.25" stroke-miterlimit="10" d="M61.474,80.934l-35.54,9.281
	c0,0-2.308,1.397,0.997,2.079h0.722l35.036-9.252"/>
<path display="none" fill="none" stroke="#FFFFFF" stroke-width="0.25" stroke-miterlimit="10" d="M107.873,68.858l32.502-8.459
	l12.82-3.349c0,0,2.452-0.121,0.518,1.215l-2.041,0.579c0,0,0.981,1.007-0.102,1.84c0,0-0.63,0.355-0.786,0.396l-8.103,2.108
	c0,0-0.727,0.341-1.172-0.235l-32.314,8.356"/>
<path display="none" fill="none" stroke="#FFFFFF" stroke-width="0.25" stroke-miterlimit="10" d="M108.634,70.044l32.361-8.422
	c0,0-0.341,0.702,0.221,1.028l-32.272,8.201L108.634,70.044z"/>
<path display="none" fill="none" stroke="#FFFFFF" stroke-width="0.25" stroke-miterlimit="10" d="M62.153,82.143l-30.656,7.979
	c0,0-0.292,0.519-0.779,0.694l-3.983,1.07l0.293,0.032l10.167-2.525l25.208-6.583L62.153,82.143z"/>
<rect x="0.883" y="14.098" fill="#B2B2B2" stroke="#1D1D1B" stroke-miterlimit="10" width="151.16" height="129.833"/>
<circle fill="none" stroke="#1D1D1B" stroke-width="2" stroke-miterlimit="10" cx="41.649" cy="48.079" r="26.789"/>
<ellipse fill="#1D1D1B" cx="41.319" cy="48.628" rx="17.198" ry="17.769"/>
<circle fill="none" stroke="#1D1D1B" stroke-width="2" stroke-miterlimit="10" cx="110.439" cy="48.079" r="26.79"/>
<ellipse fill="#1D1D1B" cx="110.109" cy="48.628" rx="17.198" ry="17.769"/>
<circle fill="none" stroke="#1D1D1B" stroke-width="2" stroke-miterlimit="10" cx="41.649" cy="113.079" r="26.789"/>
<ellipse fill="#1D1D1B" cx="41.319" cy="113.628" rx="17.198" ry="17.769"/>
<circle fill="none" stroke="#1D1D1B" stroke-width="2" stroke-miterlimit="10" cx="110.439" cy="113.079" r="26.79"/>
<ellipse fill="#1D1D1B" cx="110.109" cy="113.628" rx="17.198" ry="17.769"/>
<polygon fill="#1D1D1B" stroke="#1D1D1B" stroke-miterlimit="10" points="151.203,12.085 1.303,12.085 5.24,3.199 145.873,3.199 "/>
<g>
	<polygon fill="#706F6F" points="20.366,14.098 36.996,30.154 53.554,46.284 86.555,78.659 119.393,111.198 135.754,127.527 
		152.042,143.931 135.411,127.876 118.853,111.746 85.854,79.37 53.016,46.829 36.655,30.5 	"/>
</g>
<g>
	<polygon fill="#706F6F" points="0.266,14.596 17.178,30.636 34.018,46.75 67.585,79.094 100.991,111.604 117.637,127.92 
		134.209,144.31 117.296,128.271 100.457,112.157 66.89,79.812 33.486,47.3 16.84,30.985 	"/>
</g>
<g>
	<polygon fill="#706F6F" points="0.571,35.112 15.207,48.584 29.771,62.133 58.788,89.348 87.646,116.73 102.019,130.481 
		116.32,144.31 101.683,130.838 87.119,117.29 58.103,90.074 29.246,62.69 14.873,48.938 	"/>
</g>
<g>
	<path fill="#706F6F" d="M0.403,56.857c8.276,7.102,16.479,14.286,24.671,21.483l24.494,21.682l24.34,21.854l12.116,10.988
		l12.045,11.067l-12.371-10.701l-12.301-10.78l-24.493-21.683L24.565,78.911C16.479,71.595,8.405,64.267,0.403,56.857z"/>
</g>
<g>
	<path fill="#706F6F" d="M1.409,71.865C8.087,77.718,14.691,83.652,21.283,89.6l19.695,17.931l19.538,18.101l9.713,9.111
		l9.642,9.188l-9.974-8.828l-9.902-8.905l-19.693-17.932L20.766,90.163C14.281,84.099,7.808,78.022,1.409,71.865z"/>
</g>
<g>
	<path fill="#706F6F" d="M0.519,89.208c5.143,4.408,10.211,8.896,15.269,13.397c5.059,4.5,10.058,9.065,15.089,13.595l14.934,13.766
		l7.411,6.943c2.446,2.342,4.915,4.657,7.34,7.021c-2.578-2.196-5.113-4.44-7.67-6.659l-7.599-6.737l-15.088-13.596
		c-4.976-4.591-9.984-9.146-14.932-13.767C10.322,98.553,5.383,93.921,0.519,89.208z"/>
</g>
<g>
	<path fill="#706F6F" d="M0.539,104.176c3.903,3.158,7.734,6.398,11.555,9.651c3.821,3.251,7.584,6.569,11.378,9.851
		c3.742,3.343,7.512,6.652,11.226,10.025l5.559,5.074c1.829,1.719,3.681,3.412,5.489,5.153c-1.958-1.571-3.874-3.191-5.813-4.785
		l-5.743-4.865c-3.82-3.253-7.584-6.568-11.377-9.852c-3.74-3.345-7.512-6.652-11.225-10.026
		C7.873,111.029,4.169,107.644,0.539,104.176z"/>
</g>
<g>
	<path fill="#706F6F" d="M0.753,120.781c2.503,1.77,4.937,3.623,7.36,5.49c2.431,1.858,4.812,3.777,7.193,5.696
		c2.366,1.938,4.73,3.878,7.046,5.877l3.472,3.002c1.134,1.029,2.29,2.031,3.405,3.084c-1.258-0.877-2.475-1.804-3.714-2.703
		l-3.647-2.786c-2.43-1.858-4.812-3.777-7.192-5.697c-2.365-1.939-4.729-3.878-7.045-5.879
		C5.308,124.874,2.996,122.87,0.753,120.781z"/>
</g>
<g>
	<polygon fill="#706F6F" points="38.818,14.997 52.965,28.877 67.038,42.83 95.07,70.851 122.937,99.035 136.812,113.186 
		150.613,127.409 136.465,113.53 122.391,99.577 94.361,71.555 66.495,43.37 52.62,29.22 	"/>
</g>
<g>
	<path fill="#706F6F" d="M55.638,15.475c8.058,7.454,16.039,14.987,24.009,22.532l23.825,22.724l23.664,22.891l11.775,11.505
		l11.702,11.581l-12.042-11.228l-11.969-11.303L102.78,61.451L79.117,38.559C71.257,30.898,63.41,23.226,55.638,15.475z"/>
</g>
<g>
	<path fill="#706F6F" d="M77.338,15.751c6.251,5.908,12.426,11.894,18.588,17.892l18.401,18.081l18.238,18.245l9.061,9.181
		l8.987,9.256l-9.332-8.908l-9.258-8.983l-18.399-18.083L95.387,34.187C89.337,28.075,83.299,21.952,77.338,15.751z"/>
</g>
<g>
	<path fill="#706F6F" d="M96.281,15.415c4.674,4.396,9.27,8.869,13.854,13.354c4.586,4.483,9.108,9.03,13.665,13.542
		c4.5,4.569,9.03,9.108,13.502,13.706l6.692,6.91c2.205,2.33,4.435,4.635,6.618,6.985c-2.344-2.19-4.643-4.427-6.965-6.639
		l-6.891-6.713c-4.584-4.485-9.108-9.029-13.664-13.543c-4.498-4.571-9.031-9.107-13.501-13.707
		C105.122,24.711,100.663,20.102,96.281,15.415z"/>
</g>
<g>
	<path fill="#706F6F" d="M116.659,14.452c2.972,2.548,5.868,5.176,8.753,7.816c2.887,2.638,5.711,5.341,8.569,8.009
		c2.803,2.726,5.635,5.42,8.409,8.176l4.148,4.147c1.357,1.409,2.738,2.793,4.075,4.224c-1.493-1.267-2.941-2.581-4.413-3.869
		l-4.341-3.945c-2.885-2.64-5.712-5.341-8.568-8.01c-2.801-2.728-5.636-5.42-8.408-8.177
		C122.109,20.066,119.346,17.299,116.659,14.452z"/>
</g>
<g>
	<path fill="#706F6F" d="M135.024,14.436c2.861,2.056,5.521,4.337,8.13,6.673c2.588,2.358,5.126,4.773,7.459,7.415
		c-2.863-2.055-5.521-4.335-8.13-6.673C139.896,19.49,137.359,17.075,135.024,14.436z"/>
</g>
<g>
	<polygon fill="#706F6F" points="152.486,31.512 133.766,45.669 114.984,59.743 77.324,87.761 39.526,115.592 20.579,129.441 
		1.568,143.206 20.288,129.048 39.069,114.974 76.73,86.957 114.529,59.127 133.476,45.278 	"/>
</g>
<g>
	<polygon fill="#706F6F" points="151.908,14.462 133.207,28.859 114.443,43.172 76.818,71.67 39.054,99.982 20.123,114.073 
		1.128,128.08 19.828,113.683 38.591,99.368 76.217,70.873 113.982,42.561 132.914,28.47 	"/>
</g>
<g>
	<polygon fill="#706F6F" points="128.059,14.722 112.341,27.188 96.56,39.571 64.899,64.209 33.096,88.664 17.144,100.826 
		1.128,112.905 16.845,100.438 32.625,88.056 64.288,63.418 96.092,38.965 112.043,26.803 	"/>
</g>
<g>
	<path fill="#706F6F" d="M102.785,14.579c-8.304,7.063-16.678,14.042-25.062,21.007l-25.23,20.801L27.116,77.01L14.375,87.258
		L1.568,97.424l12.497-10.545l12.564-10.464l25.231-20.8l25.378-20.621C85.724,28.152,94.219,21.323,102.785,14.579z"/>
</g>
<g>
	<path fill="#706F6F" d="M85.339,15.432c-6.853,5.708-13.773,11.33-20.705,16.939l-20.87,16.73L22.75,65.65l-10.558,8.21
		L1.568,81.988l10.319-8.512l10.385-8.429l20.871-16.729l21.015-16.548C71.189,26.287,78.23,20.816,85.339,15.432z"/>
</g>
<g>
	<path fill="#706F6F" d="M65.176,14.679c-5.172,4.405-10.412,8.725-15.663,13.031c-5.25,4.309-10.555,8.546-15.829,12.823
		L17.711,53.175l-8.039,6.257c-2.702,2.057-5.383,4.141-8.104,6.175c2.58-2.21,5.199-4.371,7.798-6.557l7.864-6.475l15.83-12.822
		c5.327-4.211,10.623-8.461,15.975-12.641C54.386,22.93,59.747,18.762,65.176,14.679z"/>
</g>
<g>
	<path fill="#706F6F" d="M47.779,14.692c-3.719,3.354-7.508,6.625-11.308,9.882c-3.798,3.259-7.654,6.449-11.478,9.677
		c-3.876,3.166-7.724,6.364-11.626,9.499l-5.866,4.687c-1.978,1.534-3.935,3.094-5.933,4.605c1.853-1.685,3.748-3.32,5.62-4.982
		l5.688-4.901c3.8-3.257,7.653-6.45,11.479-9.676c3.878-3.164,7.724-6.365,11.627-9.498C39.884,20.851,43.796,17.729,47.779,14.692z
		"/>
</g>
<g>
	<path fill="#706F6F" d="M28.476,14.875c-2.104,2.167-4.282,4.251-6.471,6.324c-2.181,2.081-4.415,4.103-6.649,6.125
		c-2.25,2.004-4.501,4.008-6.804,5.953l-3.457,2.916c-1.177,0.945-2.331,1.915-3.527,2.837c1.045-1.091,2.134-2.133,3.2-3.202
		l3.271-3.123c2.182-2.081,4.415-4.104,6.65-6.125c2.25-2.003,4.501-4.007,6.805-5.952C23.789,18.676,26.096,16.735,28.476,14.875z"
		/>
</g>
<g>
	<polygon fill="#706F6F" points="151.442,47.165 135.251,59.215 119,71.182 86.401,94.983 53.666,118.598 37.25,130.339 
		20.773,141.994 36.963,129.942 53.214,117.976 85.814,94.175 118.549,70.562 134.965,58.821 	"/>
</g>
<g>
	<path fill="#706F6F" d="M150.886,61.432c-8.713,6.878-17.492,13.669-26.281,20.446l-26.441,20.234l-26.583,20.05l-13.34,9.959
		l-13.405,9.876l13.108-10.266l13.172-10.182l26.443-20.233l26.583-20.048C133.028,74.618,141.924,67.981,150.886,61.432z"/>
</g>
<g>
	<path fill="#706F6F" d="M150.563,79.839c-6.916,5.346-13.896,10.604-20.887,15.848l-21.045,15.633L87.45,126.768l-10.64,7.657
		l-10.702,7.572l10.412-7.967l10.474-7.883l21.045-15.632l21.183-15.445C136.308,89.955,143.403,84.854,150.563,79.839z"/>
</g>
<g>
	<path fill="#706F6F" d="M150.955,95.908c-5.157,4.007-10.38,7.926-15.611,11.831c-5.231,3.907-10.515,7.741-15.769,11.616
		l-15.905,11.428l-8,5.648c-2.688,1.854-5.357,3.734-8.063,5.563c2.573-2.012,5.184-3.972,7.774-5.959l7.837-5.873l15.77-11.615
		c5.304-3.807,10.578-7.653,15.905-11.427C140.218,103.345,145.554,99.582,150.955,95.908z"/>
</g>
<g>
	<path fill="#706F6F" d="M152.075,113.192c-3.011,2.564-6.087,5.041-9.174,7.505c-3.086,2.466-6.227,4.86-9.337,7.294
		c-3.159,2.369-6.292,4.773-9.477,7.11l-4.788,3.489c-1.618,1.135-3.216,2.296-4.853,3.406c1.499-1.29,3.037-2.529,4.555-3.795
		l4.618-3.712c3.088-2.464,6.226-4.86,9.338-7.292c3.161-2.367,6.292-4.773,9.478-7.108
		C145.62,117.753,148.814,115.429,152.075,113.192z"/>
</g>
<g>
	<path fill="#706F6F" d="M152.092,128.77c-2.482,2.51-5.155,4.784-7.875,7.001c-2.738,2.193-5.524,4.327-8.502,6.224
		c2.481-2.512,5.154-4.786,7.875-7.001C146.33,132.802,149.116,130.668,152.092,128.77z"/>
</g>
<polygon fill="none" stroke="#FFFFFF" stroke-width="0.25" stroke-miterlimit="10" points="4.853,2.08 0.266,12.833 0.266,144.976 
	152.486,144.976 152.486,13.192 146.323,2.08 "/>
<rect x="5.11" y="12.227" display="none" fill="#B2B2B2" stroke="#1D1D1B" stroke-miterlimit="10" width="155.403" height="130.743"/>
<circle display="none" fill="none" stroke="#1D1D1B" stroke-width="2" stroke-miterlimit="10" cx="81.631" cy="79.4" r="53.519"/>
<path display="none" fill="#1D1D1B" d="M115.329,80.496c0,19.607-15.383,35.497-34.356,35.497c-18.978,0-34.359-15.89-34.359-35.497
	c0-19.603,15.381-35.492,34.359-35.492C99.946,45.004,115.329,60.894,115.329,80.496z"/>
<polygon display="none" fill="#1D1D1B" stroke="#1D1D1B" stroke-miterlimit="10" points="159.649,10.2 5.542,10.2 9.589,1.25 
	154.168,1.25 "/>
<g display="none">
	<polygon display="inline" fill="#706F6F" points="25.14,12.227 42.23,28.395 59.249,44.637 93.173,77.239 126.937,110.008 
		143.761,126.451 160.513,142.97 143.421,126.803 126.403,110.561 92.479,77.958 58.717,45.188 41.893,28.745 	"/>
</g>
<g display="none">
	<polygon display="inline" fill="#706F6F" points="4.476,12.729 21.856,28.88 39.165,45.106 73.671,77.677 108.018,110.416 
		125.134,126.846 142.179,143.351 124.798,127.2 107.489,110.974 72.984,78.402 38.638,45.662 21.521,29.232 	"/>
</g>
<g display="none">
	<polygon display="inline" fill="#706F6F" points="4.789,33.388 19.829,46.955 34.798,60.598 64.627,88.003 94.299,115.577 
		109.079,129.426 123.788,143.351 108.747,129.785 93.777,116.143 63.949,88.736 34.279,61.16 19.499,47.312 	"/>
</g>
<g display="none">
	<path display="inline" fill="#706F6F" d="M4.617,55.286C13.12,62.438,21.55,69.671,29.97,76.918l25.179,21.833l25.026,22.007
		l12.459,11.065l12.39,11.146l-12.712-10.776l-12.643-10.854L54.492,99.504L29.467,77.495C21.152,70.128,12.848,62.748,4.617,55.286
		z"/>
</g>
<g display="none">
	<path display="inline" fill="#706F6F" d="M5.65,70.398c6.86,5.895,13.646,11.87,20.422,17.858l20.244,18.056l20.089,18.229
		l9.99,9.175l9.919,9.254l-10.247-8.89l-10.176-8.967l-20.243-18.058L25.561,88.826C18.892,82.719,12.234,76.599,5.65,70.398z"/>
</g>
<g display="none">
	<path display="inline" fill="#706F6F" d="M4.735,87.863c5.281,4.438,10.49,8.958,15.687,13.491l15.51,13.689l15.355,13.862
		l7.623,6.992c2.517,2.358,5.056,4.69,7.553,7.071c-2.647-2.212-5.252-4.472-7.879-6.705l-7.809-6.784l-15.509-13.691
		l-15.354-13.863C14.822,97.273,9.742,92.609,4.735,87.863z"/>
</g>
<g display="none">
	<path display="inline" fill="#706F6F" d="M4.756,102.937c4.008,3.18,7.944,6.442,11.869,9.718
		c3.927,3.274,7.795,6.616,11.695,9.921c3.848,3.365,7.723,6.698,11.544,10.095l5.719,5.11c1.882,1.73,3.787,3.436,5.649,5.189
		c-2.011-1.582-3.979-3.213-5.969-4.818l-5.901-4.898c-3.925-3.275-7.795-6.615-11.694-9.922
		c-3.846-3.367-7.724-6.697-11.543-10.096C12.304,109.838,8.494,106.429,4.756,102.937z"/>
</g>
<g display="none">
	<path display="inline" fill="#706F6F" d="M4.977,119.658c2.568,1.781,5.068,3.648,7.557,5.528c2.497,1.871,4.944,3.804,7.392,5.736
		c2.433,1.951,4.864,3.904,7.247,5.918l3.572,3.023c1.168,1.036,2.358,2.046,3.507,3.105c-1.291-0.883-2.541-1.815-3.812-2.723
		l-3.746-2.805c-2.496-1.871-4.944-3.804-7.391-5.737c-2.432-1.953-4.863-3.905-7.246-5.92
		C9.667,123.78,7.288,121.762,4.977,119.658z"/>
</g>
<g display="none">
	<polygon display="inline" fill="#706F6F" points="44.109,13.132 58.646,27.109 73.111,41.159 101.926,69.376 130.579,97.759 
		144.847,112.009 159.042,126.333 144.503,112.357 130.039,98.307 101.225,70.088 72.574,41.705 58.305,27.455 	"/>
</g>
<g display="none">
	<path display="inline" fill="#706F6F" d="M61.401,13.613c8.278,7.506,16.481,15.091,24.673,22.689l24.49,22.883l24.332,23.052
		l12.11,11.586l12.037,11.662L146.671,94.18L134.37,82.798L109.88,59.913L85.55,36.86C77.468,29.146,69.397,21.419,61.401,13.613z"
		/>
</g>
<g display="none">
	<path display="inline" fill="#706F6F" d="M83.711,13.892c6.421,5.949,12.766,11.977,19.1,18.017l18.915,18.208l18.753,18.374
		l9.319,9.246l9.246,9.321l-9.588-8.97l-9.514-9.045L121.03,50.833l-18.752-18.375C96.055,26.303,89.845,20.137,83.711,13.892z"/>
</g>
<g display="none">
	<path display="inline" fill="#706F6F" d="M103.184,13.553c4.8,4.426,9.521,8.93,14.232,13.446
		c4.713,4.515,9.362,9.093,14.046,13.637l13.885,13.801l6.884,6.959c2.27,2.346,4.563,4.667,6.811,7.035
		c-2.407-2.206-4.769-4.458-7.154-6.685l-7.08-6.76l-14.044-13.638c-4.626-4.603-9.286-9.171-13.883-13.803
		C112.282,22.916,107.695,18.273,103.184,13.553z"/>
</g>
<g display="none">
	<path display="inline" fill="#706F6F" d="M124.137,12.583c3.05,2.566,6.024,5.212,8.988,7.87c2.965,2.657,5.869,5.379,8.807,8.064
		c2.882,2.746,5.793,5.459,8.648,8.234l4.268,4.177c1.397,1.419,2.819,2.813,4.196,4.254c-1.532-1.275-3.02-2.598-4.53-3.896
		l-4.459-3.973c-2.963-2.658-5.869-5.378-8.806-8.065c-2.88-2.748-5.794-5.458-8.646-8.235
		C129.749,18.237,126.906,15.45,124.137,12.583z"/>
</g>
<g display="none">
	<path display="inline" fill="#706F6F" d="M143.015,12.567c2.932,2.07,5.663,4.367,8.345,6.719c2.661,2.375,5.272,4.807,7.682,7.468
		c-2.934-2.068-5.664-4.365-8.345-6.719C148.037,17.659,145.425,15.226,143.015,12.567z"/>
</g>
<g display="none">
	<polygon display="inline" fill="#706F6F" points="160.968,29.763 141.716,44.02 122.405,58.193 83.685,86.406 44.829,114.433 
		25.352,128.38 5.814,142.241 25.065,127.983 44.377,113.811 83.098,85.598 121.956,57.573 141.431,43.626 	"/>
</g>
<g display="none">
	<polygon display="inline" fill="#706F6F" points="160.374,12.595 141.141,27.092 121.848,41.506 83.164,70.204 44.343,98.715 
		24.883,112.904 5.361,127.009 24.593,112.51 43.886,98.096 82.571,69.4 121.393,40.89 140.853,26.701 	"/>
</g>
<g display="none">
	<polygon display="inline" fill="#706F6F" points="135.856,12.856 119.691,25.409 103.463,37.879 70.91,62.689 38.217,87.315 
		21.821,99.563 5.361,111.727 21.525,99.173 37.753,86.702 70.307,61.893 103.001,37.269 119.397,25.021 	"/>
</g>
<g display="none">
	<path display="inline" fill="#706F6F" d="M109.873,12.712c-8.543,7.113-17.153,14.14-25.775,21.155L58.156,54.813L32.069,75.58
		L18.975,85.899L5.814,96.136l12.854-10.619l12.92-10.537l25.943-20.945l26.087-20.765C92.34,26.379,101.072,19.503,109.873,12.712z
		"/>
</g>
<g display="none">
	<path display="inline" fill="#706F6F" d="M91.936,13.57c-7.05,5.748-14.167,11.41-21.295,17.058L49.182,47.476L27.581,64.142
		L16.73,72.409L5.814,80.594l10.615-8.571l10.679-8.488l21.46-16.846L70.17,30.024C77.396,24.502,84.633,18.993,91.936,13.57z"/>
</g>
<g display="none">
	<path display="inline" fill="#706F6F" d="M71.208,12.812c-5.322,4.436-10.712,8.786-16.112,13.123L38.819,38.847L22.4,51.578
		l-8.26,6.301c-2.776,2.072-5.531,4.17-8.325,6.218c2.655-2.226,5.35-4.401,8.023-6.604l8.088-6.521l16.277-12.911l16.42-12.729
		C60.122,21.121,65.631,16.923,71.208,12.812z"/>
</g>
<g display="none">
	<path display="inline" fill="#706F6F" d="M53.322,12.826c-3.829,3.378-7.727,6.671-11.635,9.952
		c-3.907,3.282-7.871,6.494-11.803,9.745c-3.984,3.188-7.94,6.409-11.949,9.565l-6.026,4.719c-2.032,1.545-4.042,3.116-6.093,4.637
		c1.908-1.697,3.857-3.344,5.784-5.018l5.851-4.936c3.909-3.28,7.87-6.495,11.804-9.744c3.985-3.186,7.939-6.41,11.951-9.564
		C45.213,19.027,49.233,15.884,53.322,12.826z"/>
</g>
<g display="none">
	<path display="inline" fill="#706F6F" d="M33.477,13.009c-2.169,2.182-4.411,4.282-6.663,6.369
		c-2.245,2.096-4.542,4.133-6.839,6.169c-2.313,2.019-4.626,4.036-6.992,5.995l-3.55,2.936c-1.208,0.951-2.392,1.928-3.62,2.856
		c1.078-1.099,2.198-2.149,3.296-3.225l3.366-3.146c2.246-2.095,4.542-4.132,6.84-6.168c2.313-2.018,4.627-4.035,6.993-5.993
		C28.667,16.836,31.036,14.881,33.477,13.009z"/>
</g>
<g display="none">
	<polygon display="inline" fill="#706F6F" points="159.895,45.525 143.244,57.661 126.533,69.711 93.016,93.68 59.365,117.46 
		42.492,129.283 25.558,141.021 42.208,128.884 58.919,116.833 92.437,92.866 126.089,69.087 142.962,57.264 	"/>
</g>
<g display="none">
	<path display="inline" fill="#706F6F" d="M159.323,59.893c-8.963,6.926-17.99,13.765-27.028,20.59l-27.187,20.375l-27.325,20.19
		l-13.712,10.029l-13.774,9.944l13.482-10.338l13.545-10.253l27.188-20.374l27.326-20.189
		C140.971,73.171,150.114,66.488,159.323,59.893z"/>
</g>
<g display="none">
	<path display="inline" fill="#706F6F" d="M158.991,78.43c-7.115,5.383-14.294,10.678-21.482,15.959l-21.638,15.742l-21.773,15.555
		l-10.935,7.711l-10.997,7.625l10.71-8.022l10.771-7.938l21.64-15.741l21.774-15.554C144.343,88.616,151.634,83.479,158.991,78.43z"
		/>
</g>
<g display="none">
	<path display="inline" fill="#706F6F" d="M159.393,94.61c-5.308,4.035-10.679,7.981-16.059,11.914
		c-5.38,3.935-10.812,7.796-16.214,11.697l-16.348,11.51l-8.222,5.688c-2.762,1.866-5.504,3.76-8.283,5.602
		c2.647-2.026,5.333-3.999,7.998-6.001l8.06-5.915l16.215-11.695c5.451-3.834,10.874-7.708,16.349-11.508
		C148.363,102.099,153.846,98.31,159.393,94.61z"/>
</g>
<g display="none">
	<path display="inline" fill="#706F6F" d="M160.545,112.016c-3.1,2.582-6.266,5.076-9.441,7.558
		c-3.175,2.483-6.402,4.895-9.602,7.345c-3.247,2.386-6.468,4.807-9.739,7.16l-4.92,3.514c-1.661,1.143-3.303,2.312-4.982,3.43
		c1.544-1.299,3.127-2.547,4.688-3.822l4.752-3.737c3.176-2.48,6.402-4.895,9.603-7.343c3.248-2.384,6.468-4.807,9.741-7.158
		C153.917,116.607,157.198,114.268,160.545,112.016z"/>
</g>
<g display="none">
	<path display="inline" fill="#706F6F" d="M160.564,127.702c-2.563,2.528-5.313,4.818-8.108,7.051
		c-2.814,2.209-5.677,4.358-8.729,6.268c2.561-2.53,5.311-4.82,8.108-7.051C154.652,131.763,157.514,129.613,160.564,127.702z"/>
</g>
<polygon display="none" fill="none" stroke="#FFFFFF" stroke-width="0.25" stroke-miterlimit="10" points="9.191,0.125 
	4.476,10.953 4.476,144.022 160.968,144.022 160.968,11.314 154.631,0.125 "/>
<rect x="49.967" y="104.937" display="none" fill="#1D1D1B" stroke="#1D1D1B" stroke-width="3" stroke-miterlimit="10" width="25.078" height="10.151"/>
<rect x="106.692" y="104.937" display="none" fill="#1D1D1B" stroke="#1D1D1B" stroke-width="3" stroke-miterlimit="10" width="25.078" height="10.151"/>
<path display="none" fill="none" stroke="#1D1D1B" stroke-width="4" stroke-miterlimit="10" d="M160.399,77.438
	c0,17.263,3.626,41.498-11.809,50.828c-7.389,4.465-28.184,13.094-59.647,13.094c-29.005,0-48.275-7.164-55.221-14.359
	C20.773,113.587,20.31,97.655,20.31,79.235c0-35.304,43.361-62.125,69.099-62.125C113.92,17.111,160.399,42.133,160.399,77.438z"/>
<rect x="84.599" y="35.225" display="none" fill="#1D1D1B" stroke="#1D1D1B" stroke-width="3" stroke-miterlimit="10" width="12.837" height="23.735"/>
<path display="none" fill="none" stroke="#FFFFFF" stroke-width="0.5" stroke-miterlimit="10" d="M87.819,14.892
	c0,0-16.333,2-26,7.167c0,0-15.333,8.333-22.833,15.333c0,0-10,10.167-15.5,20c0,0-6.5,11.834-5,31.5c0,0,0.667,19.334,5.333,27.5
	c0,0,7,16.333,25,21.333c0,0,22.667,5.999,38.167,5.333c0,0,29.5-0.667,36.5-3.5c0,0,18.501-5.334,23.834-8.5
	c0,0,11.834-3.499,14.5-22.166c0,0,1.833-11.667,0.833-28.5c0,0,1.667-15.5-9.833-30.833c0,0-9.334-13-27.667-23.333
	c0,0-13.167-7.5-24-9.833C101.153,16.392,94.153,15.059,87.819,14.892z"/>
<path display="none" fill="#FFFFFF" stroke="#1D1D1B" stroke-width="4" stroke-miterlimit="10" d="M160.399,77.438
	c0,17.263,3.626,41.498-11.809,50.828c-7.389,4.465-28.184,13.094-59.647,13.094c-29.005,0-48.275-7.164-55.221-14.359
	C20.773,113.587,20.31,97.655,20.31,79.235c0-35.304,43.361-62.125,69.099-62.125C113.92,17.111,160.399,42.133,160.399,77.438z"/>
<circle display="none" fill="#1D1D1B" stroke="#1D1D1B" stroke-width="3" stroke-miterlimit="10" cx="58.271" cy="82.783" r="12.859"/>
<circle display="none" fill="#1D1D1B" stroke="#1D1D1B" stroke-width="3" stroke-miterlimit="10" cx="125.688" cy="82.199" r="12.859"/>
<path display="none" fill="none" stroke="#FFFFFF" stroke-width="0.5" stroke-miterlimit="10" d="M88.819,14.892
	c0,0-16,0-34.333,10.833c0,0-21,14.667-25.667,23c0,0-12.833,17.334-10.5,38.667c0,0-1.667,27.332,15.167,42.166
	c0,0,15,13.833,53.5,14c0,0,34.167,0.334,60.667-12.666c0,0,15.166-5.667,14.833-29.5l0.006-26.5c0,0-1.339-16.167-12.339-28.667
	c0,0-14.501-17.833-42.167-27.833C107.986,18.392,93.97,14.447,88.819,14.892z"/>
<g display="none">
	<rect x="41.427" y="21.155" display="inline" fill="#EDEDED" width="114.497" height="66.278"/>
	<g display="inline">
		<path fill="#1D1D1B" d="M155.923,85.683c-38.166,0-76.331,0-114.497,0c0.583,0.583,1.167,1.167,1.75,1.75
			c0-22.093,0-44.185,0-66.278c-0.583,0.583-1.167,1.167-1.75,1.75c38.166,0,76.331,0,114.497,0c-0.583-0.583-1.167-1.167-1.75-1.75
			c0,22.093,0,44.185,0,66.278c0,2.257,3.5,2.257,3.5,0c0-22.093,0-44.185,0-66.278c0-0.954-0.796-1.75-1.75-1.75
			c-38.166,0-76.331,0-114.497,0c-0.954,0-1.75,0.796-1.75,1.75c0,22.093,0,44.185,0,66.278c0,0.954,0.796,1.75,1.75,1.75
			c38.166,0,76.331,0,114.497,0C158.18,89.183,158.18,85.683,155.923,85.683z"/>
	</g>
</g>
<g display="none">
	<polygon display="inline" fill="#FFFFFF" points="130.767,125.625 16.942,125.625 42.277,87.203 156.103,87.202 	"/>
	<g display="inline">
		<path fill="#1D1D1B" d="M130.767,123.875c-37.941,0-75.883,0-113.825,0c0.504,0.878,1.007,1.756,1.511,2.633
			c6.771-10.268,13.542-20.536,20.312-30.805c1.369-2.075,2.737-4.15,4.105-6.226c1.517-2.301-0.381-0.524-0.183-0.524
			c3.152,0,6.304,0,9.456,0c29.396,0,58.793-0.001,88.188-0.001c5.258,0,10.515,0,15.771,0c-0.504-0.878-1.008-1.756-1.511-2.633
			c-8.445,12.808-16.891,25.615-25.336,38.423c-1.247,1.89,1.785,3.642,3.021,1.766c8.445-12.808,16.891-25.615,25.336-38.423
			c0.743-1.126-0.238-2.633-1.511-2.633c-23.751,0-47.501,0-71.252,0.001c-12.615,0-25.23,0-37.846,0
			c-1.524,0-5.212-0.691-6.24,0.867c-2.462,3.733-4.924,7.468-7.386,11.201c-5.983,9.073-11.966,18.146-17.949,27.221
			c-0.743,1.126,0.239,2.633,1.511,2.633c37.942,0,75.884,0,113.825,0C133.024,127.375,133.024,123.875,130.767,123.875z"/>
	</g>
</g>
<polygon display="none" fill="none" stroke="#1D1D1B" stroke-width="3" stroke-miterlimit="10" points="141.865,108.935 
	27.714,108.935 18.457,124.894 130.549,126.226 "/>
<line display="none" fill="none" stroke="#1D1D1B" stroke-width="0.5" stroke-miterlimit="10" x1="29.791" y1="103.893" x2="145.255" y2="103.893"/>
<line display="none" fill="none" stroke="#1D1D1B" stroke-width="0.5" stroke-miterlimit="10" x1="32.736" y1="98.489" x2="150.281" y2="98.489"/>
<line display="none" fill="none" stroke="#1D1D1B" stroke-width="0.5" stroke-miterlimit="10" x1="36.235" y1="93.626" x2="151.786" y2="93.626"/>
<line display="none" fill="none" stroke="#1D1D1B" stroke-width="0.5" stroke-miterlimit="10" x1="49.923" y1="88.493" x2="36.235" y2="108.485"/>
<line display="none" fill="none" stroke="#1D1D1B" stroke-width="0.5" stroke-miterlimit="10" x1="56.767" y1="88.943" x2="43.079" y2="108.935"/>
<line display="none" fill="none" stroke="#1D1D1B" stroke-width="0.5" stroke-miterlimit="10" x1="62.955" y1="88.943" x2="49.268" y2="108.935"/>
<line display="none" fill="none" stroke="#1D1D1B" stroke-width="0.5" stroke-miterlimit="10" x1="69.799" y1="88.943" x2="56.111" y2="108.935"/>
<line display="none" fill="none" stroke="#1D1D1B" stroke-width="0.5" stroke-miterlimit="10" x1="76.644" y1="88.493" x2="62.955" y2="108.485"/>
<line display="none" fill="none" stroke="#1D1D1B" stroke-width="0.5" stroke-miterlimit="10" x1="83.487" y1="88.493" x2="69.799" y2="108.485"/>
<line display="none" fill="none" stroke="#1D1D1B" stroke-width="0.5" stroke-miterlimit="10" x1="90.331" y1="88.943" x2="76.644" y2="108.935"/>
<line display="none" fill="none" stroke="#1D1D1B" stroke-width="0.5" stroke-miterlimit="10" x1="96.378" y1="88.493" x2="82.69" y2="108.485"/>
<line display="none" fill="none" stroke="#1D1D1B" stroke-width="0.5" stroke-miterlimit="10" x1="103.22" y1="88.493" x2="89.533" y2="108.485"/>
<line display="none" fill="none" stroke="#1D1D1B" stroke-width="0.5" stroke-miterlimit="10" x1="110.065" y1="88.943" x2="96.378" y2="108.935"/>
<path display="none" fill="#FFFFFF" stroke="#1D1D1B" stroke-width="0.5" stroke-miterlimit="10" d="M110.068,108.935l13.685-19.991
	L110.068,108.935z"/>
<polygon display="none" fill="#1D1D1B" stroke="#1D1D1B" stroke-miterlimit="10" points="129.524,88.943 115.839,108.935 
	110.068,108.935 123.752,88.943 "/>
<line display="none" fill="none" stroke="#1D1D1B" stroke-width="0.5" stroke-miterlimit="10" x1="136.371" y1="88.934" x2="123.673" y2="108.935"/>
<line display="none" fill="none" stroke="#1D1D1B" stroke-width="0.5" stroke-miterlimit="10" x1="144.655" y1="88.934" x2="131.806" y2="108.467"/>
<polygon display="none" fill="none" stroke="#1D1D1B" stroke-width="0.5" stroke-miterlimit="10" points="130.364,98.489 
	123.308,98.489 119.767,103.893 126.825,103.893 "/>
<polygon display="none" fill="none" stroke="#1D1D1B" stroke-width="0.5" stroke-miterlimit="10" points="146.673,98.489 
	138.37,98.489 135.056,103.893 143.01,103.893 "/>
<polyline display="none" fill="#FFFFFF" stroke="#1D1D1B" stroke-width="0.5" stroke-miterlimit="10" points="116.415,89.45 
	113.919,93.436 110.486,98.38 "/>
<line display="none" fill="none" stroke="#1D1D1B" stroke-width="0.5" stroke-miterlimit="10" x1="106.517" y1="103.893" x2="103.222" y2="108.935"/>
<polygon display="none" fill="none" stroke="#1D1D1B" stroke-width="0.5" stroke-miterlimit="10" points="90.02,120.463 
	57.648,120.463 64.854,112.777 97.225,112.777 "/>
<path display="none" fill="none" stroke="#FFFFFF" stroke-width="0.25" stroke-miterlimit="10" d="M42.152,19.226
	c0,0-2.5-0.167-2.5,3v65.207l-24.333,36.96c0,0-1.588,2.834,1.623,3h112.582c0,0,1.463,0.132,3.129-1.768l24.833-38.192V75.226
	V22.059c0,0,0.875-2.503-1.563-2.835L42.152,19.226z"/>
<g display="none">
	<path display="inline" fill="#FFFFFF" d="M128.391,102.984c0.079,0.958,0.119,1.928,0.119,2.906
		c0,18.075-13.807,32.73-30.841,32.73c-17.033,0-30.84-14.655-30.84-32.73c0-18.076,13.808-32.73,30.84-32.73
		C113.78,73.161,127.004,86.267,128.391,102.984z"/>
	<path display="inline" fill="#1D1D1B" d="M128.889,102.942l0.001,0.006c0.724,8.399-1.677,17.09-6.831,23.81
		c-2.559,3.361-5.773,6.233-9.441,8.347c-3.663,2.116-7.779,3.456-11.994,3.868c-4.219,0.42-8.51-0.064-12.521-1.431
		c-4.011-1.359-7.714-3.584-10.838-6.431c-6.283-5.688-10.148-13.857-10.811-22.273c-0.731-8.409,1.675-17.093,6.827-23.814
		c2.559-3.362,5.774-6.233,9.441-8.347c3.664-2.116,7.78-3.456,11.995-3.868c4.218-0.42,8.509,0.067,12.522,1.429
		c4.009,1.363,7.716,3.582,10.837,6.432C124.358,86.358,128.221,94.526,128.889,102.942z M127.892,103.024
		c-0.413-4.082-1.571-8.073-3.412-11.705c-1.876-3.615-4.437-6.846-7.487-9.459c-3.035-2.646-6.616-4.559-10.365-5.822
		c-3.757-1.253-7.802-1.604-11.715-1.252c-3.934,0.367-7.783,1.598-11.226,3.564c-3.449,1.962-6.479,4.655-8.919,7.806
		c-4.943,6.279-7.354,14.497-6.755,22.552c0.533,8.05,4.134,15.928,10.104,21.468c2.968,2.771,6.5,4.954,10.345,6.31
		c3.835,1.354,7.995,1.902,12.065,1.507c4.077-0.379,8.066-1.653,11.631-3.688c3.563-2.036,6.719-4.799,9.206-8.077
		C126.346,119.655,128.638,111.206,127.892,103.024z"/>
</g>
<g display="none">
	<ellipse display="inline" fill="#FFFFFF" cx="80.074" cy="68.129" rx="15.278" ry="5.942"/>
	<path display="inline" d="M95.852,68.146c-0.593,1.702-1.806,2.551-3.065,3.285c-1.269,0.721-2.651,1.218-4.057,1.595
		c-2.819,0.746-5.744,1.039-8.655,1.046c-2.911-0.006-5.836-0.299-8.655-1.045c-1.405-0.379-2.79-0.872-4.056-1.598
		c-1.239-0.703-2.491-1.745-2.669-3.299c-0.047-0.379-0.05-0.777-0.072-1.248c-0.011-0.463-0.051-1.04,0.001-1.628
		c0.035-0.286,0.048-0.61,0.098-0.918c0.05-0.307,0.107-0.619,0.15-0.972c0.126-0.645,0.203-1.442,0.367-2.183
		c0.15-0.77,0.405-1.377,0.436-2.549c0.034-0.552,0.1-1.07,0.206-1.514c0.109-0.438,0.328-0.624,0.531-0.839
		c0.399-0.453,0.853-0.755,1.311-1.012c0.467-0.233,0.955-0.36,1.429-0.505c3.757-1.284,7.27-1.89,10.97-1.99
		c1.707-0.017,3.584,0.046,5.403,0.252c1.822,0.325,3.716,0.492,5.624,1.177l1.455,0.512c0.496,0.168,0.982,0.427,1.37,0.949
		c0.195,0.255,0.379,0.542,0.524,0.91c0.152,0.352,0.233,0.857,0.327,1.306c0.086,0.467,0.134,0.992,0.204,1.44
		c0.063,0.469,0.154,0.856,0.238,1.247c0.17,0.776,0.293,1.563,0.358,2.341c0.055,0.361,0.096,0.719,0.117,1.079
		c0.048,0.332,0.085,0.654,0.099,0.983l0.089,1.726c0.05,0.5,0.043,0.992-0.077,1.435V68.146z M95.352,68.129
		c0.003-0.738-0.364-1.425-0.852-1.959c-0.488-0.542-1.089-0.971-1.717-1.338c-1.266-0.723-2.647-1.23-4.058-1.587
		c-1.414-0.354-2.863-0.538-4.311-0.635c-0.727-0.022-1.446-0.1-2.168-0.165c-0.724-0.06-1.446-0.092-2.174-0.109
		c-2.89,0.146-5.815,0.236-8.622,1.021c-0.698,0.195-1.387,0.421-2.058,0.688c-0.674,0.264-1.308,0.603-1.969,0.893
		c-0.645,0.316-1.289,0.687-1.778,1.234c-0.487,0.534-0.854,1.221-0.85,1.959c0,0.759,0.551,1.341,1.063,1.769
		c0.525,0.448,1.132,0.792,1.757,1.096c0.622,0.307,1.257,0.608,1.919,0.853c0.664,0.243,1.35,0.425,2.035,0.615
		c2.753,0.736,5.632,1.015,8.504,1.108c2.875,0.02,5.767-0.276,8.531-1.011c0.689-0.188,1.368-0.406,2.028-0.663
		c0.662-0.257,1.28-0.589,1.921-0.866c0.632-0.3,1.225-0.672,1.737-1.131C94.801,69.469,95.358,68.892,95.352,68.129z"/>
</g>
<g display="none">
	<path display="inline" fill="#FFFFFF" d="M64.682,101.404c0,1.645-6.844,2.959-15.277,2.959s-15.279-1.314-15.279-2.959
		c0-0.147,0.057-0.282,0.169-0.414l0.014-0.029c0.139-0.117,0.279-0.25,0.417-0.369c1.826-1.242,7.708-2.145,14.678-2.145
		C57.838,98.447,64.682,99.778,64.682,101.404z"/>
	<path display="inline" fill="#1D1D1B" d="M65.182,101.437c-0.022,0.041-0.095,0.299-0.171,0.375
		c-0.077,0.112-0.169,0.191-0.258,0.26c-0.178,0.132-0.342,0.229-0.515,0.3c-0.331,0.158-0.655,0.276-0.982,0.383
		c-0.651,0.217-1.315,0.353-1.971,0.519c-1.319,0.305-2.659,0.514-4.003,0.67c-2.69,0.309-5.399,0.426-8.106,0.42
		c-2.707-0.01-5.416-0.142-8.103-0.476c-1.343-0.169-2.68-0.393-3.993-0.725c-0.655-0.168-1.308-0.362-1.921-0.656
		c-0.304-0.15-0.603-0.321-0.851-0.569c-0.272-0.219-0.399-0.688-0.169-1.08l-0.03,0.047l0.005-0.033l-0.004,0.027l0.061-0.102
		c0.096-0.162,0.167-0.354,0.236-0.576l-0.064,0.205l0.108-0.238l1.286-2.839c0.24-0.515,0.458-1.189,0.705-1.809
		c0.238-0.674,0.535-1.103,0.727-2.134c0.326-2.424,1.172-2.461,1.892-2.818c0.753-0.235,1.534-0.094,2.271-0.189
		c2.952-0.353,5.831-0.122,8.641-0.03c2.874-0.088,5.714-0.242,8.752-0.021c0.739,0.161,1.633-0.49,2.313,0.369
		c0.174,0.176,0.328,0.468,0.469,0.812c0.128,0.411,0.264,0.772,0.375,1.233c0.216,0.943,0.461,1.651,0.719,2.266
		c0.253,0.634,0.475,1.324,0.7,1.93c0.119,0.283,0.222,0.604,0.338,0.862c0.119,0.258,0.232,0.516,0.338,0.778
		c0.221,0.506,0.443,0.935,0.696,1.321c0.131,0.188,0.266,0.383,0.374,0.627c0.113,0.235,0.199,0.551,0.139,0.859L65.182,101.437z
		 M64.682,101.404c-0.006-0.336-0.274-0.586-0.527-0.77c-0.263-0.187-0.555-0.329-0.851-0.456c-0.595-0.249-1.217-0.43-1.842-0.587
		c-1.253-0.308-2.529-0.517-3.81-0.672c-2.57-0.287-5.155-0.121-7.723-0.307C49.285,98.56,48.643,98.656,48,98.67l-1.93,0.028
		c-1.286,0.037-2.573,0.101-3.855,0.215c-1.278,0.151-2.553,0.338-3.807,0.609c-1.248,0.228-2.592,0.33-3.681,1.069l0,0
		l-0.417,0.369l0,0l-0.014,0.029l0,0l0,0c-0.112,0.126-0.184,0.295-0.164,0.465c0.027,0.167,0.119,0.314,0.243,0.423
		c0.259,0.212,0.59,0.296,0.896,0.403c0.617,0.211,1.246,0.407,1.893,0.565c0.643,0.174,1.312,0.246,1.974,0.337
		c0.662,0.096,1.324,0.192,1.991,0.267c2.661,0.332,5.358,0.525,8.049,0.419c2.69,0.016,5.385-0.095,8.049-0.405
		c1.329-0.168,2.658-0.359,3.938-0.696c0.637-0.18,1.255-0.386,1.875-0.542c0.307-0.085,0.647-0.095,0.969-0.184
		C64.314,101.961,64.673,101.771,64.682,101.404z"/>
</g>
<g display="none">
	<ellipse display="inline" fill="#FFFFFF" cx="115.064" cy="67.613" rx="12.691" ry="5.673"/>
	<path display="inline" d="M127.88,67.62c-0.101,0.629-0.295,1.258-0.669,1.774c-0.384,0.509-0.886,0.901-1.399,1.251
		c-1.037,0.696-2.187,1.207-3.373,1.583c-2.379,0.754-4.885,1.05-7.374,1.057c-2.489-0.007-4.994-0.304-7.373-1.057
		c-1.184-0.381-2.343-0.877-3.366-1.592c-1.031-0.687-1.905-1.714-2.055-3.021c-0.073-0.66,0.131-1.278,0.142-2.143
		c0.043-0.869,0.181-1.88,0.327-3.113l0.296-1.947c0.035-0.393,0.083-0.767,0.134-1.166c0.053-0.402,0.107-0.801,0.2-1.154
		c0.087-0.373,0.178-0.729,0.295-1.055c0.121-0.322,0.216-0.705,0.369-0.962c0.282-0.58,0.664-0.925,1.065-1.175
		c3.465-1.288,6.758-1.29,9.964-1.374l1.154,0.027c0.468,0.01,0.863,0.043,1.265,0.087c0.81,0.087,1.619,0.197,2.435,0.34
		c1.624,0.29,3.321,0.572,4.911,1.541c0.395,0.229,0.807,0.449,1.142,0.873c0.172,0.199,0.314,0.455,0.449,0.744
		c0.137,0.276,0.258,0.563,0.374,0.874c0.562,1.052,0.465,3.104,0.716,4.174c0.185,1.212,0.329,2.254,0.404,3.143
		c0.027,0.456,0.005,0.88,0.003,1.25c0.007,0.367,0.008,0.707-0.035,1.034V67.62z M127.755,67.613
		c-0.008-1.288-0.956-2.325-1.953-3.021c-1.022-0.713-2.18-1.22-3.368-1.585c-1.19-0.376-2.438-0.514-3.667-0.642l-0.927-0.063
		l-0.923-0.096c-0.616-0.049-1.231-0.096-1.854-0.117c-2.466,0.143-4.97,0.242-7.335,1.028c-1.185,0.376-2.275,0.958-3.333,1.575
		c-1.077,0.563-2.021,1.64-2.022,2.922c0.002,0.644,0.433,1.17,0.842,1.568c0.424,0.408,0.908,0.734,1.419,1.02
		c0.511,0.279,0.987,0.634,1.539,0.872c0.548,0.239,1.119,0.43,1.694,0.61c2.315,0.714,4.76,0.913,7.198,1.102
		c2.446,0.019,4.913-0.279,7.227-1.016c1.158-0.362,2.247-0.899,3.235-1.526c0.49-0.321,0.958-0.666,1.357-1.085
		C127.278,68.762,127.764,68.267,127.755,67.613z"/>
</g>
<path display="none" fill="#1D1D1B" d="M65.278,101.405l-2.104-2.1c0,0-2.98-1.42-7.267-2.41c2.302-0.54,4.237-1.37,5.573-2.37
	c-1.146,0.42-2.871,0.59-5.423,0.38c0,0,0,0-0.01,0c-0.239-0.05-0.488-0.109-0.738-0.16c-1.944,0.421-4.107,0.66-6.411,0.66
	c-2.342,0-4.555-0.25-6.5-0.68c-0.04,0.01-0.089,0.02-0.129,0.03c-2.522,0.21-4.187,0.029-5.264-0.4
	c-1.166-0.92-1.824-1.99-1.834-3.14c-0.04-0.04-0.08-0.09-0.109-0.13c-0.04,1.29,0.209,2.59,1.943,3.27
	c1.236,1,3.051,1.83,5.224,2.39c-2.672,0.711-5.293,2-7.616,4.08c-0.18,0.12-0.319,0.24-0.419,0.37l-0.009,0.03
	c-0.02,0.02-0.05,0.03-0.06,0.05l-0.229-0.24v-18.26l0.229-5.78l30.913-0.62L65.278,101.405z"/>
<path display="none" fill="#1D1D1B" d="M37.016,94.355c-1.74-0.68-1.99-1.979-1.95-3.27c0.03,0.04,0.07,0.09,0.11,0.13
	C35.186,92.365,35.846,93.436,37.016,94.355z"/>
<path display="none" fill="#1D1D1B" d="M37.016,94.355c-1.74-0.68-1.99-1.979-1.95-3.27c0.03,0.04,0.07,0.09,0.11,0.13
	C35.186,92.365,35.846,93.436,37.016,94.355z"/>
<g display="none">
	<path display="inline" fill="#FFFFFF" d="M68.682,59.178c-0.76,2.744-12.253,1.569-25.671-2.623
		c-13.416-4.194-23.675-9.814-22.913-12.557c0.761-2.744,12.253-1.569,25.67,2.622C59.185,50.814,69.444,56.434,68.682,59.178z"/>
	<path display="inline" fill="#1D1D1B" d="M69.155,59.341c-0.021,0.092-0.153,0.378-0.262,0.507
		c-0.119,0.155-0.256,0.279-0.396,0.388c-0.284,0.208-0.58,0.341-0.873,0.446c-0.587,0.203-1.169,0.299-1.746,0.36
		c-1.154,0.117-2.291,0.095-3.419,0.029c-2.256-0.141-4.479-0.477-6.683-0.887c-4.406-0.836-8.733-2-12.993-3.361
		c-4.272-1.315-8.49-2.832-12.584-4.661c-2.044-0.92-4.061-1.913-5.995-3.083c-0.964-0.59-1.912-1.217-2.794-1.968
		c-0.439-0.378-0.866-0.783-1.236-1.278c-0.337-0.494-0.765-1.096-0.548-2c0.018-0.093,0.146-0.382,0.252-0.515
		c0.117-0.159,0.252-0.288,0.392-0.4c0.282-0.217,0.578-0.359,0.871-0.473c0.588-0.221,1.172-0.334,1.751-0.412
		c1.159-0.151,2.304-0.161,3.44-0.127c2.273,0.084,4.513,0.359,6.759,0.607c2.242,0.281,4.47,0.652,6.687,1.087
		c1.105,0.23,2.211,0.451,3.391,0.438c1.168,0.029,2.335,0.076,3.411,0.468c1.072,0.337,1.989,1.23,2.966,1.838
		c0.494,0.297,1.021,0.499,1.542,0.714l1.557,0.665c2.068,0.902,4.111,1.863,6.113,2.905c1.985,1.075,4.004,2.078,5.913,3.315
		c0.954,0.618,1.89,1.273,2.76,2.051c0.432,0.392,0.852,0.811,1.213,1.319c0.333,0.493,0.735,1.155,0.521,1.996L69.155,59.341z
		 M68.2,59.044c0.09-0.274-0.094-0.725-0.391-1.118c-0.294-0.4-0.675-0.774-1.078-1.124c-0.812-0.7-1.724-1.315-2.656-1.893
		c-1.874-1.15-3.858-2.145-5.872-3.067c-4.037-1.835-8.215-3.37-12.453-4.704c-4.238-1.324-8.547-2.452-12.908-3.25
		c-2.18-0.392-4.376-0.708-6.571-0.831c-1.095-0.057-2.195-0.069-3.259,0.047c-0.53,0.058-1.053,0.153-1.519,0.318
		c-0.469,0.173-0.842,0.401-0.922,0.738c-0.071,0.215,0.1,0.708,0.4,1.089c0.294,0.4,0.676,0.773,1.078,1.123
		c0.812,0.7,1.724,1.315,2.656,1.893c1.875,1.15,3.858,2.145,5.873,3.066c4.037,1.835,8.215,3.37,12.453,4.705
		c4.238,1.324,8.547,2.452,12.908,3.25c2.18,0.392,4.377,0.708,6.572,0.83c1.095,0.058,2.195,0.069,3.259-0.046
		c0.53-0.058,1.053-0.154,1.519-0.318c0.47-0.174,0.843-0.401,0.922-0.738L68.2,59.044z"/>
</g>
<path display="none" fill="#1D1D1B" d="M165.341,62.683c0,1.362-7.904,2.464-17.654,2.464c-9.753,0-17.659-1.102-17.659-2.464
	c0-1.362,7.906-2.467,17.659-2.467C157.437,60.216,165.341,61.321,165.341,62.683z"/>
<g display="none">
	<path display="inline" fill="#FFFFFF" d="M150.601,17.826c0.267,1.297-9.976,4.796-22.882,7.817
		c-12.903,3.019-23.585,4.417-23.853,3.121c-0.271-1.297,9.973-4.796,22.881-7.816C139.65,17.928,150.333,16.53,150.601,17.826z"/>
	<path display="inline" fill="#1D1D1B" d="M151.099,17.787c0.019-0.021-0.007,0.354-0.068,0.424
		c-0.054,0.119-0.115,0.203-0.175,0.277c-0.12,0.143-0.238,0.239-0.355,0.333c-0.234,0.18-0.467,0.32-0.701,0.452
		c-0.468,0.26-0.939,0.479-1.414,0.686c-0.949,0.411-1.909,0.769-2.874,1.109c-1.927,0.686-3.885,1.253-5.83,1.86
		c-3.898,1.186-7.837,2.223-11.793,3.19c-3.964,0.931-7.926,1.88-11.938,2.632c-2.006,0.38-4.02,0.728-6.057,0.996
		c-1.02,0.132-2.043,0.248-3.09,0.31c-0.524,0.03-1.054,0.047-1.608,0.025c-0.28-0.013-0.564-0.035-0.887-0.097
		c-0.164-0.035-0.331-0.072-0.549-0.169c-0.109-0.05-0.234-0.117-0.375-0.238c-0.077-0.073-0.145-0.137-0.219-0.254
		c-0.034-0.056-0.065-0.105-0.093-0.175l-0.037-0.102c-0.018-0.081-0.005,0.035-0.043-0.208c0.001-0.043-0.015-0.005-0.001-0.243
		c0.023-0.208,0.059-0.266,0.094-0.365c0.073-0.167,0.151-0.277,0.226-0.372c0.147-0.181,0.278-0.292,0.408-0.4
		c0.256-0.206,0.497-0.36,0.738-0.505c0.481-0.285,0.956-0.522,1.434-0.748c0.953-0.447,1.911-0.835,2.874-1.208
		c1.925-0.741,3.868-1.388,5.806-2.057c1.94-0.655,3.893-1.272,5.852-1.863l2.945-0.866c0.498-0.112,0.95-0.415,1.384-0.803
		c0.432-0.392,0.869-0.773,1.359-0.931c0.479-0.199,1.021-0.127,1.577-0.009l0.815,0.123c0.272,0.045,0.56,0.155,0.822,0.158
		c1.02-0.125,2.027-0.302,3.042-0.44c2.028-0.291,4.06-0.555,6.096-0.78c2.041-0.199,4.065-0.487,6.116-0.633
		c1.025-0.078,2.053-0.139,3.094-0.145c0.521-0.003,1.045,0.008,1.582,0.057c0.27,0.026,0.542,0.061,0.833,0.131
		c0.147,0.038,0.296,0.078,0.469,0.163c0.15,0.081,0.431,0.218,0.533,0.625L151.099,17.787z M150.097,17.88l0.015,0.047
		c0.045,0.151,0.094,0.119,0.018,0.093c-0.057-0.028-0.156-0.056-0.257-0.077c-0.206-0.044-0.442-0.068-0.681-0.083
		c-0.479-0.027-0.976-0.021-1.473,0c-0.995,0.042-1.999,0.138-3,0.251c-2.005,0.231-4.006,0.541-6.002,0.885
		c-1.995,0.346-3.985,0.729-5.971,1.14c-1.985,0.41-3.969,0.835-5.926,1.371c-1.986,0.407-3.96,0.877-5.918,1.403
		c-1.961,0.514-3.914,1.055-5.855,1.631c-1.94,0.578-3.872,1.189-5.77,1.873c-0.948,0.343-1.89,0.703-2.801,1.107
		c-0.454,0.202-0.902,0.417-1.32,0.653c-0.207,0.119-0.407,0.245-0.575,0.375c-0.178,0.113-0.274,0.326-0.217,0.173
		c-0.062-0.27-0.099-0.152-0.027-0.152c0.058,0.028,0.157,0.056,0.257,0.078c0.207,0.043,0.442,0.068,0.681,0.082
		c0.479,0.027,0.976,0.021,1.473,0c0.996-0.042,1.999-0.138,3.001-0.251c2.004-0.231,4.006-0.541,6.001-0.885
		c3.991-0.693,7.962-1.527,11.911-2.45c3.947-0.927,7.876-1.943,11.76-3.095c1.94-0.578,3.871-1.189,5.77-1.873
		c0.947-0.343,1.889-0.703,2.8-1.107c0.455-0.202,0.903-0.416,1.32-0.653c0.208-0.118,0.408-0.245,0.576-0.375
		c0.178-0.113,0.274-0.326,0.217-0.174L150.097,17.88z"/>
</g>
<g display="none">
	<path display="inline" fill="#1D1D1B" d="M33.946,95.228c0.102,3.392,0.216,6.784,0.282,10.176l0.129,5.089
		c0.061,1.695,0.082,3.392,0.013,5.088l-0.001-0.035c-0.002,0.615-0.131,1.119-0.334,1.636c-0.201,0.507-0.504,0.971-0.882,1.352
		c-0.747,0.778-1.738,1.219-2.724,1.397l-0.03-0.096c0.899-0.417,1.714-0.979,2.257-1.725c0.267-0.374,0.466-0.784,0.605-1.21
		c0.132-0.417,0.196-0.906,0.163-1.284v0.002l-0.001-0.037c-0.068-1.696-0.048-3.393,0.013-5.088l0.129-5.089
		c0.066-3.392,0.18-6.784,0.282-10.176H33.946z"/>
</g>
<g display="none">
	<path display="inline" fill="#1D1D1B" d="M65.08,92.266c0.102,3.494,0.216,6.987,0.283,10.481l0.129,5.24
		c0.061,1.747,0.082,3.494,0.01,5.241l-0.001,0.038l0-0.004c-0.033,0.392,0.029,0.891,0.16,1.319
		c0.138,0.437,0.331,0.861,0.599,1.247c0.539,0.771,1.358,1.357,2.271,1.785L68.5,117.71c-1.001-0.193-2.003-0.663-2.743-1.472
		c-0.376-0.395-0.673-0.871-0.87-1.387c-0.198-0.525-0.324-1.038-0.327-1.656l-0.001,0.033c-0.072-1.747-0.051-3.494,0.01-5.241
		l0.129-5.24c0.066-3.494,0.181-6.987,0.283-10.481H65.08z"/>
</g>
<g display="none">
	<path display="inline" fill="#1D1D1B" d="M49.744,87.089c0.145,7.629,0.261,15.257,0.35,22.886c0.054,3.813,0.166,7.628,0.1,11.442
		l-0.067,2.867c-0.049,0.987-0.179,1.964-0.464,2.908c-0.277,0.941-0.67,1.859-1.234,2.67c-0.574,0.798-1.318,1.486-2.194,1.898
		l-0.05-0.086c1.591-1.073,2.434-2.856,2.802-4.651c0.177-0.906,0.285-1.834,0.278-2.753l-0.07-2.854
		c-0.065-3.814,0.046-7.629,0.1-11.442c0.089-7.629,0.206-15.257,0.35-22.886H49.744z"/>
</g>
<g display="none">
	<path display="inline" fill="#1D1D1B" d="M15.433,123.375c5.414-4.582,10.848-9.141,16.296-13.681l0.253-0.211l0.265,0.217
		l4.003,3.281c1.333,1.095,2.643,2.218,3.943,3.352c2.571,2.303,5.151,4.595,7.598,7.043l-0.064,0.076
		c-2.812-2.02-5.49-4.196-8.176-6.362c-1.329-1.101-2.648-2.211-3.944-3.351l-3.884-3.422l0.518,0.006
		c-5.565,4.396-11.144,8.775-16.743,13.13L15.433,123.375z"/>
</g>
<g display="none">
	<path display="inline" fill="#1D1D1B" d="M32.067,126.417c-0.118-4.983-0.212-9.966-0.246-14.948
		c-0.051-4.983-0.098-9.966-0.082-14.948c0.011-4.982-0.032-9.965,0.024-14.947l0.13-14.947l0.001-0.128l0.068-0.1l6.487-9.532
		c2.184-3.164,4.359-6.332,6.579-9.472c-2.02,3.271-4.084,6.514-6.14,9.761l-6.232,9.701l0.069-0.228l0.009,14.947
		c0.016,4.982-0.068,9.965-0.097,14.947c-0.024,4.982-0.112,9.965-0.203,14.946C32.36,116.453,32.225,121.436,32.067,126.417z"/>
</g>
<g display="none">
	<path display="inline" fill="#1D1D1B" d="M123.65,128.756c5.151-6.093,10.321-12.169,15.513-18.227l0.284-0.331l0.308,0.324
		l4.199,4.436c1.4,1.478,2.776,2.979,4.136,4.493l4.02,4.601c1.322,1.551,2.638,3.105,3.908,4.703l-0.074,0.068
		c-1.482-1.402-2.92-2.847-4.352-4.296l-4.239-4.398c-1.394-1.485-2.771-2.984-4.123-4.506l-4.06-4.563l0.591-0.007
		c-5.324,5.941-10.67,11.864-16.034,17.77L123.65,128.756z"/>
</g>
<g display="none">
	<path display="inline" fill="#1D1D1B" d="M139.38,132.83c-0.161-6.692-0.295-13.385-0.371-20.077
		c-0.096-6.692-0.177-13.385-0.202-20.077c-0.029-6.693-0.116-13.385-0.092-20.078l0.019-20.078l0.029,0.151l-6.092-15.291
		l-5.99-15.332l6.465,15.138l6.363,15.18l0.029,0.07v0.082l0.141,20.078c0.064,6.692,0.02,13.386,0.03,20.078
		c0.015,6.692-0.025,13.386-0.08,20.078C139.594,119.444,139.5,126.137,139.38,132.83z"/>
</g>
<g display="none">
	<path display="inline" fill="#1D1D1B" d="M164.487,123.402l-16.778-17.764l0.602-0.007l-3.873,4.562
		c-1.293,1.52-2.612,3.016-3.943,4.501c-2.696,2.941-5.382,5.893-8.223,8.707l-0.076-0.066c2.417-3.187,4.989-6.236,7.551-9.296
		c1.298-1.515,2.607-3.02,3.943-4.5l4.014-4.439l0.306-0.339l0.296,0.331l16.257,18.242L164.487,123.402z"/>
</g>
<g display="none">
	<path display="inline" fill="#1D1D1B" d="M147.924,127.406c-0.222-6.949-0.333-13.899-0.429-20.85l-0.162-20.85l0.069-20.85
		l0.116-10.425c0.076-3.475,0.117-6.95,0.223-10.425c0.121,3.475,0.178,6.95,0.268,10.424l0.163,10.425l0.16,20.85l-0.071,20.851
		C148.197,113.506,148.116,120.456,147.924,127.406z"/>
</g>
<g display="none">
	<path display="inline" fill="#FFFFFF" d="M130.028,62.683c2.942-0.155,5.886-0.227,8.828-0.287
		c2.943-0.062,5.886-0.056,8.829-0.087c2.942,0.029,5.885,0.026,8.828,0.086c2.942,0.061,5.886,0.133,8.828,0.289
		c-2.942,0.156-5.886,0.228-8.828,0.289c-2.943,0.06-5.886,0.057-8.828,0.086c-2.943-0.031-5.886-0.025-8.829-0.087
		C135.914,62.91,132.97,62.838,130.028,62.683z"/>
</g>
<ellipse display="none" fill="#1D1D1B" cx="49.58" cy="76.747" rx="15.454" ry="2.675"/>
<path display="none" fill="none" stroke="#FFFFFF" stroke-width="0.25" stroke-miterlimit="10" d="M46.361,44.434
	c0,0-1.604-0.458-3.271-0.375c0,0-1.563-0.125-2.5-0.313c0,0-8.042-1.521-12.125-1.708c0,0-3.875-0.292-5.563,0
	c0,0-6.334,0.542-1.604,4.979c0,0,3.75,2.917,8.021,4.729s7.146,3.104,9.917,3.938l-7.354,10.792l-0.104,43.167L16.59,122.33
	l-1.25,1.084l0.125,0.124l2.349-1.875l13.984-11l0.109,8.188c0,0-0.88,0.75-1.495,0.953v0.141c0,0,0.995-0.172,1.463-0.469
	l0.191,7.063l0.231-7.297c0,0,1.594-1.012,1.906-2.529c0,0,0.266-1.908,0.219-3.986l13.335,10.781l0.118-0.156l-13.484-11.922
	l-0.266-9.672c0,0,0.559,1.182,5.467,1.919c0,0,5.046,0.833,9.812,0.688l-0.091,3.237l-0.125,7.828c0,0-0.031,4.906,0,5.281
	s0.078,4.109,0.063,4.281s-0.207,3.172-1.299,4.828c0,0-1.317,1.766-1.744,1.844v0.125c0,0,0.933-0.344,1.636-1.188
	c0,0,1.563-1.656,2.047-4.328c0,0,0.266-1.922,0.25-2.656l0.094-4.859l-0.078-4.438l-0.078-5.406l-0.031-4.55l3.142-0.091
	c0,0,4.27-0.311,5.517-0.518c0,0,5.094-0.873,5.976-1.607l-0.118,4.891c0,0-0.094,4.078-0.063,4.375s-0.109,2.547,0.453,3.641
	c0,0,1.172,2.357,3.406,2.608c0,0,1.438,3.735,2.5,5.47c0,0,2.219,3.5,3.109,4.531c0,0,4,4.578,6.656,6.125
	c0,0,4.109,2.625,6.344,3.313c0,0,4.5,1.672,8.031,1.891c0,0,5.188,0.406,9.063-0.594c0,0,3.969-0.859,7.297-2.609
	c0,0,4.5-2.5,6.484-4.484c0,0,3.031-2.813,4.547-5.016c0,0,2.906-4.141,3.844-6.688c0,0,1.469-3.688,1.828-5.625
	c0,0,1.109-5.484,0.938-7.125c0,0-0.029-5-0.491-6.781c0,0-1.009-5.234-1.743-6.594c0,0-1.969-4.688-3.297-6.438
	c0,0-3.516-5.203-6.656-7.484c0,0-4.859-3.734-8.266-4.828c0,0-4.969-2.063-10.656-2.063c0,0-6.344-0.156-12.172,2.484
	c0,0-5.359,2.5-8.031,5.125s-2.672,2.625-2.672,2.625l0,0c0,0-3.672,4.406-4.516,6.375c0,0-1.281,2.469-2.266,5.203
	c0,0-1.085,3.016-1.464,5.813c0,0-0.629,4.25-0.458,5.891c0,0,0.141,4.516,0.578,6.109c0,0,0.938,4.234,1.328,5l0.078,0.156
	l-0.734-0.391c0,0-0.938-0.594-1.281-1.203c0,0-1.094-0.922-0.734-4.125c0,0,0.016-1.641,0-2.297l-0.156-5.516l-0.141-5.016
	l-0.075-8.078l-0.085-8.906l-0.058-5.469c0,0-1.051-1.057-5.159-1.692c0,0-6.733-0.881-10.78-0.68c0,0-7.33,0.083-10.829,0.853
	c0,0-3.828,0.598-4.14,1.738v0.734l-0.164,3.703l-0.066,5.203l0.003,5.297l-0.003,3.344c0,0-0.098,0.5-0.082,0.859
	s-0.063,2.344-0.063,2.344l-0.156,5.188l-0.125,5.547l-0.063,1.781l-0.953-0.813l0.125-7.125l0.047-6.281l0.063-6.609
	c0,0,0.063-7.641,0.016-7.922s0.016-7,0.016-7v-8.156l3.094-4.828l3.875-6.078c0,0,5.162,1.625,5.339,1.672
	c0,0,5.349,1.531,5.552,1.516s5.781,1.359,6.609,1.406c0,0,6.688,0.938,8.047,0.641l-0.563,3.594c0,0-0.286,2.125,0.123,3.813
	c0,0,0.144,1.666,2.511,2.903c0,0,3.506,1.75,6.384,2.135c0,0,6,0.971,10.624,0.31c0,0,5.517-0.666,8.391-2.367
	c0,0,1.812-1.091,2.374-1.888c0,0,1.063-0.984,0.844-2.766c0,0-0.203-3.203-0.297-3.859c0,0-0.578-3.859-0.688-4.469
	c0,0-0.391-1.891-0.578-2.203c0,0-0.328-1.234-2.172-1.75c0,0-3.219-0.969-4.281-1.141c0,0-5.313-0.953-9.406-0.547
	c0,0-6.719,0.344-11.438,2.844c0,0-3.656-2.844-7.5-4.609c0,0-5.969-3.078-7.938-3.813c0,0-2-0.656-3.313-1.797
	C48.314,45.476,46.982,44.58,46.361,44.434z"/>
<path display="none" fill="none" stroke="#FFFFFF" stroke-width="0.25" stroke-miterlimit="10" d="M125.111,55.663
	c0,0-1.781-1.375-6.625-1.938c0,0-5.25-0.406-8.188,0c0,0-2.656,0.406-4.031,0.75c0,0-2.156,0.188-2.5,2.188l-1,5.279l-0.395,4.033
	c0,0-0.723,2.336,1.07,3.918c0,0,2.42,2.481,7.45,3.079c0,0,7.372,1.193,13.264-1.402c0,0,1.953-0.967,2.524-1.671
	c0,0,1.211-0.955,1.242-2.674l-0.168-4.344l-0.832-4.625C126.923,58.257,126.586,56.413,125.111,55.663z"/>
<path display="none" fill="none" stroke="#FFFFFF" stroke-width="0.25" stroke-miterlimit="10" d="M126.33,18.413
	c0,0-0.906,0.281-1.313,0.75c0,0-0.781,0.906-2.25,1.188c0,0-3.906,1.207-5.281,1.697c0,0-8.5,2.74-9.938,3.396
	c0,0-2.219,0.938-2.656,1.25c0,0-5.031,3.031,1.125,3.375c0,0,8.094-0.969,9.031-1.188c0,0,12.582-2.598,13.244-2.893l1.256,3.259
	l3.281,8.508l5.938,14.844l-0.125,7.963c0,0-5.604,0.614-6.739,1.013c0,0-1.521,0.305-1.875,0.868c0,0-0.3,0.438,0.429,0.778
	c0,0,2.032,1.263,8.188,1.578l0.123,8.895v6.656v11.219l0.156,17.094v2.128l-15.235,17.778l-0.14,0.22l0.14,0.124l0.318-0.487
	l1.495-1.56l3.375-3.719l10.047-11.203v2.969l-6.69,8.188l-0.185,0.268l0.185,0.139l0.341-0.528l6.35-6.659l0.456,16.344
	l0.138-6.594v-10.438l1.906-2l6.318,6.938l0.092,7.031l0.309-6.656l8.031,8.125l-8.031-9.625l0.236-13.156l16.326,17.313
	l-16.326-18.625v-0.25l-0.111-27.125l-0.094-12.454c0,0,7.432-0.193,9.592-0.44c0,0,4.812-0.486,6.021-1.011
	c0,0,3.15-0.823,0.206-1.959c0,0-4.54-1.214-10.164-1.367l-5.718-0.153l-0.369-16.491l-0.287,16.491c0,0-7.394,0.212-7.844,0.259
	l-0.031-8.063l-11.094-26.469c0,0,11.531-2.969,12.656-3.469c0,0,7.344-2.094,9.313-3.688c0,0,1.75-1.281-0.688-1.969
	c0,0-2.875-0.281-11.844,0.719c0,0-7.375,1-7.531,1.031c0,0-0.813,0.344-1.938,0.031C128.455,18.601,127.392,18.226,126.33,18.413z"
	/>
<polygon display="none" fill="none" stroke="#FFFFFF" stroke-width="0.25" stroke-miterlimit="10" points="139.833,64.89 
	147.687,65.147 147.403,105.365 141.403,112.06 139.833,110.31 "/>
</svg>
