<?xml version="1.0" encoding="utf-8"?>
<!-- Generator: Adobe Illustrator 15.0.0, SVG Export Plug-In  -->
<!DOCTYPE svg PUBLIC "-//W3C//DTD SVG 1.1//EN" "http://www.w3.org/Graphics/SVG/1.1/DTD/svg11.dtd" [
	<!ENTITY ns_flows "http://ns.adobe.com/Flows/1.0/">
]>
<svg version="1.1"
	 xmlns="http://www.w3.org/2000/svg" xmlns:xlink="http://www.w3.org/1999/xlink" xmlns:a="http://ns.adobe.com/AdobeSVGViewerExtensions/3.0/"
	 x="0px" y="0px" width="84px" height="152px" viewBox="3.52 -1.739 84 152" enable-background="new 3.52 -1.739 84 152"
	 xml:space="preserve">
<defs>
</defs>
<path display="none" fill="#1D1D1B" stroke="#FFFFFF" stroke-width="0.25" stroke-miterlimit="10" d="M54.029,144.829
	c-2.417,1.988-17.674,1.847-19.711,0c-2.037-1.849-3.032-17.341,0-19.712c3.175-2.48,18.147-2.653,19.711,0
	C55.591,127.771,56.444,142.839,54.029,144.829z"/>
<path display="none" fill="#1D1D1B" stroke="#FFFFFF" stroke-width="0.25" stroke-miterlimit="10" d="M54.408,110.776
	c-2.653,2.049-19.121,2.015-20.848,0c-1.99-2.321-7.533-105.994-5.306-108.543c2.11-2.417,30.322-2.641,31.84,0.364
	C61.796,5.971,57.063,108.728,54.408,110.776z"/>
<polygon display="none" fill="#FFFFFF" points="34.881,1.991 41.164,0.644 45.051,3.927 46.833,7.168 47.735,9.892 49.262,36.366 
	49.493,43.177 50.603,67.554 51.436,87.122 51.853,102.844 52.038,111.928 52.824,119.378 53.203,122.343 55.392,133.428 
	49.437,139.428 42.854,125.025 43.377,9.297 42.274,5.04 39.825,4.011 36.77,3.844 "/>
<path display="none" fill="#1D1D1B" stroke="#FFFFFF" stroke-width="0.25" stroke-miterlimit="10" d="M46.323,56.75l0.555,68.115
	c0,0,0.254,9.322,4.697,10.571c3.046,0.856,2.313-9.115,2.313-9.115c0-8.227,1.153-25.74,2.868-37.481
	c1.204-8.237,0.371-13.234,0.371-13.234c6.663,16.937,20.823,16.104,20.823,16.104c-7.219,9.162-6.664,27.208-6.664,27.208
	s1.875,27.233-15.524,28.714s-14.067-34.982-14.067-34.982l0.74-86.068V8.071c-0.741-5.553-8.144-2.221-8.144-2.221L30.22,8.256
	c-1.481,0.926-5.368,0.556-5.368,0.556c-0.555-0.74,0.37-2.221,0.37-2.221s1.481,1.295,8.145-3.702c0,0,6.687-4.652,10.019-1.135
	c0,0,4.605,3.541,4.974,9.834c0.37,6.293,1.851,33.872,1.851,33.872l1.644,39.263l0.833,30.355c0,0,0.438,6.014,0.647,9.206
	c0.243,3.74,0.555,4.722,0.555,4.722s-0.972-0.186-1.202-1.019c-0.231-0.833-0.879-12.588-0.926-13.373
	c-0.047-0.787-0.74-15.965-0.74-15.965l-0.973-27.347l-0.555-15.409c0,0-1.805-43.59-2.082-45.671
	C47.133,8.14,43.87,1.546,39.844,1.06c0,0-3.886,0.139-5.622,2.013c0,0,10.134-4.095,11.522,8.26"/>
<path display="none" fill="#FFFFFF" stroke="#1D1D1B" stroke-miterlimit="10" d="M10.207,7.261l4.257-2.221
	c0,0,3.332-0.741,4.442-0.371c1.11,0.371,5.183,1.666,5.183,1.666s-1.296,2.221,0,3.147l-5.183,0.74l-4.442-0.925L10.207,7.261z"/>
<ellipse transform="matrix(0.713 0.7012 -0.7012 0.713 74.1452 -27.143)" display="none" fill="#FFFFFF" stroke="#1D1D1B" stroke-miterlimit="10" cx="70.229" cy="77" rx="17.588" ry="10.445"/>
<ellipse transform="matrix(0.9771 -0.2127 0.2127 0.9771 -25.9446 14.7091)" display="none" fill="#1D1D1B" stroke="#FFFFFF" stroke-miterlimit="10" cx="55.393" cy="127.94" rx="2.454" ry="4.319"/>
<circle display="none" fill="#1D1D1B" stroke="#FFFFFF" stroke-miterlimit="10" cx="47.202" cy="89.834" r="3.262"/>
<circle display="none" fill="#1D1D1B" stroke="#FFFFFF" stroke-miterlimit="10" cx="47.341" cy="80.256" r="3.262"/>
<circle display="none" fill="#1D1D1B" stroke="#FFFFFF" stroke-miterlimit="10" cx="47.272" cy="70.886" r="2.915"/>
<circle display="none" fill="#1D1D1B" stroke="#FFFFFF" stroke-miterlimit="10" cx="47.272" cy="62.279" r="2.638"/>
<circle display="none" fill="#1D1D1B" stroke="#FFFFFF" stroke-miterlimit="10" cx="46.647" cy="49.855" r="2.429"/>
<circle display="none" fill="#1D1D1B" stroke="#FFFFFF" stroke-miterlimit="10" cx="47.757" cy="98.719" r="3.679"/>
<circle display="none" fill="#1D1D1B" stroke="#FFFFFF" stroke-miterlimit="10" cx="47.896" cy="107.464" r="3.957"/>
<circle display="none" fill="#1D1D1B" stroke="#FFFFFF" stroke-miterlimit="10" cx="47.826" cy="116.695" r="4.164"/>
<g display="none">
	<path display="inline" fill="#FFFFFF" d="M45.051,47.009c0,0-3.471,2.915-0.417,5.414"/>
	<path display="inline" fill="#1D1D1B" d="M45.083,47.047c-0.345,0.396-0.636,0.839-0.856,1.296
		c-0.233,0.448-0.39,0.927-0.416,1.385c-0.036,0.472,0.16,0.855,0.271,1.264c0.133,0.418,0.354,0.847,0.584,1.392l-0.063,0.077
		c-0.585-0.125-1.085-0.502-1.421-1.036c-0.345-0.544-0.314-1.257-0.159-1.829c0.313-1.179,1.12-2.012,1.997-2.626L45.083,47.047z"
		/>
</g>
<circle display="none" fill="#1D1D1B" stroke="#FFFFFF" stroke-miterlimit="10" cx="46.832" cy="39.211" r="2.43"/>
<g display="none">
	<path display="inline" fill="#FFFFFF" d="M45.235,36.366c0,0-3.47,2.916-0.417,5.414"/>
	<path display="inline" fill="#1D1D1B" d="M45.268,36.404c-0.345,0.396-0.635,0.839-0.856,1.296
		c-0.232,0.448-0.39,0.927-0.416,1.386c-0.036,0.472,0.16,0.854,0.271,1.263c0.133,0.418,0.354,0.847,0.584,1.392l-0.063,0.077
		c-0.585-0.125-1.085-0.502-1.421-1.036c-0.345-0.545-0.314-1.257-0.159-1.828c0.313-1.179,1.12-2.013,1.997-2.627L45.268,36.404z"
		/>
</g>
<g display="none">
	<path display="inline" fill="#FFFFFF" d="M45.605,59.364c0,0-3.47,2.916-0.416,5.414"/>
	<path display="inline" fill="#1D1D1B" d="M45.638,59.402c-0.345,0.396-0.635,0.839-0.856,1.296
		c-0.232,0.448-0.389,0.926-0.416,1.385c-0.037,0.472,0.159,0.854,0.271,1.263c0.132,0.418,0.354,0.847,0.584,1.392l-0.063,0.077
		c-0.585-0.125-1.085-0.502-1.421-1.035c-0.345-0.545-0.314-1.257-0.16-1.829c0.313-1.179,1.12-2.012,1.997-2.626L45.638,59.402z"/>
</g>
<g display="none">
	<path display="inline" fill="#FFFFFF" d="M45.189,67.554c0,0-3.609,3.61-0.555,6.108"/>
	<path display="inline" fill="#1D1D1B" d="M45.225,67.589c-0.349,0.463-0.642,0.968-0.872,1.485
		c-0.241,0.509-0.424,1.042-0.478,1.567c-0.063,0.534,0.083,1.005,0.186,1.462c0.102,0.475,0.34,0.938,0.604,1.521L44.603,73.7
		c-0.623-0.162-1.175-0.614-1.476-1.241c-0.328-0.633-0.21-1.376-0.035-1.979c0.369-1.241,1.163-2.196,2.062-2.961L45.225,67.589z"
		/>
</g>
<g display="none">
	<path display="inline" fill="#FFFFFF" d="M44.912,77.549c0,0-3.47,3.749-0.417,6.247"/>
	<path display="inline" fill="#1D1D1B" d="M44.949,77.583c-0.336,0.481-0.613,1.003-0.827,1.535
		c-0.225,0.524-0.39,1.071-0.431,1.606c-0.048,0.544,0.107,1.025,0.216,1.492c0.109,0.484,0.349,0.953,0.619,1.54l-0.063,0.078
		c-0.629-0.167-1.183-0.629-1.488-1.257c-0.331-0.634-0.229-1.377-0.072-1.991c0.332-1.261,1.092-2.262,1.971-3.072L44.949,77.583z"
		/>
</g>
<g display="none">
	<path display="inline" fill="#FFFFFF" d="M44.068,87.122c-0.901,1.171-1.344,2.661-1.023,3.971
		c0.193,0.638,0.382,1.274,0.748,1.856c0.177,0.292,0.384,0.568,0.606,0.835c0.193,0.227,0.496,0.52,0.739,0.776l0.319,0.336
		l-0.313,0.354c-0.483,0.546-0.927,1.214-1.246,1.89c-0.321,0.682-0.526,1.411-0.517,2.122c0.006,0.71,0.244,1.39,0.68,1.959
		c0.419,0.589,1.052,0.992,1.719,1.488l0.68,0.506l-0.79,0.36c-0.636,0.29-1.274,0.827-1.668,1.445
		c-0.409,0.626-0.596,1.373-0.582,2.139c0.012,0.783,0.178,1.561,0.508,2.256c0.319,0.684,0.847,1.342,1.409,1.733l0.048,0.033
		l-0.015-0.011l0.96,0.708l0.817,0.603l-0.993,0.285c-0.802,0.229-1.639,0.65-2.248,1.214c-0.617,0.564-0.999,1.314-0.97,2.128
		l0.029,0.611l0.079,0.687c0.065,0.452,0.152,0.903,0.279,1.343c0.264,0.866,0.621,1.757,1.322,2.397
		c-0.844-0.47-1.416-1.329-1.852-2.189c-0.22-0.438-0.4-0.894-0.558-1.356l-0.215-0.696c-0.071-0.265-0.111-0.522-0.101-0.795
		c-0.011-1.089,0.524-2.172,1.307-2.863c0.786-0.709,1.68-1.158,2.685-1.45l-0.175,0.888l-0.96-0.708l0.033,0.022
		c-0.831-0.582-1.373-1.313-1.785-2.154c-0.397-0.838-0.59-1.758-0.604-2.669c-0.021-0.927,0.218-1.898,0.741-2.696
		c0.532-0.802,1.23-1.415,2.135-1.831l-0.11,0.866c-0.624-0.468-1.387-0.948-1.923-1.69c-0.552-0.714-0.879-1.639-0.882-2.549
		c-0.01-0.914,0.247-1.781,0.612-2.56c0.376-0.785,0.832-1.481,1.421-2.148l0.006,0.689c-0.264-0.28-0.498-0.496-0.786-0.829
		c-0.251-0.299-0.487-0.615-0.693-0.955c-0.41-0.671-0.771-1.44-0.767-2.27C42.106,89.557,42.909,88.044,44.068,87.122z"/>
</g>
<g display="none">
	<path display="inline" fill="#FFFFFF" d="M58.515,125.025c0.378,0.445,0.626,0.961,0.807,1.497
		c0.187,0.537,0.275,1.106,0.293,1.688c-0.008,0.581-0.089,1.187-0.363,1.736c-0.253,0.55-0.729,1.026-1.291,1.187
		c0.304-0.499,0.468-0.958,0.553-1.441c0.083-0.479,0.11-0.971,0.102-1.474C58.615,127.205,58.494,126.174,58.515,125.025z"/>
</g>
<path display="none" fill="none" stroke="#1D1D1B" stroke-miterlimit="10" d="M32.048,4.53c6.849-6.108,25.728-7.589,9.995,15.177
	c-0.338,0.489,4.679-10.139,5.183-9.995c5.182,1.48,3.517,9.995,1.11,13.512"/>
<line display="none" fill="none" stroke="#1D1D1B" stroke-width="0.5" stroke-miterlimit="10" x1="41.302" y1="17.857" x2="40.562" y2="116.512"/>
<line display="none" fill="none" stroke="#1D1D1B" stroke-width="0.5" stroke-miterlimit="10" x1="50.09" y1="23.263" x2="53.986" y2="121.842"/>
<line display="none" fill="none" stroke="#1D1D1B" stroke-width="0.5" stroke-miterlimit="10" x1="39.825" y1="21.929" x2="39.078" y2="120.582"/>
<g display="none">
	<polygon display="inline" fill="#FFFFFF" points="44.6,31.772 41.694,31.316 42.16,30.935 41.333,39.247 41.164,39.064 
		46.995,39.235 41.164,39.405 40.986,39.41 40.994,39.223 41.333,30.877 41.351,30.451 41.799,30.495 44.726,30.78 	"/>
</g>
<circle display="none" fill="#1D1D1B" stroke="#FFFFFF" stroke-miterlimit="10" cx="45.148" cy="22.005" r="1.985"/>
<g display="none">
	<path display="inline" fill="#FFFFFF" d="M43.843,19.68c0,0-2.836,2.382-0.341,4.424"/>
	<path display="inline" fill="#1D1D1B" d="M43.875,19.718c-0.527,0.669-0.938,1.467-0.973,2.197
		c-0.019,0.376,0.162,0.659,0.231,0.98c0.09,0.332,0.246,0.686,0.4,1.17l-0.063,0.077c-0.511-0.064-0.945-0.368-1.238-0.814
		c-0.303-0.458-0.257-1.07-0.12-1.546c0.278-0.986,0.962-1.656,1.698-2.141L43.875,19.718z"/>
</g>
<g display="none">
	<polygon display="inline" fill="#FFFFFF" points="45.636,16.167 47.338,16.006 47.808,15.962 47.815,16.395 47.896,21.829 
		47.898,22.007 47.735,22 44.355,21.839 47.735,21.678 47.575,21.849 46.979,16.447 47.456,16.835 45.778,17.157 	"/>
</g>
<g display="none">
	<polygon display="inline" fill="#FFFFFF" points="48.871,41.331 51.659,41.043 52.113,40.997 52.128,41.428 52.435,49.774 
		52.442,49.957 52.269,49.951 46.716,49.785 52.269,49.619 52.103,49.796 51.298,41.484 51.768,41.869 49.003,42.322 	"/>
</g>
<g display="none">
	<polygon display="inline" fill="#FFFFFF" points="44.772,54.952 42.632,54.509 43.13,54.11 42.419,62.425 42.274,62.273 
		46.579,62.418 42.274,62.563 42.126,62.568 42.129,62.41 42.279,54.066 42.287,53.601 42.777,53.668 44.942,53.966 	"/>
</g>
<g display="none">
	<polygon display="inline" fill="#FFFFFF" points="49.288,62.015 52.076,61.728 52.53,61.681 52.545,62.112 52.852,70.458 
		52.859,70.641 52.686,70.635 47.133,70.469 52.686,70.303 52.52,70.48 51.715,62.168 52.185,62.553 49.42,63.006 	"/>
</g>
<g display="none">
	<polygon display="inline" fill="#FFFFFF" points="44.496,73.419 41.105,72.957 41.556,72.584 40.652,80.896 40.469,80.698 
		47.271,80.881 40.469,81.063 40.276,81.069 40.287,80.866 40.743,72.518 40.765,72.111 41.194,72.146 44.604,72.425 	"/>
</g>
<g display="none">
	<polygon display="inline" fill="#FFFFFF" points="49.388,81.309 53.146,81.033 53.563,81.003 53.588,81.399 54.125,89.747 
		54.139,89.961 53.935,89.956 46.438,89.765 53.935,89.573 53.745,89.781 52.784,81.472 53.226,81.838 49.486,82.305 	"/>
</g>
<g display="none">
	<polygon display="inline" fill="#FFFFFF" points="43.879,105.864 40.607,106.103 40.186,106.133 40.163,105.734 39.726,98.28 
		39.713,98.069 39.914,98.075 46.438,98.264 39.914,98.452 40.102,98.247 40.97,105.664 40.525,105.296 43.778,104.87 	"/>
</g>
<g display="none">
	<polygon display="inline" fill="#FFFFFF" points="49.528,99.355 53.284,99.08 53.701,99.05 53.726,99.446 54.264,107.794 
		54.278,108.008 54.074,108.003 46.578,107.812 54.074,107.62 53.883,107.828 52.921,99.519 53.364,99.885 49.625,100.352 	"/>
</g>
<g display="none">
	<polygon display="inline" fill="#FFFFFF" points="43.599,109.557 41.432,109.185 41.886,108.819 40.936,117.129 40.747,116.923 
		48.104,117.112 40.747,117.302 40.545,117.307 40.558,117.096 41.079,108.748 41.104,108.346 41.534,108.382 43.725,108.564 	"/>
</g>
<g display="none">
	<polygon display="inline" fill="#FFFFFF" points="54.181,120.332 53.01,119.753 53.557,119.468 51.443,127.538 51.332,127.372 
		55.547,128.248 51.285,127.644 51.145,127.624 51.173,127.478 52.768,119.288 52.853,118.853 53.315,119.003 54.558,119.406 	"/>
</g>
<path display="none" fill="#FFFFFF" stroke="#1D1D1B" stroke-miterlimit="10" d="M18.906,4.669c0,0-1.666,2.73,0,5.553"/>
<path display="none" fill="#FFFFFF" stroke="#1D1D1B" stroke-miterlimit="10" d="M14.464,5.04c0,0-1.295,1.805,0,4.257"/>
<path display="none" fill="none" stroke="#FFFFFF" stroke-width="0.25" stroke-miterlimit="10" d="M38.979,0.439
	c0,0,5.25-1.054,7.333,0.696c0,0,3.888,1.734,1.736,8.263c0,0,3.681,1.141,3.098,7.022c0,0-0.375,4.51-2.333,6.842"/>
<path display="none" fill="none" stroke="#FFFFFF" stroke-width="0.25" stroke-miterlimit="10" d="M42.797,1.244
	c0,0,5.803,0.15,4.54,5.942"/>
<path display="none" fill="none" stroke="#FFFFFF" stroke-width="0.25" stroke-miterlimit="10" d="M48.296,10.883
	c0,0,3.46,2.435,0.592,10.188"/>
<line display="none" fill="none" stroke="#FFFFFF" stroke-width="0.25" stroke-miterlimit="10" x1="40.145" y1="21.929" x2="39.452" y2="120.582"/>
<line display="none" fill="none" stroke="#FFFFFF" stroke-width="0.25" stroke-miterlimit="10" x1="40.747" y1="116.512" x2="41.708" y2="17.857"/>
<line display="none" fill="none" stroke="#FFFFFF" stroke-width="0.25" stroke-miterlimit="10" x1="49.739" y1="23.263" x2="53.645" y2="121.842"/>
<line display="none" fill="none" stroke="#FFFFFF" stroke-width="0.25" stroke-miterlimit="10" x1="50.426" y1="23.263" x2="54.141" y2="117.667"/>
<line display="none" fill="none" stroke="#FFFFFF" stroke-width="0.25" stroke-miterlimit="10" x1="40.932" y1="17.857" x2="40.291" y2="116.428"/>
<line display="none" fill="none" stroke="#FFFFFF" stroke-width="0.25" stroke-miterlimit="10" x1="38.791" y1="120.582" x2="39.541" y2="22.005"/>
<polygon display="none" fill="#FFFFFF" points="41.12,27.723 37.067,90.292 29.909,94.099 27.439,105.849 21.537,108.349 
	24.428,116.538 39.269,126.224 40.339,138.474 41.12,139.3 47.063,139.464 50.633,135.974 53.378,121.474 68.201,111.22 
	54.476,83.593 51.893,63.723 49.764,59.348 47.408,27.723 "/>
<path display="none" fill="#1D1D1B" stroke="#FFFFFF" stroke-miterlimit="10" d="M49.829,91.671
	c-1.001,0.201-2.585,0.258-3.57,0.316c-1.091,0.057-2.143,0.049-3.103-0.008c-1.274-0.068-3.718-0.414-3.993-0.463l-0.774,11.748
	c0.403,0.029,1.818,0.125,3.611,0.18c1.493,0.059,3.245,0.086,4.92,0.049c1.338-0.027,2.624-0.115,3.662-0.268L49.829,91.671z
	 M41.766,105.942l0.831,10.07c1.181,0.066,2.441,0.096,3.634,0.037l0.834-10.174C45.493,105.979,43.662,106.03,41.766,105.942z
	 M41.766,105.942l0.831,10.07c1.181,0.066,2.441,0.096,3.634,0.037l0.834-10.174C45.493,105.979,43.662,106.03,41.766,105.942z
	 M50.725,105.554c-0.883,0.105-2.155,0.236-3.661,0.322c-1.572,0.104-3.403,0.154-5.299,0.066c-1.22-0.055-2.467-0.16-3.688-0.332
	l1.143,10.125c0.87,0.098,2.065,0.201,3.376,0.277c1.181,0.066,2.441,0.096,3.634,0.037c1.364-0.037,2.625-0.189,3.559-0.496
	l0.716-6.758l0.336-3.26C50.801,105.536,50.762,105.544,50.725,105.554z M41.766,105.942l0.831,10.07
	c1.181,0.066,2.441,0.096,3.634,0.037l0.834-10.174C45.493,105.979,43.662,106.03,41.766,105.942z M41.766,105.942l0.831,10.07
	c1.181,0.066,2.441,0.096,3.634,0.037l0.834-10.174C45.493,105.979,43.662,106.03,41.766,105.942z"/>
<path display="none" fill="#FFFFFF" d="M46.542,14.568l-1.011,2.083l-0.015,0.042l-2.021-0.011l-0.072-0.222v-0.01l-0.519-1.777
	l-0.102,1.861c0.217,0.274,0.81,0.824,1.935,0.824c1.041,0,1.631-0.655,1.848-0.994L46.542,14.568z M46.858,26.316l-4.591,0.106
	l-0.013,0.264h4.622L46.858,26.316z M39.222,115.735l-1.14-10.119c-0.116-0.02-0.232-0.031-0.348-0.053
	c-0.029,0-0.058-0.01-0.087-0.01l-0.029,0.285l0.015,0.105l0.809,9.697v0.01C38.659,115.683,38.919,115.716,39.222,115.735z
	 M39.165,91.522c-0.028-0.01-0.058-0.01-0.087-0.021l-0.043,0.477l-1.155,11.473l-0.043,0.391l0.101-0.137l0.333-0.445
	c0,0,0.042,0,0.13,0.012l1.546-11.609C39.655,91.606,39.38,91.565,39.165,91.522z M49.792,115.556
	c0.058-0.01,0.101-0.031,0.159-0.053l0.563-6.703L49.792,115.556z M49.934,91.987l-0.027-0.527
	c-0.202,0.053-0.419,0.105-0.649,0.146l1.327,11.59L49.934,91.987z"/>
<path display="none" fill="#1D1D1B" stroke="#FFFFFF" stroke-width="0.25" stroke-miterlimit="10" d="M72.356,104.704
	c-5.659,1.689-8.721-2.021-10.019-7.752c-1.285-5.615,0.88-10.838,8.563-7.973c-5.575-5.857,6.524-12.105-1.892-22.51
	c-4.361-5.393-9.921-7.391-18.239-7.973l-1.847-30.145h0.521v-1.67h-0.462c0-0.867-0.059-2.379-0.16-4.039h3.728
	c0.373,1.333,1.978,2.315,3.898,2.315c2.179,0,3.955-1.29,3.955-2.897c0-1.607-1.776-2.897-3.955-2.897
	c-1.791,0-3.308,0.868-3.797,2.051h-3.914c-0.132-1.945-0.274-3.954-0.376-5.339h4.606c0.503,1.163,2.007,2.009,3.767,2.009
	c2.196,0,3.958-1.3,3.958-2.908c0-1.596-1.762-2.897-3.958-2.897c-1.948,0-3.536,1.015-3.896,2.369h-4.577
	c-0.016-0.243-0.03-0.381-0.03-0.381l0.015-0.021l0.057-0.085l1.084-1.427l0.289-0.909c0,0,0.923-0.148,1.646-1.142
	c0.144-0.211-0.145-1.839-0.145-1.839L49.241,8.4l-0.865-1.491l-1.171-0.106l-0.578-2.22c-0.865-0.856-3.769,0.095-3.769,0.095
	l-0.101,0.518c0,0.032,0,0.053-0.014,0.074l-0.317,1.533l-1.603,0.328l-0.391,1.227c-0.087,1.512-0.852,2.781-1.111,3.172
	c0.635,0.476,1.357,0.592,1.357,0.592c0,1.058,0.435,2.22,0.435,2.22c-0.16,0.391-0.275,1.237-0.377,2.315h-3.941
	c-0.535-1.142-2.021-1.956-3.754-1.956c-2.181,0-3.956,1.3-3.956,2.908c0,1.607,1.775,2.896,3.956,2.896
	c1.977,0,3.594-1.036,3.899-2.421h3.709c-0.129,2.178-0.187,4.832-0.201,6.777H36.39c-0.259-1.417-1.92-2.516-3.929-2.516
	c-2.193,0-3.969,1.3-3.969,2.897c0,1.607,1.776,2.918,3.969,2.918c1.676,0,3.121-0.772,3.698-1.872h4.274v0.391h-0.564v1.67h0.463
	l-2.008,30.251c-5.948,0.655-12.849,2.548-17.037,7.433c-10.007,11.663,3.118,15.723-2.166,22.309
	c8.418-0.738,8.114,3.215,7.681,8.914c-0.39,5.107-5.069,9.242-10.295,7.232c2.309,7.539-8.129,11.25-4.057,21.771
	c1.819,4.748,4.057,8.469,10.872,10.711c0.015,0,0.03,0.01,0.044,0.01c4.419,1.449,10.742,2.379,20.187,2.443
	c-0.204-0.021-0.375-0.053-0.535-0.086c-0.159,0-1.848-0.92-1.819-3.383l0.058-0.74c0,0,2.468-7.434-2.468-14.01l-0.867-5.637
	c0,0,0.187,0.033,0.519,0.064c0.029,0,0.059,0.01,0.087,0.01l-0.809-9.705v-0.107l0.015-0.273v-0.012
	c-0.318-0.051-0.65-0.104-0.968-0.178l1.156-1.535l0.013-0.137l0.03-0.254l1.155-11.473l0.043-0.455v-0.02
	c-0.433-0.074-0.68-0.127-0.68-0.127l0.838-23.421l2.642-39.597h5.357l1.833,30.05c-0.016,0-0.016,0-0.028,0l1.198,32.968
	c-0.116,0.031-0.217,0.053-0.333,0.084l0.029,0.529l0.65,11.207v0.031c0.158-0.02,0.317-0.041,0.447-0.074l1.024,2.223
	c0,0-0.445,0.084-1.213,0.168l-0.333,3.258l-0.563,6.703c0.131-0.033,0.246-0.086,0.361-0.139l-0.576,5.309
	c0,0-4.231,7.654-2.472,14.771c0.146,1.109-0.33,2.875-1.485,3.646c-0.304,0.201-0.693,0.307-1.11,0.35
	c3.45,0,6.539-0.285,9.227-0.57c16.922-1.883,19.953-8.871,21.412-11.748C80.183,117.655,69.584,111.079,72.356,104.704z
	 M46.856,26.311l-4.591,0.106l-0.303,0.01l0.188-9.474l0.535-0.571c0,0,0.028,0.064,0.115,0.148c0.216,0.274,0.81,0.824,1.935,0.824
	c1.041,0,1.631-0.655,1.848-0.994c0.087-0.127,0.13-0.201,0.13-0.201l0.304,0.666L47.32,26.3L46.856,26.311z M43.595,139.427
	c0.347,0.041,0.736,0.053,1.126,0.01C44.346,139.437,43.956,139.437,43.595,139.427z"/>
<g display="none">
	<path display="inline" fill="#FFFFFF" d="M36.78,97.735c0.2-0.418,0.199-0.907-0.137-1.067c-0.31-0.194-0.769-0.231-1.203-0.244
		c-0.893-0.015-1.77,0.124-2.325,0.661c-0.562,0.521-0.927,1.355-1.173,2.23c-0.247,0.881-0.377,1.818-0.386,2.752
		c-0.052,1.876,0.367,3.745-0.004,5.724c-0.191,0.977-0.692,1.999-1.522,2.683c-0.83,0.675-1.809,1.01-2.758,1.229l-0.134,0.031
		l-0.088-0.025c-0.794-0.226-1.537-0.487-2.246-0.998c-0.324-0.255-0.716-0.682-0.662-1.249c0.082-0.538,0.444-0.835,0.763-1.065
		l0.092-0.066l0.073,0.03c0.312,0.131,0.624,0.259,0.932,0.402l-0.028,0.096c-0.336-0.044-0.668-0.104-1.001-0.16l0.164-0.036
		c-0.237,0.269-0.446,0.585-0.422,0.829c0.016,0.229,0.239,0.429,0.523,0.596c0.572,0.335,1.32,0.529,2.009,0.646l-0.221,0.006
		c0.861-0.255,1.688-0.587,2.336-1.09c0.659-0.49,1.088-1.217,1.314-2.067c0.43-1.713,0.565-3.646,0.58-5.517
		c0.022-0.944-0.012-1.893,0.084-2.861c0.106-0.944,0.324-2.021,1.174-2.787c0.867-0.765,2.039-0.831,2.985-0.685
		c0.486,0.081,1.013,0.183,1.449,0.583c0.213,0.204,0.321,0.537,0.267,0.808c-0.046,0.273-0.183,0.493-0.353,0.673L36.78,97.735z"/>
</g>
<g display="none">
	<path display="inline" fill="#FFFFFF" d="M52.1,97.937c-0.171-0.18-0.308-0.398-0.354-0.672c-0.056-0.271,0.053-0.604,0.266-0.809
		c0.437-0.399,0.963-0.5,1.449-0.581c0.945-0.146,2.117-0.081,2.983,0.684c0.851,0.767,1.067,1.844,1.174,2.787
		c0.096,0.969,0.062,1.917,0.083,2.86c0.016,1.871,0.151,3.804,0.582,5.516c0.225,0.851,0.654,1.576,1.313,2.066
		c0.648,0.503,1.476,0.834,2.337,1.088l-0.221-0.006c0.689-0.115,1.438-0.309,2.009-0.644c0.285-0.167,0.507-0.365,0.522-0.596
		c0.022-0.244-0.188-0.561-0.424-0.829l0.165,0.036c-0.333,0.057-0.664,0.117-1.001,0.162l-0.027-0.096
		c0.307-0.145,0.618-0.272,0.929-0.404l0.073-0.03l0.092,0.066c0.318,0.23,0.68,0.526,0.765,1.063
		c0.057,0.567-0.336,0.997-0.66,1.251c-0.71,0.511-1.453,0.771-2.247,0.996l-0.088,0.025l-0.133-0.031
		c-0.949-0.218-1.929-0.551-2.759-1.226c-0.83-0.684-1.33-1.707-1.521-2.683c-0.371-1.979,0.047-3.846-0.006-5.723
		c-0.008-0.934-0.138-1.87-0.385-2.751c-0.246-0.875-0.61-1.709-1.172-2.23c-0.555-0.536-1.432-0.675-2.324-0.66
		c-0.435,0.013-0.894,0.049-1.203,0.243c-0.336,0.159-0.337,0.649-0.136,1.066L52.1,97.937z"/>
</g>
<path display="none" fill="#1D1D1B" d="M40.351,8.365c-0.091,1.511-0.858,2.775-1.118,3.166c-0.663-0.494-1.22-1.379-0.728-2.918
	l1.792-0.105L40.351,8.365z"/>
<path display="none" fill="none" stroke="#FFFFFF" stroke-width="0.25" stroke-miterlimit="10" d="M41.12,14.277
	c0,0,1.512-4.233,1.645-9.523"/>
<path display="none" fill="none" stroke="#FFFFFF" stroke-width="0.25" stroke-miterlimit="10" d="M44.051,4.731
	c0.235,5.81-0.454,10.63-0.625,11.715"/>
<path display="none" fill="none" stroke="#FFFFFF" stroke-width="0.25" stroke-miterlimit="10" d="M49.547,11.625
	c0,0-0.65-1.438-0.384-3.116"/>
<path display="none" fill="none" stroke="#FFFFFF" stroke-width="0.25" stroke-miterlimit="10" d="M48.283,14.151
	c0,0-1.478-4.199-1.837-9.484"/>
<path display="none" fill="none" stroke="#FFFFFF" stroke-width="0.25" stroke-miterlimit="10" d="M45.526,16.645
	c0,0-0.583-5.404-0.096-12.09"/>
<polyline display="none" fill="none" stroke="#FFFFFF" stroke-width="0.5" stroke-miterlimit="10" points="42.924,116.296 
	42.891,116.011 41.822,105.96 41.807,105.856 41.996,103.454 42.88,91.97 42.97,90.854 "/>
<polyline display="none" fill="none" stroke="#FFFFFF" stroke-width="0.5" stroke-miterlimit="10" points="38.62,116.458 
	38.592,116.175 37.762,106.104 37.75,105.999 37.996,103.603 39.153,92.138 39.269,91.024 "/>
<polyline display="none" fill="none" stroke="#FFFFFF" stroke-width="0.5" stroke-miterlimit="10" points="46.193,90.866 
	46.779,91.95 46.919,103.493 47.063,105.843 47.063,105.88 46.23,116.054 46.193,116.538 "/>
<polyline display="none" fill="none" stroke="#FFFFFF" stroke-width="0.5" stroke-miterlimit="10" points="49.764,90.548 
	49.829,91.671 50.49,103.175 50.633,105.524 50.633,105.563 49.803,115.735 49.764,116.22 "/>
<g display="none">
	<polygon display="inline" fill="#1D1D1B" points="45.311,139.29 44.432,151.724 43.311,139.31 	"/>
</g>
<rect x="40.923" y="24.879" display="none" fill="#1D1D1B" width="6.485" height="1.281"/>
<rect x="41.805" y="21.214" display="none" fill="#1D1D1B" width="6.931" height="1.321"/>
<rect x="40.735" y="16.657" display="none" fill="#1D1D1B" width="6.432" height="1.378"/>
<polyline display="none" fill="none" stroke="#1D1D1B" stroke-width="0.25" stroke-miterlimit="10" points="42.97,27.723 
	38.509,106.015 39.448,116.081 "/>
<polyline display="none" fill="none" stroke="#1D1D1B" stroke-width="0.25" stroke-miterlimit="10" points="42.708,116.081 
	41.766,105.942 42.87,92.097 44.076,27.723 "/>
<polyline display="none" fill="none" stroke="#1D1D1B" stroke-width="0.25" stroke-miterlimit="10" points="45.526,27.723 
	47.063,106.474 46.23,116.054 "/>
<polyline display="none" fill="none" stroke="#1D1D1B" stroke-width="0.25" stroke-miterlimit="10" points="46.628,27.723 
	50.633,105.911 49.501,115.88 "/>
<path display="none" fill="none" stroke="#FFFFFF" stroke-width="0.25" stroke-miterlimit="10" d="M69.311,66.856l35.686-8.459
	l14.077-3.349c0,0,2.691-0.121,0.567,1.215l-2.24,0.579c0,0,1.077,1.007-0.111,1.84c0,0-0.691,0.355-0.863,0.396l-8.896,2.108
	c0,0-0.798,0.341-1.287-0.235l-35.48,8.357"/>
<path display="none" fill="none" stroke="#FFFFFF" stroke-width="0.25" stroke-miterlimit="10" d="M70.148,68.042l35.532-8.422
	c0,0-0.375,0.702,0.242,1.028l-35.435,8.201L70.148,68.042z"/>
<path fill="#FFFFFF" stroke="#009FE3" stroke-width="0.5" stroke-miterlimit="10" d="M38.873,21.722
	c-0.006-0.063-0.011-0.124-0.016-0.184"/>
<path fill="#1D1D1B" stroke="#FFFFFF" stroke-width="0.25" stroke-miterlimit="10" d="M38.857,21.538
	c-0.126-1.466-0.197-2.271-0.197-2.271s-1.931-9.381-7.451-11.313c0,0-27.871-6.071,19.868-7.174
	c47.739-1.104,34.219,6.071,25.664,8.278c0,0-8.555,6.07-9.936,29.803c-1.377,23.731-4.965,81.129-4.965,81.129
	s-3.313,27.596-26.768,28.147C11.617,148.69,8.03,129.098,7.478,119.439c-0.552-9.659,0-85.545,0-85.545s3.036-15.729,17.661-15.454
	c14.625,0.276,20.697,5.243,20.42,14.901c-0.1,3.483-0.151,14.079-0.173,26.204c-0.002,0.743,0.002,1.552,0.001,2.305
	c-0.033,21.037,0.523,45.681,0.523,45.681s1.58,17.704-12.769,18.53c-14.35,0.829-15.324-14.347-15.324-14.347l-0.475-38.694
	c0,0,0.07-8.771,13.867-11.531l37.53-4.967l1.655-0.828l1.38,1.656l-0.828,1.655l-1.932,0.276l-20.696,1.931l-10.116,1.544
	l-6.165,0.94c0,0-11.866,1.38-11.59,9.935c0.275,8.554,1.104,38.079,1.104,38.079s3.586,9.66,9.933,9.107
	c6.348-0.552,7.451-3.587,7.727-10.211c0.159-3.825-0.51-29.306-1.104-50.136c-0.435-15.218-0.828-27.957-0.828-27.957
	s1.656-6.071-10.486-6.899c0,0-9.657,0.828-9.933,7.726c-0.277,6.899,1.099,86.524,1.456,89.733
	c0.341,3.077,1.782,12.335,15.829,10.553c0,0,12.603-2.478,12.049-16.827c-0.16-4.184-0.213-11.622-0.545-24.147"/>
<path fill="#1D1D1B" stroke="#FFFFFF" stroke-width="0.25" stroke-miterlimit="10" d="M22.655,89.052
	c0,1.237-1.228,2.239-2.741,2.239l0,0c-1.514,0-2.743-1.002-2.743-2.239V57.39c0-1.238,0.338-1.861,1.852-1.861l1.568,0.048
	c1.513,0,2.064,0.576,2.064,1.813V89.052z"/>
<path fill="#1D1D1B" stroke="#FFFFFF" stroke-width="0.25" stroke-miterlimit="10" d="M28.451,88.792
	c0,1.228-1.236,2.225-2.76,2.225l0,0c-1.524,0-2.76-0.997-2.76-2.225V57.373c0-1.229,0.493-1.844,2.017-1.844h1.664
	c1.524,0,1.839,0.615,1.839,1.844V88.792z"/>
<path fill="#1D1D1B" stroke="#FFFFFF" stroke-width="0.25" stroke-miterlimit="10" d="M34.5,88.539c0,1.218-1.276,2.207-2.851,2.207
	l0,0c-1.576,0-2.853-0.989-2.853-2.207V57.355c0-1.219,0.707-1.637,2.282-1.637h1.283c1.574,0,2.138,0.417,2.138,1.637V88.539z"/>
<path fill="#1D1D1B" stroke="#FFFFFF" stroke-width="0.25" stroke-miterlimit="10" d="M78.701,53.362c0,0,3.864-2.575,3.864,2.759
	c0,5.336-1.474,4.784-3.128,3.863l-2.208,0.369l-2.575-1.656l-4.6,0.369c0,0,0.736-2.208-0.184-2.76
	c-0.92-0.551,4.415-0.551,4.415-0.551l2.208-2.024L78.701,53.362z"/>
<path fill="#1D1D1B" stroke="#FFFFFF" stroke-width="0.25" stroke-miterlimit="10" d="M34.509,69.51l-1.319-0.754l-2.072,0.377
	l0.188,1.884l0.659,1.836l0.471,24.729c0,0,0,4.521-5.085,4.332c-5.088-0.188-6.594-2.827-6.594-2.827s-2.826,1.509-0.376,3.769
	c0,0,3.484,2.474,5.745,2.331c2.261-0.14,6.569-0.212,8.266-3.037c0,0,1.483-0.071,1.412-6.995
	c-0.07-6.922-0.142-22.394-0.142-22.394S35.827,70.216,34.509,69.51z"/>
<path fill="#1D1D1B" stroke="#FFFFFF" stroke-width="0.25" stroke-miterlimit="10" d="M28.17,73.17l-0.804-0.509l-1.262,0.254
	l0.114,1.274l0.401,1.24l0.288,16.718c0,0,0,3.058-3.099,2.93c-3.1-0.126-4.018-1.91-4.018-1.91s-1.722,1.019-0.229,2.547
	c0,0,2.123,1.673,3.5,1.577c1.378-0.095,4.002-0.146,5.036-2.054c0,0,0.903-0.049,0.86-4.729
	c-0.042-4.681-0.086-15.141-0.086-15.141S28.974,73.647,28.17,73.17z"/>
<path fill="#1D1D1B" stroke="#FFFFFF" stroke-width="0.25" stroke-miterlimit="10" d="M20.792,106.469c0,0,8.186,8.418,18.734,0.552
	v-6.622c0,0-3.621,9.106-15.112,4.415C24.414,104.813,17.486,101.088,20.792,106.469z"/>
<path stroke="#FFFFFF" stroke-width="0.25" stroke-miterlimit="10" d="M21.844,51.73c0,0.35-0.399,0.628-0.901,0.628h-0.605v3.192
	h-1.003v-3.192h-0.457c-0.502,0-0.901-0.278-0.901-0.628c0-0.342,0.399-0.621,0.901-0.621h2.065
	C21.445,51.109,21.844,51.388,21.844,51.73z"/>
<path stroke="#FFFFFF" stroke-width="0.25" stroke-miterlimit="10" d="M27.777,51.706c0,0.325-0.399,0.596-0.89,0.596h-0.65v3.179
	h-1.004v-3.179h-0.422c-0.49,0-0.89-0.271-0.89-0.596c0-0.325,0.399-0.597,0.89-0.597h2.077
	C27.377,51.109,27.777,51.381,27.777,51.706z"/>
<path stroke="#FFFFFF" stroke-width="0.25" stroke-miterlimit="10" d="M33.436,51.802c0,0.351-0.399,0.629-0.89,0.629h-0.605v3.256
	h-1.004v-3.256h-0.468c-0.49,0-0.89-0.278-0.89-0.629c0-0.342,0.399-0.621,0.89-0.621h2.077
	C33.036,51.181,33.436,51.46,33.436,51.802z"/>
<path fill="#1D1D1B" d="M33.885,61.136l35.604-4.705c0,0,1.426,1.664-0.049,2.424l-35.081,4.183l-0.475,0.95l-0.095-2.376
	L33.885,61.136z"/>
<path fill="#1D1D1B" stroke="#FFFFFF" stroke-width="0.25" stroke-miterlimit="10" d="M17.294,58.38c0,0,3.946,0.713,5.467-0.143
	c0,0,3.089,1.284,5.894-0.095c0,0,2.994,1.379,6.037-0.143"/>
<path display="none" fill="#1D1D1B" stroke="#FFFFFF" stroke-miterlimit="10" d="M50.741,79.271c0.674,0.229,1.375,0.351,2.09,0.337
	c-0.296,1.254-0.755,2.494-1.307,3.695c-0.028,0.082-0.069,0.147-0.109,0.216c-0.147,0.312-0.297,0.621-0.445,0.917
	c-0.107,0.203-0.229,0.42-0.35,0.621c-0.014,0.027-0.04,0.066-0.055,0.095v0.013c-0.404,0.715-0.836,1.363-1.294,1.982
	c-0.58,0.796-1.215,1.524-1.862,2.172c-0.472,0.458-0.943,0.89-1.442,1.281c-0.013,0-0.013,0-0.013,0
	c-2.266,1.781-4.68,2.671-6.649,2.577c-4.72-0.203-8.753-0.676-12.3-1.417C15.999,89.455,9.633,84.599,2,77.262
	c-3.883-3.735,0.662-12.157,5.679-19.534c0,0,5.276-6.772,11.169-9.833c5.894-3.062,11.146-0.92,14.882,5.175
	c2.724,4.438,14.704,15.143,14.461,15.413c-0.377,0.417-0.687,0.863-0.93,1.335c0,0.013,0,0.027-0.013,0.041
	c-0.081,0.364-0.135,0.742-0.149,1.106c-0.027,0.54,0.014,1.079,0.149,1.591v0.041c-0.081,0.35-0.135,0.714-0.149,1.064
	c-0.027,0.472,0,0.944,0.095,1.417c0.215,1.146,0.796,2.225,1.699,3.06c0.014,0.014,0.026,0.027,0.041,0.041
	c0.539,0.487,1.146,0.864,1.793,1.079C50.741,79.271,50.741,79.271,50.741,79.271z"/>
<g display="none">
	<path display="inline" fill="#1D1D1B" d="M53.276,79.581c-0.147,0.015-0.31,0.027-0.445,0.027c-0.715,0.014-1.416-0.107-2.09-0.337
		c0,0,0,0-0.014-0.014c-0.647-0.215-1.254-0.592-1.793-1.079c-0.015-0.014-0.027-0.027-0.041-0.041
		c-0.903-0.835-1.484-1.913-1.699-3.06c-0.445-0.864-0.647-1.823-0.593-2.792c0.027-0.541,0.134-1.066,0.296-1.579
		c0.095-0.283,0.216-0.58,0.351-0.849c0.013-0.013,0.013-0.027,0.013-0.041c0.243-0.472,0.553-0.917,0.93-1.335
		c0.243-0.27,0.513-0.513,0.783-0.729c0.202-0.162,0.403-0.296,0.606-0.417c-0.176-0.216-0.351-0.432-0.566-0.621
		c-0.053-0.054-0.095-0.122-0.148-0.175c-0.081-0.082-0.147-0.163-0.242-0.243c-0.297-0.336-0.634-0.674-0.984-0.985
		c-0.958-0.876-1.997-1.644-3.062-2.279c-0.027-0.013-0.041-0.027-0.068-0.041c-0.364-0.216-0.742-0.431-1.119-0.606
		c-0.486-0.243-0.971-0.472-1.457-0.648c-0.081-0.027-0.162-0.067-0.243-0.095c-0.512-0.202-1.038-0.391-1.564-0.538
		c-0.512-0.149-1.024-0.283-1.538-0.378c-0.593-0.121-1.187-0.202-1.78-0.256c-5.152-0.512-10.305,1.241-13.864,5.193
		c-6.218,6.877-5.247,17.897,2.157,24.586c0.607,0.554,1.242,1.051,1.902,1.511c6.757,4.731,15.645,4.531,21.458-0.555l0.014-0.013
		c0.216-0.189,0.418-0.376,0.62-0.579c0.243-0.217,0.472-0.473,0.702-0.714c0.121-0.123,0.228-0.23,0.323-0.352
		c0.176-0.202,0.338-0.419,0.485-0.634c0.067-0.082,0.135-0.148,0.188-0.229v-0.014c0.392-0.526,0.741-1.066,1.038-1.632
		c0.446-0.756,0.797-1.538,1.093-2.349l0.014-0.012c0.067-0.201,0.147-0.404,0.202-0.605c0.485-1.499,0.728-3.035,0.742-4.587
		C53.681,79.527,53.478,79.568,53.276,79.581z"/>
</g>
<g display="none">
	<path display="inline" fill="#1D1D1B" d="M57.591,77.248c-0.067,0.081-0.134,0.162-0.215,0.242
		c-0.54,0.595-1.147,1.067-1.821,1.405c-0.283,0.147-0.58,0.281-0.904,0.389c-0.242,0.081-0.512,0.148-0.768,0.203
		c-0.202,0.04-0.405,0.081-0.607,0.094c-0.147,0.015-0.31,0.027-0.445,0.027c-0.715,0.014-1.416-0.107-2.09-0.337
		c0,0,0,0-0.014-0.014c-0.647-0.215-1.254-0.592-1.793-1.079c-0.015-0.014-0.027-0.027-0.041-0.041
		c-0.283-0.038-0.566-0.12-0.85-0.215c0,0,0,0-0.014-0.014c-0.647-0.216-1.254-0.592-1.793-1.079
		c-1.294-1.173-1.929-2.832-1.834-4.518c0.014-0.364,0.068-0.742,0.149-1.107c0.013-0.013,0.013-0.025,0.013-0.04
		c0.243-0.472,0.554-0.918,0.931-1.335c0.243-0.269,0.512-0.512,0.782-0.728c0.203-0.162,0.405-0.296,0.607-0.419
		c-0.176-0.214-0.351-0.431-0.567-0.62c0.378-0.364,0.782-0.66,1.2-0.917c0.378-0.216,0.77-0.404,1.16-0.54
		c0.067-0.041,0.121-0.054,0.188-0.067c0.243-0.095,0.5-0.163,0.743-0.203c0.391-0.067,0.795-0.108,1.186-0.081
		c0.553-0.311,1.147-0.513,1.74-0.621c-1.768-1.551-3.777-2.657-5.867-3.291c-0.216-0.082-0.432-0.149-0.662-0.203
		c-0.269-0.067-0.525-0.134-0.796-0.188c-0.673-0.135-1.334-0.229-1.995-0.27c-0.486-0.042-0.944-0.054-1.403-0.042h-0.122
		c-0.809,0.027-1.604,0.122-2.387,0.284c-0.634,0.135-1.254,0.311-1.875,0.526c-0.296,0.094-0.607,0.216-0.903,0.365
		c-1.646,0.701-3.156,1.767-4.424,3.168c-5.166,5.732-4.316,14.917,1.888,20.527c3.128,2.818,7,4.194,10.722,4.155
		c0.418,0,0.823-0.028,1.241-0.068c0,0,0,0,0.013,0c0.405-0.041,0.822-0.107,1.228-0.177c0.256-0.039,0.499-0.093,0.714-0.16
		c0.77-0.162,1.511-0.419,2.213-0.715c0.04-0.014,0.081-0.042,0.121-0.055c0.512-0.229,0.999-0.484,1.457-0.77h0.013
		c1.065-0.646,2.037-1.443,2.9-2.399c0.013-0.027,0.039-0.041,0.054-0.068c0.795-0.903,1.443-1.874,1.956-2.898
		c0.512-1.053,0.891-2.172,1.104-3.345c0.014,0,0.014,0,0.014,0c0.217-1.08,0.297-2.187,0.23-3.291
		C57.861,76.911,57.726,77.073,57.591,77.248z"/>
</g>
<path display="none" fill="#1D1D1B" stroke="#FFFFFF" stroke-miterlimit="10" d="M57.847,65.475
	c-3.168-2.886-7.363-3.911-11.179-3.129c-0.148,0.027-0.284,0.054-0.432,0.081c-0.594,0.163-1.16,0.337-1.727,0.566
	c-0.013,0-0.013,0.013-0.027,0.013c-0.243,0.109-0.5,0.216-0.742,0.337c-0.257,0.122-0.526,0.243-0.769,0.405
	c-0.351,0.188-0.715,0.418-1.038,0.688c-0.513,0.351-0.999,0.77-1.43,1.228c-0.135,0.135-0.283,0.27-0.418,0.418
	c-4.559,5.058-4.019,12.987,1.214,17.708c2.306,2.078,5.139,3.211,7.971,3.358c0.566,0.041,1.133,0.027,1.698-0.014
	c0.176,0,0.353-0.026,0.526-0.04c0.108-0.014,0.23-0.042,0.337-0.054c0.446-0.068,0.878-0.148,1.309-0.271
	c0.188-0.039,0.378-0.094,0.553-0.162h0.014c0.324-0.106,0.648-0.215,0.958-0.351c0.594-0.229,1.16-0.498,1.712-0.835
	c0.986-0.594,1.89-1.323,2.687-2.212c0.524-0.58,0.982-1.2,1.36-1.848c0.013,0,0.013,0,0.013,0
	C63.446,76.358,62.489,69.642,57.847,65.475z M57.97,76.723c-0.109,0.188-0.244,0.351-0.379,0.525
	c-0.067,0.081-0.134,0.162-0.215,0.242c-0.54,0.595-1.147,1.067-1.821,1.405c-0.283,0.147-0.58,0.281-0.904,0.389
	c-0.242,0.081-0.512,0.148-0.768,0.203c-0.202,0.04-0.405,0.081-0.607,0.094c-0.147,0.015-0.31,0.027-0.445,0.027
	c-0.715,0.014-1.416-0.107-2.09-0.337c0,0,0,0-0.014-0.014c-0.647-0.215-1.254-0.592-1.793-1.079
	c-0.015-0.014-0.027-0.027-0.041-0.041c-0.903-0.835-1.484-1.913-1.699-3.06c-0.095-0.473-0.122-0.945-0.095-1.417
	c0.014-0.351,0.068-0.714,0.149-1.064v-0.041c0.013-0.014,0.013-0.027,0.013-0.041c0.243-1.011,0.743-1.968,1.497-2.805v-0.014
	c0.096-0.093,0.177-0.202,0.257-0.283c0.378-0.364,0.783-0.66,1.2-0.916c0.661-0.393,1.376-0.675,2.092-0.81
	c0.39-0.067,0.794-0.109,1.187-0.082c1.349,0,2.669,0.458,3.708,1.416C59.359,70.964,59.643,74.254,57.97,76.723z"/>
<g display="none">
	<g display="inline">
		<path fill="#1D1D1B" d="M8.156,73.702c-0.087-0.578,0.128,1.028-0.014-0.119c-0.1-0.798-0.178-1.599-0.253-2.4
			c-0.277-2.952-0.393-5.916-0.418-8.88C7.4,54.058,8.377,45.822,10.998,37.982c6.726-20.124,32.784-29.735,51.716-20.923
			C81.774,25.931,88.488,49.826,84,69.029c-3.914,16.748-17.442,28.122-23.944,43.621c-4.24,10.107-4.709,21.462-3.958,32.248
			c0.312,4.478,7.313,4.508,7,0c-0.77-11.048-0.146-22.176,4.593-32.349c3.347-7.184,8.486-13.329,12.957-19.813
			c10.957-15.893,14.942-35.51,8.802-54.081c-6.099-18.44-22.34-31.84-42.059-31.83c-10.482,0.005-22.472,4.023-30.663,10.59
			C9.843,22.934,5.747,30.781,3.306,39.13c-3.375,11.547-3.682,24.559-1.9,36.433C2.074,80.015,8.818,78.116,8.156,73.702
			L8.156,73.702z"/>
	</g>
</g>
<path display="none" fill="none" stroke="#FFFFFF" stroke-width="0.75" stroke-miterlimit="10" d="M1.187,75.178
	c0,0-1.252-16.542-0.647-20.167s0.73-14.375,5.855-24.5c0,0,4.25-12,21.25-19.5c0,0,18.25-7.5,31.625-2.5
	c0,0,21.625,5,30.375,30.125c0,0,6.875,18.926-1.25,39.338c0,0-4.625,11.912-12.25,20.662c0,0-9.625,13.5-11.125,20.75
	c0,0-3.5,15.523-1.875,25.512c0,0,0.125,2.738-2.875,3.363c0,0-3.75,0.125-4.125-2.75c0,0-1.25-11.25,0.25-19.875
	c0,0,1-9.375,6.375-19c0,0,13.875-19.625,15.5-23.75c0,0,8.5-13.625,7-26.5c0,0-0.171-18.265-10.625-30.375
	c0,0-10.133-11.625-25.066-12c0,0-13.652-3.375-30.73,11.25c0,0-11.408,9.695-11.328,33.375"/>
<ellipse display="none" fill="#FFFFFF" cx="53.139" cy="73.632" rx="6.375" ry="6.746"/>
</svg>
