<?xml version="1.0" encoding="utf-8"?>
<!-- Generator: Adobe Illustrator 15.0.0, SVG Export Plug-In  -->
<!DOCTYPE svg PUBLIC "-//W3C//DTD SVG 1.1//EN" "http://www.w3.org/Graphics/SVG/1.1/DTD/svg11.dtd" [
	<!ENTITY ns_flows "http://ns.adobe.com/Flows/1.0/">
]>
<svg version="1.1"
	 xmlns="http://www.w3.org/2000/svg" xmlns:xlink="http://www.w3.org/1999/xlink" xmlns:a="http://ns.adobe.com/AdobeSVGViewerExtensions/3.0/"
	 x="0px" y="0px" width="97px" height="150px" viewBox="-3.229 -1.003 97 150" enable-background="new -3.229 -1.003 97 150"
	 xml:space="preserve">
<defs>
</defs>
<path display="none" fill="#1D1D1B" d="M53.696,145.065c-2.417,1.988-17.674,1.847-19.711,0c-2.037-1.849-3.032-17.341,0-19.712
	c3.175-2.48,18.147-2.653,19.711,0C55.259,128.007,56.111,143.075,53.696,145.065z"/>
<path display="none" fill="#1D1D1B" d="M54.075,111.012c-2.653,2.049-19.121,2.015-20.848,0
	c-1.99-2.321-7.533-105.994-5.306-108.543c2.11-2.417,30.322-2.641,31.84,0.364C61.464,6.207,56.73,108.963,54.075,111.012z"/>
<path display="none" fill="#1D1D1B" d="M45.991,56.986l0.555,68.115c0,0,0.254,9.322,4.697,10.571
	c3.046,0.856,2.313-9.115,2.313-9.115c0-8.227,1.153-25.74,2.868-37.481c1.204-8.237,0.371-13.234,0.371-13.234
	c6.663,16.937,20.823,16.104,20.823,16.104c-7.219,9.162-6.664,27.208-6.664,27.208s1.875,27.233-15.524,28.714
	s-14.067-34.982-14.067-34.982l0.74-86.068V8.307c-0.741-5.553-8.144-2.221-8.144-2.221l-4.072,2.406
	c-1.481,0.926-5.368,0.556-5.368,0.556c-0.555-0.74,0.37-2.221,0.37-2.221s1.481,1.295,8.145-3.702c0,0,6.687-4.652,10.019-1.135
	c0,0,4.605,3.541,4.974,9.834c0.37,6.293,1.851,33.872,1.851,33.872l1.644,39.263l0.833,30.355c0,0,0.438,6.014,0.647,9.206
	c0.243,3.74,0.555,4.722,0.555,4.722s-0.972-0.186-1.202-1.019c-0.231-0.833-0.879-12.588-0.926-13.373
	c-0.047-0.787-0.74-15.965-0.74-15.965l-0.973-27.347L49.16,56.129c0,0-1.805-43.59-2.082-45.671
	c-0.278-2.083-3.541-8.676-7.566-9.163c0,0-3.886,0.139-5.622,2.013c0,0,10.134-4.095,11.522,8.26"/>
<path display="none" fill="none" stroke="#1D1D1B" stroke-miterlimit="10" d="M9.875,7.497l4.257-2.221c0,0,3.332-0.741,4.442-0.371
	c1.11,0.371,5.183,1.666,5.183,1.666s-1.296,2.221,0,3.147l-5.183,0.74l-4.442-0.925L9.875,7.497z"/>
<ellipse transform="matrix(0.713 0.7012 -0.7012 0.713 74.2151 -26.8422)" display="none" fill="none" stroke="#1D1D1B" stroke-miterlimit="10" cx="69.896" cy="77.236" rx="17.588" ry="10.445"/>
<ellipse transform="matrix(0.9771 -0.2127 0.2127 0.9771 -26.0024 14.6438)" display="none" fill="#1D1D1B" stroke="#FFFFFF" stroke-miterlimit="10" cx="55.06" cy="128.176" rx="2.454" ry="4.319"/>
<circle display="none" fill="#1D1D1B" stroke="#FFFFFF" stroke-miterlimit="10" cx="46.87" cy="90.07" r="3.262"/>
<circle display="none" fill="#1D1D1B" stroke="#FFFFFF" stroke-miterlimit="10" cx="47.008" cy="80.492" r="3.262"/>
<circle display="none" fill="#1D1D1B" stroke="#FFFFFF" stroke-miterlimit="10" cx="46.939" cy="71.122" r="2.915"/>
<circle display="none" fill="#1D1D1B" stroke="#FFFFFF" stroke-miterlimit="10" cx="46.939" cy="62.515" r="2.638"/>
<circle display="none" fill="#1D1D1B" stroke="#FFFFFF" stroke-miterlimit="10" cx="46.315" cy="50.091" r="2.429"/>
<circle display="none" fill="#1D1D1B" stroke="#FFFFFF" stroke-miterlimit="10" cx="47.425" cy="98.955" r="3.679"/>
<circle display="none" fill="#1D1D1B" stroke="#FFFFFF" stroke-miterlimit="10" cx="47.564" cy="107.7" r="3.957"/>
<circle display="none" fill="#1D1D1B" stroke="#FFFFFF" stroke-miterlimit="10" cx="47.494" cy="116.931" r="4.164"/>
<g display="none">
	<path display="inline" fill="#FFFFFF" d="M44.718,47.245c0,0-3.471,2.915-0.417,5.414"/>
	<path display="inline" fill="#1D1D1B" d="M44.75,47.283c-0.345,0.396-0.636,0.839-0.856,1.296c-0.233,0.448-0.39,0.927-0.416,1.385
		c-0.036,0.472,0.16,0.855,0.271,1.264c0.133,0.418,0.354,0.847,0.584,1.392l-0.063,0.077c-0.585-0.125-1.085-0.502-1.421-1.036
		c-0.345-0.544-0.314-1.257-0.159-1.829c0.313-1.179,1.12-2.012,1.997-2.626L44.75,47.283z"/>
</g>
<circle display="none" fill="#1D1D1B" stroke="#FFFFFF" stroke-miterlimit="10" cx="46.5" cy="39.447" r="2.43"/>
<g display="none">
	<path display="inline" fill="#FFFFFF" d="M44.903,36.602c0,0-3.47,2.916-0.417,5.414"/>
	<path display="inline" fill="#1D1D1B" d="M44.935,36.64c-0.345,0.396-0.635,0.839-0.856,1.296c-0.232,0.448-0.39,0.927-0.416,1.386
		c-0.036,0.472,0.16,0.854,0.271,1.263c0.133,0.418,0.354,0.847,0.584,1.392l-0.063,0.077c-0.585-0.125-1.085-0.502-1.421-1.036
		c-0.345-0.545-0.314-1.257-0.159-1.828c0.313-1.179,1.12-2.013,1.997-2.627L44.935,36.64z"/>
</g>
<g display="none">
	<path display="inline" fill="#FFFFFF" d="M45.273,59.6c0,0-3.47,2.916-0.416,5.414"/>
	<path display="inline" fill="#1D1D1B" d="M45.305,59.638c-0.345,0.396-0.635,0.839-0.856,1.296
		c-0.232,0.448-0.389,0.926-0.416,1.385c-0.037,0.472,0.159,0.854,0.271,1.263c0.132,0.418,0.354,0.847,0.584,1.392l-0.063,0.077
		c-0.585-0.125-1.085-0.502-1.421-1.035c-0.345-0.545-0.314-1.257-0.16-1.829c0.313-1.179,1.12-2.012,1.997-2.626L45.305,59.638z"/>
</g>
<g display="none">
	<path display="inline" fill="#FFFFFF" d="M44.857,67.79c0,0-3.609,3.61-0.555,6.108"/>
	<path display="inline" fill="#1D1D1B" d="M44.893,67.825c-0.349,0.463-0.642,0.968-0.872,1.485
		c-0.241,0.509-0.424,1.042-0.478,1.567c-0.063,0.534,0.083,1.005,0.186,1.462c0.102,0.475,0.34,0.938,0.604,1.521l-0.063,0.077
		c-0.623-0.162-1.175-0.614-1.476-1.241c-0.328-0.633-0.21-1.376-0.035-1.979c0.369-1.241,1.163-2.196,2.062-2.961L44.893,67.825z"
		/>
</g>
<g display="none">
	<path display="inline" fill="#FFFFFF" d="M44.579,77.785c0,0-3.47,3.749-0.417,6.247"/>
	<path display="inline" fill="#1D1D1B" d="M44.616,77.819c-0.336,0.481-0.613,1.003-0.827,1.535
		c-0.225,0.524-0.39,1.071-0.431,1.606c-0.048,0.544,0.107,1.025,0.216,1.492c0.109,0.484,0.349,0.953,0.619,1.54l-0.063,0.078
		c-0.629-0.167-1.183-0.629-1.488-1.257c-0.331-0.634-0.229-1.377-0.072-1.991c0.332-1.261,1.092-2.262,1.971-3.072L44.616,77.819z"
		/>
</g>
<g display="none">
	<path display="inline" fill="#FFFFFF" d="M43.735,87.358c-0.901,1.171-1.344,2.661-1.023,3.971
		c0.193,0.638,0.382,1.274,0.748,1.856c0.177,0.292,0.384,0.568,0.606,0.835c0.193,0.227,0.496,0.52,0.739,0.776l0.319,0.336
		l-0.313,0.354c-0.483,0.546-0.927,1.214-1.246,1.89c-0.321,0.682-0.526,1.411-0.517,2.122c0.006,0.71,0.244,1.39,0.68,1.959
		c0.419,0.589,1.052,0.992,1.719,1.488l0.68,0.506l-0.79,0.36c-0.636,0.29-1.274,0.827-1.668,1.445
		c-0.409,0.626-0.596,1.373-0.582,2.139c0.012,0.783,0.178,1.561,0.508,2.256c0.319,0.684,0.847,1.342,1.409,1.733l0.048,0.033
		l-0.015-0.011l0.96,0.708l0.817,0.603l-0.993,0.285c-0.802,0.229-1.639,0.65-2.248,1.214c-0.617,0.564-0.999,1.314-0.97,2.128
		l0.029,0.611l0.079,0.687c0.065,0.452,0.152,0.903,0.279,1.343c0.264,0.866,0.621,1.757,1.322,2.397
		c-0.844-0.47-1.416-1.329-1.852-2.189c-0.22-0.438-0.4-0.894-0.558-1.356l-0.215-0.696c-0.071-0.265-0.111-0.522-0.101-0.795
		c-0.011-1.089,0.524-2.172,1.307-2.863c0.786-0.709,1.68-1.158,2.685-1.45l-0.175,0.888l-0.96-0.708l0.033,0.022
		c-0.831-0.582-1.373-1.313-1.785-2.154c-0.397-0.838-0.59-1.758-0.604-2.669c-0.021-0.927,0.218-1.898,0.741-2.696
		c0.532-0.802,1.23-1.415,2.135-1.831l-0.11,0.866c-0.624-0.468-1.387-0.948-1.923-1.69c-0.552-0.714-0.879-1.639-0.882-2.549
		c-0.01-0.914,0.247-1.781,0.612-2.56c0.376-0.785,0.832-1.481,1.421-2.148l0.006,0.689c-0.264-0.28-0.498-0.496-0.786-0.829
		c-0.251-0.299-0.487-0.615-0.693-0.955c-0.41-0.671-0.771-1.44-0.767-2.27C41.774,89.792,42.577,88.28,43.735,87.358z"/>
</g>
<g display="none">
	<path display="inline" fill="#FFFFFF" d="M58.183,125.261c0.378,0.445,0.626,0.961,0.807,1.497
		c0.187,0.537,0.275,1.106,0.293,1.688c-0.008,0.581-0.089,1.187-0.363,1.736c-0.253,0.55-0.729,1.026-1.291,1.187
		c0.304-0.499,0.468-0.958,0.553-1.441c0.083-0.479,0.11-0.971,0.102-1.474C58.282,127.441,58.161,126.41,58.183,125.261z"/>
</g>
<path display="none" fill="none" stroke="#1D1D1B" stroke-miterlimit="10" d="M31.715,4.766c6.849-6.108,25.728-7.589,9.995,15.177
	c-0.338,0.489,4.679-10.139,5.183-9.995c5.182,1.48,3.517,9.995,1.11,13.512"/>
<line display="none" fill="none" stroke="#1D1D1B" stroke-width="0.5" stroke-miterlimit="10" x1="40.97" y1="18.093" x2="40.229" y2="116.748"/>
<line display="none" fill="none" stroke="#1D1D1B" stroke-width="0.5" stroke-miterlimit="10" x1="49.758" y1="23.499" x2="53.653" y2="122.078"/>
<line display="none" fill="none" stroke="#1D1D1B" stroke-width="0.5" stroke-miterlimit="10" x1="39.493" y1="22.165" x2="38.745" y2="120.818"/>
<g display="none">
	<polygon display="inline" fill="#FFFFFF" points="44.267,32.008 41.362,31.552 41.827,31.17 41.001,39.482 40.831,39.3 
		46.662,39.471 40.831,39.641 40.653,39.646 40.661,39.458 41.001,31.113 41.018,30.687 41.466,30.731 44.393,31.016 	"/>
</g>
<circle display="none" fill="#1D1D1B" stroke="#FFFFFF" stroke-miterlimit="10" cx="44.815" cy="22.241" r="1.985"/>
<g display="none">
	<path display="inline" fill="#FFFFFF" d="M43.511,19.916c0,0-2.836,2.382-0.341,4.424"/>
	<path display="inline" fill="#1D1D1B" d="M43.543,19.954c-0.527,0.669-0.938,1.467-0.973,2.197
		c-0.019,0.376,0.162,0.659,0.231,0.98c0.09,0.332,0.246,0.686,0.4,1.17l-0.063,0.077c-0.511-0.064-0.945-0.368-1.238-0.814
		c-0.303-0.458-0.257-1.07-0.12-1.546c0.278-0.986,0.962-1.656,1.698-2.141L43.543,19.954z"/>
</g>
<g display="none">
	<polygon display="inline" fill="#FFFFFF" points="45.304,16.403 47.005,16.242 47.476,16.198 47.482,16.631 47.563,22.064 
		47.565,22.243 47.403,22.235 44.023,22.075 47.403,21.914 47.242,22.084 46.646,16.683 47.124,17.071 45.445,17.393 	"/>
</g>
<g display="none">
	<polygon display="inline" fill="#FFFFFF" points="48.538,41.567 51.326,41.279 51.78,41.232 51.796,41.664 52.103,50.01 
		52.109,50.192 51.937,50.187 46.383,50.021 51.937,49.855 51.771,50.032 50.966,41.72 51.436,42.104 48.671,42.558 	"/>
</g>
<g display="none">
	<polygon display="inline" fill="#FFFFFF" points="44.439,55.188 42.3,54.745 42.798,54.346 42.086,62.661 41.941,62.509 
		46.246,62.654 41.941,62.799 41.793,62.804 41.796,62.646 41.946,54.302 41.955,53.836 42.444,53.904 44.609,54.202 	"/>
</g>
<g display="none">
	<polygon display="inline" fill="#FFFFFF" points="48.955,62.251 51.743,61.963 52.197,61.917 52.213,62.348 52.52,70.694 
		52.526,70.876 52.354,70.871 46.8,70.705 52.354,70.539 52.188,70.716 51.383,62.404 51.853,62.789 49.088,63.242 	"/>
</g>
<g display="none">
	<polygon display="inline" fill="#FFFFFF" points="44.164,73.655 40.773,73.193 41.224,72.82 40.319,81.131 40.137,80.934 
		46.938,81.117 40.137,81.299 39.943,81.305 39.954,81.102 40.41,72.754 40.433,72.347 40.861,72.381 44.272,72.661 	"/>
</g>
<g display="none">
	<polygon display="inline" fill="#FFFFFF" points="49.056,81.544 52.813,81.269 53.23,81.239 53.256,81.635 53.793,89.983 
		53.807,90.197 53.603,90.192 46.106,90 53.603,89.809 53.412,90.017 52.451,81.708 52.894,82.074 49.153,82.541 	"/>
</g>
<g display="none">
	<polygon display="inline" fill="#FFFFFF" points="43.547,106.1 40.275,106.338 39.854,106.369 39.831,105.97 39.394,98.516 
		39.381,98.305 39.582,98.311 46.106,98.5 39.582,98.688 39.77,98.483 40.637,105.9 40.193,105.532 43.445,105.106 	"/>
</g>
<g display="none">
	<polygon display="inline" fill="#FFFFFF" points="49.195,99.591 52.951,99.316 53.368,99.286 53.394,99.682 53.932,108.03 
		53.945,108.244 53.741,108.239 46.245,108.047 53.741,107.856 53.551,108.064 52.589,99.754 53.031,100.121 49.293,100.587 	"/>
</g>
<g display="none">
	<polygon display="inline" fill="#FFFFFF" points="43.267,109.792 41.099,109.42 41.553,109.055 40.604,117.365 40.415,117.159 
		47.771,117.348 40.415,117.538 40.212,117.542 40.226,117.332 40.747,108.984 40.772,108.582 41.201,108.618 43.393,108.8 	"/>
</g>
<g display="none">
	<polygon display="inline" fill="#FFFFFF" points="53.849,120.568 52.678,119.989 53.225,119.704 51.11,127.774 50.999,127.608 
		55.215,128.484 50.952,127.879 50.813,127.86 50.841,127.713 52.436,119.524 52.521,119.088 52.982,119.239 54.226,119.642 	"/>
</g>
<path display="none" fill="none" stroke="#1D1D1B" stroke-miterlimit="10" d="M18.574,4.905c0,0-1.666,2.73,0,5.553"/>
<path display="none" fill="none" stroke="#1D1D1B" stroke-miterlimit="10" d="M14.131,5.275c0,0-1.295,1.805,0,4.257"/>
<path display="none" fill="#1D1D1B" stroke="#FFFFFF" stroke-miterlimit="10" d="M51.97,83.892l-0.01-0.152
	c-1.034,0.182-2.078,0.304-3.101,0.354c-1.145,0.061-2.25,0.05-3.263,0c-1.337-0.07-2.493-0.193-3.364-0.313l-0.546,3.738
	l-0.031,0.233l-0.516,3.455l-0.537,3.698h0.01c0.061,0,0.152,0.009,0.264,0.009c0.051,0.012,0.101,0.012,0.162,0.021
	c0.669,0.041,1.885,0.102,3.354,0.142c1.56,0.051,3.404,0.081,5.157,0.051c1.104-0.03,2.168-0.082,3.11-0.183v-0.031L51.97,83.892z
	 M44.137,97.468v0.011l0.882,9.646c1.236,0.061,2.553,0.091,3.81,0.029l0.871-9.747C48.059,97.509,46.134,97.559,44.137,97.468z
	 M44.137,97.468v0.011l0.882,9.646c1.236,0.061,2.553,0.091,3.81,0.029l0.871-9.747C48.059,97.509,46.134,97.559,44.137,97.468z
	 M49.7,97.408c-1.642,0.102-3.566,0.151-5.563,0.061c-1.094-0.039-2.219-0.12-3.323-0.252c-0.071,0-0.132-0.011-0.203-0.021
	c-0.111-0.01-0.223-0.03-0.334-0.04l0.294,2.423l0.638,5.156l0.01,0.071l0.253,2.046c0.912,0.102,2.168,0.193,3.546,0.274
	c1.236,0.061,2.553,0.091,3.81,0.029c1.154-0.02,2.239-0.132,3.12-0.323l0.861-9.626v-0.029C51.97,97.256,50.906,97.348,49.7,97.408
	z M44.137,97.468v0.011l0.882,9.646c1.236,0.061,2.553,0.091,3.81,0.029l0.871-9.747C48.059,97.509,46.134,97.559,44.137,97.468z
	 M44.137,97.468v0.011l0.882,9.646c1.236,0.061,2.553,0.091,3.81,0.029l0.871-9.747C48.059,97.509,46.134,97.559,44.137,97.468z"/>
<path display="none" fill="#1D1D1B" d="M76.235,105.069c-4.113,1.226-6.919-0.264-8.702-3.284c-0.285-0.476-0.537-0.982-0.771-1.529
	c-0.425-0.993-0.769-2.099-1.042-3.293c-1.348-5.866,0.923-11.338,8.987-8.339c-5.848-6.12,6.84-12.656-1.987-23.537
	c-4.569-5.644-10.405-7.731-19.13-8.339l-1.934-31.521h0.536v-1.743h-0.477c0-0.912-0.06-2.492-0.172-4.225h3.911
	c0.396,1.388,2.077,2.421,4.083,2.421c2.291,0,4.154-1.348,4.154-3.029c0-1.682-1.863-3.03-4.154-3.03
	c-1.874,0-3.465,0.902-3.981,2.148h-4.104c-0.131-2.037-0.283-4.145-0.396-5.594h4.834c0.526,1.226,2.107,2.108,3.951,2.108
	c2.301,0,4.155-1.358,4.155-3.04c0-1.671-1.854-3.029-4.155-3.029c-2.046,0-3.707,1.064-4.083,2.472h-4.802
	c-0.021-0.253-0.031-0.395-0.031-0.395l0.011-0.021l0.061-0.092l1.136-1.489l0.303-0.953c0,0,0.973-0.151,1.724-1.196
	c0.161-0.222-0.142-1.924-0.142-1.924l-2.038-0.253l-0.901-1.561l-1.226-0.111l-0.608-2.32c-0.912-0.892-3.952,0.102-3.952,0.102
	L45.181,1.01c0,0.041,0,0.061-0.01,0.081l-0.335,1.601l-1.681,0.345l-0.406,1.286c-0.091,1.581-0.901,2.908-1.174,3.313
	c0.668,0.496,1.428,0.618,1.428,0.618c0,1.104,0.456,2.32,0.456,2.32c-0.171,0.416-0.293,1.298-0.395,2.422h-4.134
	c-0.567-1.196-2.117-2.047-3.941-2.047c-2.291,0-4.154,1.368-4.154,3.04c0,1.682,1.864,3.029,4.154,3.029
	c2.077,0,3.769-1.083,4.094-2.522h3.89c-0.142,2.27-0.192,5.046-0.212,7.082h-4.256c-0.274-1.479-2.016-2.634-4.124-2.634
	c-2.3,0-4.164,1.368-4.164,3.029c0,1.682,1.864,3.06,4.164,3.06c1.763,0,3.273-0.81,3.88-1.966h4.489v0.416h-0.597v1.743h0.486
	L40.53,56.859c-6.242,0.689-13.476,2.665-17.873,7.772C12.16,76.83,25.93,81.074,20.387,87.966c8.836-0.781,8.511,3.353,8.055,9.32
	c-0.132,1.693-0.709,3.282-1.621,4.6c-1.956,2.838-5.43,4.388-9.18,2.96c2.432,7.883-8.521,11.762-4.256,22.767
	c1.916,4.964,4.256,8.855,11.41,11.194c0.021,0,0.03,0.012,0.05,0.012c4.631,1.52,11.268,2.492,21.167,2.553
	c-0.213-0.021-0.386-0.05-0.557-0.08c-0.163,0-1.936-0.964-1.905-3.547l0.061-0.77c0,0-2.867-20.255-2.867-20.467l-0.821-9.718
	c0.193,0.01,0.466,0.021,0.73,0.021c0.324,0.02,0.628,0.02,0.75,0.029l-0.183-2.036l-0.01-0.071l-0.638-5.156l-0.294-2.423v-0.011
	l0.325-2.238l0.537-3.698l0.516-3.455l0.031-0.233l0.344-3.151l0.071-0.607c-0.253-0.041-0.497-0.082-0.689-0.112
	c-0.03-0.01-0.061-0.01-0.091-0.02l-0.345-0.061l0.599-16.932l2.775-41.41h5.624l1.915,31.42c-0.01,0-0.01,0-0.031,0l0.984,26.933
	c-0.062,0-0.143,0.02-0.254,0.028c-0.183,0.041-0.376,0.092-0.587,0.122c-0.011,0-0.031,0-0.041,0.011l0.01,0.152l0.688,11.022
	v0.031l0.152,2.219v0.041l-0.861,9.626c0.132-0.031,0.263-0.062,0.386-0.092c0.081-0.021,0.151-0.04,0.223-0.061
	c0.01,0,0.03-0.01,0.04-0.01c0.041-0.012,0.072-0.021,0.121-0.041L52.71,106.7l0.801-0.183c-0.041,1.429-0.103,2.827-0.103,2.827
	s-5.258,20.427-3.414,27.863c0.161,1.166-0.346,3.009-1.551,3.81c-0.324,0.213-0.729,0.324-1.165,0.365
	c3.617,0,6.859-0.295,9.676-0.588c17.752-1.976,20.933-9.281,22.462-12.29C84.444,118.616,73.328,111.735,76.235,105.069z
	 M40.804,88.361v-0.153l0.011,0.011L40.804,88.361z M45.333,10.007l0.547,1.702v0.011l0.07,0.212l2.127,0.011l0.011-0.041
	l1.063-1.996l0.041,1.723c-0.223,0.324-0.841,0.952-1.935,0.952c-1.186,0-1.803-0.526-2.027-0.79L45.333,10.007z M49.487,23.098
	l-4.823,0.101L44.35,23.22l0.192-9.909l0.568-0.598c0,0,0.03,0.061,0.121,0.152c0.224,0.293,0.841,0.86,2.027,0.86
	c1.094,0,1.712-0.679,1.935-1.033c0.092-0.131,0.143-0.213,0.143-0.213l0.313,0.699l0.325,9.899L49.487,23.098z"/>
<path display="none" d="M49.152,9.906l-1.063,1.996l-0.011,0.041l-2.127-0.011l-0.07-0.212v-0.011l-0.547-1.702l-0.102,1.783
	c0.224,0.264,0.841,0.79,2.027,0.79c1.094,0,1.712-0.628,1.935-0.952L49.152,9.906z M50.232,21.164l-6.118,0.101l-0.012,0.253h6.143
	L50.232,21.164z M41.219,104.805l0.183,2.036c0.02,0.01,0.041,0.01,0.071,0.01L41.219,104.805z M42.101,83.76l-0.071,0.607
	l-0.344,3.151l0.546-3.738C42.192,83.77,42.142,83.77,42.101,83.76z M41.139,91.208l-0.537,3.698h0.01l0.537-3.688l0.506-3.465
	L41.139,91.208z M52.598,106.669c-0.01,0-0.03,0.01-0.04,0.01c-0.071,0.021-0.142,0.04-0.223,0.061l-0.012,0.051l0.234-0.051
	l0.152-0.04l0.009-0.071C52.67,106.649,52.639,106.658,52.598,106.669z"/>
<path display="none" fill="#1D1D1B" d="M41.28,91.237c-0.051-0.01-0.092-0.02-0.132-0.02l-0.01-0.01l-0.537,3.698l-0.325,2.238
	v0.011l0.294,2.423l0.091-0.893v-0.031l0.152-1.438l0.222-2.28l0.325-3.183l0.05-0.476v-0.019
	C41.362,91.247,41.321,91.237,41.28,91.237z M49.152,9.906l-1.063,1.996l-0.011,0.041l-2.127-0.011l-0.07-0.212v-0.011l-0.547-1.702
	l-0.102,1.783c0.224,0.264,0.841,0.79,2.027,0.79c1.094,0,1.712-0.628,1.935-0.952L49.152,9.906z M46.062,141.372
	c0.365,0.051,0.771,0.061,1.186,0.011C46.853,141.382,46.437,141.382,46.062,141.372z"/>
<g display="none">
	<path display="inline" fill="#FFFFFF" d="M56.333,91.095c-0.135-0.205-0.233-0.444-0.217-0.725c0.006-0.283,0.216-0.577,0.47-0.706
		c0.513-0.259,1.031-0.243,1.519-0.219c0.943,0.073,2.019,0.313,2.793,1.13c0.778,0.832,0.864,1.966,0.788,2.904
		c-0.079,0.967-0.312,1.879-0.485,2.798c-0.381,1.81-0.683,3.717-0.561,5.44c0.082,1.771,1.52,2.843,3.104,3.662l-0.197-0.049
		c0.712,0.044,1.493,0.042,2.151-0.132c0.327-0.087,0.617-0.222,0.68-0.416c0.086-0.208-0.072-0.568-0.262-0.874l0.148,0.066
		c-0.351-0.025-0.701-0.046-1.054-0.084l-0.004-0.1c0.347-0.07,0.694-0.122,1.041-0.18l0.074-0.012l0.075,0.078
		c0.272,0.286,0.603,0.642,0.553,1.222c-0.111,0.599-0.627,0.869-1.003,1.025c-0.818,0.301-1.607,0.38-2.437,0.409l-0.084,0.003
		l-0.114-0.052c-0.877-0.394-1.758-0.884-2.463-1.658c-0.712-0.768-1.092-1.857-1.101-2.855c-0.018-1.008,0.205-1.942,0.456-2.848
		c0.244-0.907,0.519-1.799,0.7-2.707c0.188-0.903,0.241-1.84,0.161-2.735c-0.082-0.894-0.321-1.738-0.831-2.301
		c-0.505-0.584-1.352-0.863-2.222-1.049c-0.426-0.079-0.877-0.148-1.233-0.045c-0.375,0.057-0.483,0.515-0.356,0.962L56.333,91.095z
		"/>
</g>
<g display="none">
	<path display="inline" fill="#FFFFFF" d="M37.25,91.556c0.127-0.447,0.02-0.905-0.356-0.962c-0.356-0.103-0.808-0.033-1.233,0.046
		c-0.871,0.186-1.717,0.465-2.222,1.05c-0.509,0.562-0.749,1.407-0.831,2.301c-0.08,0.895-0.026,1.831,0.161,2.734
		c0.182,0.908,0.457,1.801,0.701,2.707c0.25,0.906,0.474,1.84,0.456,2.849c-0.009,0.998-0.389,2.087-1.101,2.854
		c-0.705,0.775-1.585,1.266-2.462,1.659l-0.114,0.052l-0.083-0.003c-0.83-0.029-1.619-0.108-2.438-0.41
		c-0.376-0.156-0.891-0.428-1.002-1.026c-0.05-0.58,0.281-0.936,0.553-1.222l0.075-0.078l0.074,0.012
		c0.347,0.058,0.695,0.109,1.042,0.18l-0.005,0.1c-0.352,0.038-0.702,0.059-1.053,0.084l0.148-0.066
		c-0.189,0.306-0.348,0.666-0.262,0.875c0.063,0.194,0.353,0.329,0.68,0.416c0.658,0.175,1.44,0.177,2.152,0.133l-0.197,0.049
		c1.583-0.819,3.021-1.892,3.103-3.663c0.122-1.724-0.18-3.631-0.561-5.439c-0.174-0.919-0.406-1.831-0.485-2.799
		c-0.076-0.938,0.009-2.071,0.788-2.904c0.774-0.816,1.85-1.057,2.793-1.13c0.487-0.024,1.005-0.04,1.518,0.218
		c0.254,0.129,0.464,0.423,0.47,0.706c0.017,0.28-0.082,0.52-0.217,0.725L37.25,91.556z"/>
</g>
<path display="none" fill="#1D1D1B" d="M42.659,3.966c-0.097,1.447-0.9,2.659-1.173,3.033c-0.695-0.474-1.28-1.322-0.764-2.797
	l1.879-0.101L42.659,3.966z"/>
<path display="none" fill="none" stroke="#009FE3" stroke-width="0.25" stroke-miterlimit="10" d="M41.486,6.999
	c-0.068,0.073-0.095,0.118-0.095,0.118"/>
<path display="none" fill="none" stroke="#FFFFFF" stroke-width="0.25" stroke-miterlimit="10" d="M43.467,9.63
	c0,0,1.584-4.056,1.724-9.125"/>
<path display="none" fill="none" stroke="#FFFFFF" stroke-width="0.25" stroke-miterlimit="10" d="M46.54,0.484
	c0.246,5.567-0.476,10.187-0.655,11.225"/>
<path display="none" fill="none" stroke="#009FE3" stroke-width="0.25" stroke-miterlimit="10" d="M45.887,11.719
	c-0.028,0.136-0.042,0.209-0.042,0.209"/>
<path display="none" fill="none" stroke="#FFFFFF" stroke-width="0.25" stroke-miterlimit="10" d="M52.308,7.089
	c0,0-0.683-1.377-0.405-2.986"/>
<path display="none" fill="none" stroke="#FFFFFF" stroke-width="0.25" stroke-miterlimit="10" d="M50.98,9.51
	c0,0-1.551-4.023-1.93-9.088"/>
<path display="none" fill="none" stroke="#FFFFFF" stroke-width="0.25" stroke-miterlimit="10" d="M48.088,11.9
	c0,0-0.613-5.178-0.102-11.585"/>
<polyline display="none" fill="none" stroke="#FFFFFF" stroke-width="0.5" stroke-miterlimit="10" points="45.042,107.396 
	45.015,107.124 44.143,97.474 44.129,97.375 44.388,95.078 45.6,84.09 45.723,83.024 "/>
<polyline display="none" fill="none" stroke="#FFFFFF" stroke-width="0.5" stroke-miterlimit="10" points="42.043,106.958 
	41.497,98.535 41.497,98.491 41.416,97.236 41.396,97.094 41.446,96.458 41.659,93.905 41.709,93.284 42.115,88.161 42.49,83.306 
	"/>
<polyline display="none" fill="none" stroke="#FFFFFF" stroke-width="0.5" stroke-miterlimit="10" points="48.533,83.024 
	48.602,84.097 49.295,95.125 49.447,97.375 49.447,97.411 48.574,107.162 48.533,107.624 "/>
<polyline display="none" fill="none" stroke="#FFFFFF" stroke-width="0.5" stroke-miterlimit="10" points="51.32,82.854 
	51.389,83.929 52.082,94.956 52.233,97.206 52.233,97.242 51.36,106.992 51.32,107.455 "/>
<g display="none">
	<polygon display="inline" fill="#1D1D1B" points="47.814,140.484 46.94,149.617 45.814,140.511 	"/>
</g>
<path display="none" fill="#FFFFFF" stroke="#009FE3" stroke-width="0.5" stroke-miterlimit="10" d="M38.54,21.958
	c-0.006-0.063-0.011-0.124-0.016-0.184"/>
<path display="none" fill="#1D1D1B" stroke="#FFFFFF" stroke-width="0.25" stroke-miterlimit="10" d="M38.524,21.774
	c-0.126-1.466-0.197-2.271-0.197-2.271s-1.931-9.381-7.451-11.313c0,0-27.871-6.071,19.868-7.174
	c47.739-1.104,34.219,6.071,25.664,8.278c0,0-8.555,6.07-9.936,29.803c-1.377,23.731-4.965,81.129-4.965,81.129
	s-3.313,27.596-26.768,28.147c-23.457,0.552-27.044-19.041-27.596-28.699c-0.552-9.659,0-85.545,0-85.545
	s3.036-15.729,17.661-15.454c14.625,0.276,20.697,5.243,20.42,14.901c-0.1,3.483-0.151,14.079-0.173,26.204
	c-0.002,0.743,0.002,1.552,0.001,2.305c-0.033,21.037,0.523,45.681,0.523,45.681s1.58,17.704-12.769,18.53
	c-14.35,0.829-15.324-14.347-15.324-14.347L17.01,73.256c0,0,0.07-8.771,13.867-11.531l37.53-4.967l1.655-0.828l1.38,1.656
	l-0.828,1.655l-1.932,0.276l-20.696,1.931L37.87,62.992l-6.165,0.94c0,0-11.866,1.38-11.59,9.935
	c0.275,8.554,1.104,38.079,1.104,38.079s3.586,9.66,9.933,9.107c6.348-0.552,7.451-3.587,7.727-10.211
	c0.159-3.825-0.51-29.306-1.104-50.136c-0.435-15.218-0.828-27.957-0.828-27.957s1.656-6.071-10.486-6.899
	c0,0-9.657,0.828-9.933,7.726c-0.277,6.899,1.099,86.524,1.456,89.733c0.341,3.077,1.782,12.335,15.829,10.553
	c0,0,12.603-2.478,12.049-16.827c-0.16-4.184-0.213-11.622-0.545-24.147"/>
<path display="none" fill="#1D1D1B" stroke="#FFFFFF" stroke-width="0.25" stroke-miterlimit="10" d="M22.323,89.288
	c0,1.237-1.228,2.239-2.741,2.239l0,0c-1.514,0-2.743-1.002-2.743-2.239V57.625c0-1.238,0.338-1.861,1.852-1.861l1.568,0.048
	c1.513,0,2.064,0.576,2.064,1.813V89.288z"/>
<path display="none" fill="#1D1D1B" stroke="#FFFFFF" stroke-width="0.25" stroke-miterlimit="10" d="M28.119,89.028
	c0,1.228-1.236,2.225-2.76,2.225l0,0c-1.524,0-2.76-0.997-2.76-2.225V57.608c0-1.229,0.493-1.844,2.017-1.844h1.664
	c1.524,0,1.839,0.615,1.839,1.844V89.028z"/>
<path display="none" fill="#1D1D1B" stroke="#FFFFFF" stroke-width="0.25" stroke-miterlimit="10" d="M34.168,88.775
	c0,1.218-1.276,2.207-2.851,2.207l0,0c-1.576,0-2.853-0.989-2.853-2.207V57.591c0-1.219,0.707-1.637,2.282-1.637h1.283
	c1.574,0,2.138,0.417,2.138,1.637V88.775z"/>
<path display="none" fill="#1D1D1B" stroke="#FFFFFF" stroke-width="0.25" stroke-miterlimit="10" d="M78.368,53.598
	c0,0,3.864-2.575,3.864,2.759c0,5.336-1.474,4.784-3.128,3.863l-2.208,0.369l-2.575-1.656l-4.6,0.369c0,0,0.736-2.208-0.184-2.76
	c-0.92-0.551,4.415-0.551,4.415-0.551l2.208-2.024L78.368,53.598z"/>
<path display="none" fill="#1D1D1B" stroke="#FFFFFF" stroke-width="0.25" stroke-miterlimit="10" d="M34.177,69.746l-1.319-0.754
	l-2.072,0.377l0.188,1.884l0.659,1.836l0.471,24.729c0,0,0,4.521-5.085,4.332c-5.088-0.188-6.594-2.827-6.594-2.827
	s-2.826,1.509-0.376,3.769c0,0,3.484,2.474,5.745,2.331c2.261-0.14,6.569-0.212,8.266-3.037c0,0,1.483-0.071,1.412-6.995
	c-0.07-6.922-0.142-22.394-0.142-22.394S35.495,70.452,34.177,69.746z"/>
<path display="none" fill="#1D1D1B" stroke="#FFFFFF" stroke-width="0.25" stroke-miterlimit="10" d="M27.838,73.406l-0.804-0.509
	l-1.262,0.254l0.114,1.274l0.401,1.24l0.288,16.718c0,0,0,3.058-3.099,2.93c-3.1-0.126-4.018-1.91-4.018-1.91
	s-1.722,1.019-0.229,2.547c0,0,2.123,1.673,3.5,1.577c1.378-0.095,4.002-0.146,5.036-2.054c0,0,0.903-0.049,0.86-4.729
	c-0.042-4.681-0.086-15.141-0.086-15.141S28.641,73.883,27.838,73.406z"/>
<path display="none" fill="#1D1D1B" d="M20.459,106.705c0,0,8.186,8.418,18.734,0.552v-6.622c0,0-3.621,9.106-15.112,4.415
	C24.081,105.049,17.153,101.324,20.459,106.705z"/>
<path display="none" d="M21.512,51.966c0,0.35-0.399,0.628-0.901,0.628h-0.605v3.192h-1.003v-3.192h-0.457
	c-0.502,0-0.901-0.278-0.901-0.628c0-0.342,0.399-0.621,0.901-0.621h2.065C21.113,51.345,21.512,51.624,21.512,51.966z"/>
<path display="none" d="M27.444,51.942c0,0.325-0.399,0.596-0.89,0.596h-0.65v3.179H24.9v-3.179h-0.422
	c-0.49,0-0.89-0.271-0.89-0.596c0-0.325,0.399-0.597,0.89-0.597h2.077C27.045,51.345,27.444,51.617,27.444,51.942z"/>
<path display="none" d="M33.103,52.038c0,0.351-0.399,0.629-0.89,0.629h-0.605v3.256h-1.004v-3.256h-0.468
	c-0.49,0-0.89-0.278-0.89-0.629c0-0.342,0.399-0.621,0.89-0.621h2.077C32.704,51.417,33.103,51.696,33.103,52.038z"/>
<path display="none" fill="#1D1D1B" d="M33.552,61.372l35.604-4.705c0,0,1.426,1.664-0.049,2.424l-35.081,4.183l-0.475,0.95
	l-0.095-2.376L33.552,61.372z"/>
<path display="none" fill="#1D1D1B" stroke="#FFFFFF" stroke-width="0.25" stroke-miterlimit="10" d="M16.962,58.616
	c0,0,3.946,0.713,5.467-0.143c0,0,3.089,1.284,5.894-0.095c0,0,2.994,1.379,6.037-0.143"/>
<path fill="#1D1D1B" d="M50.408,79.507c0.674,0.229,1.375,0.351,2.09,0.337c-0.296,1.254-0.755,2.494-1.307,3.695
	c-0.028,0.082-0.069,0.147-0.109,0.216c-0.147,0.312-0.297,0.621-0.445,0.917c-0.107,0.203-0.229,0.42-0.35,0.621
	c-0.014,0.027-0.04,0.066-0.055,0.095v0.013c-0.404,0.715-0.836,1.363-1.294,1.982c-0.58,0.796-1.215,1.524-1.862,2.172
	c-0.472,0.458-0.943,0.89-1.442,1.281c-0.013,0-0.013,0-0.013,0c-2.266,1.781-4.68,2.671-6.649,2.577
	c-4.72-0.203-8.753-0.676-12.3-1.417C15.666,89.691,9.301,84.834,1.667,77.498c-3.883-3.735,0.662-12.157,5.679-19.534
	c0,0,5.276-6.772,11.169-9.833c5.894-3.062,11.146-0.92,14.882,5.175c2.724,4.438,14.704,15.143,14.461,15.413
	c-0.377,0.417-0.687,0.863-0.93,1.335c0,0.013,0,0.027-0.013,0.041c-0.081,0.364-0.135,0.742-0.149,1.106
	c-0.027,0.54,0.014,1.079,0.149,1.591v0.041c-0.081,0.35-0.135,0.714-0.149,1.064c-0.027,0.472,0,0.944,0.095,1.417
	c0.215,1.146,0.796,2.225,1.699,3.06c0.014,0.014,0.026,0.027,0.041,0.041c0.539,0.487,1.146,0.864,1.793,1.079
	C50.408,79.507,50.408,79.507,50.408,79.507z"/>
<g>
	<path d="M52.943,79.817c-0.147,0.015-0.31,0.027-0.445,0.027c-0.715,0.014-1.416-0.107-2.09-0.337c0,0,0,0-0.014-0.014
		c-0.647-0.215-1.254-0.592-1.793-1.079c-0.015-0.014-0.027-0.027-0.041-0.041c-0.903-0.835-1.484-1.913-1.699-3.06
		c-0.445-0.864-0.647-1.823-0.593-2.792c0.027-0.541,0.134-1.066,0.296-1.579c0.095-0.283,0.216-0.58,0.351-0.849
		c0.013-0.013,0.013-0.027,0.013-0.041c0.243-0.472,0.553-0.917,0.93-1.335c0.243-0.27,0.513-0.513,0.783-0.729
		c0.202-0.162,0.403-0.296,0.606-0.417c-0.176-0.216-0.351-0.432-0.566-0.621c-0.053-0.054-0.095-0.122-0.148-0.175
		c-0.081-0.082-0.147-0.163-0.242-0.243c-0.297-0.336-0.634-0.674-0.984-0.985c-0.958-0.876-1.997-1.644-3.062-2.279
		c-0.027-0.013-0.041-0.027-0.068-0.041c-0.364-0.216-0.742-0.431-1.119-0.606c-0.486-0.243-0.971-0.472-1.457-0.648
		c-0.081-0.027-0.162-0.067-0.243-0.095c-0.512-0.202-1.038-0.391-1.564-0.538c-0.512-0.149-1.024-0.283-1.538-0.378
		c-0.593-0.121-1.187-0.202-1.78-0.256c-5.152-0.512-10.305,1.241-13.864,5.193c-6.218,6.877-5.247,17.897,2.157,24.586
		c0.607,0.554,1.242,1.051,1.902,1.511c6.757,4.731,15.645,4.531,21.458-0.555l0.014-0.013c0.216-0.189,0.418-0.376,0.62-0.579
		c0.243-0.217,0.472-0.473,0.702-0.714c0.121-0.123,0.228-0.23,0.323-0.352c0.176-0.202,0.338-0.419,0.485-0.634
		c0.067-0.082,0.135-0.148,0.188-0.229v-0.014c0.392-0.526,0.741-1.066,1.038-1.632c0.446-0.756,0.797-1.538,1.093-2.349
		l0.014-0.012c0.067-0.201,0.147-0.404,0.202-0.605c0.485-1.499,0.728-3.035,0.742-4.587C53.349,79.763,53.146,79.804,52.943,79.817
		z"/>
	<g>
		<path fill="#FFFFFF" d="M52.95,79.917c-0.864,0.088-1.753-0.035-2.574-0.314l-0.022-0.008l-0.017-0.017l-0.013-0.013l0.039,0.023
			c-0.924-0.313-1.741-0.919-2.356-1.655c-0.642-0.738-1.045-1.649-1.255-2.599l0.011,0.03c-0.893-1.633-0.839-3.689-0.026-5.361
			l0.013-0.026l0.021-0.022c-0.043,0.045-0.044,0.095-0.044,0.099l-0.006-0.036l0.028-0.057c0.534-1.062,1.338-1.98,2.356-2.628
			l-0.073,0.415c-0.182-0.214-0.355-0.413-0.547-0.572l-0.011-0.008l-0.007-0.008l-0.109-0.124l-0.084-0.088
			c-0.071-0.072-0.131-0.133-0.185-0.176l-0.012-0.009l-0.021-0.022c-0.566-0.611-1.24-1.171-1.906-1.692
			c-0.673-0.524-1.384-0.996-2.12-1.42l0.029,0.016l-0.083-0.047l0.017,0.01l-0.003-0.001l-0.028-0.016
			c-2.824-1.577-6.055-2.461-9.271-2.411c-3.211,0.032-6.402,1.022-8.991,2.873c-2.592,1.842-4.577,4.511-5.565,7.512
			c-1.009,3-1.032,6.297-0.206,9.34c0.818,3.054,2.492,5.847,4.716,8.069c0.273,0.277,0.573,0.554,0.853,0.802
			c0.323,0.285,0.613,0.523,0.914,0.756c0.307,0.235,0.64,0.476,0.948,0.683c0.353,0.237,0.69,0.452,1.006,0.645
			c1.335,0.808,2.786,1.454,4.293,1.884c3.011,0.863,6.256,0.985,9.315,0.183c3.064-0.744,5.924-2.536,7.976-4.992l0.046-0.055
			l-0.025,0.027l0.175-0.19l-0.063,0.209v-0.014l0.006-0.142l0.069-0.084c0.473-0.576,0.861-1.172,1.252-1.832
			c0.394-0.637,0.698-1.3,0.98-1.996l0.023-0.059l0.038-0.031l0.014-0.011l-0.063,0.094c0.313-0.82,0.586-1.658,0.747-2.515
			c0.171-0.858,0.268-1.732,0.291-2.61l0.131,0.108C53.371,79.867,53.165,79.906,52.95,79.917z M52.937,79.717
			c0.195-0.016,0.393-0.059,0.593-0.102l0.13-0.027l0.001,0.136c0.014,1.775-0.305,3.573-0.851,5.259l-0.018,0.053l-0.047,0.042
			l-0.013,0.013L52.794,85c-0.238,0.721-0.545,1.443-0.886,2.126c-0.323,0.67-0.705,1.376-1.144,2.007l0.075-0.226v0.014
			l0.005,0.111l-0.067,0.098c-0.083,0.119-0.152,0.206-0.202,0.269l0.021-0.027c-1.977,2.811-4.848,4.978-8.158,6.097
			c-3.303,1.11-6.962,1.172-10.327,0.219c-6.807-1.814-12.293-7.55-13.9-14.347c-0.822-3.379-0.69-6.998,0.48-10.278
			c1.161-3.284,3.396-6.153,6.257-8.096c2.86-1.956,6.322-2.939,9.743-2.901c1.73,0.021,3.395,0.25,5.054,0.739
			c1.654,0.501,3.161,1.161,4.645,2.065l-0.031-0.017l0.084,0.05l-0.015-0.007l0.006,0.001l0.024,0.015
			c0.754,0.472,1.477,0.989,2.157,1.558c0.681,0.576,1.321,1.167,1.909,1.857l-0.032-0.032c0.092,0.082,0.161,0.163,0.221,0.228
			l0.107,0.125l0.075,0.095l-0.018-0.016c0.231,0.211,0.415,0.448,0.586,0.669l0.2,0.258l-0.273,0.157
			c-0.942,0.541-1.757,1.364-2.283,2.334l0.022-0.092c0.002,0.034-0.009,0.109-0.069,0.179l0.034-0.048
			c-0.812,1.543-0.938,3.485-0.135,5.079l0.008,0.016l0.003,0.015c0.322,1.842,1.691,3.483,3.455,4.105l0.023,0.008l0.017,0.017
			l0.013,0.013l-0.038-0.023C51.242,79.684,52.091,79.802,52.937,79.717z"/>
	</g>
</g>
<g>
	<path fill="#1D1D1B" d="M57.259,77.484c-0.067,0.081-0.134,0.162-0.215,0.242c-0.54,0.595-1.147,1.067-1.821,1.405
		c-0.283,0.147-0.58,0.281-0.904,0.389c-0.242,0.081-0.512,0.148-0.768,0.203c-0.202,0.04-0.405,0.081-0.607,0.094
		c-0.147,0.015-0.31,0.027-0.445,0.027c-0.715,0.014-1.416-0.107-2.09-0.337c0,0,0,0-0.014-0.014
		c-0.647-0.215-1.254-0.592-1.793-1.079c-0.015-0.014-0.027-0.027-0.041-0.041c-0.283-0.038-0.566-0.12-0.85-0.215
		c0,0,0,0-0.014-0.014c-0.647-0.216-1.254-0.592-1.793-1.079c-1.294-1.173-1.929-2.832-1.834-4.518
		c0.014-0.364,0.068-0.742,0.149-1.107c0.013-0.013,0.013-0.025,0.013-0.04c0.243-0.472,0.554-0.918,0.931-1.335
		c0.243-0.269,0.512-0.512,0.782-0.728c0.203-0.162,0.405-0.296,0.607-0.419c-0.176-0.214-0.351-0.431-0.567-0.62
		c0.378-0.364,0.782-0.66,1.2-0.917c0.378-0.216,0.77-0.404,1.16-0.54c0.067-0.041,0.121-0.054,0.188-0.067
		c0.243-0.095,0.5-0.163,0.743-0.203c0.391-0.067,0.795-0.108,1.186-0.081c0.553-0.311,1.147-0.513,1.74-0.621
		c-1.768-1.551-3.777-2.657-5.867-3.291c-0.216-0.082-0.432-0.149-0.662-0.203c-0.269-0.067-0.525-0.134-0.796-0.188
		c-0.673-0.135-1.334-0.229-1.995-0.27c-0.486-0.042-0.944-0.054-1.403-0.042h-0.122c-0.809,0.027-1.604,0.122-2.387,0.284
		c-0.634,0.135-1.254,0.311-1.875,0.526c-0.296,0.094-0.607,0.216-0.903,0.365c-1.646,0.701-3.156,1.767-4.424,3.168
		c-5.166,5.732-4.316,14.917,1.888,20.527c3.128,2.818,7,4.194,10.722,4.155c0.418,0,0.823-0.028,1.241-0.068c0,0,0,0,0.013,0
		c0.405-0.041,0.822-0.107,1.228-0.177c0.256-0.039,0.499-0.093,0.714-0.16c0.77-0.162,1.511-0.419,2.213-0.715
		c0.04-0.014,0.081-0.042,0.121-0.055c0.512-0.229,0.999-0.484,1.457-0.77h0.013c1.065-0.646,2.037-1.443,2.9-2.399
		c0.013-0.027,0.039-0.041,0.054-0.068c0.795-0.903,1.443-1.874,1.956-2.898c0.512-1.053,0.891-2.172,1.104-3.345
		c0.014,0,0.014,0,0.014,0c0.217-1.08,0.297-2.187,0.23-3.291C57.528,77.147,57.394,77.309,57.259,77.484z"/>
	<g>
		<path fill="#FFFFFF" d="M57.371,77.583c-0.42,0.484-0.896,0.936-1.438,1.29c-0.542,0.355-1.129,0.635-1.75,0.82
			c-0.62,0.185-1.259,0.304-1.912,0.288c-0.654-0.007-1.295-0.13-1.914-0.325l-0.031-0.01l-0.029-0.027l-0.014-0.014l0.062,0.038
			c-0.719-0.222-1.367-0.615-1.933-1.116l0.12,0.059c-0.313-0.035-0.61-0.115-0.896-0.202l-0.047-0.015l-0.045-0.043l-0.015-0.013
			l0.093,0.057c-1.392-0.443-2.539-1.467-3.259-2.742c-0.726-1.283-0.916-2.847-0.64-4.296l0.027-0.143l0.102-0.099
			c-0.053,0.051-0.097,0.127-0.114,0.2c-0.012,0.045-0.016,0.073-0.016,0.111l0-0.115l0.056-0.118
			c0.27-0.566,0.613-1.081,1.033-1.556c0.183-0.211,0.442-0.461,0.664-0.652c0.23-0.204,0.498-0.399,0.757-0.566l-0.155,0.913
			c-0.186-0.215-0.348-0.397-0.513-0.531l-0.528-0.427l0.506-0.509c0.362-0.364,0.765-0.686,1.183-0.965
			c0.269-0.176,0.41-0.25,0.672-0.388c0.231-0.119,0.466-0.222,0.713-0.318l-0.138,0.064c0.071-0.043,0.147-0.082,0.233-0.112
			c0.081-0.027,0.144-0.042,0.188-0.051l-0.123,0.036c0.348-0.148,0.776-0.251,1.1-0.302c0.157-0.028,0.377-0.056,0.56-0.066
			c0.188-0.016,0.386-0.013,0.583-0.007l-0.427,0.096c0.613-0.356,1.283-0.6,1.972-0.736l-0.382,1.378
			c-3.515-3.017-8.48-4.358-12.863-3.208c-2.258,0.565-4.179,1.686-5.753,3.28c-1.563,1.622-2.605,3.611-3.058,5.79
			c-0.932,4.356,0.644,9.023,3.654,12.228c2.993,3.254,7.374,5.204,11.842,5.018l0.129-0.006h-0.008l0.013,0.001l-0.127,0.006
			c0.297-0.022,0.591-0.041,0.91-0.079l0.467-0.045c0.104-0.009,0.239-0.032,0.348-0.054l0.279-0.053l-0.172,0.025
			c0.357-0.054,0.72-0.122,1.084-0.215l0.548-0.154l0.274-0.088l0.138-0.044l0.228-0.084l-0.105,0.04
			c0.481-0.176,0.949-0.379,1.396-0.614l0.277-0.146l0.188,0.013l0.013,0.001l-0.456,0.127c1.047-0.538,2.025-1.229,2.895-2.063
			l-0.103,0.154c0.038-0.073,0.094-0.148,0.146-0.203c-0.029,0.03-0.055,0.067-0.071,0.106l0.026-0.063l0.054-0.053
			c0.798-0.786,1.498-1.706,2.061-2.674c0.285-0.522,0.511-1.016,0.72-1.561c0.204-0.534,0.372-1.085,0.501-1.646l0.048-0.211
			l0.194,0.008l0.014,0.001l-0.241,0.197c0.242-1.055,0.345-2.145,0.307-3.232l0.308,0.073c-0.129,0.193-0.264,0.37-0.402,0.534
			L57.371,77.583z M57.142,77.389c0.133-0.172,0.25-0.344,0.353-0.514l0.266-0.438l0.043,0.511c0.095,1.114,0.038,2.242-0.154,3.349
			l-0.033,0.189l-0.208,0.009l-0.014,0.001l0.242-0.203c-0.082,0.594-0.207,1.183-0.371,1.762c-0.16,0.569-0.379,1.164-0.605,1.697
			c-0.483,1.133-1.111,2.172-1.863,3.147l0.08-0.116c-0.035,0.062-0.078,0.121-0.126,0.174c0.035-0.031,0.073-0.084,0.094-0.134
			l-0.021,0.051l-0.082,0.104c-0.818,1.036-1.798,1.969-2.906,2.735l-0.155,0.107l-0.301,0.02l-0.013,0.001l0.466-0.133
			c-0.486,0.345-0.996,0.65-1.518,0.925l-0.063,0.032l-0.044,0.008c0.047-0.008,0.01,0.011-0.053,0.041l-0.147,0.07l-0.297,0.142
			l-0.61,0.263c-0.415,0.167-0.845,0.312-1.288,0.438l0.106-0.027c-0.206,0.072-0.39,0.132-0.609,0.185l-0.505,0.118
			c-0.329,0.075-0.688,0.133-1.043,0.193h-0.003l-0.125,0.006l-0.013,0.001l0.121-0.006c-5.296,0.784-10.844-1.468-14.38-5.45
			c-1.766-1.997-3.115-4.387-3.783-6.977c-0.67-2.58-0.735-5.329-0.08-7.921c0.625-2.583,2.047-5.02,3.935-6.845
			c1.894-1.835,4.417-3.143,6.918-3.659c2.573-0.573,5.232-0.422,7.719,0.294c2.456,0.725,4.772,2.017,6.656,3.736l1.224,1.117
			l-1.604,0.262c-0.529,0.086-1.043,0.255-1.509,0.505l-0.197,0.106l-0.23-0.01c-0.129-0.005-0.258-0.015-0.396-0.007
			c-0.145,0.003-0.25,0.014-0.417,0.032c-0.325,0.035-0.538,0.079-0.801,0.167l-0.093,0.031l-0.03,0.004
			c-0.021,0.003-0.024,0.004-0.006-0.003c0.021-0.008,0.038-0.017,0.051-0.026l-0.042,0.033l-0.096,0.031
			c-0.19,0.063-0.388,0.136-0.575,0.22c-0.155,0.068-0.432,0.203-0.555,0.279c-0.369,0.218-0.711,0.463-1.023,0.742l-0.021-0.937
			c0.257,0.237,0.451,0.491,0.62,0.709l0.445,0.572l-0.601,0.341c-0.23,0.131-0.435,0.263-0.645,0.427
			c-0.221,0.174-0.387,0.311-0.592,0.521c-0.358,0.368-0.691,0.79-0.949,1.243l0.056-0.232c-0.001,0.052-0.005,0.095-0.021,0.153
			c-0.024,0.085-0.074,0.173-0.134,0.236l0.129-0.241c-0.328,1.234-0.27,2.578,0.283,3.753c0.531,1.17,1.559,2.154,2.776,2.616
			l0.06,0.022l0.033,0.034l0.013,0.015l-0.092-0.058c0.269,0.099,0.536,0.184,0.803,0.228l0.073,0.012l0.047,0.047
			c0.49,0.48,1.083,0.887,1.735,1.124l0.039,0.014l0.022,0.024l0.014,0.014l-0.061-0.037c0.581,0.211,1.2,0.326,1.813,0.347
			c0.617,0.024,1.242-0.079,1.837-0.251c0.591-0.183,1.157-0.464,1.671-0.81C56.294,78.298,56.739,77.865,57.142,77.389z"/>
	</g>
</g>
<path fill="#1D1D1B" stroke="#FFFFFF" stroke-miterlimit="10" d="M57.515,65.711c-3.168-2.886-7.363-3.911-11.179-3.129
	c-0.148,0.027-0.284,0.054-0.432,0.081c-0.594,0.163-1.16,0.337-1.727,0.566c-0.013,0-0.013,0.013-0.027,0.013
	c-0.243,0.109-0.5,0.216-0.742,0.337c-0.257,0.122-0.526,0.243-0.769,0.405c-0.351,0.188-0.715,0.418-1.038,0.688
	c-0.513,0.351-0.999,0.77-1.43,1.228c-0.135,0.135-0.283,0.27-0.418,0.418c-4.559,5.058-4.019,12.987,1.214,17.708
	c2.306,2.078,5.139,3.211,7.971,3.358c0.566,0.041,1.133,0.027,1.698-0.014c0.176,0,0.353-0.026,0.526-0.04
	c0.108-0.014,0.23-0.042,0.337-0.054c0.446-0.068,0.878-0.148,1.309-0.271c0.188-0.039,0.378-0.094,0.553-0.162h0.014
	c0.324-0.106,0.648-0.215,0.958-0.351c0.594-0.229,1.16-0.498,1.712-0.835c0.986-0.594,1.89-1.323,2.687-2.212
	c0.524-0.58,0.982-1.2,1.36-1.848c0.013,0,0.013,0,0.013,0C63.113,76.594,62.156,69.877,57.515,65.711z M57.638,76.958
	c-0.109,0.188-0.244,0.351-0.379,0.525c-0.067,0.081-0.134,0.162-0.215,0.242c-0.54,0.595-1.147,1.067-1.821,1.405
	c-0.283,0.147-0.58,0.281-0.904,0.389c-0.242,0.081-0.512,0.148-0.768,0.203c-0.202,0.04-0.405,0.081-0.607,0.094
	c-0.147,0.015-0.31,0.027-0.445,0.027c-0.715,0.014-1.416-0.107-2.09-0.337c0,0,0,0-0.014-0.014
	c-0.647-0.215-1.254-0.592-1.793-1.079c-0.015-0.014-0.027-0.027-0.041-0.041c-0.903-0.835-1.484-1.913-1.699-3.06
	c-0.095-0.473-0.122-0.945-0.095-1.417c0.014-0.351,0.068-0.714,0.149-1.064v-0.041c0.013-0.014,0.013-0.027,0.013-0.041
	c0.243-1.011,0.743-1.968,1.497-2.805v-0.014c0.096-0.093,0.177-0.202,0.257-0.283c0.378-0.364,0.783-0.66,1.2-0.916
	c0.661-0.393,1.376-0.675,2.092-0.81c0.39-0.067,0.794-0.109,1.187-0.082c1.349,0,2.669,0.458,3.708,1.416
	C59.026,71.2,59.311,74.49,57.638,76.958z"/>
<g>
	<g>
		<path d="M7.824,73.938c-0.087-0.578,0.128,1.028-0.014-0.119c-0.1-0.798-0.178-1.599-0.253-2.4
			c-0.277-2.952-0.393-5.916-0.418-8.88c-0.071-8.246,0.907-16.481,3.527-24.321c6.726-20.124,32.784-29.735,51.716-20.923
			c19.061,8.872,25.774,32.767,21.286,51.97c-3.914,16.748-17.442,28.122-23.944,43.621c-4.24,10.107-4.709,21.462-3.958,32.248
			c0.312,4.478,7.313,4.508,7,0c-0.77-11.048-0.146-22.176,4.593-32.349c3.347-7.184,8.486-13.329,12.957-19.813
			c10.957-15.893,14.942-35.51,8.802-54.081c-6.099-18.44-22.34-31.84-42.059-31.83c-10.482,0.005-22.472,4.023-30.663,10.59
			C9.51,23.17,5.414,31.017,2.974,39.366c-3.375,11.547-3.682,24.559-1.9,36.433C1.742,80.25,8.486,78.352,7.824,73.938
			L7.824,73.938z"/>
	</g>
</g>
</svg>
