<?xml version="1.0" encoding="utf-8"?>
<!-- Generator: Adobe Illustrator 15.0.0, SVG Export Plug-In  -->
<!DOCTYPE svg PUBLIC "-//W3C//DTD SVG 1.1//EN" "http://www.w3.org/Graphics/SVG/1.1/DTD/svg11.dtd" [
	<!ENTITY ns_flows "http://ns.adobe.com/Flows/1.0/">
]>
<svg version="1.1"
	 xmlns="http://www.w3.org/2000/svg" xmlns:xlink="http://www.w3.org/1999/xlink" xmlns:a="http://ns.adobe.com/AdobeSVGViewerExtensions/3.0/"
	 x="0px" y="0px" width="104px" height="114px" viewBox="-0.935 -1.54 104 114" enable-background="new -0.935 -1.54 104 114"
	 xml:space="preserve">
<defs>
</defs>
<path fill="#1D1D1B" d="M97.425,11.92c-0.511-0.62-1.45-0.63-2.101-0.03c-0.05,0.05-0.1,0.1-0.13,0.15l-0.29-0.31
	c0.03-0.08,0.101-0.14,0.17-0.18l-0.02-0.02L94.635,12l0.35,0.35c-0.31,0.55-0.3,1.23,0.08,1.7c0.12,0.07,0.23,0.17,0.32,0.29
	c0.529,0.35,1.26,0.27,1.79-0.23C97.825,13.51,97.935,12.53,97.425,11.92z M95.065,14.05c-0.49-0.32-1.19-0.27-1.73,0.17
	c-0.06,0.05-0.119,0.1-0.17,0.16l-0.33-0.35l-0.26,0.28l0.36,0.37c-0.33,0.54-0.351,1.21,0,1.69c0.46,0.63,1.39,0.7,2.07,0.14
	c0.689-0.55,0.859-1.51,0.399-2.15c-0.01-0.01-0.01-0.02-0.02-0.02c-0.11-0.06-0.21-0.15-0.301-0.26
	C95.075,14.07,95.065,14.06,95.065,14.05z M93.455,13.32l-0.02,0.02c0.01,0,0.02-0.01,0.03-0.01L93.455,13.32z M91.175,16.6
	l-0.33-0.34l-0.25,0.27l0.31,0.33c-0.47,0.57-0.54,1.35-0.149,1.87c0.46,0.6,1.369,0.62,2.05,0.05c0.67-0.57,0.84-1.51,0.38-2.11
	C92.735,16.08,91.845,16.05,91.175,16.6z M91.865,15.11l-0.1,0.12c0.03-0.04,0.069-0.07,0.12-0.1L91.865,15.11z M91.765,15.23
	l-0.101,0.11l0.021,0.02C91.705,15.31,91.725,15.27,91.765,15.23z M88.825,18.94l-0.18-0.18c0.01-0.02,0.03-0.03,0.05-0.04
	l-0.02-0.02l-0.29,0.33l0.189,0.19c-0.439,0.63-0.43,1.45,0.03,1.94c0.53,0.55,1.44,0.48,2.05-0.16c0.61-0.65,0.68-1.61,0.15-2.16
	C90.295,18.31,89.435,18.36,88.825,18.94z M90.275,16.91l-0.08,0.08c0.021-0.03,0.061-0.05,0.09-0.07L90.275,16.91z M90.125,17.07
	l-0.06,0.07l0.01,0.01C90.084,17.12,90.105,17.09,90.125,17.07z"/>
<path fill="#1D1D1B" d="M101.845,7.1c-0.511-0.59-1.46-0.55-2.13,0.09c-0.03,0.03-0.061,0.06-0.091,0.1l-0.319-0.32
	c0.95-1.22,1.64-2.43,1.68-3.07c0.11-2.15-1.71-3.9-3.82-3.9c-2.1,0-3.56,1.41-4.52,3.33c-0.15,0.3-0.25,0.71-0.3,1.19
	c-0.221,0.27-0.57,0.54-1.16,0.73c0,0-3.53,1.42-3.54,1.42c-1.46,0.66-3.2,0.87-5.33,3.16c-0.06,0.07,1.37,4.92,0.5,7.09l-49.1,54.3
	c-1.65-3.385-4.9-4.26-4.525-7.635c0.391-3.518,5.325-5.955,3.125-6.375c-2.93-0.57-9.93,3.32-13.23,7.03
	c-3.89,4.47-1.39,7.399-4,10.35c-1.66,1.87-3.66,3.25-5.86,4.13l-0.02,0.11c-2.25,0.7-4.26,1.93-5.85,3.72
	c-5.63,6.36-3.76,17.21,4.17,24.25c7.94,7.04,18.94,7.62,24.58,1.271c1.57-1.78,3.16-6.24,3.26-6.36c0.66-1.99,1.72-3.88,3.19-5.54
	c2.47-2.78,5.16-0.78,9.47-5.26c0,0,6.3-8.03,5.79-11.03c-1.27-7.55-4.333,6.247-11.667,4.413c-2.048-0.513-6.144-4.763-3.304-8.583
	l47.791-54.79l0.029,0.04l1.71-1.94l0.011,0.01l0.29-0.33l-0.011-0.01l1.391-1.56l0.01,0.01l0.06-0.07
	c0.011-0.03,0.04-0.06,0.07-0.08l0.08-0.08l-0.01-0.01l0.33-0.37l0.25-0.27l-0.011-0.01l0.82-0.92l0.01,0.01l0.101-0.11l0.1-0.12
	h-0.01l0.72-0.8l0.26-0.28l-0.01-0.01l0.351-0.39c0.04-0.13,0.13-0.23,0.26-0.29l0.02-0.02l-0.01-0.01l1.18-1.32L94.635,12
	l0.42-0.47l-0.01-0.01l1.34-1.52h0.01c0.01-0.04,0.02-0.08,0.04-0.12c0.09-0.07,0.17-0.13,0.26-0.21c0.03-0.02,0.07-0.04,0.101-0.07
	l0.439,0.46c-0.33,0.58-0.3,1.3,0.12,1.78c0.53,0.61,1.47,0.61,2.11,0c0.63-0.61,0.72-1.6,0.189-2.21c-0.52-0.61-1.47-0.61-2.1,0
	c-0.04,0.04-0.08,0.08-0.101,0.12l-0.37-0.39c0.69-0.61,1.381-1.35,1.99-2.1l0.32,0.34c-0.38,0.6-0.38,1.33,0.03,1.8
	c0.5,0.59,1.449,0.55,2.12-0.09C102.215,8.67,102.345,7.68,101.845,7.1z M14.105,109.09c-0.48,0.54-1.52,0.49-2.8-0.06
	c1.02,0.34,1.83,0.31,2.23-0.15c0.86-0.96-0.44-3.53-2.91-5.71c-2.46-2.18-5.14-3.17-6-2.2c-0.43,0.49-0.33,1.33,0.18,2.36
	c-0.76-1.26-0.98-2.37-0.49-2.92c0.9-1.021,3.83,0.1,6.53,2.5C13.545,105.3,14.995,108.08,14.105,109.09z M97.965,5.42
	c0.47,0,0.85,0.38,0.85,0.85c0,0.47-0.38,0.86-0.85,0.86c-0.471,0-0.86-0.39-0.86-0.86C97.105,5.8,97.495,5.42,97.965,5.42z
	 M95.665,7.88c0.48,0,0.86,0.38,0.86,0.85s-0.38,0.86-0.86,0.86c-0.47,0-0.85-0.39-0.85-0.86S95.195,7.88,95.665,7.88z
	 M93.505,10.21c0.47,0,0.85,0.38,0.85,0.85c0,0.48-0.38,0.86-0.85,0.86c-0.471,0-0.86-0.38-0.86-0.86
	C92.645,10.59,93.035,10.21,93.505,10.21z M91.584,12.42c0.471,0,0.86,0.38,0.86,0.85c0,0.47-0.39,0.86-0.86,0.86
	c-0.47,0-0.85-0.39-0.85-0.86C90.735,12.8,91.115,12.42,91.584,12.42z M89.584,14.54c0.471,0,0.86,0.39,0.86,0.86
	c0,0.47-0.39,0.85-0.86,0.85c-0.47,0-0.85-0.38-0.85-0.85C88.735,14.93,89.115,14.54,89.584,14.54z M87.465,17.09
	c0.47,0,0.85,0.38,0.85,0.85s-0.38,0.85-0.85,0.85c-0.48,0-0.86-0.38-0.86-0.85S86.985,17.09,87.465,17.09z M15.985,87.25
	c0.72-0.82,0.97-1.01,5.95,3.46c4.88,4.39,4.96,4.58,4.15,5.5c-0.88,0.99-0.83,1.08-5.96-3.46
	C15.165,88.34,15.045,88.29,15.985,87.25z M22.095,108.68c-0.45,0.521-1.27,0.561-1.8,0.07c-0.55-0.47-0.61-1.29-0.16-1.79
	c0.45-0.51,1.26-0.55,1.81-0.07C22.485,107.38,22.545,108.18,22.095,108.68z M26.115,108.93c-0.46,0.521-1.26,0.54-1.81,0.07
	c-0.53-0.49-0.61-1.29-0.15-1.82c0.45-0.51,1.26-0.52,1.8-0.05C26.505,107.63,26.565,108.42,26.115,108.93z M27.415,104.95
	c-0.46,0.51-1.26,0.55-1.81,0.05c-0.54-0.47-0.61-1.28-0.15-1.79c0.46-0.53,1.26-0.54,1.8-0.07
	C27.805,103.63,27.875,104.43,27.415,104.95z M30.285,91.54c-0.88,1-0.81,1.12-5.95-3.45c-4.96-4.41-5.08-4.45-4.14-5.5
	c0.72-0.81,0.97-1,5.94,3.48C31.025,90.46,31.095,90.63,30.285,91.54z M34.935,86.39c-0.87,0.99-0.8,1.101-5.94-3.47
	c-4.95-4.38-5.08-4.43-4.15-5.49c0.73-0.8,0.98-1.01,5.95,3.48C35.675,85.29,35.755,85.47,34.935,86.39z M38.215,74.9l-3.64-3.24
	l0.75-0.851l3.65,3.24L38.215,74.9z M39.405,73.61l-3.65-3.24l0.79-0.88l3.64,3.229L39.405,73.61z M40.545,72.32l-3.64-3.24
	l0.82-0.93l3.65,3.239L40.545,72.32z M41.695,71.05l-3.64-3.24l0.79-0.899l3.65,3.24L41.695,71.05z M42.835,69.729l-3.62-3.22
	l0.72-0.81l3.63,3.22L42.835,69.729z M43.965,68.5l-3.62-3.22l0.81-0.92l3.63,3.22L43.965,68.5z M45.115,67.229l-3.63-3.22l0.71-0.8
	l3.63,3.22L45.115,67.229z M46.245,65.979l-3.63-3.22l0.75-0.84l3.62,3.22L46.245,65.979z M47.375,64.69l-3.62-3.221l0.75-0.84
	l3.62,3.22L47.375,64.69z M48.485,63.479l-3.68-3.27l0.77-0.86l3.68,3.261L48.485,63.479z M49.615,62.17l-3.68-3.26l0.8-0.9
	l3.68,3.26L49.615,62.17z M50.805,60.79l-3.66-3.25l0.8-0.9l3.66,3.25L50.805,60.79z M51.985,59.44l-3.61-3.21l1-1.12l3.61,3.2
	L51.985,59.44z M53.345,57.9l-3.6-3.21l0.92-1.03l3.61,3.2L53.345,57.9z M54.705,56.3l-3.56-3.15l1.11-1.25l3.55,3.16L54.705,56.3z
	 M56.225,54.58l-3.55-3.15l1.22-1.37l3.55,3.15L56.225,54.58z M57.875,52.73l-3.56-3.15l1.43-1.62l3.561,3.16L57.875,52.73z
	 M59.715,50.58l-3.48-3.1l1.67-1.88l3.49,3.09L59.715,50.58z M61.845,48.11l-3.431-3.04l1.801-2.03l3.43,3.04L61.845,48.11z
	 M64.065,45.5l-3.36-2.98l2.15-2.42l3.36,2.98L64.065,45.5z M66.605,42.64l-3.32-2.95l2.13-2.4l3.33,2.95L66.605,42.64z
	 M69.185,39.71l-3.28-2.91l2.33-2.62l3.271,2.9L69.185,39.71z M72.015,36.51l-3.271-2.91l2.32-2.61l3.27,2.91L72.015,36.51z
	 M74.834,33.22l-3.199-2.84l2.279-2.56l3.2,2.84L74.834,33.22z M77.625,30.05l-3.17-2.81l2.25-2.53l3.16,2.81L77.625,30.05z
	 M80.445,26.77l-3.16-2.81l2.3-2.59l3.171,2.81L80.445,26.77z M83.334,23.61l-3.149-2.79l2.63-2.96l3.15,2.79L83.334,23.61z"/>
<path fill="none" stroke="#FFFFFF" stroke-width="2" stroke-miterlimit="10" d="M23.503,98.787c0,0,8.642,2.867,11.222,2.337
	c2.58-0.531,7.624-4.023,7.624-4.023"/>
<path fill="none" stroke="#1D1D1B" stroke-width="2" stroke-miterlimit="10" d="M34.793,101.082
	c2.784-0.733,7.723-4.131,7.723-4.131"/>
<path fill="#FFFFFF" d="M95.385,14.34c-0.11-0.06-0.21-0.15-0.301-0.26c-0.01-0.01-0.02-0.02-0.02-0.03
	C95.185,14.12,95.295,14.22,95.385,14.34z"/>
<path fill="#FFFFFF" d="M95.385,14.34c-0.11-0.06-0.21-0.15-0.301-0.26c-0.01-0.01-0.02-0.02-0.02-0.03
	C95.185,14.12,95.295,14.22,95.385,14.34z"/>
<polygon fill="#FFFFFF" points="88.375,19.02 88.385,19.03 86.665,20.96 "/>
<rect x="89.358" y="16.87" transform="matrix(-0.6897 -0.7241 0.7241 -0.6897 138.0235 94.983)" fill="#FFFFFF" width="0.014" height="2.089"/>
<polygon fill="#FFFFFF" points="90.265,16.9 90.595,16.53 90.275,16.91 "/>
<rect x="91.243" y="15.179" transform="matrix(-0.7071 -0.7071 0.7071 -0.7071 144.6048 91.4871)" fill="#FFFFFF" width="0.014" height="1.232"/>
<polygon fill="#FFFFFF" points="91.855,15.11 92.575,14.31 91.865,15.11 "/>
<polygon fill="#FFFFFF" points="92.825,14.02 93.175,13.63 92.834,14.03 "/>
<path fill="#FFFFFF" d="M93.435,13.34l-0.26,0.29C93.215,13.5,93.305,13.4,93.435,13.34z"/>
<rect x="94.032" y="11.769" transform="matrix(-0.7234 -0.6905 0.6905 -0.7234 153.3257 86.7407)" fill="#FFFFFF" width="0.015" height="1.771"/>
<path fill="#FFFFFF" d="M96.695,9.67l-1.64,1.86l-0.01-0.01l1.34-1.52h0.01c0.01-0.04,0.02-0.08,0.04-0.12
	C96.525,9.81,96.605,9.75,96.695,9.67z"/>
<path display="none" fill="#1D1D1B" d="M90.642,18.635c-0.678,0.004-1.293,0.32-1.705,0.81l-0.602-0.452
	c0.923-1.947,0.315-4.301-1.53-5.552c-1.26-0.839-2.477-1.334-3.517,0.015c-1.862,2.449-0.062,2.709-1.229,3.771
	c-1.247,1.151-1.694-0.101-4.847,2.021l-0.474-0.492c0.237-0.346,0.378-0.786,0.375-1.242c-0.008-1.23-1.021-2.222-2.259-2.215
	c-1.239,0.008-2.232,1.014-2.224,2.244c0.007,1.231,1.013,2.223,2.253,2.215c0.479-0.003,0.907-0.158,1.268-0.4l0.369,0.382
	c-0.39,0.29-0.827,0.628-1.295,1.023c-1.313,1.095-1.335,2.893-0.628,4.454l-0.182,0.297l0.009,0.016L32.882,70.627
	c-0.611-0.547-1.206-1.063-1.8-1.531c-0.558-0.946-2.832-1.66-0.292-5.688c1.511-2.393-4.077-0.31-5.982,1.78
	c-0.563,0.62-2.479,2.271-3.499,3.985c-1.607,2.393-0.406,3.92-2.112,5.785c-0.866,0.947-1.811,1.712-2.936,2.03
	c0.007,0.009,0.007,0.025,0.007,0.041h-0.007c-0.264-0.014-0.512,0.052-0.768,0.061c-0.199,0.008-0.391,0.026-0.59,0.051
	c-2.324,0.216-4.396,1.245-5.927,2.915c-3.992,4.373-2.591,12.147,3.124,17.368c5.715,5.223,13.583,5.915,17.574,1.551
	c1.365-1.496,2.095-3.379,2.25-5.424c-0.007-0.01-0.007-0.01-0.007-0.01c0.036-0.495,0.041-0.989,0.005-1.493v-0.08h-0.007
	c-0.011-0.304-0.044-0.616-0.094-0.919c0.016,0,0.023-0.008,0.031-0.016c0,0,0.049-1.063,1.82-2.688
	c2.01-1.854,4.225-0.46,6.227-2.223l0.008-0.009c1.646-1.336,2.836-2.679,3.46-3.729c1.431-2.438,3.481-7.837,1.239-6.129
	c-3.61,2.765-4.614,0.893-5.568,0.299c-0.5-0.588-1.063-1.175-1.665-1.764c-0.082-0.078-0.162-0.158-0.242-0.229l40.741-45.833
	l0.015,0.039l0.357-0.402l0.088-0.064c1.127,0.225,2.302,0.049,3.313-0.485l0.683,0.604c-0.221,0.345-0.346,0.752-0.343,1.2
	c0.007,1.223,1.021,2.215,2.259,2.207c1.239-0.008,2.224-1.013,2.215-2.235c-0.008-1.24-1.005-2.231-2.243-2.224
	c-0.495,0.003-0.95,0.166-1.315,0.44l-0.522-0.477c0.365-0.29,0.699-0.627,0.983-1.037l0.008,0.009l1.427-2.072l0.529,0.413
	c-0.063,0.192-0.095,0.4-0.093,0.616c0.008,1.238,1.022,2.23,2.26,2.222c1.24-0.007,2.231-1.013,2.225-2.251
	c-0.009-1.23-1.016-2.215-2.252-2.207c-0.72,0.004-1.35,0.328-1.754,0.85l-0.44-0.333l2.62-3.836l0.634,0.492
	c-0.063,0.224-0.101,0.448-0.099,0.688c0.008,1.23,1.005,2.214,2.243,2.207c1.239-0.008,2.24-1.005,2.232-2.236
	C92.894,19.627,91.88,18.626,90.642,18.635z M22.971,79.16c0.302-0.345,0.692-0.531,1.036-0.533c0.184-0.002,0.352,0.053,0.48,0.165
	l5.906,5.18c0.371,0.333,0.295,1.029-0.165,1.56c-0.469,0.529-1.147,0.695-1.524,0.36l-5.898-5.179
	C22.428,80.386,22.503,79.691,22.971,79.16z M20.519,83.012l5.907,5.182c0.37,0.334,0.293,1.027-0.166,1.559
	c-0.468,0.529-1.147,0.693-1.523,0.359l-5.899-5.18c-0.378-0.324-0.302-1.02,0.166-1.551c0.301-0.345,0.691-0.53,1.035-0.532
	C20.222,82.847,20.391,82.902,20.519,83.012z M31.166,93.38c-0.045,0.585-0.137,1.152-0.286,1.703
	c-0.038,0.169-0.085,0.336-0.14,0.497c-0.345,1.153-0.921,2.211-1.738,3.119c-3.396,3.754-9.758,3.579-14.92-0.153
	c0.152,0.058,0.304,0.103,0.456,0.142c1.153,0.29,2.222,0.074,2.825-0.665c0.958-1.187,0.322-3.302-1.429-4.712
	c-1.752-1.412-3.95-1.59-4.909-0.4c-0.468,0.578-0.558,1.386-0.322,2.215v0.009c0.042,0.135,0.09,0.262,0.139,0.391
	c-3.125-3.792-4.225-8.468-2.954-12.096c0.007-0.008,0.007-0.024,0.015-0.04c0.04-0.111,0.079-0.224,0.125-0.336
	c0.347-0.922,0.86-1.78,1.535-2.528c1.356-1.502,3.172-2.449,5.216-2.718c0.016,0.016,0.024,0.031,0.04,0.047
	c0.555,0.39,4.618,4.805,4.658,4.846c-0.296,0.034-1.042,0.806-1.136,1.181c-0.054,0.193-0.077,0.354-0.077,0.488
	c0.147,0.335,0.405,0.646,0.582,0.804l5.554,4.936c0.145,0.135,0.433,0.323,0.746,0.474c0.328,0.039,0.688-0.02,0.998-0.236
	c0.262-0.179,0.659-0.621,0.698-0.876c0.522,0.489,4.135,3.146,4.343,3.231c0.001,0.224-0.014,0.446-0.027,0.671
	C31.158,93.371,31.158,93.371,31.166,93.38z M34.306,81.037c-0.467,0.531-1.146,0.696-1.522,0.37l-5.907-5.181
	c-0.37-0.325-0.294-1.021,0.173-1.55c0.302-0.348,0.691-0.534,1.036-0.535c0.184-0.001,0.352,0.054,0.48,0.164l5.907,5.181
	C34.842,79.812,34.767,80.508,34.306,81.037z M35.028,72.603c-0.53-0.493-1.062-0.977-1.568-1.443l0.326-0.363l3.173,2.688
	l-0.444,0.491C36.033,73.516,35.534,73.063,35.028,72.603z M37.333,73.115l-3.174-2.69l0.682-0.746l3.15,2.689L37.333,73.115z
	 M38.308,72.03l-3.157-2.696l0.698-0.78l3.174,2.696L38.308,72.03z M39.301,70.97l-3.167-2.705l0.674-0.757l3.183,2.688
	L39.301,70.97z M40.276,69.853l-3.149-2.681l0.627-0.676l3.15,2.674L40.276,69.853z M41.252,68.814l-3.149-2.68l0.698-0.781
	l3.15,2.689L41.252,68.814z M42.228,67.744l-3.149-2.679l0.611-0.675l3.158,2.681L42.228,67.744z M43.205,66.685l-3.158-2.672
	l0.642-0.709l3.15,2.681L43.205,66.685z M44.172,65.6l-3.149-2.672l0.65-0.708l3.149,2.672L44.172,65.6z M45.133,64.588
	l-3.206-2.715l0.667-0.738l3.197,2.72L45.133,64.588z M46.093,63.485l-3.198-2.712l0.69-0.756l3.198,2.704L46.093,63.485z
	 M47.117,62.32l-3.183-2.713l0.691-0.747l3.182,2.697L47.117,62.32z M48.131,61.179l-3.142-2.672l0.857-0.933l3.133,2.657
	L48.131,61.179z M49.297,59.886l-3.133-2.674l0.794-0.868l3.133,2.666L49.297,59.886z M50.464,58.536l-3.102-2.619l0.96-1.06
	l3.085,2.633L50.464,58.536z M51.765,57.088l-3.078-2.616l1.04-1.158l3.085,2.618L51.765,57.088z M53.186,55.521l-3.102-2.609
	l1.23-1.359l3.094,2.625L53.186,55.521z M54.772,53.706l-3.029-2.563l1.428-1.583l3.028,2.562L54.772,53.706z M56.587,51.641
	l-2.98-2.531l1.54-1.72l2.989,2.539L56.587,51.641z M58.493,49.446l-2.917-2.483l1.84-2.041l2.918,2.482L58.493,49.446z
	 M60.675,47.035l-2.886-2.459l1.833-2.024l2.885,2.451L60.675,47.035z M62.887,44.56l-2.852-2.428l2-2.186l2.836,2.403L62.887,44.56
	z M65.309,41.867l-2.837-2.412l1.99-2.21l2.845,2.427L65.309,41.867z M67.735,39.095l-2.78-2.364l1.968-2.154l2.766,2.364
	L67.735,39.095z M70.123,36.426l-2.747-2.332l1.929-2.138l2.748,2.333L70.123,36.426z M72.543,33.654l-2.74-2.34l1.977-2.162
	l2.754,2.331L72.543,33.654z M75.027,31.009l-2.74-2.332l2.254-2.484l2.74,2.316L75.027,31.009z M78.293,22.03
	c-0.615,0.004-1.105-0.48-1.11-1.087c-0.004-0.615,0.481-1.106,1.097-1.109c0.607-0.005,1.097,0.48,1.102,1.095
	C79.386,21.536,78.9,22.026,78.293,22.03z M80.599,27.441c-0.616,0.004-1.106-0.48-1.11-1.087c-0.004-0.615,0.48-1.106,1.095-1.11
	c0.607-0.004,1.107,0.48,1.111,1.095C81.698,26.946,81.205,27.438,80.599,27.441z M83.301,24.132
	c-0.607,0.003-1.104-0.489-1.109-1.088c-0.005-0.615,0.488-1.105,1.097-1.109c0.615-0.003,1.105,0.48,1.109,1.096
	C84.402,23.629,83.917,24.128,83.301,24.132z M86.192,19.846c-0.607,0.004-1.101-0.48-1.104-1.088
	c-0.004-0.615,0.482-1.105,1.089-1.109c0.615-0.004,1.105,0.48,1.109,1.095C87.29,19.351,86.806,19.842,86.192,19.846z"/>
<path display="none" fill="none" stroke="#1D1D1B" stroke-miterlimit="10" d="M94.948,43.251
	c-10.107,9.943-17.911,8.964-31.451-2.208c-13.804-11.391-12.425-21.066-2.314-31.009C71.291,0.091,87.044-0.534,96.367,8.638
	C105.693,17.812,105.058,33.307,94.948,43.251z"/>
<g display="none">
	<path display="inline" fill="#1D1D1B" d="M92.487,5.406c-2.729,0.957-5.511,1.675-8.331,2.221c-1.417,0.241-2.851,0.409-4.26,0.684
		c-1.41,0.273-2.799,0.645-4.182,1.041c-2.763,0.806-5.551,1.493-8.354,2.117c-2.814,0.572-5.643,1.08-8.515,1.392l-0.021-0.098
		c2.734-0.931,5.513-1.665,8.306-2.335c2.804-0.619,5.622-1.174,8.467-1.61c1.421-0.226,2.836-0.475,4.229-0.823
		c1.394-0.346,2.764-0.799,4.15-1.18c2.786-0.696,5.611-1.221,8.489-1.506L92.487,5.406z"/>
</g>
<g display="none">
	<path display="inline" fill="#1D1D1B" d="M97.4,10.137c-3.481,1.106-7.01,1.994-10.58,2.692c-1.792,0.319-3.6,0.566-5.384,0.919
		c-1.783,0.36-3.548,0.803-5.306,1.276c-3.512,0.963-7.051,1.807-10.603,2.588c-3.563,0.729-7.142,1.394-10.762,1.862l-0.021-0.098
		c3.485-1.088,7.013-1.979,10.555-2.806c3.554-0.776,7.121-1.488,10.714-2.081c1.795-0.305,3.583-0.641,5.354-1.058
		c1.769-0.425,3.514-0.956,5.274-1.415c3.536-0.859,7.112-1.526,10.737-1.977L97.4,10.137z"/>
</g>
<g display="none">
	<path display="inline" fill="#1D1D1B" d="M101.422,15.724c-3.913,1.197-7.874,2.176-11.877,2.964
		c-2.008,0.364-4.031,0.656-6.031,1.055c-1.999,0.405-3.979,0.894-5.954,1.412c-3.944,1.054-7.915,1.989-11.899,2.859
		c-3.995,0.82-8.005,1.575-12.058,2.134l-0.021-0.098c3.917-1.179,7.878-2.16,11.852-3.078c3.986-0.866,7.985-1.669,12.011-2.352
		c2.011-0.351,4.015-0.731,6.001-1.194c1.984-0.47,3.946-1.047,5.923-1.551c3.968-0.949,7.977-1.708,12.033-2.248L101.422,15.724z"
		/>
</g>
<g display="none">
	<path display="inline" fill="#1D1D1B" d="M102.443,20.924c-3.831,1.24-7.712,2.264-11.637,3.097
		c-1.97,0.387-3.956,0.702-5.918,1.123c-1.96,0.428-3.9,0.938-5.835,1.479c-3.863,1.098-7.755,2.077-11.66,2.993
		c-3.919,0.864-7.852,1.665-11.83,2.27l-0.023-0.098c3.835-1.222,7.715-2.248,11.61-3.21c3.907-0.911,7.829-1.759,11.779-2.487
		c1.973-0.374,3.938-0.776,5.885-1.262c1.945-0.492,3.865-1.091,5.803-1.617c3.888-0.994,7.82-1.797,11.803-2.384L102.443,20.924z"
		/>
</g>
<g display="none">
	<path display="inline" fill="#1D1D1B" d="M103.291,27.516c-3.603,1.1-7.25,1.982-10.938,2.673
		c-1.851,0.316-3.716,0.559-5.559,0.909c-1.842,0.357-3.665,0.797-5.483,1.267c-3.632,0.957-7.289,1.794-10.959,2.568
		c-3.681,0.722-7.376,1.38-11.111,1.841l-0.021-0.098c3.606-1.082,7.253-1.967,10.913-2.788c3.672-0.769,7.356-1.475,11.066-2.061
		c1.853-0.302,3.699-0.633,5.529-1.048c1.827-0.422,3.633-0.95,5.454-1.406c3.653-0.852,7.348-1.513,11.087-1.956L103.291,27.516z"
		/>
</g>
<g display="none">
	<path display="inline" fill="#1D1D1B" d="M100.835,34.464c-2.934,0.991-5.914,1.765-8.938,2.349
		c-1.519,0.262-3.053,0.451-4.563,0.747c-1.509,0.303-3,0.689-4.484,1.104c-2.964,0.849-5.955,1.578-8.96,2.244
		c-3.017,0.615-6.047,1.165-9.121,1.519l-0.021-0.098c2.938-0.974,5.918-1.75,8.912-2.463c3.006-0.661,6.026-1.259,9.073-1.737
		c1.521-0.248,3.035-0.526,4.532-0.886c1.494-0.368,2.966-0.842,4.453-1.244c2.988-0.744,6.018-1.297,9.096-1.633L100.835,34.464z"
		/>
</g>
<g display="none">
	<path display="inline" fill="#1D1D1B" d="M96.651,41.107c-2.123,0.829-4.299,1.419-6.514,1.837
		c-1.115,0.177-2.246,0.281-3.354,0.492c-1.107,0.209-2.192,0.517-3.272,0.849c-2.157,0.678-4.34,1.237-6.538,1.733
		c-2.209,0.444-4.433,0.825-6.7,1.008l-0.021-0.098c2.129-0.803,4.302-1.409,6.488-1.951c2.199-0.491,4.412-0.918,6.651-1.227
		c1.118-0.162,2.231-0.347,3.322-0.631c1.091-0.283,2.158-0.671,3.241-0.988c2.182-0.569,4.401-0.965,6.675-1.123L96.651,41.107z"/>
</g>
<g display="none">
	<path display="inline" fill="#1D1D1B" d="M98.671,38.853c-0.669-2.594-1.096-5.218-1.347-7.863
		c-0.093-1.327-0.112-2.663-0.239-3.986c-0.126-1.323-0.353-2.633-0.603-3.94c-0.517-2.613-0.911-5.24-1.241-7.876
		c-0.278-2.642-0.491-5.292-0.504-7.968l0.1-0.013c0.643,2.597,1.085,5.219,1.463,7.849c0.325,2.636,0.586,5.281,0.726,7.94
		c0.078,1.329,0.18,2.654,0.381,3.968c0.2,1.313,0.509,2.614,0.744,3.923c0.404,2.627,0.634,5.275,0.62,7.954L98.671,38.853z"/>
</g>
<g display="none">
	<path display="inline" fill="#1D1D1B" d="M93.49,44.532c-0.768-3.372-1.315-6.772-1.668-10.196c-0.146-1.716-0.22-3.442-0.4-5.154
		c-0.188-1.71-0.461-3.411-0.764-5.107c-0.623-3.39-1.125-6.796-1.563-10.21c-0.386-3.42-0.706-6.85-0.826-10.304l0.1-0.013
		c0.75,3.374,1.3,6.774,1.784,10.182c0.433,3.415,0.801,6.837,1.048,10.275c0.133,1.718,0.295,3.432,0.542,5.136
		c0.254,1.702,0.616,3.391,0.904,5.089c0.518,3.404,0.84,6.833,0.942,10.289L93.49,44.532z"/>
</g>
<g display="none">
	<path display="inline" fill="#1D1D1B" d="M87.374,48.816c-0.832-3.853-1.442-7.734-1.859-11.64
		c-0.179-1.957-0.283-3.923-0.496-5.875c-0.221-1.952-0.524-3.892-0.859-5.829c-0.688-3.871-1.253-7.758-1.754-11.653
		c-0.449-3.902-0.833-7.812-1.018-11.748l0.1-0.013c0.813,3.855,1.427,7.736,1.976,11.625c0.497,3.896,0.929,7.8,1.239,11.719
		c0.164,1.958,0.359,3.913,0.638,5.857c0.286,1.943,0.68,3.873,1,5.811c0.581,3.885,0.968,7.794,1.134,11.732L87.374,48.816z"/>
</g>
<g display="none">
	<path display="inline" fill="#1D1D1B" d="M81.957,50.073c-0.901-3.92-1.583-7.873-2.071-11.852
		c-0.214-1.994-0.354-3.999-0.603-5.988c-0.256-1.988-0.596-3.964-0.965-5.936c-0.758-3.941-1.395-7.899-1.967-11.867
		c-0.52-3.975-0.975-7.959-1.23-11.972l0.1-0.015c0.884,3.923,1.567,7.875,2.188,11.835c0.566,3.968,1.069,7.946,1.451,11.94
		c0.2,1.996,0.431,3.988,0.744,5.968c0.321,1.979,0.751,3.942,1.106,5.916c0.651,3.956,1.109,7.94,1.347,11.956L81.957,50.073z"/>
</g>
<g display="none">
	<path display="inline" fill="#1D1D1B" d="M74.732,48.761c-0.772-3.634-1.324-7.295-1.683-10.979
		c-0.148-1.846-0.224-3.7-0.407-5.542c-0.19-1.84-0.465-3.671-0.77-5.498c-0.628-3.652-1.135-7.318-1.577-10.992
		c-0.39-3.68-0.714-7.368-0.839-11.08l0.1-0.012c0.755,3.636,1.309,7.296,1.799,10.965c0.437,3.674,0.81,7.356,1.061,11.053
		c0.135,1.848,0.3,3.691,0.549,5.524c0.257,1.833,0.621,3.652,0.912,5.481c0.521,3.665,0.849,7.352,0.955,11.066L74.732,48.761z"/>
</g>
<g display="none">
	<path display="inline" fill="#1D1D1B" d="M67.561,44.97c-0.725-3.041-1.229-6.109-1.539-9.203c-0.125-1.55-0.176-3.11-0.336-4.656
		c-0.167-1.545-0.417-3.08-0.698-4.61c-0.58-3.059-1.039-6.134-1.434-9.216c-0.342-3.089-0.619-6.187-0.696-9.31l0.1-0.013
		c0.706,3.043,1.213,6.111,1.655,9.188c0.39,3.083,0.714,6.175,0.918,9.282c0.111,1.552,0.252,3.101,0.478,4.639
		c0.232,1.537,0.572,3.06,0.84,4.593c0.474,3.072,0.753,6.169,0.813,9.295L67.561,44.97z"/>
</g>
<g display="none">
	<path display="inline" fill="#1D1D1B" d="M60.624,37.844c-0.584-1.965-0.926-3.96-1.092-5.976c-0.05-1.012-0.026-2.033-0.111-3.041
		c-0.084-1.008-0.268-2.004-0.475-2.997c-0.441-1.983-0.734-3.983-0.986-5.989c-0.2-2.012-0.318-4.033-0.248-6.078l0.1-0.012
		c0.556,1.969,0.923,3.96,1.208,5.962c0.233,2.008,0.426,4.021,0.47,6.051c0.035,1.014,0.095,2.025,0.254,3.023
		c0.157,0.999,0.424,1.985,0.616,2.979c0.319,1.998,0.463,4.016,0.364,6.064L60.624,37.844z"/>
</g>
<path display="none" fill="#1D1D1B" d="M73.119,48.096c-4.402-2.953-6.094-3.995-9.141-6.647c-1.178-1.026-2.815-2.369-4.154-3.845
	c-1.544-1.703-2.85-2.857-4.393-5.219c-0.084-0.105-0.388-0.883-0.474-0.988c-0.2,0-8.215,7.982-27.104,27.138
	C8.424,78.218-3.67,97.796,1.516,102.884c5.17,5.089,25.17-6.71,45.084-25.905C63.821,60.38,74.089,48.821,74.187,48.7
	C73.959,48.542,73.333,48.242,73.119,48.096z M46.415,55.568c0-1.067,0.927-1.924,2.065-1.924c1.153,0,2.08,0.857,2.08,1.924
	c0,1.055-0.926,1.925-2.08,1.925C47.341,57.493,46.415,56.623,46.415,55.568z"/>
<path display="none" fill="none" stroke="#FFFFFF" stroke-miterlimit="10" d="M57.612,46.919c-1.554-1.397-3.733-1.661-4.859-0.58
	L44.691,54c-0.441,0.436-0.669,1.002-0.669,1.634c0,0.95,0.498,2.004,1.438,2.848c1.553,1.398,3.718,1.649,4.857,0.58l8.047-7.672
	c0.457-0.435,0.67-1.002,0.67-1.635C59.035,48.818,58.536,47.75,57.612,46.919z M48.48,57.493c-1.139,0-2.065-0.871-2.065-1.925
	c0-1.067,0.927-1.924,2.065-1.924c1.153,0,2.08,0.857,2.08,1.924C50.56,56.623,49.633,57.493,48.48,57.493z"/>
<g display="none">
	<path display="inline" fill="#FFFFFF" d="M54.219,32.186c0.584,0.994,1.176,1.959,1.835,2.879c0.508,0.998,1.079,1.962,1.69,2.9
		c1.227,1.872,2.644,3.621,4.254,5.165c1.608,1.544,3.414,2.883,5.379,3.922c0.981,0.521,2.003,0.965,3.053,1.33
		c0.995,0.525,2.05,0.932,3.129,1.342c-1.154-0.011-2.306-0.174-3.457-0.397c-1.098-0.381-2.166-0.846-3.192-1.391
		c-2.054-1.086-3.935-2.482-5.604-4.085c-1.671-1.603-3.134-3.41-4.397-5.338c-0.634-0.965-1.212-1.963-1.749-2.984
		C54.779,34.429,54.41,33.329,54.219,32.186z"/>
</g>
<g display="none">
	<path display="inline" fill="#FFFFFF" d="M52.26,33.504c0.584,0.994,1.176,1.959,1.836,2.879c0.507,0.998,1.08,1.962,1.69,2.9
		c1.227,1.872,2.644,3.621,4.254,5.165c1.609,1.544,3.414,2.883,5.38,3.922c0.981,0.521,2.003,0.965,3.053,1.33
		c0.995,0.525,2.05,0.932,3.129,1.341c-1.154-0.011-2.306-0.174-3.457-0.396c-1.098-0.382-2.167-0.846-3.192-1.391
		c-2.055-1.086-3.936-2.482-5.604-4.085c-1.671-1.603-3.134-3.41-4.398-5.338c-0.633-0.964-1.212-1.963-1.749-2.984
		C52.82,35.747,52.451,34.647,52.26,33.504z"/>
</g>
<g display="none">
	<path display="inline" fill="#FFFFFF" d="M0,97.114c0.392,0.373,0.759,0.726,1.141,1.058c0.247,0.415,0.532,0.808,0.831,1.188
		c0.598,0.761,1.285,1.449,2.036,2.053c0.754,0.601,1.58,1.105,2.457,1.499c0.441,0.19,0.889,0.367,1.351,0.5
		c0.416,0.289,0.862,0.533,1.321,0.823c-0.527,0.105-1.066,0.145-1.609,0.134c-0.503-0.144-0.991-0.336-1.472-0.544
		c-0.956-0.429-1.854-0.979-2.672-1.63c-0.813-0.654-1.553-1.397-2.197-2.215c-0.325-0.407-0.619-0.837-0.902-1.273
		C0.137,98.187,0.012,97.66,0,97.114z"/>
</g>
<path display="none" fill="#1D1D1B" d="M0.968,82.414c0,0-1.427,0.536-0.075,3.047c1.353,2.515,2.628,1.73,2.628,1.73
	s0.3-0.247,0.413-0.658l24.668-15.94L45.95,59.39l11.49-7.497l25.532-16.476l18.922-12.027c0,0,2.254-2.966-1.05-3.624l-5.407,3.294
	c0,0,0.15-1.564-1.314-0.638c-1.464,0.926-2.703,2.533-4.955,3.09c0,0-1.805,0.186-0.79,1.606L60.612,44.664L23.215,68.141
	L0.968,82.414z"/>
<ellipse display="none" fill="#1D1D1B" stroke="#FFFFFF" stroke-miterlimit="10" cx="47.688" cy="55.913" rx="1.802" ry="1.731"/>
<ellipse display="none" fill="#1D1D1B" stroke="#FFFFFF" stroke-miterlimit="10" cx="50.885" cy="52.672" rx="2.084" ry="1.483"/>
<path display="none" fill="#1D1D1B" stroke="#FFFFFF" stroke-miterlimit="10" d="M27.831,68.022c0,0.817-0.934,1.48-2.084,1.48
	c-1.15,0-2.084-0.663-2.084-1.48c0-0.821,0.934-1.483,2.084-1.483C26.897,66.539,27.831,67.201,27.831,68.022z"/>
<path display="none" fill="#1D1D1B" d="M50.119,59.573c0,0.41-0.935,1.231-1.86,0.742c-2.281-1.205-2.759-2.465-2.759-2.873
	c0-0.409,0.534,2.44,2.759,1.391C49.202,58.388,50.119,59.164,50.119,59.573z"/>
<path display="none" fill="#1D1D1B" stroke="#FFFFFF" stroke-miterlimit="10" d="M32.812,65.163c0,0.818-0.933,1.48-2.084,1.48
	c-1.152,0-2.084-0.662-2.084-1.48c0-0.822,0.933-1.484,2.084-1.484C31.879,63.679,32.812,64.341,32.812,65.163z"/>
<ellipse display="none" fill="#1D1D1B" stroke="#FFFFFF" stroke-miterlimit="10" cx="35.177" cy="62.594" rx="2.084" ry="1.484"/>
<ellipse display="none" fill="#1D1D1B" stroke="#FFFFFF" stroke-miterlimit="10" cx="38.91" cy="59.592" rx="2.084" ry="1.483"/>
<ellipse display="none" fill="#1D1D1B" stroke="#FFFFFF" stroke-miterlimit="10" cx="54.714" cy="50.165" rx="2.084" ry="1.482"/>
<ellipse display="none" fill="#1D1D1B" stroke="#FFFFFF" stroke-miterlimit="10" cx="59.035" cy="47.277" rx="2.083" ry="1.482"/>
<ellipse display="none" fill="#1D1D1B" stroke="#FFFFFF" stroke-miterlimit="10" cx="43.738" cy="58.004" rx="1.802" ry="1.729"/>
<path display="none" fill="#FFFFFF" d="M2.74,84.477c0.579,1.01,0.718,2.154,0.292,2.448c-0.424,0.291-1.25-0.38-1.829-1.391
	c-0.578-1.007-0.632-2.206-0.199-2.481C1.461,82.76,2.162,83.468,2.74,84.477z"/>
<path display="none" fill="#FFFFFF" d="M93.175,24.38c0.229,0.334-0.248,1.311-0.851,1.517c-0.672,0.229-1.433-0.014-1.459-0.364
	c-0.034-0.438,0.274-0.292,0.643-0.584C92.031,24.535,92.906,23.981,93.175,24.38z"/>
<path display="none" fill="#FFFFFF" d="M43.094,66.688c-3.5-3.157-8.874-2.899-12.007,0.576c-3.134,3.475-2.838,8.848,0.663,12.004
	c3.496,3.151,8.871,2.894,12.004-0.581C46.887,75.211,46.589,69.839,43.094,66.688z M32.543,78.388
	c-3.004-2.71-3.256-7.328-0.567-10.312c2.687-2.979,7.306-3.202,10.31-0.493c2.999,2.705,3.251,7.323,0.566,10.302
	C40.162,80.867,35.542,81.091,32.543,78.388z"/>
<path display="none" fill="#009FE3" d="M43.094,66.688c-3.5-3.157-8.874-2.899-12.007,0.576c-3.134,3.475-2.838,8.848,0.663,12.004
	c3.496,3.151,8.871,2.894,12.004-0.581C46.887,75.211,46.589,69.839,43.094,66.688z M32.543,78.388
	c-3.004-2.71-3.256-7.328-0.567-10.312c2.687-2.979,7.306-3.202,10.31-0.493c2.999,2.705,3.251,7.323,0.566,10.302
	C40.162,80.867,35.542,81.091,32.543,78.388z"/>
<path display="none" fill="#1D1D1B" stroke="#1D1D1B" stroke-miterlimit="10" d="M43.094,66.688
	c-3.5-3.157-8.874-2.899-12.007,0.576c-3.134,3.475-2.838,8.848,0.663,12.004c3.496,3.151,8.871,2.894,12.004-0.581
	C46.887,75.211,46.589,69.839,43.094,66.688z M32.543,78.388c-3.004-2.71-3.256-7.328-0.567-10.312
	c2.687-2.979,7.306-3.202,10.31-0.493c2.999,2.705,3.251,7.323,0.566,10.302C40.162,80.867,35.542,81.091,32.543,78.388z"/>
<path display="none" fill="#1D1D1B" d="M47.922,87.748c3.827-4.466,4.59,0.254,10.204-6.697c6.697-8.291,6.378-12.118-2.095-21.497
	l32.294-36.376c1.386,0.46,2.3-0.192,3.35-1.304l0.885,0.797c-0.504,0.733-0.495,1.641,0.063,2.144
	c0.62,0.559,1.675,0.397,2.362-0.365c0.683-0.758,0.739-1.829,0.12-2.387c-0.502-0.453-1.285-0.428-1.933,0.001l-0.916-0.826
	c0.31-0.343,0.636-0.717,0.997-1.107l1.937-2.28l0.958,0.863c-0.265,0.644-0.18,1.341,0.279,1.757
	c0.62,0.559,1.671,0.393,2.353-0.366c0.689-0.762,0.747-1.824,0.128-2.383c-0.594-0.535-1.583-0.406-2.271,0.274l-0.891-0.803
	l2.963-3.491l0.166-0.185l0.834,0.753c-0.408,0.709-0.366,1.526,0.156,1.998c0.619,0.559,1.675,0.396,2.363-0.367
	c0.682-0.757,0.735-1.823,0.116-2.382c-0.538-0.484-1.403-0.42-2.074,0.097l-0.855-0.771c1.844-2.505,1.558-5.073-0.428-6.883
	l-0.938-0.854c-2.033-1.853-4.701-2.062-7.129,0.075l-1.254-1.131c0.45-0.716,0.42-1.588-0.116-2.072
	c-0.62-0.559-1.669-0.392-2.354,0.365c-0.688,0.763-0.744,1.825-0.126,2.384c0.523,0.47,1.345,0.433,2.003-0.05l1.218,1.099
	l-0.013,0.015L86.862,9.18l-0.993-0.896c0.505-0.733,0.49-1.646-0.066-2.148c-0.619-0.559-1.67-0.392-2.358,0.371
	c-0.682,0.757-0.745,1.824-0.125,2.383c0.502,0.452,1.292,0.431,1.938,0.002l0.993,0.895l-2.091,2.069
	c-0.373,0.395-0.724,0.774-1.054,1.127l-0.823-0.742c0.45-0.717,0.421-1.588-0.117-2.073c-0.619-0.559-1.67-0.392-2.351,0.365
	c-0.689,0.763-0.745,1.825-0.127,2.384c0.521,0.471,1.345,0.433,2.003-0.05l0.85,0.766c-1.006,1.198-1.518,2.26-0.928,3.6
	L48.959,53.166c-7.382-6.324-13.585-9.356-23.411,1.54c-4.012,4.448-1.899,7.251-5.163,10.396
	c-4.033,4.787-7.516-1.821-16.571,8.219c-7.14,7.918-3.072,20.83,7.199,30.093c10.272,9.264,22.141,11.362,28.937,3.146
	C49.569,94.932,43.139,93.487,47.922,87.748z M48.387,54.663l1.04-1.15l5.799,5.229l-1.04,1.152L48.387,54.663z M53.793,60.328
	l-0.895,0.993L47.1,56.092l0.896-0.992L53.793,60.328z M49.954,52.968l0.984-1.09l5.798,5.229l-0.981,1.09L49.954,52.968z
	 M51.609,51.091l1.482-1.643l5.798,5.23l-1.482,1.643L51.609,51.091z M53.66,48.858l1.306-1.448l5.799,5.229l-1.307,1.448
	L53.66,48.858z M55.802,46.483l1.925-2.134l5.797,5.229l-1.923,2.135L55.802,46.483z M58.498,43.495l1.919-2.129l5.8,5.229
	l-1.921,2.13L58.498,43.495z M74.577,25.766l3.076-3.408l5.802,5.233L80.379,31L74.577,25.766z M79.398,32.09l-3.079,3.414
	l-5.803-5.235l3.078-3.412L79.398,32.09z M96.696,9.945c0.321-0.357,0.832-0.427,1.128-0.159c0.303,0.272,0.279,0.781-0.043,1.139
	l-0.223,0.245l-1.085-0.978L96.696,9.945z M95.896,10.832l1.085,0.979l-3.23,3.583l-1.086-0.979L95.896,10.832z M92.088,15.054
	l1.084,0.979l-2.998,3.326l-1.085-0.978L92.088,15.054z M88.512,19.021l1.084,0.978l-0.281,0.312
	c-0.323,0.357-0.821,0.428-1.124,0.155c-0.297-0.268-0.283-0.776,0.04-1.133L88.512,19.021z M93,6.521
	c0.332-0.368,0.842-0.448,1.143-0.176c0.302,0.273,0.275,0.787-0.057,1.155l-0.269,0.297l-1.084-0.979L93,6.521z M92.157,7.458
	l1.084,0.979l-3.231,3.582l-1.086-0.979L92.157,7.458z M88.346,11.68l1.087,0.979l-3.001,3.327l-1.084-0.978L88.346,11.68z
	 M84.771,15.647l1.085,0.979l-0.383,0.424c-0.333,0.369-0.842,0.448-1.142,0.176c-0.303-0.272-0.276-0.786,0.056-1.154
	L84.771,15.647z M81.554,17.989l5.799,5.23l-3.073,3.408l-5.8-5.229L81.554,17.989z M69.552,31.257l5.798,5.229l-2.46,2.729
	l-5.798-5.229L69.552,31.257z M71.97,40.277l-2.46,2.727l-5.799-5.229l2.46-2.728L71.97,40.277z M63.003,38.437l5.798,5.229
	l-1.924,2.134l-5.799-5.229L63.003,38.437z M46.757,56.422l5.803,5.234l-0.666,0.736l-5.803-5.233L46.757,56.422z M45.678,57.556
	l5.803,5.233l-0.577,0.641l-5.803-5.234L45.678,57.556z M50.541,63.854l-0.577,0.639L44.16,59.26l0.577-0.64L50.541,63.854z
	 M43.695,59.714l5.798,5.229l-0.577,0.64l-5.799-5.229L43.695,59.714z M23.585,99.281l-10.266-9.26
	c-0.558-0.502-0.63-1.33-0.164-1.846c0.231-0.256,0.556-0.389,0.893-0.393c0.332-0.007,0.679,0.112,0.96,0.367l10.266,9.257
	c0.558,0.503,0.63,1.329,0.164,1.846C24.973,99.769,24.143,99.783,23.585,99.281z M30.686,80.396
	c-4.094-3.692-4.426-10.016-0.729-14.114c3.692-4.094,10.019-4.42,14.113-0.729c4.1,3.696,4.422,10.019,0.729,14.113
	C41.102,83.767,34.785,84.093,30.686,80.396z"/>
<path display="none" d="M48.102,77.74c0.255,0.23,0.269,0.619,0.038,0.875c-0.231,0.255-0.612,0.274-0.868,0.043
	c-0.255-0.23-0.281-0.618-0.05-0.874C47.452,77.529,47.847,77.509,48.102,77.74z M53.477,68.921
	c-0.079,1.185-1.855,2.804-2.437,3.445c-0.587,0.649-0.92,1.339-0.92,1.339l-0.106-0.009c-0.828,0.055-1.721,0.641-1.721,0.641
	c-0.979,0.472-1.945,2.345-1.945,2.345c-0.332,0.742-0.202,1.61-0.202,1.61c-1.787-2.63,1.825-5.64,1.825-5.64
	c0.672-0.646,0.883-1.158,0.883-1.158c0.665-0.026,2.02-0.859,2.227-1.061c0.207-0.216,1.236-1.242,1.62-2.001
	c0.491-0.959,0.365-1.889,0.341-2C53.409,67.166,53.549,67.731,53.477,68.921z M52.177,65.891c0.25,0.224,0.27,0.618,0.038,0.874
	c-0.231,0.256-0.625,0.275-0.875,0.051c-0.255-0.231-0.275-0.626-0.044-0.881C51.527,65.679,51.922,65.659,52.177,65.891z
	 M97.276,9.148c0.323-0.359,0.8-0.456,1.064-0.219c0.254,0.232,0.193,0.715-0.132,1.074l-0.226,0.249L97.05,9.396L97.276,9.148z
	 M96.471,10.039l0.925,0.85l-3.265,3.585l-0.935-0.855L96.471,10.039z M92.604,14.26l0.952,0.848l-3.041,3.336l-0.939-0.862
	L92.604,14.26z M88.995,18.239l0.938,0.848l-0.285,0.318c-0.326,0.346-0.797,0.448-1.059,0.211
	c-0.255-0.232-0.207-0.715,0.118-1.074L88.995,18.239z M94.087,6.152c0.337-0.373,0.811-0.482,1.074-0.245
	C95.417,6.15,95.357,6.635,95.026,7l-0.274,0.304l-0.933-0.855L94.087,6.152z M93.231,7.085l0.938,0.848l-3.273,3.592l-0.938-0.849
	L93.231,7.085z M89.376,11.305l0.933,0.856l-3.026,3.335l-0.94-0.861L89.376,11.305z M85.763,15.291l0.938,0.849l-0.387,0.428
	c-0.337,0.36-0.819,0.477-1.075,0.233c-0.262-0.237-0.207-0.728,0.129-1.087L85.763,15.291z M82.596,17.697l5.014,4.572
	l-3.116,3.405l-5.009-4.565L82.596,17.697z M78.643,22.055l5.017,4.584l-3.106,3.405l-5.021-4.564L78.643,22.055z M74.546,26.571
	l5.015,4.572l-3.115,3.419l-5.022-4.578L74.546,26.571z M70.458,30.969l5.009,4.578l-2.485,2.722l-5.009-4.566L70.458,30.969z
	 M67.032,34.773l5.008,4.565l-2.478,2.728l-5.021-4.564L67.032,34.773z M63.836,38.169l5.015,4.572l-1.948,2.141l-5.01-4.579
	L63.836,38.169z M66.23,45.667l-1.937,2.128l-5.02-4.564l1.941-2.134L66.23,45.667z M58.493,44.081l5.013,4.571l-1.946,2.142
	l-5.014-4.572L58.493,44.081z M55.708,47.147l5.007,4.565L59.4,53.169l-5.023-4.578L55.708,47.147z M53.801,49.188l5.022,4.577
	l-1.492,1.637l-5.028-4.571L53.801,49.188z M56.645,56.187l-0.993,1.099l-5.022-4.578l0.994-1.085L56.645,56.187z M50.091,53.263
	l5.021,4.564l-1.043,1.152l-5.028-4.569L50.091,53.263z M48.648,54.845l5.016,4.571l-0.899,0.994l-5.021-4.577L48.648,54.845z
	 M47.397,56.172l5.022,4.577l-0.675,0.733l-5.015-4.571L47.397,56.172z M46.308,57.309l5.022,4.577l-0.575,0.636l-5.021-4.578
	L46.308,57.309z M50.381,62.948l-0.58,0.642l-5.022-4.577l0.587-0.635L50.381,62.948z M44.309,59.479l5.021,4.564l-0.58,0.643
	l-5.015-4.572L44.309,59.479z M42.725,57.607c0.249,0.226,0.268,0.619,0.038,0.875c-0.231,0.255-0.626,0.275-0.875,0.051
	c-0.255-0.231-0.275-0.625-0.044-0.88C42.075,57.396,42.469,57.377,42.725,57.607z M34.849,62.433c0,0,0.487-0.94,0.464-1.776
	l-0.024-0.097c0,0,0.652-0.401,1.239-1.052c0.58-0.643,2.012-2.572,3.182-2.77c1.176-0.191,1.753-0.108,2.539,0.175
	c0,0-1.012-0.074-1.976,0.549c-0.715,0.457-1.633,1.585-1.82,1.805c-0.186,0.233-0.879,1.666-0.838,2.329
	c0,0-0.487,0.262-1.064,0.996c0,0-2.631,3.896-5.429,2.381c0,0,0.879,0.043,1.583-0.362C32.705,64.61,34.472,63.461,34.849,62.433z
	 M31.352,63.012c0.256,0.23,0.275,0.625,0.044,0.881c-0.231,0.255-0.625,0.275-0.881,0.044c-0.255-0.231-0.275-0.625-0.044-0.88
	C30.702,62.8,31.097,62.781,31.352,63.012z M12.879,100.27c-0.919-0.832-1.728-1.727-2.43-2.687l-1.411,1.562
	c0.869,0.898,1.832,1.818,2.882,2.767c0.746,0.676,1.469,1.303,2.178,1.895l1.411-1.562C14.59,101.678,13.707,101.018,12.879,100.27
	z M46.099,84.813c0.915-5.647,11.867-6.312,13.94-14.378c1.413-5.533-1.096-9.032-4.231-11.892L88.514,22.17
	c1.263,0.338,2.159-0.333,3.217-1.447l0.766,0.693c-0.523,0.732-0.585,1.592-0.097,2.021c0.533,0.494,1.529,0.279,2.224-0.488
	c0.692-0.766,0.828-1.774,0.287-2.261c-0.434-0.394-1.169-0.33-1.8,0.117l-0.794-0.718c0.313-0.345,0.648-0.718,1.013-1.106
	l1.967-2.274l0.823,0.756c-0.293,0.614-0.26,1.271,0.129,1.635c0.539,0.487,1.534,0.271,2.223-0.488
	c0.699-0.773,0.827-1.775,0.287-2.262c-0.504-0.469-1.438-0.283-2.122,0.404l-0.779-0.706l3.016-3.474l0.168-0.186l0.725,0.656
	c-0.433,0.7-0.452,1.459,0.002,1.871c0.532,0.494,1.523,0.273,2.224-0.488c0.687-0.759,0.82-1.768,0.281-2.268
	c-0.477-0.418-1.281-0.305-1.932,0.222l-0.746-0.66c1.896-2.489,1.827-4.896,0.1-6.484l-0.807-0.73
	c-1.756-1.638-4.222-1.659-6.638,0.513l-1.091-0.987c0.473-0.703,0.509-1.535,0.048-1.953c-0.539-0.487-1.529-0.265-2.225,0.488
	c-0.692,0.766-0.825,1.775-0.286,2.262c0.456,0.411,1.216,0.32,1.869-0.18l1.058,0.968l-0.021,0.021L88.175,9.04l-0.854-0.774
	c0.521-0.732,0.571-1.59,0.087-2.028c-0.538-0.486-1.521-0.259-2.214,0.494C84.5,7.498,84.359,8.5,84.905,8.994
	c0.435,0.394,1.169,0.33,1.799-0.117l0.857,0.774l-2.097,2.096c-0.374,0.388-0.732,0.768-1.056,1.128l-0.713-0.657
	c0.473-0.702,0.498-1.521,0.034-1.939c-0.538-0.487-1.523-0.272-2.222,0.488c-0.687,0.771-0.814,1.773-0.289,2.261
	c0.456,0.413,1.229,0.321,1.876-0.173l0.726,0.669c-1.02,1.198-1.574,2.228-1.116,3.457L49.687,52.96
	c-3.036-2.707-8.657-5.041-13.556-2.355c-7.266,3.997-5.878,14.136-12.179,15.442C14.273,68.051,8.73,70.393,5.459,74.01
	c-5.868,6.478-7.35,13.572,2.732,24.267l1.554-1.719c-4.32-6.741-3.795-15.804,1.836-22.031c6.754-7.472,18.278-8.046,25.742-1.297
	c7.471,6.753,8.051,18.271,1.297,25.742c-5.712,6.318-14.835,7.706-22.04,3.891l-1.548,1.713
	c12.437,9.965,19.083,6.624,24.984,0.151C45.445,98.766,44.769,92.935,46.099,84.813z"/>
<path display="none" d="M14.03,84.435c-1.759-0.043,0.128-5.457,0.128-5.457S16.025,84.48,14.03,84.435z"/>
<path display="none" d="M17.027,84.018c-1.673,0.55-1.705-5.184-1.705-5.184S18.922,83.396,17.027,84.018z"/>
<path display="none" d="M10.333,83.665c-1.487-0.94,2.915-4.613,2.915-4.613S12.02,84.731,10.333,83.665z"/>
<path display="none" d="M22.039,75.358c0.318,1.731-5.367,0.985-5.367,0.985S21.68,73.396,22.039,75.358z"/>
<path display="none" d="M20.894,72.057c1.048,1.414-4.384,3.25-4.384,3.25S19.706,70.454,20.894,72.057z"/>
<path display="none" d="M21.624,79.202c-0.593,1.656-5.141-1.835-5.141-1.835S22.294,77.324,21.624,79.202z"/>
<path display="none" d="M15.495,77.645c-0.881,1.06-1.938,0.179-1.938,0.179l1.761-2.115C15.318,75.708,16.377,76.586,15.495,77.645
	z"/>
<path display="none" d="M27.25,75.401c0.042-1.76,5.455,0.128,5.455,0.128S27.203,77.396,27.25,75.401z"/>
<path display="none" d="M27.667,78.397c-0.55-1.672,5.184-1.704,5.184-1.704S28.289,80.293,27.667,78.397z"/>
<path display="none" d="M28.018,71.704c0.94-1.488,4.614,2.914,4.614,2.914S26.953,73.39,28.018,71.704z"/>
<path display="none" d="M36.325,83.411c-1.731,0.316-0.986-5.368-0.986-5.368S38.288,83.051,36.325,83.411z"/>
<path display="none" d="M39.626,82.265c-1.413,1.048-3.25-4.385-3.25-4.385S41.229,81.076,39.626,82.265z"/>
<path display="none" d="M32.481,82.995c-1.658-0.594,1.834-5.141,1.834-5.141S34.358,83.666,32.481,82.995z"/>
<path display="none" d="M34.038,76.866c-1.058-0.881-0.177-1.938-0.177-1.938l2.115,1.761
	C35.976,76.688,35.098,77.747,34.038,76.866z"/>
<path display="none" d="M36.453,88.658c1.76,0.043-0.129,5.456-0.129,5.456S34.458,88.612,36.453,88.658z"/>
<path display="none" d="M33.456,89.074c1.673-0.549,1.706,5.186,1.706,5.186S31.563,89.697,33.456,89.074z"/>
<path display="none" d="M40.151,89.427c1.487,0.941-2.916,4.613-2.916,4.613S38.465,88.36,40.151,89.427z"/>
<path display="none" d="M28.443,97.734c-0.317-1.73,5.367-0.986,5.367-0.986S28.804,99.696,28.443,97.734z"/>
<path display="none" d="M29.589,101.037c-1.047-1.414,4.385-3.251,4.385-3.251S30.778,102.639,29.589,101.037z"/>
<path display="none" d="M28.86,93.891c0.592-1.658,5.14,1.835,5.14,1.835S28.188,95.768,28.86,93.891z"/>
<path display="none" d="M34.988,95.447c0.882-1.058,1.939-0.178,1.939-0.178l-1.762,2.117
	C35.166,97.387,34.107,96.507,34.988,95.447z"/>
<path display="none" d="M20.748,98.31l0.636-0.703l-0.863-0.78c1.34-0.207,2.648-0.153,2.631,0.821
	C23.134,98.46,21.982,98.498,20.748,98.31z"/>
<path display="none" d="M19.838,96.208l-0.912-0.824c1.406-0.901,3.409-1.938,3.807-0.726C23.049,95.598,21.37,96.025,19.838,96.208
	z"/>
<path display="none" d="M22.383,101.345c-0.549,0.872-2.017-0.255-3.159-1.35l0.811-0.897
	C21.485,99.618,22.976,100.413,22.383,101.345z"/>
<path display="none" d="M15.211,92.025l-0.918-0.83l-0.65,0.718c-0.345-1.103-0.409-2.115,0.433-2.27
	C14.906,89.49,15.165,90.717,15.211,92.025z"/>
<path display="none" d="M12.299,93.734l-0.062,0.067c-1.192-1.013-2.378-2.337-1.464-3.017c0.718-0.529,1.56,0.621,2.19,1.88
	l-0.831,0.919L12.299,93.734z"/>
<path display="none" fill="#FFFFFF" d="M13.362,94.695c-0.061-0.044-0.123-0.087-0.178-0.137l0.012-0.013L13.362,94.695z"/>
<path display="none" d="M17.096,93.729l-0.877-0.792c0.186-1.552,0.626-3.261,1.701-2.881
	C18.953,90.427,17.982,92.347,17.096,93.729z"/>
<path display="none" d="M11.954,87.15c0,0,5.014,2.29,8.734-1.721l5.965,5.392c0,0-3.546,5.555-0.63,9.927
	c0,0-0.458-6.208,3.174-10.139c3.633-3.934,9.911-4.335,9.911-4.335s-3.381-2.626-9.742,1.546l-5.872-5.305
	c0,0,3.103-4.924,0.983-9.467c0,0-0.499,6.675-3.582,9.912C17.813,86.199,11.954,87.15,11.954,87.15z"/>
<line display="none" fill="none" stroke="#1D1D1B" stroke-width="0.5" stroke-miterlimit="10" x1="15.926" y1="93.453" x2="83.726" y2="18.457"/>
<line display="none" fill="none" stroke="#1D1D1B" stroke-width="0.5" stroke-miterlimit="10" x1="16.901" y1="94.335" x2="84.703" y2="19.338"/>
<line display="none" fill="none" stroke="#1D1D1B" stroke-width="0.5" stroke-miterlimit="10" x1="18.015" y1="95.342" x2="85.815" y2="20.345"/>
<line display="none" fill="none" stroke="#1D1D1B" stroke-width="0.5" stroke-miterlimit="10" x1="18.926" y1="96.224" x2="86.728" y2="21.227"/>
<line display="none" fill="none" stroke="#1D1D1B" stroke-width="0.5" stroke-miterlimit="10" x1="20" y1="97.138" x2="87.8" y2="22.14"/>
<line display="none" fill="none" stroke="#1D1D1B" stroke-width="0.5" stroke-miterlimit="10" x1="14.97" y1="92.59" x2="82.772" y2="17.591"/>
<path display="none" stroke="#FFFFFF" stroke-width="0.25" stroke-miterlimit="10" d="M21.384,97.606l-2.16,2.389l-0.027-0.026
	l-2.616,2.894c-0.358-0.186-0.718-0.397-1.072-0.618l2.79-3.086l-5.103-4.612l-2.747,3.037c-0.253-0.329-0.488-0.667-0.704-1.025
	l2.553-2.823l-0.166-0.15l2.16-2.389L21.384,97.606z"/>
<path display="none" fill="#FFFFFF" d="M8.191,98.276c0.271,0.283,0.55,0.573,0.847,0.868L9.033,99.15l-0.897-0.812L8.191,98.276z"
	/>
<path display="none" fill="#FFFFFF" d="M14.099,103.806c0.31,0.267,0.626,0.528,0.935,0.77l-0.075,0.083l-0.898-0.812
	L14.099,103.806z"/>
<ellipse transform="matrix(0.7418 0.6706 -0.6706 0.7418 64.6528 5.6453)" display="none" fill="none" stroke="#FFFFFF" stroke-width="0.5" stroke-miterlimit="10" cx="24.995" cy="86.784" rx="19.208" ry="19.296"/>
</svg>
