<?xml version="1.0" encoding="utf-8"?>
<!-- Generator: Adobe Illustrator 15.0.0, SVG Export Plug-In  -->
<!DOCTYPE svg PUBLIC "-//W3C//DTD SVG 1.1//EN" "http://www.w3.org/Graphics/SVG/1.1/DTD/svg11.dtd" [
	<!ENTITY ns_flows "http://ns.adobe.com/Flows/1.0/">
]>
<svg version="1.1"
	 xmlns="http://www.w3.org/2000/svg" xmlns:xlink="http://www.w3.org/1999/xlink" xmlns:a="http://ns.adobe.com/AdobeSVGViewerExtensions/3.0/"
	 x="0px" y="0px" width="150px" height="150px" viewBox="-0.188 -2.002 150 150" enable-background="new -0.188 -2.002 150 150"
	 xml:space="preserve">
<defs>
</defs>
<polygon display="none" fill="#FFFFFF" stroke="#1D1D1B" stroke-miterlimit="10" points="4.585,71.891 16.214,60.726 22.03,60.726 
	10.399,71.891 "/>
<polygon display="none" fill="#FFFFFF" stroke="#1D1D1B" stroke-miterlimit="10" points="10.399,71.891 22.03,60.726 27.844,60.726 
	16.214,71.891 "/>
<polygon display="none" fill="#FFFFFF" stroke="#1D1D1B" stroke-miterlimit="10" points="16.214,71.891 27.844,60.726 
	33.659,60.726 22.03,71.891 "/>
<polygon display="none" fill="#FFFFFF" stroke="#1D1D1B" stroke-miterlimit="10" points="22.03,71.891 33.659,60.726 39.474,60.726 
	27.844,71.891 "/>
<polygon display="none" fill="#FFFFFF" stroke="#1D1D1B" stroke-miterlimit="10" points="27.844,71.891 39.474,60.726 
	45.288,60.726 33.659,71.891 "/>
<polygon display="none" fill="#FFFFFF" stroke="#1D1D1B" stroke-miterlimit="10" points="33.659,71.891 45.288,60.726 
	51.103,60.726 39.474,71.891 "/>
<polygon display="none" fill="#FFFFFF" stroke="#1D1D1B" stroke-miterlimit="10" points="39.474,71.891 51.103,60.726 
	56.917,60.726 45.288,71.891 "/>
<polygon display="none" fill="#FFFFFF" stroke="#1D1D1B" stroke-miterlimit="10" points="45.288,71.891 56.917,60.726 
	62.731,60.726 51.103,71.891 "/>
<polygon display="none" fill="#FFFFFF" stroke="#1D1D1B" stroke-miterlimit="10" points="51.103,71.891 62.731,60.726 
	68.547,60.726 56.917,71.891 "/>
<polygon display="none" fill="#FFFFFF" stroke="#1D1D1B" stroke-miterlimit="10" points="56.917,71.891 68.547,60.726 74.36,60.726 
	62.731,71.891 "/>
<polygon display="none" fill="#FFFFFF" stroke="#1D1D1B" stroke-miterlimit="10" points="62.731,71.891 74.36,60.726 80.178,60.726 
	68.547,71.891 "/>
<polygon display="none" fill="#FFFFFF" stroke="#1D1D1B" stroke-miterlimit="10" points="68.547,71.891 80.178,60.726 85.99,60.726 
	74.36,71.891 "/>
<polygon display="none" fill="#FFFFFF" stroke="#1D1D1B" stroke-miterlimit="10" points="74.36,71.891 85.99,60.726 91.804,60.726 
	80.178,71.891 "/>
<polygon display="none" fill="#FFFFFF" stroke="#1D1D1B" stroke-miterlimit="10" points="80.178,71.891 91.804,60.726 
	97.619,60.726 85.99,71.891 "/>
<polygon display="none" fill="#FFFFFF" stroke="#1D1D1B" stroke-miterlimit="10" points="85.99,71.891 97.619,60.726 
	103.435,60.726 91.804,71.891 "/>
<polygon display="none" fill="#FFFFFF" stroke="#1D1D1B" stroke-miterlimit="10" points="91.804,71.891 103.435,60.726 
	109.249,60.726 97.619,71.891 "/>
<polygon display="none" fill="#FFFFFF" stroke="#1D1D1B" stroke-miterlimit="10" points="97.619,71.891 109.249,60.726 
	115.064,60.726 103.435,71.891 "/>
<polygon display="none" fill="#FFFFFF" stroke="#1D1D1B" stroke-miterlimit="10" points="103.435,71.891 115.064,60.726 
	120.876,60.726 109.249,71.891 "/>
<polygon display="none" fill="#FFFFFF" stroke="#1D1D1B" stroke-miterlimit="10" points="109.249,71.891 120.876,60.726 
	126.693,60.726 115.064,71.891 "/>
<polygon display="none" fill="#FFFFFF" stroke="#1D1D1B" stroke-miterlimit="10" points="115.064,71.891 126.693,60.726 
	132.51,60.726 120.876,71.891 "/>
<polygon display="none" fill="#FFFFFF" stroke="#1D1D1B" stroke-miterlimit="10" points="120.876,71.891 132.51,60.726 
	138.323,60.726 126.693,71.891 "/>
<rect x="4.908" y="71.891" display="none" fill="#FFFFFF" stroke="#1D1D1B" stroke-miterlimit="10" width="5.491" height="5.273"/>
<rect x="10.723" y="71.891" display="none" fill="#FFFFFF" stroke="#1D1D1B" stroke-miterlimit="10" width="5.491" height="5.273"/>
<rect x="16.537" y="71.891" display="none" fill="#FFFFFF" stroke="#1D1D1B" stroke-miterlimit="10" width="5.493" height="5.273"/>
<rect x="22.03" y="71.891" display="none" fill="#FFFFFF" stroke="#1D1D1B" stroke-miterlimit="10" width="5.49" height="5.273"/>
<rect x="27.844" y="71.891" display="none" fill="#FFFFFF" stroke="#1D1D1B" stroke-miterlimit="10" width="5.49" height="5.273"/>
<rect x="33.982" y="71.891" display="none" fill="#FFFFFF" stroke="#1D1D1B" stroke-miterlimit="10" width="5.492" height="5.273"/>
<rect x="39.796" y="71.891" display="none" fill="#FFFFFF" stroke="#1D1D1B" stroke-miterlimit="10" width="5.492" height="5.273"/>
<rect x="45.61" y="71.891" display="none" fill="#FFFFFF" stroke="#1D1D1B" stroke-miterlimit="10" width="5.493" height="5.273"/>
<rect x="51.103" y="71.891" display="none" fill="#FFFFFF" stroke="#1D1D1B" stroke-miterlimit="10" width="5.491" height="5.273"/>
<rect x="56.917" y="71.891" display="none" fill="#FFFFFF" stroke="#1D1D1B" stroke-miterlimit="10" width="5.493" height="5.273"/>
<rect x="62.731" y="71.891" display="none" fill="#FFFFFF" stroke="#1D1D1B" stroke-miterlimit="10" width="5.492" height="5.273"/>
<rect x="68.224" y="71.891" display="none" fill="#FFFFFF" stroke="#1D1D1B" stroke-miterlimit="10" width="5.492" height="5.273"/>
<rect x="74.039" y="71.891" display="none" fill="#FFFFFF" stroke="#1D1D1B" stroke-miterlimit="10" width="5.493" height="5.273"/>
<rect x="80.178" y="71.891" display="none" fill="#FFFFFF" stroke="#1D1D1B" stroke-miterlimit="10" width="5.488" height="5.273"/>
<rect x="85.99" y="71.891" display="none" fill="#FFFFFF" stroke="#1D1D1B" stroke-miterlimit="10" width="5.492" height="5.273"/>
<rect x="91.804" y="71.891" display="none" fill="#FFFFFF" stroke="#1D1D1B" stroke-miterlimit="10" width="5.494" height="5.273"/>
<rect x="97.619" y="71.891" display="none" fill="#FFFFFF" stroke="#1D1D1B" stroke-miterlimit="10" width="5.492" height="5.273"/>
<rect x="103.435" y="71.891" display="none" fill="#FFFFFF" stroke="#1D1D1B" stroke-miterlimit="10" width="5.492" height="5.273"/>
<rect x="109.249" y="71.891" display="none" fill="#FFFFFF" stroke="#1D1D1B" stroke-miterlimit="10" width="5.492" height="5.273"/>
<rect x="114.741" y="71.891" display="none" fill="#FFFFFF" stroke="#1D1D1B" stroke-miterlimit="10" width="5.492" height="5.273"/>
<rect x="120.556" y="71.891" display="none" fill="#FFFFFF" stroke="#1D1D1B" stroke-miterlimit="10" width="5.489" height="5.273"/>
<polygon display="none" fill="#1D1D1B" points="18.799,67.684 25.691,60.746 29.136,60.648 22.244,67.781 "/>
<polygon display="none" fill="#1D1D1B" points="30.226,67.762 37.118,60.823 40.564,60.726 33.671,67.859 "/>
<polygon display="none" fill="#1D1D1B" points="36.161,67.684 43.054,60.746 46.499,60.648 39.608,67.781 "/>
<polygon display="none" fill="#1D1D1B" points="42.058,67.684 48.949,60.746 52.396,60.648 45.504,67.781 "/>
<polygon display="none" fill="#1D1D1B" points="70.848,67.606 77.74,60.667 81.186,60.57 74.293,67.704 "/>
<polygon display="none" fill="#1D1D1B" points="76.784,67.529 83.676,60.59 87.119,60.492 80.229,67.626 "/>
<polygon display="none" fill="#1D1D1B" points="82.678,67.529 89.57,60.59 93.015,60.492 86.126,67.626 "/>
<polygon display="none" fill="#1D1D1B" points="111.633,67.917 118.523,60.979 121.969,60.88 115.076,68.015 "/>
<polygon display="none" fill="#1D1D1B" points="117.568,67.839 124.458,60.9 127.905,60.802 121.012,67.937 "/>
<polygon display="none" fill="#1D1D1B" points="123.463,67.839 130.354,60.9 133.8,60.802 126.907,67.937 "/>
<polygon display="none" fill="#1D1D1B" points="13.145,67.684 20.037,60.746 23.483,60.648 16.591,67.781 "/>
<polygon display="none" fill="#1D1D1B" points="59.421,67.684 66.313,60.746 69.758,60.648 62.866,67.781 "/>
<polygon display="none" fill="#1D1D1B" points="53.768,67.684 60.66,60.746 64.104,60.648 57.212,67.781 "/>
<polygon display="none" fill="#1D1D1B" points="100.447,67.684 107.339,60.746 110.783,60.648 103.893,67.781 "/>
<polygon display="none" fill="#1D1D1B" points="94.794,67.684 101.687,60.746 105.131,60.648 98.238,67.781 "/>
<polygon display="none" fill="#1D1D1B" stroke="#FFFFFF" stroke-miterlimit="10" points="126.801,80.198 3.04,79.759 3.054,74.22 
	126.815,74.661 "/>
<path display="none" fill="#FFFFFF" d="M16.089,60.169L4.495,71.653l0.082,3.561l-2.228-0.021c0,0-0.028-4.896,0.045-4.963
	c1.493-1.335,5.692-5.927,9.99-9.833"/>
<path display="none" fill="#1D1D1B" d="M143.261,53.91l-1.521,18.754l-12.342,10.185l-3.102,0.085c0,0-0.144-11.554-0.079-11.625
	c1.621-1.783,2.982-2.657,10.745-11.714"/>
<polygon display="none" fill="#1D1D1B" points="12.111,60.8 12.111,14.809 138.222,14.463 138.323,60.726 "/>
<polygon display="none" fill="#1D1D1B" points="6.752,126.084 8.57,80.781 126.067,80.608 133.479,74.752 132.366,127.29 "/>
<polygon display="none" fill="#1D1D1B" points="126.809,72.792 126.809,78.974 133.726,73.135 132.366,127.003 145.188,111.87 
	145.979,13.941 138.222,14.517 137.679,62.946 "/>
<path display="none" fill="#1D1D1B" stroke="#FFFFFF" stroke-miterlimit="10" d="M135.011,52.015c0,4.472,0.246,7.694,0.048,8.843
	l-119.71,0.115c0.148-1.378,0.297-4.221,0.444-8.871l0.075-1.206c0.074-4.65,0.222-6.172-1.087-6.919l117.266,0.058
	c2.784,0,2.965,2.935,2.965,7.406V52.015z"/>
<path display="none" fill="#1D1D1B" d="M43.921,98.455l-8.248,9.309c0.696,0.811,1.476,1.642,2.288,2.354l9.4-8.34
	C46.267,100.866,45.057,99.739,43.921,98.455z M43.921,98.455l-8.248,9.309c0.696,0.811,1.476,1.642,2.288,2.354l9.4-8.34
	C46.267,100.866,45.057,99.739,43.921,98.455z M21.309,128.263c-1.109-1.194-2.42-2.471-3.788-3.739
	c-0.1-0.1-0.167-0.199-0.183-0.316c-0.497-1.89,8.156-6.431,3.265-13.758c-3.953-5.944-10.021-8.216-13.883-9.326
	c-1.459-0.414-2.876,6.423-1.684,12.558c0.009,0.009,0.009,0.024,0.017,0.034c1.625,4.26,5.189,9.267,11.638,15.715
	c2.205,2.205,4.302,4.005,6.274,5.463c0.373-0.024,0.705-0.141,0.979-0.365C25.354,133.384,23.878,131.013,21.309,128.263z
	 M61.204,90.737c-0.813-0.464-1.567-1.003-2.247-1.584c-0.746-0.645-1.409-1.325-1.972-1.988c-0.754-0.871-1.344-1.691-1.767-2.33
	l-11.115,9.126c0.232,0.283,1.053,1.27,2.147,2.463c0.903,1.003,1.998,2.146,3.1,3.183c0.878,0.829,1.773,1.574,2.57,2.105
	L61.204,90.737z M47.361,101.777c-1.095-0.911-2.305-2.038-3.44-3.322c-0.729-0.83-1.435-1.716-2.063-2.646l-8.099,9.559
	c0.472,0.638,1.144,1.491,1.915,2.396c0.696,0.811,1.476,1.642,2.288,2.354c0.903,0.838,1.84,1.508,2.703,1.84l9.408-8.064
	C49.409,103.428,48.438,102.707,47.361,101.777z M43.921,98.455l-8.248,9.309c0.696,0.811,1.476,1.642,2.288,2.354l9.4-8.34
	C46.267,100.866,45.057,99.739,43.921,98.455z M43.921,98.455l-8.248,9.309c0.696,0.811,1.476,1.642,2.288,2.354l9.4-8.34
	C46.267,100.866,45.057,99.739,43.921,98.455z"/>
<path display="none" fill="#1D1D1B" d="M64.479,116.84c-5.098-2.131-3.804-7.32,0.364-13.146c4.07-5.711,10.005-8.895,12.41-1.485
	c1.55-8.662,14.721-6.381,18.418-20.838c1.924-7.475,0.108-12.772-4.691-18.583l25.106-27.462l0.333,0.333l1.449-1.45l-0.298-0.299
	c0.763-0.762,2.031-2.114,3.424-3.622l2.379,2.379c-0.921,1.401-0.763,3.281,0.465,4.508c1.392,1.393,3.654,1.401,5.056,0
	s1.393-3.664,0-5.056c-1.145-1.145-2.868-1.359-4.22-0.638l-2.495-2.496c1.616-1.782,3.274-3.622,4.417-4.899l2.943,2.943
	c-0.695,1.343-0.48,3.035,0.646,4.161c1.402,1.401,3.664,1.393,5.065-0.008c1.392-1.394,1.401-3.655,0-5.057
	c-1.243-1.243-3.149-1.375-4.551-0.423l-2.926-2.926c0.207-0.223,0.314-0.348,0.314-0.348l0.141-0.041l1.933-0.556l0.978-0.613
	c0,0,0.713,0.464,2.047,0.058c0.274-0.092,1.509-1.692,1.509-1.692l-1.021-1.45l0.747-1.856l-0.654-0.838l1.573-2.304
	c0.191-1.3-2.503-2.321-2.503-2.321l-2.122,1.575l-1.301-0.738l-1.326,0.83c-1.376,1.26-2.967,1.873-3.474,2.047
	c-0.008,0.82,0.356,1.384,0.356,1.384c-0.927,0.928-1.666,2.213-1.666,2.213c-0.438,0.241-1.251,0.903-2.255,1.774l-2.52-2.52
	c0.654-1.335,0.415-2.984-0.695-4.096c-1.393-1.391-3.656-1.401-5.057,0c-1.401,1.401-1.393,3.664,0,5.056
	c1.261,1.26,3.199,1.393,4.601,0.39l2.362,2.362c-1.982,1.816-4.327,4.095-6.027,5.778l-2.594-2.595
	c1.069-1.401,0.962-3.415-0.315-4.692c-1.401-1.401-3.672-1.401-5.063-0.008c-1.401,1.401-1.401,3.671,0,5.072
	c1.068,1.069,2.66,1.318,3.979,0.73l2.734,2.736l-0.341,0.34l-0.364-0.365l-1.451,1.451l0.299,0.298L82.938,54.929
	c-4.368-3.225-10.42-5.976-17.358-4.393c-16.554,3.771-11.712,15.69-20.83,18.061c6.018,4.725,2.379,7.983-2.869,12.682
	c-4.699,4.203-11.298,4.816-12.873-0.272c-5.097,8.048-15.002,4.624-21.577,16.387c-2.966,5.305-4.791,9.979-2.396,16.287
	c-1.192-6.135,0.224-12.972,1.684-12.558c3.862,1.11,9.93,3.382,13.883,9.326c4.891,7.327-3.762,11.868-3.265,13.758l0.68-0.612
	c0,0,8.057-4.907,10.643-13.794l4.352-5.461c0,0,0.274,0.406,0.747,1.028l8.099-9.559c-0.241-0.356-0.474-0.721-0.688-1.103
	l2.867-0.828c0,0,0.025,0.024,0.066,0.082l11.115-9.126c-0.488-0.754-0.746-1.243-0.746-1.243l20.956-19.877l36.205-32.841
	l3.423,3.423l-25.032,27.37c-0.007-0.008-0.007-0.008-0.016-0.016L62.033,91.152c-0.282-0.133-0.564-0.266-0.829-0.415
	l-9.284,10.975c0.125,0.074,0.24,0.157,0.357,0.224l-1.294,2.586c0,0-0.348-0.214-0.911-0.629l-9.408,8.064
	c0.166,0.066,0.34,0.124,0.506,0.157l-5.007,4.261c0,0-9.724,2.313-14.448,11.299l-0.407,0.589c2.57,2.75,4.045,5.121,2.636,6.265
	c-0.274,0.225-0.605,0.341-0.979,0.365c12.435,9.168,20.466,5.016,23.906,3.432C58.179,133.136,57.151,120.636,64.479,116.84z
	 M113.325,29.664l10.9-10.054l-1.219,1.882l-0.008,0.008l-0.158,0.24l1.293,1.293l0.043-0.025l2.461-1.169l-10.361,10.776
	L113.325,29.664z"/>
<g display="none">
	<path display="inline" fill="#FFFFFF" d="M47.883,88.117c0.45-0.233,0.875-0.618,0.865-1.036c0.016-0.404-0.287-0.807-0.619-1.152
		c-0.682-0.736-1.536-0.968-2.435-0.631c-0.888,0.313-1.792,0.843-2.649,1.43c-0.863,0.588-1.679,1.264-2.418,2.012
		c-1.504,1.482-2.74,3.222-4.453,4.589c-0.856,0.662-1.846,1.305-3.034,1.49c-1.187,0.202-2.383-0.144-3.354-0.665l-0.153-0.083
		l-0.055-0.111c-0.2-0.407-0.341-0.792-0.455-1.215c-0.104-0.418-0.185-0.86-0.128-1.327c0.045-0.46,0.289-0.967,0.701-1.232
		c0.401-0.277,0.858-0.328,1.272-0.324l0.129,0.001l0.03,0.094c0.094,0.301,0.188,0.602,0.271,0.907l-0.092,0.039
		c-0.164-0.271-0.317-0.546-0.47-0.821l0.159,0.095c-0.374,0.078-0.735,0.211-0.969,0.432c-0.235,0.219-0.326,0.521-0.313,0.855
		c0.018,0.668,0.328,1.415,0.696,2.024l-0.208-0.193c0.917,0.395,1.863,0.61,2.779,0.473c0.919-0.123,1.814-0.587,2.643-1.174
		c1.645-1.207,3.28-2.596,4.788-4.069c0.762-0.736,1.486-1.51,2.264-2.252c0.787-0.723,1.622-1.465,2.745-1.828
		c0.552-0.177,1.206-0.242,1.816-0.043c0.604,0.204,1.086,0.624,1.424,1.07c0.331,0.438,0.688,1.01,0.556,1.685
		c-0.187,0.666-0.785,0.964-1.304,1.059L47.883,88.117z"/>
</g>
<g display="none">
	<path display="inline" fill="#FFFFFF" d="M57.504,98.055c0.094-0.519,0.39-1.118,1.056-1.306c0.676-0.134,1.247,0.225,1.686,0.556
		c0.446,0.338,0.866,0.82,1.07,1.424c0.199,0.609,0.134,1.264-0.042,1.815c-0.363,1.124-1.104,1.959-1.827,2.746
		c-0.743,0.777-1.516,1.503-2.252,2.264c-1.473,1.508-2.862,3.143-4.069,4.788c-0.587,0.828-1.05,1.725-1.173,2.643
		c-0.137,0.916,0.079,1.861,0.475,2.778l-0.193-0.206c0.608,0.367,1.355,0.678,2.022,0.695c0.335,0.013,0.636-0.079,0.855-0.314
		c0.22-0.233,0.353-0.595,0.431-0.968l0.095,0.158c-0.275-0.152-0.55-0.307-0.82-0.47l0.039-0.092
		c0.305,0.083,0.606,0.177,0.906,0.271l0.095,0.03l0,0.129c0.003,0.413-0.047,0.87-0.324,1.271
		c-0.265,0.411-0.772,0.656-1.231,0.701c-0.467,0.057-0.909-0.024-1.327-0.128c-0.422-0.113-0.807-0.255-1.214-0.455l-0.111-0.055
		l-0.082-0.152c-0.523-0.97-0.87-2.166-0.669-3.353c0.185-1.188,0.828-2.179,1.49-3.035c1.367-1.713,3.106-2.948,4.589-4.452
		c0.749-0.739,1.424-1.555,2.012-2.418c0.587-0.857,1.116-1.763,1.429-2.65c0.336-0.898,0.104-1.753-0.632-2.435
		c-0.345-0.332-0.748-0.636-1.152-0.619c-0.417-0.009-0.801,0.417-1.035,0.867L57.504,98.055z"/>
</g>
<path display="none" fill="#009FE3" d="M20.521,129.431l-4.36-4.16l1.177-1.063c0.016,0.117,0.083,0.217,0.183,0.316
	c1.367,1.269,2.678,2.545,3.788,3.739L20.521,129.431z"/>
<path display="none" fill="#1D1D1B" stroke="#FFFFFF" stroke-miterlimit="10" d="M23.945,134.527
	c-0.274,0.225-0.605,0.341-0.979,0.365c-4.352,0.389-14.53-11.861-16.983-17.962c-0.406-1.02-0.713-2.105-0.929-3.216
	c-0.008-0.01-0.008-0.025-0.017-0.034c-1.192-6.135,0.224-12.972,1.684-12.558c3.862,1.11,9.93,3.382,13.883,9.326
	c4.891,7.327-3.762,11.868-3.265,13.758c0.016,0.117,0.083,0.217,0.183,0.316c1.367,1.269,2.678,2.545,3.788,3.739
	C23.878,131.013,25.354,133.384,23.945,134.527z"/>
<path display="none" fill="#1D1D1B" d="M128.088,12.481c-1.376,1.26-2.967,1.873-3.474,2.047c0.01-0.854,0.424-1.981,2.081-3.009
	l1.235,1.052L128.088,12.481z"/>
<path display="none" fill="none" stroke="#009FE3" stroke-width="0.25" stroke-miterlimit="10" d="M124.614,14.528
	c-0.106,0.024-0.165,0.049-0.165,0.049"/>
<path display="none" fill="none" stroke="#FFFFFF" stroke-width="0.25" stroke-miterlimit="10" d="M123.425,18.127
	c0,0,4.655-2.725,9.353-7.253"/>
<path display="none" fill="none" stroke="#FFFFFF" stroke-width="0.25" stroke-miterlimit="10" d="M133.618,11.677
	c-4.917,5.213-9.559,8.976-10.611,9.814"/>
<path display="none" fill="none" stroke="#009FE3" stroke-width="0.25" stroke-miterlimit="10" d="M122.999,21.5
	c-0.142,0.107-0.216,0.166-0.216,0.166"/>
<path display="none" fill="none" stroke="#FFFFFF" stroke-width="0.25" stroke-miterlimit="10" d="M131.118,21.196
	c0,0,0.837-1.669,2.47-2.963"/>
<path display="none" fill="none" stroke="#FFFFFF" stroke-width="0.25" stroke-miterlimit="10" d="M128.107,22.59
	c0,0,2.716-4.603,7.093-9.441"/>
<path display="none" fill="none" stroke="#FFFFFF" stroke-width="0.25" stroke-miterlimit="10" d="M124.173,23.005
	c0,0,4.339-5.085,10.479-10.603"/>
<polyline display="none" fill="none" stroke="#FFFFFF" stroke-width="0.5" stroke-miterlimit="10" points="35.442,108.028 
	35.674,107.764 43.921,98.455 44.004,98.355 46.25,96.424 56.985,87.165 58.029,86.271 "/>
<polyline display="none" fill="none" stroke="#FFFFFF" stroke-width="0.5" stroke-miterlimit="10" points="32.805,105.392 
	33.036,105.126 41.284,95.818 41.367,95.718 43.613,93.786 54.348,84.528 55.392,83.632 "/>
<polyline display="none" fill="none" stroke="#FFFFFF" stroke-width="0.5" stroke-miterlimit="10" points="59.894,88.135 
	58.958,89.153 49.351,99.606 47.394,101.745 47.361,101.777 37.961,110.117 37.514,110.515 "/>
<polyline display="none" fill="none" stroke="#FFFFFF" stroke-width="0.5" stroke-miterlimit="10" points="62.239,90.479 
	61.302,91.498 51.695,101.951 49.739,104.089 49.706,104.123 40.306,112.463 39.858,112.859 "/>
<line display="none" fill="none" stroke="#009FE3" stroke-width="0.5" stroke-miterlimit="10" x1="40.664" y1="111.957" x2="40.415" y2="112.172"/>
<path display="none" fill="#1D1D1B" d="M147.356,113.845c-0.23,0.395-1.017,0.368-1.767-0.07l-1.777-1.044
	c-0.017,0.233-0.091,0.477-0.223,0.697c-0.467,0.8-1.505,1.063-2.303,0.594l-9.098-5.342c-0.81-0.475-1.077-1.502-0.608-2.301
	c0.131-0.223,0.306-0.404,0.504-0.533L11.78,35.232c-0.422,0.187-1.156,0.069-1.863-0.347l-3.538-2.076
	c-0.9-0.528-1.407-1.355-1.127-1.831c0.047-0.081,0.103-0.131,0.174-0.184c0.006-0.078,0.021-0.15,0.062-0.221
	c0.231-0.394,1.022-0.351,1.76,0.081l139.179,81.694C147.177,112.787,147.586,113.45,147.356,113.845z"/>
<path display="none" fill="none" stroke="#1D1D1B" stroke-width="0.5" stroke-miterlimit="10" d="M131.873,107.425
	c0,0-118.243-69.793-125.969-74.278l-0.244-0.936"/>
<path display="none" fill="#1D1D1B" stroke="#FFFFFF" stroke-miterlimit="10" d="M74.434,87.382c-0.912,0.2-1.834,0.322-2.731,0.38
	c-0.994,0.058-1.952,0.05-2.827-0.008c-1.16-0.068-2.164-0.2-2.922-0.324l-1.419,11.61c0.367,0.028,1.656,0.124,3.288,0.18
	c1.36,0.058,2.956,0.086,4.481,0.049c1.218-0.028,2.39-0.115,3.336-0.269L74.434,87.382z M67.61,101.718l0.757,10.07
	c1.075,0.065,2.223,0.095,3.31,0.037l0.759-10.175C71.005,101.755,69.336,101.805,67.61,101.718z M67.61,101.718l0.757,10.07
	c1.075,0.065,2.223,0.095,3.31,0.037l0.759-10.175C71.005,101.755,69.336,101.805,67.61,101.718z M75.771,101.328
	c-0.805,0.105-1.964,0.237-3.334,0.322c-1.431,0.104-3.1,0.154-4.827,0.067c-1.111-0.056-2.247-0.161-3.359-0.332l1.042,10.125
	c0.792,0.098,1.88,0.2,3.075,0.277c1.075,0.065,2.223,0.095,3.31,0.037c1.242-0.037,2.39-0.19,3.241-0.496l0.652-6.759l0.306-3.259
	C75.84,101.312,75.805,101.319,75.771,101.328z M67.61,101.718l0.757,10.07c1.075,0.065,2.223,0.095,3.31,0.037l0.759-10.175
	C71.005,101.755,69.336,101.805,67.61,101.718z M67.61,101.718l0.757,10.07c1.075,0.065,2.223,0.095,3.31,0.037l0.759-10.175
	C71.005,101.755,69.336,101.805,67.61,101.718z"/>
<path display="none" fill="#FFFFFF" d="M71.959,10.338l-0.921,2.083l-0.013,0.042l-1.841-0.011l-0.066-0.222v-0.01l-0.473-1.777
	l-0.092,1.861c0.197,0.274,0.737,0.824,1.762,0.824c0.948,0,1.486-0.655,1.684-0.994L71.959,10.338z M72.248,22.086l-4.182,0.106
	l-0.013,0.264h4.209L72.248,22.086z M65.291,111.506l-1.039-10.119c-0.105-0.021-0.21-0.031-0.316-0.053
	c-0.026,0-0.053-0.011-0.079-0.011l-0.026,0.285l0.014,0.106l0.737,9.696v0.01C64.778,111.453,65.016,111.485,65.291,111.506z
	 M65.239,87.292c-0.026-0.01-0.053-0.01-0.079-0.021l-0.041,0.476L64.068,99.22l-0.04,0.391l0.092-0.137l0.303-0.444
	c0,0,0.039,0,0.118,0.011l1.408-11.609C65.686,87.377,65.436,87.335,65.239,87.292z M74.918,111.326
	c0.053-0.011,0.092-0.032,0.145-0.053l0.513-6.703L74.918,111.326z M75.049,87.758l-0.026-0.528
	c-0.184,0.053-0.382,0.105-0.591,0.147l1.209,11.589L75.049,87.758z"/>
<path display="none" fill="#1D1D1B" d="M95.472,100.479c-5.154,1.69-7.943-2.021-9.125-7.751c-1.171-5.615,0.801-10.838,7.799-7.973
	c-5.077-5.857,5.942-12.106-1.724-22.511c-3.972-5.393-9.034-7.391-16.61-7.973l-1.683-30.145h0.473v-1.67h-0.42
	c0-0.867-0.053-2.379-0.145-4.039h3.394c0.34,1.333,1.801,2.315,3.551,2.315c1.984,0,3.603-1.29,3.603-2.897
	c0-1.607-1.618-2.897-3.603-2.897c-1.632,0-3.013,0.868-3.459,2.051h-3.564c-0.119-1.945-0.25-3.954-0.343-5.339h4.196
	c0.459,1.163,1.827,2.009,3.431,2.009c2,0,3.604-1.3,3.604-2.908c0-1.596-1.604-2.897-3.604-2.897c-1.774,0-3.221,1.015-3.549,2.369
	h-4.169c-0.015-0.243-0.027-0.381-0.027-0.381l0.013-0.021l0.053-0.085l0.987-1.427l0.263-0.909c0,0,0.84-0.148,1.498-1.142
	c0.132-0.211-0.131-1.839-0.131-1.839l-1.762-0.243l-0.789-1.491l-1.066-0.106l-0.526-2.22c-0.789-0.856-3.432,0.095-3.432,0.095
	l-0.092,0.518c0,0.032,0,0.053-0.013,0.074l-0.289,1.533l-1.46,0.328l-0.355,1.227c-0.08,1.512-0.776,2.781-1.013,3.172
	c0.579,0.476,1.236,0.592,1.236,0.592c0,1.058,0.396,2.22,0.396,2.22c-0.146,0.391-0.25,1.237-0.343,2.315h-3.59
	c-0.487-1.142-1.841-1.956-3.419-1.956c-1.985,0-3.604,1.3-3.604,2.908c0,1.607,1.618,2.896,3.604,2.896
	c1.802,0,3.274-1.036,3.551-2.421h3.379c-0.118,2.178-0.171,4.832-0.184,6.777h-3.696c-0.237-1.417-1.749-2.516-3.578-2.516
	c-1.998,0-3.616,1.3-3.616,2.897c0,1.607,1.618,2.918,3.616,2.918c1.526,0,2.841-0.772,3.367-1.872h3.893v0.391h-0.514v1.67h0.422
	l-1.828,30.251c-5.418,0.655-11.704,2.548-15.518,7.433c-9.114,11.663,2.84,15.723-1.973,22.31c7.667-0.739,7.39,3.215,6.996,8.914
	c-0.355,5.107-4.617,9.241-9.376,7.232c2.104,7.538-7.404,11.25-3.695,21.771c1.656,4.748,3.695,8.469,9.902,10.711
	c0.014,0,0.027,0.01,0.04,0.01c4.024,1.449,9.785,2.379,18.385,2.443c-0.185-0.021-0.342-0.053-0.487-0.085
	c-0.145,0-1.683-0.92-1.657-3.384l0.053-0.74c0,0,2.249-7.433-2.249-14.01l-0.789-5.636c0,0,0.171,0.032,0.474,0.064
	c0.026,0,0.052,0.01,0.079,0.01l-0.737-9.706v-0.106l0.013-0.274v-0.011c-0.289-0.052-0.591-0.104-0.881-0.179l1.053-1.534
	l0.013-0.137l0.026-0.254l1.052-11.473l0.04-0.455v-0.021c-0.395-0.074-0.619-0.127-0.619-0.127l0.763-23.421l2.407-39.597h4.879
	l1.669,30.05c-0.013,0-0.013,0-0.025,0l1.091,32.968c-0.105,0.032-0.197,0.053-0.303,0.085l0.027,0.528l0.592,11.208v0.031
	c0.144-0.021,0.289-0.042,0.408-0.074l0.934,2.222c0,0-0.406,0.084-1.105,0.169l-0.303,3.257l-0.512,6.703
	c0.119-0.032,0.224-0.085,0.33-0.138l-0.525,5.308c0,0-3.854,7.655-2.25,14.771c0.132,1.11-0.301,2.876-1.354,3.647
	c-0.276,0.201-0.632,0.307-1.012,0.35c3.143,0,5.958-0.285,8.404-0.571c15.413-1.883,18.174-8.871,19.503-11.747
	C102.6,113.431,92.947,106.854,95.472,100.479z M72.248,22.086l-4.182,0.106l-0.276,0.01l0.171-9.474l0.487-0.571
	c0,0,0.026,0.064,0.105,0.148c0.197,0.274,0.737,0.824,1.762,0.824c0.948,0,1.486-0.655,1.684-0.994
	c0.079-0.127,0.119-0.201,0.119-0.201l0.276,0.666l0.276,9.474L72.248,22.086z M69.276,135.201c0.316,0.042,0.671,0.053,1.026,0.011
	C69.96,135.212,69.605,135.212,69.276,135.201z"/>
<g display="none">
	<path display="inline" fill="#FFFFFF" d="M63.064,93.513c0.169-0.41,0.171-0.893-0.13-1.065c-0.278-0.2-0.717-0.242-1.134-0.25
		c-0.864-0.017-1.664,0.17-2.129,0.759c-0.475,0.578-0.792,1.413-1.006,2.271c-0.218,0.865-0.337,1.773-0.338,2.68
		c-0.042,1.821,0.352,3.632,0.047,5.544c-0.156,0.938-0.54,1.96-1.304,2.688c-0.756,0.732-1.719,1.099-2.638,1.328l-0.141,0.035
		l-0.098-0.028c-0.39-0.113-0.736-0.245-1.092-0.409c-0.351-0.165-0.698-0.358-1.018-0.635c-0.3-0.267-0.621-0.722-0.54-1.232
		c0.084-0.49,0.404-0.786,0.701-1.019l0.093-0.073l0.076,0.035c0.282,0.129,0.565,0.255,0.844,0.396l-0.03,0.096
		c-0.309-0.047-0.612-0.108-0.917-0.167l0.169-0.038c-0.21,0.267-0.39,0.569-0.376,0.816c0.008,0.237,0.189,0.435,0.449,0.602
		c0.506,0.343,1.212,0.549,1.853,0.668l-0.238,0.007c0.822-0.27,1.6-0.62,2.173-1.154c0.592-0.515,0.954-1.26,1.146-2.098
		c0.366-1.684,0.526-3.549,0.54-5.364c0.018-0.915-0.018-1.833,0.042-2.771c0.075-0.92,0.213-1.938,0.926-2.769
		c0.355-0.404,0.855-0.702,1.368-0.825c0.506-0.115,1.035-0.113,1.498-0.038c0.473,0.077,1.001,0.184,1.406,0.611
		c0.194,0.222,0.267,0.541,0.213,0.798c-0.046,0.26-0.17,0.476-0.33,0.656L63.064,93.513z"/>
</g>
<g display="none">
	<path display="inline" fill="#FFFFFF" d="M77.019,93.71c-0.16-0.181-0.284-0.396-0.331-0.656c-0.054-0.256,0.019-0.576,0.213-0.797
		c0.405-0.428,0.934-0.534,1.406-0.611c0.462-0.075,0.991-0.076,1.497,0.039c0.513,0.123,1.013,0.421,1.367,0.824
		c0.713,0.831,0.85,1.849,0.925,2.77c0.061,0.938,0.024,1.854,0.043,2.77c0.014,1.815,0.174,3.68,0.539,5.363
		c0.193,0.837,0.555,1.583,1.146,2.097c0.572,0.533,1.352,0.883,2.173,1.151l-0.236-0.007c0.64-0.118,1.347-0.323,1.852-0.666
		c0.26-0.167,0.44-0.364,0.447-0.602c0.014-0.246-0.166-0.55-0.376-0.816l0.169,0.038c-0.304,0.06-0.607,0.121-0.915,0.169
		l-0.031-0.096c0.278-0.141,0.561-0.269,0.842-0.397l0.076-0.035l0.094,0.074c0.296,0.231,0.616,0.527,0.701,1.017
		c0.082,0.511-0.237,0.967-0.538,1.233c-0.319,0.276-0.667,0.47-1.018,0.634c-0.357,0.164-0.703,0.296-1.093,0.408l-0.098,0.027
		l-0.14-0.034c-0.92-0.228-1.883-0.594-2.64-1.325c-0.765-0.729-1.148-1.75-1.304-2.688c-0.306-1.912,0.088-3.723,0.046-5.543
		c-0.001-0.906-0.119-1.814-0.338-2.679c-0.214-0.859-0.53-1.694-1.005-2.272c-0.466-0.588-1.265-0.774-2.129-0.758
		c-0.418,0.008-0.856,0.049-1.135,0.249c-0.301,0.173-0.299,0.654-0.129,1.064L77.019,93.71z"/>
</g>
<path display="none" fill="#1D1D1B" d="M66.322,4.14c-0.083,1.511-0.782,2.775-1.018,3.166c-0.604-0.494-1.111-1.379-0.663-2.918
	l1.632-0.105L66.322,4.14z"/>
<path display="none" fill="none" stroke="#009FE3" stroke-width="0.25" stroke-miterlimit="10" d="M65.304,7.305
	c-0.059,0.076-0.083,0.124-0.083,0.124"/>
<path display="none" fill="none" stroke="#FFFFFF" stroke-width="0.25" stroke-miterlimit="10" d="M67.023,10.052
	c0,0,1.376-4.233,1.497-9.523"/>
<path display="none" fill="none" stroke="#FFFFFF" stroke-width="0.25" stroke-miterlimit="10" d="M69.691,0.506
	c0.213,5.81-0.414,10.63-0.569,11.715"/>
<path display="none" fill="none" stroke="#009FE3" stroke-width="0.25" stroke-miterlimit="10" d="M69.125,12.23
	c-0.024,0.142-0.037,0.219-0.037,0.219"/>
<path display="none" fill="none" stroke="#FFFFFF" stroke-width="0.25" stroke-miterlimit="10" d="M74.699,7.4
	c0,0-0.593-1.438-0.351-3.116"/>
<path display="none" fill="none" stroke="#FFFFFF" stroke-width="0.25" stroke-miterlimit="10" d="M73.546,9.926
	c0,0-1.346-4.199-1.674-9.484"/>
<path display="none" fill="none" stroke="#FFFFFF" stroke-width="0.25" stroke-miterlimit="10" d="M71.035,12.42
	c0,0-0.533-5.404-0.088-12.09"/>
<polyline display="none" fill="none" stroke="#FFFFFF" stroke-width="0.5" stroke-miterlimit="10" points="68.391,112.075 
	68.367,111.79 67.61,101.721 67.598,101.617 67.823,99.22 68.875,87.754 68.981,86.641 "/>
<polyline display="none" fill="none" stroke="#FFFFFF" stroke-width="0.5" stroke-miterlimit="10" points="64.745,112.233 
	64.72,111.949 63.964,101.879 63.953,101.773 64.176,99.378 65.23,87.913 65.336,86.8 "/>
<polyline display="none" fill="none" stroke="#FFFFFF" stroke-width="0.5" stroke-miterlimit="10" points="71.643,86.641 
	71.702,87.762 72.304,99.269 72.436,101.617 72.436,101.654 71.677,111.829 71.643,112.313 "/>
<polyline display="none" fill="none" stroke="#FFFFFF" stroke-width="0.5" stroke-miterlimit="10" points="74.895,86.322 
	74.954,87.446 75.556,98.949 75.686,101.299 75.686,101.338 74.93,111.511 74.895,111.994 "/>
<path display="none" fill="#1D1D1B" d="M139.169,51.224c0.092,0.359-0.374,0.794-1.054,0.972l-1.618,0.421
	c0.125,0.145,0.22,0.326,0.272,0.528c0.189,0.727-0.255,1.473-0.98,1.661l-8.282,2.155c-0.736,0.192-1.48-0.243-1.669-0.971
	c-0.052-0.202-0.057-0.408-0.017-0.595L16.323,83.894c-0.135,0.35-0.623,0.702-1.267,0.87l-3.221,0.838
	c-0.818,0.213-1.584,0.031-1.697-0.402c-0.019-0.072-0.015-0.132-0.004-0.204c-0.042-0.048-0.075-0.1-0.091-0.163
	c-0.094-0.359,0.384-0.789,1.056-0.965l126.677-32.969C138.458,50.721,139.074,50.866,139.169,51.224z"/>
<path display="none" fill="none" stroke="#1D1D1B" stroke-width="0.5" stroke-miterlimit="10" d="M126.605,56.422
	c0,0-107.845,27.786-114.849,29.644l-0.676-0.396"/>
<g display="none">
	<polygon display="inline" fill="#1D1D1B" points="70.929,135.065 70.039,147.498 68.929,135.083 	"/>
</g>
<path display="none" fill="none" stroke="#1D1D1B" stroke-width="2" stroke-miterlimit="10" d="M52.432,39.94
	c0,13.901-7.522,25.175-16.8,25.175S18.831,53.841,18.831,39.94c0-13.903,7.523-25.173,16.801-25.173S52.432,26.037,52.432,39.94z"
	/>
<ellipse display="none" fill="#1D1D1B" cx="34.662" cy="39.815" rx="9.369" ry="14.041"/>
<ellipse display="none" fill="none" stroke="#1D1D1B" stroke-width="2" stroke-miterlimit="10" cx="86.202" cy="38.594" rx="18.668" ry="27.975"/>
<path display="none" fill="#1D1D1B" d="M95.537,38.455c0,8.617-4.665,15.6-10.414,15.6c-5.745,0-10.409-6.983-10.409-15.6
	c0-8.615,4.664-15.6,10.409-15.6C90.872,22.855,95.537,29.84,95.537,38.455z"/>
<path display="none" fill="none" stroke="#1D1D1B" stroke-width="2" stroke-miterlimit="10" d="M51.972,102.113
	c0,13.903-7.522,25.178-16.8,25.178c-9.278,0-16.8-11.274-16.8-25.178c0-13.901,7.522-25.172,16.8-25.172
	C44.45,76.941,51.972,88.212,51.972,102.113z"/>
<ellipse display="none" fill="#1D1D1B" cx="34.202" cy="101.988" rx="9.369" ry="14.042"/>
<path display="none" fill="none" stroke="#1D1D1B" stroke-width="2" stroke-miterlimit="10" d="M104.381,104.506
	c0,15.447-8.356,27.972-18.666,27.972c-10.311,0-18.668-12.524-18.668-27.972c0-15.451,8.358-27.974,18.668-27.974
	C96.024,76.532,104.381,89.055,104.381,104.506z"/>
<path display="none" fill="#1D1D1B" d="M95.051,104.365c0,8.619-4.666,15.602-10.415,15.602c-5.746,0-10.41-6.982-10.41-15.602
	c0-8.615,4.664-15.599,10.41-15.599C90.385,88.767,95.051,95.75,95.051,104.365z"/>
<polygon display="none" fill="none" stroke="#1D1D1B" stroke-miterlimit="10" points="113.816,143.043 9.748,131.246 9.748,10.354 
	113.451,1.507 "/>
<polygon display="none" fill="none" stroke="#1D1D1B" stroke-miterlimit="10" points="140.201,139.498 113.816,143.254 
	113.816,1.488 138.979,2.742 "/>
<g display="none">
	<polygon display="inline" fill="#1D1D1B" points="9.528,12.131 22.7,28.098 35.792,44.13 61.849,76.296 87.726,108.606 
		100.6,124.814 113.392,141.087 100.218,125.121 87.126,109.089 61.071,76.923 35.196,44.61 22.321,28.403 	"/>
</g>
<g display="none">
	<polygon display="inline" fill="#1D1D1B" points="19.996,9.063 31.952,23.519 43.827,38.04 67.451,67.184 90.894,96.474 
		102.551,111.17 114.127,125.933 102.17,111.478 90.295,96.956 66.672,67.811 43.23,38.52 31.573,23.824 	"/>
</g>
<g display="none">
	<path display="inline" fill="#1D1D1B" d="M32.67,8.038c6.949,8.299,13.812,16.667,20.663,25.045l20.455,25.212l20.275,25.357
		l10.073,12.73l9.991,12.796l-10.373-12.489L93.463,84.135L73.009,58.922L52.736,33.563C46.01,25.085,39.297,16.596,32.67,8.038z"/>
</g>
<g display="none">
	<path display="inline" fill="#1D1D1B" d="M45.343,7.015c5.862,6.949,11.639,13.967,17.402,20.995L79.94,49.172l17.015,21.308
		l8.443,10.705l8.361,10.771l-8.743-10.464l-8.66-10.53L79.162,49.799L62.149,28.49C56.51,21.361,50.884,14.223,45.343,7.015z"/>
</g>
<g display="none">
	<path display="inline" fill="#1D1D1B" d="M59.945,7.015c4.676,5.477,9.266,11.022,13.844,16.579l13.636,16.745l13.456,16.891
		l6.664,8.497c2.193,2.855,4.413,5.689,6.582,8.563c-2.346-2.732-4.642-5.504-6.964-8.255l-6.881-8.322L86.647,40.965L73.192,24.073
		C68.74,18.417,64.3,12.75,59.945,7.015z"/>
</g>
<g display="none">
	<path display="inline" fill="#1D1D1B" d="M72.341,4.967c3.597,4.137,7.108,8.343,10.607,12.559
		c3.5,4.215,6.931,8.486,10.399,12.726c3.406,4.291,6.846,8.555,10.22,12.871l5.046,6.487c1.653,2.185,3.334,4.349,4.964,6.553
		c-1.807-2.062-3.563-4.165-5.346-6.246l-5.263-6.312c-3.499-4.216-6.932-8.485-10.398-12.727
		c-3.404-4.292-6.847-8.554-10.219-12.872C78.978,13.689,75.617,9.362,72.341,4.967z"/>
</g>
<g display="none">
	<path display="inline" fill="#1D1D1B" d="M85.566,4.967c2.51,2.788,4.935,5.644,7.347,8.511c2.421,2.86,4.78,5.769,7.14,8.678
		c2.34,2.924,4.68,5.849,6.958,8.823l3.416,4.463c1.109,1.511,2.246,3,3.333,4.529c-1.263-1.387-2.476-2.815-3.715-4.222
		l-3.633-4.288c-2.42-2.86-4.78-5.769-7.139-8.679c-2.339-2.925-4.679-5.85-6.957-8.824C90.029,10.991,87.755,8.013,85.566,4.967z"
		/>
</g>
<g display="none">
	<path display="inline" fill="#1D1D1B" d="M97.688,3.433c1.5,1.533,2.915,3.135,4.316,4.748c1.41,1.605,2.76,3.26,4.108,4.915
		c1.331,1.67,2.66,3.341,3.929,5.061l1.9,2.581c0.605,0.884,1.237,1.746,1.818,2.648c-0.758-0.76-1.466-1.561-2.2-2.34l-2.117-2.406
		c-1.41-1.606-2.76-3.26-4.107-4.916c-1.33-1.671-2.659-3.341-3.928-5.062C100.13,6.948,98.866,5.225,97.688,3.433z"/>
</g>
<g display="none">
	<path display="inline" fill="#1D1D1B" d="M9.803,30.043c7.417,9.041,14.748,18.149,22.065,27.268l21.856,27.433l21.675,27.576
		l10.773,13.84l10.69,13.904l-11.074-13.601l-10.992-13.666L52.941,85.363L31.268,57.786C24.075,48.568,16.896,39.339,9.803,30.043z
		"/>
</g>
<g display="none">
	<path display="inline" fill="#1D1D1B" d="M9.803,48.975c6.101,7.377,12.115,14.823,18.116,22.278l17.907,22.444l17.726,22.587
		l8.798,11.345l8.716,11.41l-9.1-11.105l-9.018-11.172L45.043,94.317L27.318,71.729C21.442,64.174,15.58,56.608,9.803,48.975z"/>
</g>
<g display="none">
	<path display="inline" fill="#1D1D1B" d="M9.528,66.376c4.845,5.791,9.604,11.649,14.351,17.519l14.142,17.685l13.96,17.827
		l6.916,8.965l6.833,9.03l-7.218-8.726l-7.134-8.792l-14.141-17.686L23.278,84.37C18.657,78.401,14.05,72.423,9.528,66.376z"/>
</g>
<g display="none">
	<path display="inline" fill="#1D1D1B" d="M9.803,85.82c3.483,4.069,6.88,8.207,10.264,12.354
		c3.386,4.146,6.702,8.349,10.056,12.521c3.291,4.222,6.615,8.416,9.874,12.663l4.873,6.383c1.596,2.15,3.218,4.279,4.79,6.448
		c-1.75-2.028-3.448-4.097-5.174-6.145l-5.091-6.209c-3.384-4.148-6.702-8.348-10.054-12.521c-3.289-4.223-6.616-8.416-9.873-12.664
		C16.208,94.403,12.962,90.146,9.803,85.82z"/>
</g>
<g display="none">
	<path display="inline" fill="#1D1D1B" d="M9.528,101.685c2.282,2.551,4.477,5.17,6.66,7.8c2.192,2.622,4.322,5.293,6.452,7.964
		c2.111,2.687,4.22,5.374,6.269,8.109l3.07,4.104c0.995,1.392,2.017,2.761,2.988,4.171c-1.149-1.27-2.247-2.578-3.372-3.866
		l-3.289-3.933c-2.191-2.622-4.321-5.293-6.45-7.965c-2.11-2.688-4.22-5.374-6.268-8.11C13.53,107.23,11.486,104.491,9.528,101.685z
		"/>
</g>
<g display="none">
	<path display="inline" fill="#1D1D1B" d="M9.528,115.501c2.62,2.677,5.001,5.541,7.325,8.452c2.3,2.93,4.541,5.906,6.542,9.072
		c-2.621-2.675-5.003-5.54-7.325-8.452C13.771,121.643,11.531,118.666,9.528,115.501z"/>
</g>
<g display="none">
	<path display="inline" fill="#1D1D1B" d="M107.519,1.985c-5.14,11.187-10.379,22.327-15.632,33.459L76.015,68.788l-16.081,33.244
		l-8.115,16.586l-8.209,16.541l7.768-16.753l7.863-16.707l15.874-33.343l16.083-33.243C96.594,24.049,102.007,12.994,107.519,1.985z
		"/>
</g>
<g display="none">
	<path display="inline" fill="#1D1D1B" d="M113.407,15.134c-4.672,10.211-9.442,20.376-14.229,30.533L84.71,76.084l-14.677,30.317
		l-7.413,15.124l-7.508,15.077l7.066-15.29l7.161-15.243l14.47-30.417l14.679-30.317C103.418,35.248,108.363,25.167,113.407,15.134z
		"/>
</g>
<g display="none">
	<path display="inline" fill="#1D1D1B" d="M113.307,41.847c-3.658,8.1-7.416,16.152-11.188,24.197L90.691,90.125l-11.637,23.981
		l-5.893,11.955l-5.987,11.909l5.545-12.121l5.641-12.076L89.79,89.692l11.639-23.98C105.345,57.736,109.276,49.768,113.307,41.847z
		"/>
</g>
<g display="none">
	<path display="inline" fill="#1D1D1B" d="M113.463,68.024c-2.633,5.964-5.365,11.88-8.112,17.789
		c-2.744,5.91-5.57,11.781-8.352,17.674l-8.561,17.573l-4.354,8.751c-1.484,2.901-2.938,5.818-4.449,8.706
		c1.308-2.986,2.673-5.944,4.008-8.918l4.103-8.872l8.354-17.673c2.856-5.856,5.669-11.733,8.563-17.572
		C107.552,79.643,110.458,73.81,113.463,68.024z"/>
</g>
<g display="none">
	<path display="inline" fill="#1D1D1B" d="M114.224,95.11c-1.662,3.941-3.424,7.835-5.199,11.721
		c-1.774,3.888-3.629,7.736-5.439,11.606c-1.884,3.835-3.729,7.688-5.648,11.506l-2.898,5.717c-0.999,1.891-1.967,3.795-2.993,5.672
		c0.822-1.975,1.702-3.922,2.552-5.884l2.646-5.838c1.776-3.887,3.628-7.736,5.44-11.605c1.887-3.833,3.728-7.688,5.65-11.505
		C110.254,102.683,112.189,98.873,114.224,95.11z"/>
</g>
<g display="none">
	<path display="inline" fill="#1D1D1B" d="M113.977,123.215c-1.161,3.327-2.595,6.523-4.096,9.688
		c-1.527,3.151-3.124,6.269-4.996,9.255c1.158-3.328,2.593-6.524,4.096-9.688C110.51,129.319,112.106,126.202,113.977,123.215z"/>
</g>
<g display="none">
	<path display="inline" fill="#1D1D1B" d="M93.273,3.88c-5.088,10.884-10.274,21.72-15.476,32.549L62.084,68.861l-15.923,32.331
		l-8.035,16.129l-8.13,16.083l7.689-16.298l7.784-16.252l15.716-32.431l15.924-32.33C82.455,25.335,87.815,14.583,93.273,3.88z"/>
</g>
<g display="none">
	<path display="inline" fill="#1D1D1B" d="M78.201,5.345C73.249,15.951,68.198,26.51,63.132,37.061l-15.308,31.6l-15.516,31.498
		l-7.832,15.713l-7.927,15.667l7.486-15.882l7.581-15.835l15.309-31.599l15.518-31.497C67.654,26.244,72.878,15.771,78.201,5.345z"
		/>
</g>
<g display="none">
	<path display="inline" fill="#1D1D1B" d="M64.334,6.181c-4.327,9.326-8.752,18.604-13.192,27.875L37.711,61.815l-13.64,27.657
		l-6.893,13.793l-6.988,13.746l6.548-13.961l6.643-13.915l13.433-27.758L50.454,33.72C55.038,24.52,59.637,15.326,64.334,6.181z"/>
</g>
<g display="none">
	<path display="inline" fill="#1D1D1B" d="M48.867,8.193c-3.047,6.707-6.193,13.366-9.353,20.018l-9.593,19.901l-9.8,19.8
		l-4.974,9.864l-5.069,9.817l4.628-10.032l4.723-9.986l9.594-19.9l9.802-19.799C42.13,21.293,45.449,14.719,48.867,8.193z"/>
</g>
<g display="none">
	<path display="inline" fill="#1D1D1B" d="M36.222,8.908c-1.987,4.537-4.072,9.025-6.172,13.506
		c-2.098,4.482-4.276,8.925-6.411,13.389c-2.208,4.429-4.375,8.877-6.619,13.288l-3.383,6.608c-1.161,2.187-2.29,4.388-3.478,6.562
		c0.984-2.273,2.026-4.517,3.038-6.776l3.133-6.73c2.1-4.481,4.275-8.925,6.412-13.388c2.209-4.428,4.375-8.877,6.621-13.287
		C31.606,17.667,33.865,13.263,36.222,8.908z"/>
</g>
<g display="none">
	<path display="inline" fill="#1D1D1B" d="M25.222,9.976c-1.083,2.687-2.264,5.325-3.46,7.956c-1.186,2.636-2.442,5.237-3.699,7.839
		c-1.278,2.591-2.558,5.181-3.908,7.737l-2.027,3.833c-0.709,1.261-1.387,2.538-2.123,3.786c0.532-1.348,1.123-2.667,1.682-4.001
		l1.777-3.955c1.187-2.636,2.443-5.238,3.701-7.838c1.279-2.59,2.559-5.181,3.909-7.737C22.414,15.035,23.769,12.481,25.222,9.976z"
		/>
</g>
<path display="none" fill="none" stroke="#1D1D1B" stroke-width="2" stroke-miterlimit="10" d="M91.055,73.984
	c0,26.202-16.388,47.445-36.597,47.445c-20.21,0-36.594-21.243-36.594-47.445c0-26.204,16.384-47.439,36.594-47.439
	C74.667,26.544,91.055,47.78,91.055,73.984z"/>
<path display="none" fill="#1D1D1B" d="M72.757,73.75c0,14.612-9.142,26.456-20.408,26.456c-11.271,0-20.41-11.844-20.41-26.456
	c0-14.613,9.139-26.458,20.41-26.458C63.615,47.292,72.757,59.137,72.757,73.75z"/>
<polygon display="none" fill="none" stroke="#1D1D1B" stroke-miterlimit="10" points="106.278,133.386 3.104,123.611 3.104,23.423 
	105.912,16.091 "/>
<polygon display="none" fill="none" stroke="#1D1D1B" stroke-miterlimit="10" points="146.151,129.176 106.278,133.589 
	106.278,15.979 142.521,18.111 "/>
<g display="none">
	<path display="inline" fill="#1D1D1B" d="M2.885,24.431c8.73,8.853,17.381,17.781,26.02,26.721l25.828,26.905l25.66,27.064
		l12.771,13.588l12.694,13.662l-13.049-13.323l-12.973-13.396L54.01,78.746L28.351,51.68C19.828,42.63,11.317,33.568,2.885,24.431z"
		/>
</g>
<g display="none">
	<path display="inline" fill="#1D1D1B" d="M13.264,21.861c7.926,8.009,15.772,16.095,23.607,24.191l23.415,24.375l23.247,24.535
		l11.564,12.324l11.487,12.396l-11.843-12.059L82.977,95.493L59.563,71.117L36.317,46.581
		C28.599,38.374,20.892,30.156,13.264,21.861z"/>
</g>
<g display="none">
	<path display="inline" fill="#1D1D1B" d="M25.828,21.004c6.879,6.912,13.679,13.9,20.466,20.899l20.274,21.083l20.106,21.243
		l9.994,10.678l9.917,10.751L96.313,95.245L86.117,84.76L65.845,63.675L45.74,42.432C39.068,35.322,32.408,28.201,25.828,21.004z"/>
</g>
<g display="none">
	<path display="inline" fill="#1D1D1B" d="M38.394,20.147c5.802,5.783,11.524,11.641,17.234,17.511l17.042,17.694l16.875,17.854
		l8.377,8.983l8.302,9.057l-8.656-8.718l-8.579-8.792L71.947,56.042L55.074,38.186C49.479,32.206,43.897,26.214,38.394,20.147z"/>
</g>
<g display="none">
	<path display="inline" fill="#1D1D1B" d="M52.869,20.147c4.625,4.55,9.172,9.176,13.706,13.813
		c4.536,4.635,9.007,9.333,13.513,13.996l13.347,14.157l6.613,7.135c2.178,2.403,4.381,4.783,6.537,7.208
		c-2.32-2.268-4.594-4.581-6.892-6.869l-6.815-6.942L79.365,48.646c-4.446-4.721-8.928-9.409-13.345-14.158
		C61.602,29.741,57.196,24.981,52.869,20.147z"/>
</g>
<g display="none">
	<path display="inline" fill="#1D1D1B" d="M65.161,18.435c3.556,3.429,7.032,6.933,10.497,10.449
		c3.466,3.514,6.867,7.09,10.304,10.632c3.378,3.598,6.787,7.166,10.136,10.792l5.009,5.453c1.644,1.843,3.312,3.662,4.933,5.525
		c-1.785-1.707-3.523-3.459-5.287-5.187l-5.211-5.26c-3.464-3.516-6.867-7.09-10.302-10.634c-3.377-3.6-6.788-7.165-10.135-10.793
		C71.754,25.786,68.418,22.148,65.161,18.435z"/>
</g>
<g display="none">
	<path display="inline" fill="#1D1D1B" d="M78.27,18.435c2.479,2.299,4.878,4.674,7.266,7.061c2.396,2.378,4.734,4.811,7.072,7.244
		c2.321,2.449,4.642,4.9,6.905,7.404l3.394,3.759c1.104,1.278,2.233,2.533,3.316,3.832c-1.247-1.143-2.446-2.33-3.672-3.493
		l-3.595-3.566c-2.395-2.379-4.734-4.812-7.071-7.246c-2.32-2.45-4.641-4.9-6.904-7.405C82.709,23.527,80.45,21.019,78.27,18.435z"
		/>
</g>
<g display="none">
	<path display="inline" fill="#1D1D1B" d="M90.288,17.149c2.94,2.512,5.661,5.233,8.329,8.005c2.646,2.793,5.236,5.639,7.605,8.695
		c-2.942-2.51-5.663-5.231-8.329-8.005C95.25,23.049,92.659,20.204,90.288,17.149z"/>
</g>
<g display="none">
	<path display="inline" fill="#1D1D1B" d="M3.158,39.422c7.343,7.533,14.606,15.142,21.857,22.761l21.663,22.943l21.494,23.101
		l10.687,11.607l10.61,11.679L78.502,120.17l-10.891-11.416L45.95,85.81L24.457,62.707C17.322,54.978,10.2,47.238,3.158,39.422z"/>
</g>
<g display="none">
	<path display="inline" fill="#1D1D1B" d="M3.158,55.27C9.196,61.41,15.154,67.626,21.1,73.853l17.748,18.766l17.579,18.924
		l8.729,9.518l8.652,9.591l-9.01-9.255l-8.933-9.327L38.119,93.302L20.542,74.377C14.712,68.04,8.895,61.692,3.158,55.27z"/>
</g>
<g display="none">
	<path display="inline" fill="#1D1D1B" d="M2.885,69.833c4.794,4.813,9.508,9.702,14.209,14.601
		c4.703,4.898,9.341,9.857,14.015,14.783l13.846,14.941l6.863,7.527c2.261,2.533,4.547,5.044,6.786,7.599
		c-2.404-2.399-4.762-4.844-7.144-7.264l-7.066-7.336L30.381,99.9c-4.613-4.982-9.262-9.932-13.845-14.942
		C11.951,79.949,7.378,74.929,2.885,69.833z"/>
</g>
<g display="none">
	<path display="inline" fill="#1D1D1B" d="M3.158,86.11c3.443,3.372,6.807,6.819,10.158,10.278c3.353,3.457,6.64,6.976,9.963,10.46
		c3.264,3.54,6.56,7.051,9.795,10.619l4.837,5.365c1.585,1.813,3.197,3.604,4.76,5.438c-1.729-1.679-3.411-3.402-5.118-5.103
		l-5.041-5.175c-3.351-3.459-6.641-6.975-9.962-10.461c-3.262-3.542-6.561-7.051-9.793-10.62C9.523,93.344,6.3,89.765,3.158,86.11z"
		/>
</g>
<g display="none">
	<path display="inline" fill="#1D1D1B" d="M2.885,99.388c2.252,2.102,4.424,4.277,6.584,6.465c2.168,2.18,4.28,4.413,6.391,6.647
		c2.094,2.25,4.186,4.501,6.221,6.805l3.051,3.459c0.99,1.178,2.005,2.333,2.974,3.531c-1.134-1.044-2.22-2.132-3.332-3.195
		l-3.254-3.269c-2.168-2.181-4.279-4.413-6.389-6.648c-2.093-2.25-4.185-4.502-6.22-6.807C6.868,104.079,4.836,101.771,2.885,99.388
		z"/>
</g>
<g display="none">
	<path display="inline" fill="#1D1D1B" d="M2.885,110.951c2.578,2.177,4.936,4.56,7.239,6.994c2.281,2.454,4.506,4.961,6.509,7.677
		c-2.58-2.175-4.937-4.559-7.239-6.994C7.115,116.172,4.89,113.665,2.885,110.951z"/>
</g>
<g display="none">
	<path display="inline" fill="#1D1D1B" d="M100.033,15.937c-5.101,9.391-10.297,18.728-15.507,28.056L68.788,71.917l-15.94,27.81
		l-8.041,13.864l-8.133,13.813l7.707-14.055l7.798-14.002l15.74-27.924L83.86,43.615C89.21,34.365,94.574,25.124,100.033,15.937z"/>
</g>
<g display="none">
	<path display="inline" fill="#1D1D1B" d="M105.87,26.942c-4.637,8.575-9.368,17.095-14.115,25.607L77.408,78.026l-14.547,25.361
		l-7.345,12.641l-7.437,12.588l7.011-12.83l7.103-12.778L76.54,77.532l14.55-25.36C95.975,43.738,100.875,35.313,105.87,26.942z"/>
</g>
<g display="none">
	<path display="inline" fill="#1D1D1B" d="M105.77,49.304c-3.632,6.807-7.358,13.559-11.101,20.303L83.337,89.778l-11.533,20.058
		l-5.838,9.988l-5.93,9.936l5.503-10.178l5.595-10.126l11.333-20.171l11.535-20.057C97.884,62.563,101.779,55.906,105.77,49.304z"/>
</g>
<g display="none">
	<path display="inline" fill="#1D1D1B" d="M105.928,71.213c-2.615,5.02-5.326,9.984-8.052,14.94
		c-2.723,4.958-5.524,9.872-8.283,14.81c-2.828,4.898-5.62,9.817-8.483,14.695l-4.313,7.307c-1.47,2.418-2.91,4.853-4.406,7.255
		c1.299-2.515,2.654-4.997,3.979-7.497l4.071-7.444c2.726-4.957,5.523-9.872,8.284-14.809c2.831-4.896,5.619-9.817,8.486-14.694
		C100.075,80.897,102.954,76.028,105.928,71.213z"/>
</g>
<g display="none">
	<path display="inline" fill="#1D1D1B" d="M106.683,93.886c-1.653,3.326-3.401,6.598-5.165,9.861c-1.753,3.27-3.574,6.5-5.396,9.729
		c-1.843,3.219-3.687,6.437-5.598,9.615l-2.87,4.768c-0.988,1.571-1.947,3.159-2.962,4.715c0.817-1.668,1.691-3.304,2.536-4.957
		l2.627-4.905c1.754-3.269,3.575-6.499,5.397-9.729c1.844-3.218,3.688-6.436,5.6-9.614
		C102.754,100.185,104.671,97.008,106.683,93.886z"/>
</g>
<g display="none">
	<path display="inline" fill="#1D1D1B" d="M106.436,117.41c-1.16,2.837-2.585,5.524-4.073,8.175
		c-1.515,2.636-3.095,5.234-4.941,7.682c1.158-2.838,2.583-5.525,4.073-8.175C103.011,122.457,104.591,119.858,106.436,117.41z"/>
</g>
<g display="none">
	<path display="inline" fill="#1D1D1B" d="M85.915,17.525c-5.05,9.138-10.194,18.221-15.353,27.295L54.979,71.982L39.195,99.027
		l-7.963,13.482l-8.054,13.429l7.63-13.675l7.722-13.621l15.585-27.161l15.785-27.045C75.197,35.442,80.509,26.456,85.915,17.525z"
		/>
</g>
<g display="none">
	<path display="inline" fill="#1D1D1B" d="M70.967,18.75c-4.915,8.905-9.924,17.756-14.948,26.598L40.84,71.812L25.461,98.16
		l-7.76,13.134l-7.852,13.08l7.428-13.326l7.519-13.272l15.18-26.464l15.38-26.348C60.518,36.202,65.695,27.448,70.967,18.75z"/>
</g>
<g display="none">
	<path display="inline" fill="#1D1D1B" d="M57.219,19.448c-4.294,7.834-8.684,15.613-13.088,23.384L30.813,66.083L17.294,89.218
		l-6.831,11.526l-6.922,11.474l6.498-11.719l6.589-11.666l13.32-23.25l13.521-23.134C48.011,34.758,52.568,27.075,57.219,19.448z"/>
</g>
<g display="none">
	<path display="inline" fill="#1D1D1B" d="M41.886,21.132c-3.026,5.642-6.147,11.228-9.283,16.806
		c-3.133,5.58-6.344,11.114-9.513,16.673c-3.239,5.519-6.44,11.059-9.713,16.557L8.45,79.405c-1.674,2.728-3.318,5.473-5.019,8.185
		c1.504-2.826,3.064-5.619,4.595-8.43l4.686-8.377c3.136-5.578,6.344-11.114,9.515-16.672c3.241-5.518,6.439-11.059,9.715-16.556
		C35.215,32.057,38.503,26.567,41.886,21.132z"/>
</g>
<g display="none">
	<path display="inline" fill="#1D1D1B" d="M29.351,21.731c-1.975,3.825-4.044,7.595-6.128,11.356
		c-2.082,3.763-4.242,7.48-6.359,11.223c-2.187,3.702-4.337,7.425-6.559,11.107L6.953,60.93c-1.148,1.819-2.267,3.655-3.442,5.459
		c0.979-1.917,2.013-3.803,3.018-5.705l3.109-5.652c2.084-3.761,4.241-7.481,6.361-11.222c2.189-3.701,4.336-7.426,6.561-11.106
		C24.782,29.022,27.019,25.349,29.351,21.731z"/>
</g>
<g display="none">
	<path display="inline" fill="#1D1D1B" d="M18.446,22.626c-1.079,2.276-2.252,4.498-3.44,6.71c-1.178,2.219-2.424,4.398-3.671,6.577
		c-1.267,2.167-2.536,4.333-3.871,6.461l-2.007,3.189c-0.701,1.045-1.372,2.107-2.098,3.137c0.53-1.143,1.117-2.254,1.674-3.382
		l1.765-3.329c1.179-2.218,2.425-4.397,3.672-6.576c1.268-2.167,2.537-4.333,3.873-6.46C15.669,26.82,17.01,24.696,18.446,22.626z"
		/>
</g>
<rect x="34.793" y="98.709" display="none" fill="#1D1D1B" stroke="#1D1D1B" stroke-width="3" stroke-miterlimit="10" width="25.078" height="10.151"/>
<rect x="91.518" y="98.709" display="none" fill="#1D1D1B" stroke="#1D1D1B" stroke-width="3" stroke-miterlimit="10" width="25.078" height="10.151"/>
<path display="none" fill="none" stroke="#1D1D1B" stroke-width="4" stroke-miterlimit="10" d="M145.225,71.21
	c0,17.263,3.626,41.498-11.809,50.828c-7.389,4.465-28.184,13.094-59.647,13.094c-29.005,0-48.275-7.164-55.221-14.359
	C5.599,107.359,5.136,91.428,5.136,73.008c0-35.304,43.361-62.125,69.099-62.125C98.746,10.883,145.225,35.905,145.225,71.21z"/>
<rect x="69.424" y="28.997" display="none" fill="#1D1D1B" stroke="#1D1D1B" stroke-width="3" stroke-miterlimit="10" width="12.837" height="23.735"/>
<path display="none" fill="none" stroke="#1D1D1B" stroke-width="4" stroke-miterlimit="10" d="M145.225,71.21
	c0,17.263,3.626,41.498-11.809,50.828c-7.389,4.465-28.184,13.094-59.647,13.094c-29.005,0-48.275-7.164-55.221-14.359
	C5.599,107.359,5.136,91.428,5.136,73.008c0-35.304,43.361-62.125,69.099-62.125C98.746,10.883,145.225,35.905,145.225,71.21z"/>
<circle display="none" fill="#1D1D1B" stroke="#1D1D1B" stroke-width="3" stroke-miterlimit="10" cx="43.097" cy="76.556" r="12.859"/>
<circle display="none" fill="#1D1D1B" stroke="#1D1D1B" stroke-width="3" stroke-miterlimit="10" cx="110.514" cy="75.972" r="12.859"/>
<g>
	<g>
		<path fill="#1D1D1B" d="M140.749,79.455c-38.166,0-76.331,0-114.497,0c0.583,0.583,1.167,1.167,1.75,1.75
			c0-22.093,0-44.185,0-66.278c-0.583,0.583-1.167,1.167-1.75,1.75c38.166,0,76.331,0,114.497,0c-0.583-0.583-1.167-1.167-1.75-1.75
			c0,22.093,0,44.185,0,66.278c0,2.257,3.5,2.257,3.5,0c0-22.093,0-44.185,0-66.278c0-0.954-0.796-1.75-1.75-1.75
			c-38.166,0-76.331,0-114.497,0c-0.954,0-1.75,0.796-1.75,1.75c0,22.093,0,44.185,0,66.278c0,0.954,0.796,1.75,1.75,1.75
			c38.166,0,76.331,0,114.497,0C143.006,82.955,143.006,79.455,140.749,79.455z"/>
	</g>
</g>
<g>
	<g>
		<path fill="#1D1D1B" d="M115.593,117.647c-37.941,0-75.883,0-113.825,0c0.504,0.878,1.007,1.756,1.511,2.633
			c6.771-10.268,13.542-20.536,20.312-30.804c1.369-2.076,2.737-4.151,4.105-6.227c1.517-2.301-0.381-0.524-0.183-0.524
			c3.152,0,6.304,0,9.456,0c29.396-0.001,58.793-0.001,88.188-0.001c5.258,0,10.516,0,15.771,0c-0.504-0.878-1.008-1.756-1.51-2.633
			c-8.447,12.807-16.892,25.615-25.338,38.423c-1.246,1.89,1.787,3.641,3.023,1.766c8.445-12.808,16.891-25.614,25.336-38.423
			c0.742-1.127-0.238-2.633-1.512-2.633c-23.75,0-47.501,0-71.252,0c-12.615,0-25.23,0.001-37.846,0.001
			c-1.524,0-5.212-0.69-6.24,0.866c-2.462,3.734-4.924,7.469-7.386,11.202c-5.983,9.073-11.966,18.147-17.949,27.221
			c-0.743,1.126,0.239,2.633,1.511,2.633c37.942,0,75.884,0,113.825,0C117.85,121.147,117.85,117.647,115.593,117.647z"/>
	</g>
</g>
<polygon fill="none" stroke="#1D1D1B" stroke-width="3" stroke-miterlimit="10" points="126.69,102.707 12.54,102.707 
	3.283,118.666 115.375,119.998 "/>
<line fill="none" stroke="#1D1D1B" stroke-width="0.5" stroke-miterlimit="10" x1="14.617" y1="97.665" x2="130.081" y2="97.665"/>
<line fill="none" stroke="#1D1D1B" stroke-width="0.5" stroke-miterlimit="10" x1="17.562" y1="92.262" x2="135.106" y2="92.262"/>
<line fill="none" stroke="#1D1D1B" stroke-width="0.5" stroke-miterlimit="10" x1="21.061" y1="87.398" x2="136.611" y2="87.398"/>
<line fill="none" stroke="#1D1D1B" stroke-width="0.5" stroke-miterlimit="10" x1="34.749" y1="82.266" x2="21.061" y2="102.258"/>
<line fill="none" stroke="#1D1D1B" stroke-width="0.5" stroke-miterlimit="10" x1="41.593" y1="82.716" x2="27.905" y2="102.707"/>
<line fill="none" stroke="#1D1D1B" stroke-width="0.5" stroke-miterlimit="10" x1="47.781" y1="82.716" x2="34.093" y2="102.707"/>
<line fill="none" stroke="#1D1D1B" stroke-width="0.5" stroke-miterlimit="10" x1="54.625" y1="82.716" x2="40.937" y2="102.707"/>
<line fill="none" stroke="#1D1D1B" stroke-width="0.5" stroke-miterlimit="10" x1="61.469" y1="82.266" x2="47.781" y2="102.258"/>
<line fill="none" stroke="#1D1D1B" stroke-width="0.5" stroke-miterlimit="10" x1="68.313" y1="82.266" x2="54.625" y2="102.258"/>
<line fill="none" stroke="#1D1D1B" stroke-width="0.5" stroke-miterlimit="10" x1="75.157" y1="82.716" x2="61.469" y2="102.707"/>
<line fill="none" stroke="#1D1D1B" stroke-width="0.5" stroke-miterlimit="10" x1="81.204" y1="82.266" x2="67.516" y2="102.258"/>
<line fill="none" stroke="#1D1D1B" stroke-width="0.5" stroke-miterlimit="10" x1="88.046" y1="82.266" x2="74.359" y2="102.258"/>
<line fill="none" stroke="#1D1D1B" stroke-width="0.5" stroke-miterlimit="10" x1="94.891" y1="82.716" x2="81.204" y2="102.707"/>
<path fill="#FFFFFF" stroke="#1D1D1B" stroke-width="0.5" stroke-miterlimit="10" d="M94.894,102.707l13.685-19.991L94.894,102.707z
	"/>
<polygon fill="#1D1D1B" stroke="#1D1D1B" stroke-miterlimit="10" points="114.35,82.716 100.665,102.707 94.894,102.707 
	108.578,82.716 "/>
<line fill="none" stroke="#1D1D1B" stroke-width="0.5" stroke-miterlimit="10" x1="121.196" y1="82.706" x2="108.499" y2="102.707"/>
<line fill="none" stroke="#1D1D1B" stroke-width="0.5" stroke-miterlimit="10" x1="129.48" y1="82.706" x2="116.632" y2="102.239"/>
<polygon fill="none" stroke="#1D1D1B" stroke-width="0.5" stroke-miterlimit="10" points="115.189,92.262 108.134,92.262 
	104.593,97.665 111.65,97.665 "/>
<polygon fill="none" stroke="#1D1D1B" stroke-width="0.5" stroke-miterlimit="10" points="131.499,92.262 123.195,92.262 
	119.882,97.665 127.836,97.665 "/>
<polyline fill="#FFFFFF" stroke="#1D1D1B" stroke-width="0.5" stroke-miterlimit="10" points="101.24,83.223 98.745,87.208 
	95.312,92.152 "/>
<line fill="none" stroke="#1D1D1B" stroke-width="0.5" stroke-miterlimit="10" x1="91.343" y1="97.665" x2="88.048" y2="102.707"/>
<polygon fill="none" stroke="#1D1D1B" stroke-width="0.5" stroke-miterlimit="10" points="74.845,114.235 42.474,114.235 
	49.679,106.55 82.051,106.55 "/>
</svg>
