<?xml version="1.0" encoding="utf-8"?>
<!-- Generator: Adobe Illustrator 15.0.0, SVG Export Plug-In  -->
<!DOCTYPE svg PUBLIC "-//W3C//DTD SVG 1.1//EN" "http://www.w3.org/Graphics/SVG/1.1/DTD/svg11.dtd" [
	<!ENTITY ns_flows "http://ns.adobe.com/Flows/1.0/">
]>
<svg version="1.1"
	 xmlns="http://www.w3.org/2000/svg" xmlns:xlink="http://www.w3.org/1999/xlink" xmlns:a="http://ns.adobe.com/AdobeSVGViewerExtensions/3.0/"
	 x="0px" y="0px" width="150px" height="150px" viewBox="0.29 -2.002 150 150" enable-background="new 0.29 -2.002 150 150"
	 xml:space="preserve">
<defs>
</defs>
<polygon display="none" fill="#FFFFFF" stroke="#1D1D1B" stroke-miterlimit="10" points="5.063,71.891 16.692,60.726 22.508,60.726 
	10.877,71.891 "/>
<polygon display="none" fill="#FFFFFF" stroke="#1D1D1B" stroke-miterlimit="10" points="10.877,71.891 22.508,60.726 
	28.322,60.726 16.692,71.891 "/>
<polygon display="none" fill="#FFFFFF" stroke="#1D1D1B" stroke-miterlimit="10" points="16.692,71.891 28.322,60.726 
	34.137,60.726 22.508,71.891 "/>
<polygon display="none" fill="#FFFFFF" stroke="#1D1D1B" stroke-miterlimit="10" points="22.508,71.891 34.137,60.726 
	39.952,60.726 28.322,71.891 "/>
<polygon display="none" fill="#FFFFFF" stroke="#1D1D1B" stroke-miterlimit="10" points="28.322,71.891 39.952,60.726 
	45.766,60.726 34.137,71.891 "/>
<polygon display="none" fill="#FFFFFF" stroke="#1D1D1B" stroke-miterlimit="10" points="34.137,71.891 45.766,60.726 
	51.581,60.726 39.952,71.891 "/>
<polygon display="none" fill="#FFFFFF" stroke="#1D1D1B" stroke-miterlimit="10" points="39.952,71.891 51.581,60.726 
	57.395,60.726 45.766,71.891 "/>
<polygon display="none" fill="#FFFFFF" stroke="#1D1D1B" stroke-miterlimit="10" points="45.766,71.891 57.395,60.726 
	63.209,60.726 51.581,71.891 "/>
<polygon display="none" fill="#FFFFFF" stroke="#1D1D1B" stroke-miterlimit="10" points="51.581,71.891 63.209,60.726 
	69.025,60.726 57.395,71.891 "/>
<polygon display="none" fill="#FFFFFF" stroke="#1D1D1B" stroke-miterlimit="10" points="57.395,71.891 69.025,60.726 
	74.838,60.726 63.209,71.891 "/>
<polygon display="none" fill="#FFFFFF" stroke="#1D1D1B" stroke-miterlimit="10" points="63.209,71.891 74.838,60.726 
	80.656,60.726 69.025,71.891 "/>
<polygon display="none" fill="#FFFFFF" stroke="#1D1D1B" stroke-miterlimit="10" points="69.025,71.891 80.656,60.726 
	86.468,60.726 74.838,71.891 "/>
<polygon display="none" fill="#FFFFFF" stroke="#1D1D1B" stroke-miterlimit="10" points="74.838,71.891 86.468,60.726 
	92.282,60.726 80.656,71.891 "/>
<polygon display="none" fill="#FFFFFF" stroke="#1D1D1B" stroke-miterlimit="10" points="80.656,71.891 92.282,60.726 
	98.097,60.726 86.468,71.891 "/>
<polygon display="none" fill="#FFFFFF" stroke="#1D1D1B" stroke-miterlimit="10" points="86.468,71.891 98.097,60.726 
	103.913,60.726 92.282,71.891 "/>
<polygon display="none" fill="#FFFFFF" stroke="#1D1D1B" stroke-miterlimit="10" points="92.282,71.891 103.913,60.726 
	109.727,60.726 98.097,71.891 "/>
<polygon display="none" fill="#FFFFFF" stroke="#1D1D1B" stroke-miterlimit="10" points="98.097,71.891 109.727,60.726 
	115.542,60.726 103.913,71.891 "/>
<polygon display="none" fill="#FFFFFF" stroke="#1D1D1B" stroke-miterlimit="10" points="103.913,71.891 115.542,60.726 
	121.354,60.726 109.727,71.891 "/>
<polygon display="none" fill="#FFFFFF" stroke="#1D1D1B" stroke-miterlimit="10" points="109.727,71.891 121.354,60.726 
	127.171,60.726 115.542,71.891 "/>
<polygon display="none" fill="#FFFFFF" stroke="#1D1D1B" stroke-miterlimit="10" points="115.542,71.891 127.171,60.726 
	132.988,60.726 121.354,71.891 "/>
<polygon display="none" fill="#FFFFFF" stroke="#1D1D1B" stroke-miterlimit="10" points="121.354,71.891 132.988,60.726 
	138.801,60.726 127.171,71.891 "/>
<rect x="5.386" y="71.891" display="none" fill="#FFFFFF" stroke="#1D1D1B" stroke-miterlimit="10" width="5.491" height="5.273"/>
<rect x="11.201" y="71.891" display="none" fill="#FFFFFF" stroke="#1D1D1B" stroke-miterlimit="10" width="5.491" height="5.273"/>
<rect x="17.015" y="71.891" display="none" fill="#FFFFFF" stroke="#1D1D1B" stroke-miterlimit="10" width="5.493" height="5.273"/>
<rect x="22.508" y="71.891" display="none" fill="#FFFFFF" stroke="#1D1D1B" stroke-miterlimit="10" width="5.49" height="5.273"/>
<rect x="28.322" y="71.891" display="none" fill="#FFFFFF" stroke="#1D1D1B" stroke-miterlimit="10" width="5.49" height="5.273"/>
<rect x="34.46" y="71.891" display="none" fill="#FFFFFF" stroke="#1D1D1B" stroke-miterlimit="10" width="5.492" height="5.273"/>
<rect x="40.274" y="71.891" display="none" fill="#FFFFFF" stroke="#1D1D1B" stroke-miterlimit="10" width="5.492" height="5.273"/>
<rect x="46.088" y="71.891" display="none" fill="#FFFFFF" stroke="#1D1D1B" stroke-miterlimit="10" width="5.493" height="5.273"/>
<rect x="51.581" y="71.891" display="none" fill="#FFFFFF" stroke="#1D1D1B" stroke-miterlimit="10" width="5.491" height="5.273"/>
<rect x="57.395" y="71.891" display="none" fill="#FFFFFF" stroke="#1D1D1B" stroke-miterlimit="10" width="5.493" height="5.273"/>
<rect x="63.209" y="71.891" display="none" fill="#FFFFFF" stroke="#1D1D1B" stroke-miterlimit="10" width="5.492" height="5.273"/>
<rect x="68.702" y="71.891" display="none" fill="#FFFFFF" stroke="#1D1D1B" stroke-miterlimit="10" width="5.492" height="5.273"/>
<rect x="74.517" y="71.891" display="none" fill="#FFFFFF" stroke="#1D1D1B" stroke-miterlimit="10" width="5.493" height="5.273"/>
<rect x="80.656" y="71.891" display="none" fill="#FFFFFF" stroke="#1D1D1B" stroke-miterlimit="10" width="5.488" height="5.273"/>
<rect x="86.468" y="71.891" display="none" fill="#FFFFFF" stroke="#1D1D1B" stroke-miterlimit="10" width="5.492" height="5.273"/>
<rect x="92.282" y="71.891" display="none" fill="#FFFFFF" stroke="#1D1D1B" stroke-miterlimit="10" width="5.494" height="5.273"/>
<rect x="98.097" y="71.891" display="none" fill="#FFFFFF" stroke="#1D1D1B" stroke-miterlimit="10" width="5.492" height="5.273"/>
<rect x="103.913" y="71.891" display="none" fill="#FFFFFF" stroke="#1D1D1B" stroke-miterlimit="10" width="5.492" height="5.273"/>
<rect x="109.727" y="71.891" display="none" fill="#FFFFFF" stroke="#1D1D1B" stroke-miterlimit="10" width="5.492" height="5.273"/>
<rect x="115.219" y="71.891" display="none" fill="#FFFFFF" stroke="#1D1D1B" stroke-miterlimit="10" width="5.492" height="5.273"/>
<rect x="121.034" y="71.891" display="none" fill="#FFFFFF" stroke="#1D1D1B" stroke-miterlimit="10" width="5.489" height="5.273"/>
<polygon display="none" fill="#1D1D1B" points="19.277,67.684 26.169,60.746 29.614,60.648 22.722,67.781 "/>
<polygon display="none" fill="#1D1D1B" points="30.704,67.762 37.596,60.823 41.042,60.726 34.149,67.859 "/>
<polygon display="none" fill="#1D1D1B" points="36.639,67.684 43.532,60.746 46.977,60.648 40.086,67.781 "/>
<polygon display="none" fill="#1D1D1B" points="42.536,67.684 49.427,60.746 52.874,60.648 45.982,67.781 "/>
<polygon display="none" fill="#1D1D1B" points="71.326,67.606 78.218,60.667 81.664,60.57 74.771,67.704 "/>
<polygon display="none" fill="#1D1D1B" points="77.262,67.529 84.154,60.59 87.597,60.492 80.708,67.626 "/>
<polygon display="none" fill="#1D1D1B" points="83.156,67.529 90.048,60.59 93.493,60.492 86.604,67.626 "/>
<polygon display="none" fill="#1D1D1B" points="112.111,67.917 119.001,60.979 122.447,60.88 115.554,68.015 "/>
<polygon display="none" fill="#1D1D1B" points="118.046,67.839 124.936,60.9 128.383,60.802 121.49,67.937 "/>
<polygon display="none" fill="#1D1D1B" points="123.941,67.839 130.832,60.9 134.278,60.802 127.385,67.937 "/>
<polygon display="none" fill="#1D1D1B" points="13.623,67.684 20.515,60.746 23.961,60.648 17.069,67.781 "/>
<polygon display="none" fill="#1D1D1B" points="59.899,67.684 66.792,60.746 70.236,60.648 63.344,67.781 "/>
<polygon display="none" fill="#1D1D1B" points="54.246,67.684 61.138,60.746 64.582,60.648 57.69,67.781 "/>
<polygon display="none" fill="#1D1D1B" points="100.925,67.684 107.817,60.746 111.261,60.648 104.371,67.781 "/>
<polygon display="none" fill="#1D1D1B" points="95.272,67.684 102.165,60.746 105.609,60.648 98.716,67.781 "/>
<polygon display="none" fill="#1D1D1B" stroke="#FFFFFF" stroke-miterlimit="10" points="127.279,80.198 3.518,79.759 3.532,74.22 
	127.293,74.661 "/>
<path display="none" fill="#FFFFFF" d="M16.567,60.169L4.973,71.653l0.082,3.561l-2.228-0.021c0,0-0.028-4.896,0.045-4.963
	c1.493-1.335,5.692-5.927,9.99-9.833"/>
<path display="none" fill="#1D1D1B" d="M143.739,53.91l-1.521,18.754l-12.342,10.185l-3.102,0.085c0,0-0.144-11.554-0.079-11.625
	c1.621-1.783,2.982-2.657,10.745-11.714"/>
<polygon display="none" fill="#1D1D1B" points="12.589,60.8 12.589,14.809 138.7,14.463 138.801,60.726 "/>
<polygon display="none" fill="#1D1D1B" points="7.23,126.084 9.048,80.781 126.545,80.608 133.957,74.752 132.844,127.29 "/>
<polygon display="none" fill="#1D1D1B" points="127.287,72.792 127.287,78.974 134.204,73.135 132.844,127.003 145.667,111.87 
	146.457,13.941 138.7,14.517 138.157,62.946 "/>
<path display="none" fill="#1D1D1B" stroke="#FFFFFF" stroke-miterlimit="10" d="M135.489,52.015c0,4.472,0.246,7.694,0.048,8.843
	l-119.71,0.115c0.148-1.378,0.297-4.221,0.444-8.871l0.075-1.206c0.074-4.65,0.222-6.172-1.087-6.919l117.266,0.058
	c2.784,0,2.965,2.935,2.965,7.406V52.015z"/>
<path display="none" fill="#1D1D1B" d="M44.399,98.455l-8.248,9.309c0.696,0.811,1.476,1.642,2.288,2.354l9.4-8.34
	C46.745,100.866,45.535,99.739,44.399,98.455z M44.399,98.455l-8.248,9.309c0.696,0.811,1.476,1.642,2.288,2.354l9.4-8.34
	C46.745,100.866,45.535,99.739,44.399,98.455z M21.787,128.263c-1.109-1.194-2.42-2.471-3.788-3.739
	c-0.1-0.1-0.167-0.199-0.183-0.316c-0.497-1.89,8.156-6.431,3.265-13.758c-3.953-5.944-10.021-8.216-13.883-9.326
	c-1.459-0.414-2.876,6.423-1.684,12.558c0.009,0.009,0.009,0.024,0.017,0.034c1.625,4.26,5.189,9.267,11.638,15.715
	c2.205,2.205,4.302,4.005,6.274,5.463c0.373-0.024,0.705-0.141,0.979-0.365C25.832,133.384,24.356,131.013,21.787,128.263z
	 M61.682,90.737c-0.813-0.464-1.567-1.003-2.247-1.584c-0.746-0.645-1.409-1.325-1.972-1.988c-0.754-0.871-1.344-1.691-1.767-2.33
	l-11.115,9.126c0.232,0.283,1.053,1.27,2.147,2.463c0.903,1.003,1.998,2.146,3.1,3.183c0.878,0.829,1.773,1.574,2.57,2.105
	L61.682,90.737z M47.839,101.777c-1.095-0.911-2.305-2.038-3.44-3.322c-0.729-0.83-1.435-1.716-2.063-2.646l-8.099,9.559
	c0.472,0.638,1.144,1.491,1.915,2.396c0.696,0.811,1.476,1.642,2.288,2.354c0.903,0.838,1.84,1.508,2.703,1.84l9.408-8.064
	C49.887,103.428,48.917,102.707,47.839,101.777z M44.399,98.455l-8.248,9.309c0.696,0.811,1.476,1.642,2.288,2.354l9.4-8.34
	C46.745,100.866,45.535,99.739,44.399,98.455z M44.399,98.455l-8.248,9.309c0.696,0.811,1.476,1.642,2.288,2.354l9.4-8.34
	C46.745,100.866,45.535,99.739,44.399,98.455z"/>
<path display="none" fill="#1D1D1B" d="M64.957,116.84c-5.098-2.131-3.804-7.32,0.364-13.146c4.07-5.711,10.005-8.895,12.41-1.485
	c1.55-8.662,14.721-6.381,18.418-20.838c1.924-7.475,0.108-12.772-4.691-18.583l25.106-27.462l0.333,0.333l1.449-1.45l-0.298-0.299
	c0.763-0.762,2.031-2.114,3.424-3.622l2.379,2.379c-0.921,1.401-0.763,3.281,0.465,4.508c1.392,1.393,3.654,1.401,5.056,0
	s1.393-3.664,0-5.056c-1.145-1.145-2.868-1.359-4.22-0.638l-2.495-2.496c1.616-1.782,3.274-3.622,4.417-4.899l2.943,2.943
	c-0.695,1.343-0.48,3.035,0.646,4.161c1.402,1.401,3.664,1.393,5.065-0.008c1.392-1.394,1.401-3.655,0-5.057
	c-1.243-1.243-3.149-1.375-4.551-0.423l-2.926-2.926c0.207-0.223,0.314-0.348,0.314-0.348l0.141-0.041l1.933-0.556l0.978-0.613
	c0,0,0.713,0.464,2.047,0.058c0.274-0.092,1.509-1.692,1.509-1.692l-1.021-1.45l0.747-1.856l-0.654-0.838l1.573-2.304
	c0.191-1.3-2.503-2.321-2.503-2.321l-2.122,1.575l-1.301-0.738l-1.326,0.83c-1.376,1.26-2.967,1.873-3.474,2.047
	c-0.008,0.82,0.356,1.384,0.356,1.384c-0.927,0.928-1.666,2.213-1.666,2.213c-0.438,0.241-1.251,0.903-2.255,1.774l-2.52-2.52
	c0.654-1.335,0.415-2.984-0.695-4.096c-1.393-1.391-3.656-1.401-5.057,0c-1.401,1.401-1.393,3.664,0,5.056
	c1.261,1.26,3.199,1.393,4.601,0.39l2.362,2.362c-1.982,1.816-4.327,4.095-6.027,5.778l-2.594-2.595
	c1.069-1.401,0.962-3.415-0.315-4.692c-1.401-1.401-3.672-1.401-5.063-0.008c-1.401,1.401-1.401,3.671,0,5.072
	c1.068,1.069,2.66,1.318,3.979,0.73l2.734,2.736l-0.341,0.34l-0.364-0.365l-1.451,1.451l0.299,0.298L83.417,54.929
	c-4.368-3.225-10.42-5.976-17.358-4.393c-16.554,3.771-11.712,15.69-20.83,18.061c6.018,4.725,2.379,7.983-2.869,12.682
	c-4.699,4.203-11.298,4.816-12.873-0.272c-5.097,8.048-15.002,4.624-21.577,16.387c-2.966,5.305-4.791,9.979-2.396,16.287
	c-1.192-6.135,0.224-12.972,1.684-12.558c3.862,1.11,9.93,3.382,13.883,9.326c4.891,7.327-3.762,11.868-3.265,13.758l0.68-0.612
	c0,0,8.057-4.907,10.643-13.794l4.352-5.461c0,0,0.274,0.406,0.747,1.028l8.099-9.559c-0.241-0.356-0.474-0.721-0.688-1.103
	l2.867-0.828c0,0,0.025,0.024,0.066,0.082l11.115-9.126c-0.488-0.754-0.746-1.243-0.746-1.243l20.956-19.877l36.205-32.841
	l3.423,3.423l-25.032,27.37c-0.007-0.008-0.007-0.008-0.016-0.016L62.511,91.152c-0.282-0.133-0.564-0.266-0.829-0.415
	l-9.284,10.975c0.125,0.074,0.24,0.157,0.357,0.224l-1.294,2.586c0,0-0.348-0.214-0.911-0.629l-9.408,8.064
	c0.166,0.066,0.34,0.124,0.506,0.157l-5.007,4.261c0,0-9.724,2.313-14.448,11.299l-0.407,0.589c2.57,2.75,4.045,5.121,2.636,6.265
	c-0.274,0.225-0.605,0.341-0.979,0.365c12.435,9.168,20.466,5.016,23.906,3.432C58.657,133.136,57.629,120.636,64.957,116.84z
	 M113.803,29.664l10.9-10.054l-1.219,1.882l-0.008,0.008l-0.158,0.24l1.293,1.293l0.043-0.025l2.461-1.169l-10.361,10.776
	L113.803,29.664z"/>
<g display="none">
	<path display="inline" fill="#FFFFFF" d="M48.361,88.117c0.45-0.233,0.875-0.618,0.865-1.036c0.016-0.404-0.287-0.807-0.619-1.152
		c-0.682-0.736-1.536-0.968-2.435-0.631c-0.888,0.313-1.792,0.843-2.649,1.43c-0.863,0.588-1.679,1.264-2.418,2.012
		c-1.504,1.482-2.74,3.222-4.453,4.589c-0.856,0.662-1.846,1.305-3.034,1.49c-1.187,0.202-2.383-0.144-3.354-0.665l-0.153-0.083
		l-0.055-0.111c-0.2-0.407-0.341-0.792-0.455-1.215c-0.104-0.418-0.185-0.86-0.128-1.327c0.045-0.46,0.289-0.967,0.701-1.232
		c0.401-0.277,0.858-0.328,1.272-0.324l0.129,0.001l0.03,0.094c0.094,0.301,0.188,0.602,0.271,0.907l-0.092,0.039
		c-0.164-0.271-0.317-0.546-0.47-0.821l0.159,0.095c-0.374,0.078-0.735,0.211-0.969,0.432c-0.235,0.219-0.326,0.521-0.313,0.855
		c0.018,0.668,0.328,1.415,0.696,2.024l-0.208-0.193c0.917,0.395,1.863,0.61,2.779,0.473c0.919-0.123,1.814-0.587,2.643-1.174
		c1.645-1.207,3.28-2.596,4.788-4.069c0.762-0.736,1.486-1.51,2.264-2.252c0.787-0.723,1.622-1.465,2.745-1.828
		c0.552-0.177,1.206-0.242,1.816-0.043c0.604,0.204,1.086,0.624,1.424,1.07c0.331,0.438,0.688,1.01,0.556,1.685
		c-0.187,0.666-0.785,0.964-1.304,1.059L48.361,88.117z"/>
</g>
<g display="none">
	<path display="inline" fill="#FFFFFF" d="M57.982,98.055c0.094-0.519,0.39-1.118,1.056-1.306c0.676-0.134,1.247,0.225,1.686,0.556
		c0.446,0.338,0.866,0.82,1.07,1.424c0.199,0.609,0.134,1.264-0.042,1.815c-0.363,1.124-1.104,1.959-1.827,2.746
		c-0.743,0.777-1.516,1.503-2.252,2.264c-1.473,1.508-2.862,3.143-4.069,4.788c-0.587,0.828-1.05,1.725-1.173,2.643
		c-0.137,0.916,0.079,1.861,0.475,2.778l-0.193-0.206c0.608,0.367,1.355,0.678,2.022,0.695c0.335,0.013,0.636-0.079,0.855-0.314
		c0.22-0.233,0.353-0.595,0.431-0.968l0.095,0.158c-0.275-0.152-0.55-0.307-0.82-0.47l0.039-0.092
		c0.305,0.083,0.606,0.177,0.906,0.271l0.095,0.03l0,0.129c0.003,0.413-0.047,0.87-0.324,1.271
		c-0.265,0.411-0.772,0.656-1.231,0.701c-0.467,0.057-0.909-0.024-1.327-0.128c-0.422-0.113-0.807-0.255-1.214-0.455l-0.111-0.055
		l-0.082-0.152c-0.523-0.97-0.87-2.166-0.669-3.353c0.185-1.188,0.828-2.179,1.49-3.035c1.367-1.713,3.106-2.948,4.589-4.452
		c0.749-0.739,1.424-1.555,2.012-2.418c0.587-0.857,1.116-1.763,1.429-2.65c0.336-0.898,0.104-1.753-0.632-2.435
		c-0.345-0.332-0.748-0.636-1.152-0.619c-0.417-0.009-0.801,0.417-1.035,0.867L57.982,98.055z"/>
</g>
<path display="none" fill="#009FE3" d="M21,129.431l-4.36-4.16l1.177-1.063c0.016,0.117,0.083,0.217,0.183,0.316
	c1.367,1.269,2.678,2.545,3.788,3.739L21,129.431z"/>
<path display="none" fill="#1D1D1B" stroke="#FFFFFF" stroke-miterlimit="10" d="M24.423,134.527
	c-0.274,0.225-0.605,0.341-0.979,0.365c-4.352,0.389-14.53-11.861-16.983-17.962c-0.406-1.02-0.713-2.105-0.929-3.216
	c-0.008-0.01-0.008-0.025-0.017-0.034c-1.192-6.135,0.224-12.972,1.684-12.558c3.862,1.11,9.93,3.382,13.883,9.326
	c4.891,7.327-3.762,11.868-3.265,13.758c0.016,0.117,0.083,0.217,0.183,0.316c1.367,1.269,2.678,2.545,3.788,3.739
	C24.356,131.013,25.832,133.384,24.423,134.527z"/>
<path display="none" fill="#1D1D1B" d="M128.566,12.481c-1.376,1.26-2.967,1.873-3.474,2.047c0.01-0.854,0.424-1.981,2.081-3.009
	l1.235,1.052L128.566,12.481z"/>
<path display="none" fill="none" stroke="#009FE3" stroke-width="0.25" stroke-miterlimit="10" d="M125.092,14.528
	c-0.106,0.024-0.165,0.049-0.165,0.049"/>
<path display="none" fill="none" stroke="#FFFFFF" stroke-width="0.25" stroke-miterlimit="10" d="M123.903,18.127
	c0,0,4.655-2.725,9.353-7.253"/>
<path display="none" fill="none" stroke="#FFFFFF" stroke-width="0.25" stroke-miterlimit="10" d="M134.096,11.677
	c-4.917,5.213-9.559,8.976-10.611,9.814"/>
<path display="none" fill="none" stroke="#009FE3" stroke-width="0.25" stroke-miterlimit="10" d="M123.477,21.5
	c-0.142,0.107-0.216,0.166-0.216,0.166"/>
<path display="none" fill="none" stroke="#FFFFFF" stroke-width="0.25" stroke-miterlimit="10" d="M131.596,21.196
	c0,0,0.837-1.669,2.47-2.963"/>
<path display="none" fill="none" stroke="#FFFFFF" stroke-width="0.25" stroke-miterlimit="10" d="M128.585,22.59
	c0,0,2.716-4.603,7.093-9.441"/>
<path display="none" fill="none" stroke="#FFFFFF" stroke-width="0.25" stroke-miterlimit="10" d="M124.651,23.005
	c0,0,4.339-5.085,10.479-10.603"/>
<polyline display="none" fill="none" stroke="#FFFFFF" stroke-width="0.5" stroke-miterlimit="10" points="35.92,108.028 
	36.152,107.764 44.399,98.455 44.482,98.355 46.729,96.424 57.463,87.165 58.507,86.271 "/>
<polyline display="none" fill="none" stroke="#FFFFFF" stroke-width="0.5" stroke-miterlimit="10" points="33.283,105.392 
	33.514,105.126 41.762,95.818 41.845,95.718 44.091,93.786 54.826,84.528 55.87,83.632 "/>
<polyline display="none" fill="none" stroke="#FFFFFF" stroke-width="0.5" stroke-miterlimit="10" points="60.372,88.135 
	59.436,89.153 49.829,99.606 47.872,101.745 47.839,101.777 38.439,110.117 37.992,110.515 "/>
<polyline display="none" fill="none" stroke="#FFFFFF" stroke-width="0.5" stroke-miterlimit="10" points="62.717,90.479 
	61.78,91.498 52.173,101.951 50.217,104.089 50.184,104.123 40.784,112.463 40.336,112.859 "/>
<line display="none" fill="none" stroke="#009FE3" stroke-width="0.5" stroke-miterlimit="10" x1="41.142" y1="111.957" x2="40.893" y2="112.172"/>
<path display="none" fill="#1D1D1B" d="M147.834,113.845c-0.23,0.395-1.017,0.368-1.767-0.07l-1.777-1.044
	c-0.017,0.233-0.091,0.477-0.223,0.697c-0.467,0.8-1.505,1.063-2.303,0.594l-9.098-5.342c-0.81-0.475-1.077-1.502-0.608-2.301
	c0.131-0.223,0.306-0.404,0.504-0.533L12.258,35.232c-0.422,0.187-1.156,0.069-1.863-0.347l-3.538-2.076
	c-0.9-0.528-1.407-1.355-1.127-1.831c0.047-0.081,0.103-0.131,0.174-0.184c0.006-0.078,0.021-0.15,0.062-0.221
	c0.231-0.394,1.022-0.351,1.76,0.081l139.179,81.694C147.655,112.787,148.064,113.45,147.834,113.845z"/>
<path display="none" fill="none" stroke="#1D1D1B" stroke-width="0.5" stroke-miterlimit="10" d="M132.351,107.425
	c0,0-118.243-69.793-125.969-74.278l-0.244-0.936"/>
<path display="none" fill="#1D1D1B" stroke="#FFFFFF" stroke-miterlimit="10" d="M74.912,87.382c-0.912,0.2-1.834,0.322-2.731,0.38
	c-0.994,0.058-1.952,0.05-2.827-0.008c-1.16-0.068-2.164-0.2-2.922-0.324l-1.419,11.61c0.367,0.028,1.656,0.124,3.288,0.18
	c1.36,0.058,2.956,0.086,4.481,0.049C74,99.24,75.172,99.153,76.118,99L74.912,87.382z M68.088,101.718l0.757,10.07
	c1.075,0.065,2.223,0.095,3.31,0.037l0.759-10.175C71.483,101.755,69.814,101.805,68.088,101.718z M68.088,101.718l0.757,10.07
	c1.075,0.065,2.223,0.095,3.31,0.037l0.759-10.175C71.483,101.755,69.814,101.805,68.088,101.718z M76.249,101.328
	c-0.805,0.105-1.964,0.237-3.334,0.322c-1.431,0.104-3.1,0.154-4.827,0.067c-1.111-0.056-2.247-0.161-3.359-0.332l1.042,10.125
	c0.792,0.098,1.88,0.2,3.075,0.277c1.075,0.065,2.223,0.095,3.31,0.037c1.242-0.037,2.39-0.19,3.241-0.496l0.652-6.759l0.306-3.259
	C76.318,101.312,76.283,101.319,76.249,101.328z M68.088,101.718l0.757,10.07c1.075,0.065,2.223,0.095,3.31,0.037l0.759-10.175
	C71.483,101.755,69.814,101.805,68.088,101.718z M68.088,101.718l0.757,10.07c1.075,0.065,2.223,0.095,3.31,0.037l0.759-10.175
	C71.483,101.755,69.814,101.805,68.088,101.718z"/>
<path display="none" fill="#FFFFFF" d="M72.437,10.338l-0.921,2.083l-0.013,0.042l-1.841-0.011l-0.066-0.222v-0.01l-0.473-1.777
	l-0.092,1.861c0.197,0.274,0.737,0.824,1.762,0.824c0.948,0,1.486-0.655,1.684-0.994L72.437,10.338z M72.726,22.086l-4.182,0.106
	l-0.013,0.264h4.209L72.726,22.086z M65.769,111.506l-1.039-10.119c-0.105-0.021-0.21-0.031-0.316-0.053
	c-0.026,0-0.053-0.011-0.079-0.011l-0.026,0.285l0.014,0.106l0.737,9.696v0.01C65.256,111.453,65.494,111.485,65.769,111.506z
	 M65.717,87.292c-0.026-0.01-0.053-0.01-0.079-0.021l-0.041,0.476L64.546,99.22l-0.04,0.391l0.092-0.137l0.303-0.444
	c0,0,0.039,0,0.118,0.011l1.408-11.609C66.164,87.377,65.914,87.335,65.717,87.292z M75.396,111.326
	c0.053-0.011,0.092-0.032,0.145-0.053l0.513-6.703L75.396,111.326z M75.527,87.758l-0.026-0.528
	c-0.184,0.053-0.382,0.105-0.591,0.147l1.209,11.589L75.527,87.758z"/>
<path display="none" fill="#1D1D1B" d="M95.95,100.479c-5.154,1.69-7.943-2.021-9.125-7.751c-1.171-5.615,0.801-10.838,7.799-7.973
	c-5.077-5.857,5.942-12.106-1.724-22.511c-3.972-5.393-9.034-7.391-16.61-7.973l-1.683-30.145h0.473v-1.67h-0.42
	c0-0.867-0.053-2.379-0.145-4.039h3.394c0.34,1.333,1.801,2.315,3.551,2.315c1.984,0,3.603-1.29,3.603-2.897
	c0-1.607-1.618-2.897-3.603-2.897c-1.632,0-3.013,0.868-3.459,2.051h-3.564c-0.119-1.945-0.25-3.954-0.343-5.339h4.196
	c0.459,1.163,1.827,2.009,3.431,2.009c2,0,3.604-1.3,3.604-2.908c0-1.596-1.604-2.897-3.604-2.897c-1.774,0-3.221,1.015-3.549,2.369
	h-4.169c-0.015-0.243-0.027-0.381-0.027-0.381l0.013-0.021l0.053-0.085l0.987-1.427l0.263-0.909c0,0,0.84-0.148,1.498-1.142
	c0.132-0.211-0.131-1.839-0.131-1.839l-1.762-0.243l-0.789-1.491l-1.066-0.106l-0.526-2.22c-0.789-0.856-3.432,0.095-3.432,0.095
	l-0.092,0.518c0,0.032,0,0.053-0.013,0.074l-0.289,1.533l-1.46,0.328l-0.355,1.227c-0.08,1.512-0.776,2.781-1.013,3.172
	c0.579,0.476,1.236,0.592,1.236,0.592c0,1.058,0.396,2.22,0.396,2.22c-0.146,0.391-0.25,1.237-0.343,2.315h-3.59
	c-0.487-1.142-1.841-1.956-3.419-1.956c-1.985,0-3.604,1.3-3.604,2.908c0,1.607,1.618,2.896,3.604,2.896
	c1.802,0,3.274-1.036,3.551-2.421h3.379c-0.118,2.178-0.171,4.832-0.184,6.777h-3.696c-0.237-1.417-1.749-2.516-3.578-2.516
	c-1.998,0-3.616,1.3-3.616,2.897c0,1.607,1.618,2.918,3.616,2.918c1.526,0,2.841-0.772,3.367-1.872h3.893v0.391H66.36v1.67h0.422
	l-1.828,30.251c-5.418,0.655-11.704,2.548-15.518,7.433c-9.114,11.663,2.84,15.723-1.973,22.31c7.667-0.739,7.39,3.215,6.996,8.914
	c-0.355,5.107-4.617,9.241-9.376,7.232c2.104,7.538-7.404,11.25-3.695,21.771c1.656,4.748,3.695,8.469,9.902,10.711
	c0.014,0,0.027,0.01,0.04,0.01c4.024,1.449,9.785,2.379,18.385,2.443c-0.185-0.021-0.342-0.053-0.487-0.085
	c-0.145,0-1.683-0.92-1.657-3.384l0.053-0.74c0,0,2.249-7.433-2.249-14.01l-0.789-5.636c0,0,0.171,0.032,0.474,0.064
	c0.026,0,0.052,0.01,0.079,0.01l-0.737-9.706v-0.106l0.013-0.274v-0.011c-0.289-0.052-0.591-0.104-0.881-0.179l1.053-1.534
	l0.013-0.137l0.026-0.254l1.052-11.473l0.04-0.455v-0.021c-0.395-0.074-0.619-0.127-0.619-0.127l0.763-23.421l2.407-39.597h4.879
	l1.669,30.05c-0.013,0-0.013,0-0.025,0l1.091,32.968c-0.105,0.032-0.197,0.053-0.303,0.085l0.027,0.528l0.592,11.208v0.031
	c0.144-0.021,0.289-0.042,0.408-0.074l0.934,2.222c0,0-0.406,0.084-1.105,0.169l-0.303,3.257l-0.512,6.703
	c0.119-0.032,0.224-0.085,0.33-0.138l-0.525,5.308c0,0-3.854,7.655-2.25,14.771c0.132,1.11-0.301,2.876-1.354,3.647
	c-0.276,0.201-0.632,0.307-1.012,0.35c3.143,0,5.958-0.285,8.404-0.571c15.413-1.883,18.174-8.871,19.503-11.747
	C103.078,113.431,93.425,106.854,95.95,100.479z M72.726,22.086l-4.182,0.106l-0.276,0.01l0.171-9.474l0.487-0.571
	c0,0,0.026,0.064,0.105,0.148c0.197,0.274,0.737,0.824,1.762,0.824c0.948,0,1.486-0.655,1.684-0.994
	c0.079-0.127,0.119-0.201,0.119-0.201l0.276,0.666l0.276,9.474L72.726,22.086z M69.754,135.201c0.316,0.042,0.671,0.053,1.026,0.011
	C70.438,135.212,70.083,135.212,69.754,135.201z"/>
<g display="none">
	<path display="inline" fill="#FFFFFF" d="M63.542,93.513c0.169-0.41,0.171-0.893-0.13-1.065c-0.278-0.2-0.717-0.242-1.134-0.25
		c-0.864-0.017-1.664,0.17-2.129,0.759c-0.475,0.578-0.792,1.413-1.006,2.271c-0.218,0.865-0.337,1.773-0.338,2.68
		c-0.042,1.821,0.352,3.632,0.047,5.544c-0.156,0.938-0.54,1.96-1.304,2.688c-0.756,0.732-1.719,1.099-2.638,1.328l-0.141,0.035
		l-0.098-0.028c-0.39-0.113-0.736-0.245-1.092-0.409c-0.351-0.165-0.698-0.358-1.018-0.635c-0.3-0.267-0.621-0.722-0.54-1.232
		c0.084-0.49,0.404-0.786,0.701-1.019l0.093-0.073l0.076,0.035c0.282,0.129,0.565,0.255,0.844,0.396l-0.03,0.096
		c-0.309-0.047-0.612-0.108-0.917-0.167l0.169-0.038c-0.21,0.267-0.39,0.569-0.376,0.816c0.008,0.237,0.189,0.435,0.449,0.602
		c0.506,0.343,1.212,0.549,1.853,0.668l-0.238,0.007c0.822-0.27,1.6-0.62,2.173-1.154c0.592-0.515,0.954-1.26,1.146-2.098
		c0.366-1.684,0.526-3.549,0.54-5.364c0.018-0.915-0.018-1.833,0.042-2.771c0.075-0.92,0.213-1.938,0.926-2.769
		c0.355-0.404,0.855-0.702,1.368-0.825c0.506-0.115,1.035-0.113,1.498-0.038c0.473,0.077,1.001,0.184,1.406,0.611
		c0.194,0.222,0.267,0.541,0.213,0.798c-0.046,0.26-0.17,0.476-0.33,0.656L63.542,93.513z"/>
</g>
<g display="none">
	<path display="inline" fill="#FFFFFF" d="M77.497,93.71c-0.16-0.181-0.284-0.396-0.331-0.656c-0.054-0.256,0.019-0.576,0.213-0.797
		c0.405-0.428,0.934-0.534,1.406-0.611c0.462-0.075,0.991-0.076,1.497,0.039c0.513,0.123,1.013,0.421,1.367,0.824
		c0.713,0.831,0.85,1.849,0.925,2.77c0.061,0.938,0.024,1.854,0.043,2.77c0.014,1.815,0.174,3.68,0.539,5.363
		c0.193,0.837,0.555,1.583,1.146,2.097c0.572,0.533,1.352,0.883,2.173,1.151l-0.236-0.007c0.64-0.118,1.347-0.323,1.852-0.666
		c0.26-0.167,0.44-0.364,0.447-0.602c0.014-0.246-0.166-0.55-0.376-0.816l0.169,0.038c-0.304,0.06-0.607,0.121-0.915,0.169
		l-0.031-0.096c0.278-0.141,0.561-0.269,0.842-0.397l0.076-0.035l0.094,0.074c0.296,0.231,0.616,0.527,0.701,1.017
		c0.082,0.511-0.237,0.967-0.538,1.233c-0.319,0.276-0.667,0.47-1.018,0.634c-0.357,0.164-0.703,0.296-1.093,0.408l-0.098,0.027
		l-0.14-0.034c-0.92-0.228-1.883-0.594-2.64-1.325c-0.765-0.729-1.148-1.75-1.304-2.688c-0.306-1.912,0.088-3.723,0.046-5.543
		c-0.001-0.906-0.119-1.814-0.338-2.679c-0.214-0.859-0.53-1.694-1.005-2.272c-0.466-0.588-1.265-0.774-2.129-0.758
		c-0.418,0.008-0.856,0.049-1.135,0.249c-0.301,0.173-0.299,0.654-0.129,1.064L77.497,93.71z"/>
</g>
<path display="none" fill="#1D1D1B" d="M66.8,4.14c-0.083,1.511-0.782,2.775-1.018,3.166c-0.604-0.494-1.111-1.379-0.663-2.918
	l1.632-0.105L66.8,4.14z"/>
<path display="none" fill="none" stroke="#009FE3" stroke-width="0.25" stroke-miterlimit="10" d="M65.782,7.305
	c-0.059,0.076-0.083,0.124-0.083,0.124"/>
<path display="none" fill="none" stroke="#FFFFFF" stroke-width="0.25" stroke-miterlimit="10" d="M67.501,10.052
	c0,0,1.376-4.233,1.497-9.523"/>
<path display="none" fill="none" stroke="#FFFFFF" stroke-width="0.25" stroke-miterlimit="10" d="M70.169,0.506
	c0.213,5.81-0.414,10.63-0.569,11.715"/>
<path display="none" fill="none" stroke="#009FE3" stroke-width="0.25" stroke-miterlimit="10" d="M69.603,12.23
	c-0.024,0.142-0.037,0.219-0.037,0.219"/>
<path display="none" fill="none" stroke="#FFFFFF" stroke-width="0.25" stroke-miterlimit="10" d="M75.177,7.4
	c0,0-0.593-1.438-0.351-3.116"/>
<path display="none" fill="none" stroke="#FFFFFF" stroke-width="0.25" stroke-miterlimit="10" d="M74.024,9.926
	c0,0-1.346-4.199-1.674-9.484"/>
<path display="none" fill="none" stroke="#FFFFFF" stroke-width="0.25" stroke-miterlimit="10" d="M71.513,12.42
	c0,0-0.533-5.404-0.088-12.09"/>
<polyline display="none" fill="none" stroke="#FFFFFF" stroke-width="0.5" stroke-miterlimit="10" points="68.869,112.075 
	68.845,111.79 68.088,101.721 68.076,101.617 68.301,99.22 69.354,87.754 69.459,86.641 "/>
<polyline display="none" fill="none" stroke="#FFFFFF" stroke-width="0.5" stroke-miterlimit="10" points="65.223,112.233 
	65.198,111.949 64.442,101.879 64.431,101.773 64.654,99.378 65.708,87.913 65.814,86.8 "/>
<polyline display="none" fill="none" stroke="#FFFFFF" stroke-width="0.5" stroke-miterlimit="10" points="72.121,86.641 
	72.18,87.762 72.782,99.269 72.914,101.617 72.914,101.654 72.155,111.829 72.121,112.313 "/>
<polyline display="none" fill="none" stroke="#FFFFFF" stroke-width="0.5" stroke-miterlimit="10" points="75.373,86.322 
	75.432,87.446 76.034,98.949 76.164,101.299 76.164,101.338 75.408,111.511 75.373,111.994 "/>
<path display="none" fill="#1D1D1B" d="M139.647,51.224c0.092,0.359-0.374,0.794-1.054,0.972l-1.618,0.421
	c0.125,0.145,0.22,0.326,0.272,0.528c0.189,0.727-0.255,1.473-0.98,1.661l-8.282,2.155c-0.736,0.192-1.48-0.243-1.669-0.971
	c-0.052-0.202-0.057-0.408-0.017-0.595L16.801,83.894c-0.135,0.35-0.623,0.702-1.267,0.87l-3.221,0.838
	c-0.818,0.213-1.584,0.031-1.697-0.402c-0.019-0.072-0.015-0.132-0.004-0.204c-0.042-0.048-0.075-0.1-0.091-0.163
	c-0.094-0.359,0.384-0.789,1.056-0.965l126.677-32.969C138.936,50.721,139.552,50.866,139.647,51.224z"/>
<path display="none" fill="none" stroke="#1D1D1B" stroke-width="0.5" stroke-miterlimit="10" d="M127.083,56.422
	c0,0-107.845,27.786-114.849,29.644l-0.676-0.396"/>
<g display="none">
	<polygon display="inline" fill="#1D1D1B" points="71.407,135.065 70.517,147.498 69.407,135.083 	"/>
</g>
<path display="none" fill="none" stroke="#1D1D1B" stroke-width="2" stroke-miterlimit="10" d="M52.91,39.94
	c0,13.901-7.522,25.175-16.8,25.175S19.309,53.841,19.309,39.94c0-13.903,7.523-25.173,16.801-25.173S52.91,26.037,52.91,39.94z"/>
<ellipse display="none" fill="#1D1D1B" cx="35.14" cy="39.815" rx="9.369" ry="14.041"/>
<ellipse display="none" fill="none" stroke="#1D1D1B" stroke-width="2" stroke-miterlimit="10" cx="86.68" cy="38.594" rx="18.668" ry="27.975"/>
<path display="none" fill="#1D1D1B" d="M96.015,38.455c0,8.617-4.665,15.6-10.414,15.6c-5.745,0-10.409-6.983-10.409-15.6
	c0-8.615,4.664-15.6,10.409-15.6C91.35,22.855,96.015,29.84,96.015,38.455z"/>
<path display="none" fill="none" stroke="#1D1D1B" stroke-width="2" stroke-miterlimit="10" d="M52.45,102.113
	c0,13.903-7.522,25.178-16.8,25.178c-9.278,0-16.8-11.274-16.8-25.178c0-13.901,7.522-25.172,16.8-25.172
	C44.928,76.941,52.45,88.212,52.45,102.113z"/>
<ellipse display="none" fill="#1D1D1B" cx="34.68" cy="101.988" rx="9.369" ry="14.042"/>
<path display="none" fill="none" stroke="#1D1D1B" stroke-width="2" stroke-miterlimit="10" d="M104.859,104.506
	c0,15.447-8.356,27.972-18.666,27.972c-10.311,0-18.668-12.524-18.668-27.972c0-15.451,8.358-27.974,18.668-27.974
	C96.502,76.532,104.859,89.055,104.859,104.506z"/>
<path display="none" fill="#1D1D1B" d="M95.529,104.365c0,8.619-4.666,15.602-10.415,15.602c-5.746,0-10.41-6.982-10.41-15.602
	c0-8.615,4.664-15.599,10.41-15.599C90.863,88.767,95.529,95.75,95.529,104.365z"/>
<polygon display="none" fill="none" stroke="#1D1D1B" stroke-miterlimit="10" points="114.294,143.043 10.226,131.246 
	10.226,10.354 113.929,1.507 "/>
<polygon display="none" fill="none" stroke="#1D1D1B" stroke-miterlimit="10" points="140.679,139.498 114.294,143.254 
	114.294,1.488 139.457,2.742 "/>
<g display="none">
	<polygon display="inline" fill="#1D1D1B" points="10.006,12.131 23.178,28.098 36.27,44.13 62.327,76.296 88.204,108.606 
		101.078,124.814 113.87,141.087 100.696,125.121 87.604,109.089 61.549,76.923 35.674,44.61 22.799,28.403 	"/>
</g>
<g display="none">
	<polygon display="inline" fill="#1D1D1B" points="20.474,9.063 32.43,23.519 44.305,38.04 67.929,67.184 91.372,96.474 
		103.029,111.17 114.605,125.933 102.648,111.478 90.773,96.956 67.15,67.811 43.708,38.52 32.051,23.824 	"/>
</g>
<g display="none">
	<path display="inline" fill="#1D1D1B" d="M33.148,8.038c6.949,8.299,13.812,16.667,20.663,25.045l20.455,25.212l20.275,25.357
		l10.073,12.73l9.991,12.796l-10.373-12.489L93.941,84.135L73.487,58.922L53.214,33.563C46.488,25.085,39.775,16.596,33.148,8.038z"
		/>
</g>
<g display="none">
	<path display="inline" fill="#1D1D1B" d="M45.821,7.015c5.862,6.949,11.639,13.967,17.402,20.995l17.195,21.162l17.015,21.308
		l8.443,10.705l8.361,10.771l-8.743-10.464l-8.66-10.53L79.64,49.799L62.627,28.49C56.988,21.361,51.362,14.223,45.821,7.015z"/>
</g>
<g display="none">
	<path display="inline" fill="#1D1D1B" d="M60.423,7.015c4.676,5.477,9.266,11.022,13.844,16.579l13.636,16.745l13.456,16.891
		l6.664,8.497c2.193,2.855,4.413,5.689,6.582,8.563c-2.346-2.732-4.642-5.504-6.964-8.255l-6.881-8.322L87.125,40.965L73.67,24.073
		C69.218,18.417,64.778,12.75,60.423,7.015z"/>
</g>
<g display="none">
	<path display="inline" fill="#1D1D1B" d="M72.819,4.967c3.597,4.137,7.108,8.343,10.607,12.559
		c3.5,4.215,6.931,8.486,10.399,12.726c3.406,4.291,6.846,8.555,10.22,12.871l5.046,6.487c1.653,2.185,3.334,4.349,4.964,6.553
		c-1.807-2.062-3.563-4.165-5.346-6.246l-5.263-6.312c-3.499-4.216-6.932-8.485-10.398-12.727
		c-3.404-4.292-6.847-8.554-10.219-12.872C79.456,13.689,76.095,9.362,72.819,4.967z"/>
</g>
<g display="none">
	<path display="inline" fill="#1D1D1B" d="M86.044,4.967c2.51,2.788,4.935,5.644,7.347,8.511c2.421,2.86,4.78,5.769,7.14,8.678
		c2.34,2.924,4.68,5.849,6.958,8.823l3.416,4.463c1.109,1.511,2.246,3,3.333,4.529c-1.263-1.387-2.476-2.815-3.715-4.222
		l-3.633-4.288c-2.42-2.86-4.78-5.769-7.139-8.679c-2.339-2.925-4.679-5.85-6.957-8.824C90.507,10.991,88.233,8.013,86.044,4.967z"
		/>
</g>
<g display="none">
	<path display="inline" fill="#1D1D1B" d="M98.166,3.433c1.5,1.533,2.915,3.135,4.316,4.748c1.41,1.605,2.76,3.26,4.108,4.915
		c1.331,1.67,2.66,3.341,3.929,5.061l1.9,2.581c0.605,0.884,1.237,1.746,1.818,2.648c-0.758-0.76-1.466-1.561-2.2-2.34l-2.117-2.406
		c-1.41-1.606-2.76-3.26-4.107-4.916c-1.33-1.671-2.659-3.341-3.928-5.062C100.608,6.948,99.344,5.225,98.166,3.433z"/>
</g>
<g display="none">
	<path display="inline" fill="#1D1D1B" d="M10.281,30.043c7.417,9.041,14.748,18.149,22.065,27.268l21.856,27.433l21.675,27.576
		l10.773,13.84l10.69,13.904l-11.074-13.601l-10.992-13.666L53.419,85.363L31.746,57.786C24.553,48.568,17.374,39.339,10.281,30.043
		z"/>
</g>
<g display="none">
	<path display="inline" fill="#1D1D1B" d="M10.281,48.975c6.101,7.377,12.115,14.823,18.116,22.278l17.907,22.444l17.726,22.587
		l8.798,11.345l8.716,11.41l-9.1-11.105l-9.018-11.172L45.521,94.317L27.796,71.729C21.92,64.174,16.058,56.608,10.281,48.975z"/>
</g>
<g display="none">
	<path display="inline" fill="#1D1D1B" d="M10.006,66.376c4.845,5.791,9.604,11.649,14.351,17.519l14.142,17.685l13.96,17.827
		l6.916,8.965l6.833,9.03l-7.218-8.726l-7.134-8.792l-14.141-17.686L23.756,84.37C19.135,78.401,14.528,72.423,10.006,66.376z"/>
</g>
<g display="none">
	<path display="inline" fill="#1D1D1B" d="M10.281,85.82c3.483,4.069,6.88,8.207,10.264,12.354
		c3.386,4.146,6.702,8.349,10.056,12.521c3.291,4.222,6.615,8.416,9.874,12.663l4.873,6.383c1.596,2.15,3.218,4.279,4.79,6.448
		c-1.75-2.028-3.448-4.097-5.174-6.145l-5.091-6.209c-3.384-4.148-6.702-8.348-10.054-12.521c-3.289-4.223-6.616-8.416-9.873-12.664
		C16.686,94.403,13.44,90.146,10.281,85.82z"/>
</g>
<g display="none">
	<path display="inline" fill="#1D1D1B" d="M10.006,101.685c2.282,2.551,4.477,5.17,6.66,7.8c2.192,2.622,4.322,5.293,6.452,7.964
		c2.111,2.687,4.22,5.374,6.269,8.109l3.07,4.104c0.995,1.392,2.017,2.761,2.988,4.171c-1.149-1.27-2.247-2.578-3.372-3.866
		l-3.289-3.933c-2.191-2.622-4.321-5.293-6.45-7.965c-2.11-2.688-4.22-5.374-6.268-8.11
		C14.008,107.23,11.964,104.491,10.006,101.685z"/>
</g>
<g display="none">
	<path display="inline" fill="#1D1D1B" d="M10.006,115.501c2.62,2.677,5.001,5.541,7.325,8.452c2.3,2.93,4.541,5.906,6.542,9.072
		c-2.621-2.675-5.003-5.54-7.325-8.452C14.249,121.643,12.009,118.666,10.006,115.501z"/>
</g>
<g display="none">
	<path display="inline" fill="#1D1D1B" d="M107.997,1.985c-5.14,11.187-10.379,22.327-15.632,33.459L76.493,68.788l-16.081,33.244
		l-8.115,16.586l-8.209,16.541l7.768-16.753l7.863-16.707l15.874-33.343l16.083-33.243C97.072,24.049,102.485,12.994,107.997,1.985z
		"/>
</g>
<g display="none">
	<path display="inline" fill="#1D1D1B" d="M113.885,15.134c-4.672,10.211-9.442,20.376-14.229,30.533L85.188,76.084l-14.677,30.317
		l-7.413,15.124l-7.508,15.077l7.066-15.29l7.161-15.243l14.47-30.417l14.679-30.317C103.896,35.248,108.841,25.167,113.885,15.134z
		"/>
</g>
<g display="none">
	<path display="inline" fill="#1D1D1B" d="M113.785,41.847c-3.658,8.1-7.416,16.152-11.188,24.197L91.169,90.125l-11.637,23.981
		l-5.893,11.955l-5.987,11.909l5.545-12.121l5.641-12.076l11.429-24.081l11.639-23.98C105.823,57.736,109.754,49.768,113.785,41.847
		z"/>
</g>
<g display="none">
	<path display="inline" fill="#1D1D1B" d="M113.941,68.024c-2.633,5.964-5.365,11.88-8.112,17.789
		c-2.744,5.91-5.57,11.781-8.352,17.674l-8.561,17.573l-4.354,8.751c-1.484,2.901-2.938,5.818-4.449,8.706
		c1.308-2.986,2.673-5.944,4.008-8.918l4.103-8.872l8.354-17.673c2.856-5.856,5.669-11.733,8.563-17.572
		C108.03,79.643,110.936,73.81,113.941,68.024z"/>
</g>
<g display="none">
	<path display="inline" fill="#1D1D1B" d="M114.702,95.11c-1.662,3.941-3.424,7.835-5.199,11.721
		c-1.774,3.888-3.629,7.736-5.439,11.606c-1.884,3.835-3.729,7.688-5.648,11.506l-2.898,5.717c-0.999,1.891-1.967,3.795-2.993,5.672
		c0.822-1.975,1.702-3.922,2.552-5.884l2.646-5.838c1.776-3.887,3.628-7.736,5.44-11.605c1.887-3.833,3.728-7.688,5.65-11.505
		C110.732,102.683,112.667,98.873,114.702,95.11z"/>
</g>
<g display="none">
	<path display="inline" fill="#1D1D1B" d="M114.455,123.215c-1.161,3.327-2.595,6.523-4.096,9.688
		c-1.527,3.151-3.124,6.269-4.996,9.255c1.158-3.328,2.593-6.524,4.096-9.688C110.988,129.319,112.584,126.202,114.455,123.215z"/>
</g>
<g display="none">
	<path display="inline" fill="#1D1D1B" d="M93.751,3.88c-5.088,10.884-10.274,21.72-15.476,32.549L62.562,68.861l-15.923,32.331
		l-8.035,16.129l-8.13,16.083l7.689-16.298l7.784-16.252l15.716-32.431l15.924-32.33C82.933,25.335,88.293,14.583,93.751,3.88z"/>
</g>
<g display="none">
	<path display="inline" fill="#1D1D1B" d="M78.679,5.345C73.727,15.951,68.676,26.51,63.61,37.061l-15.308,31.6l-15.516,31.498
		l-7.832,15.713l-7.927,15.667l7.486-15.882l7.581-15.835l15.309-31.599l15.518-31.497C68.132,26.244,73.356,15.771,78.679,5.345z"
		/>
</g>
<g display="none">
	<path display="inline" fill="#1D1D1B" d="M64.812,6.181c-4.327,9.326-8.752,18.604-13.192,27.875L38.189,61.815l-13.64,27.657
		l-6.893,13.793l-6.988,13.746l6.548-13.961l6.643-13.915l13.433-27.758L50.932,33.72C55.516,24.52,60.115,15.326,64.812,6.181z"/>
</g>
<g display="none">
	<path display="inline" fill="#1D1D1B" d="M49.345,8.193c-3.047,6.707-6.193,13.366-9.353,20.018l-9.593,19.901l-9.8,19.8
		l-4.974,9.864l-5.069,9.817l4.628-10.032l4.723-9.986l9.594-19.9l9.802-19.799C42.608,21.293,45.927,14.719,49.345,8.193z"/>
</g>
<g display="none">
	<path display="inline" fill="#1D1D1B" d="M36.7,8.908c-1.987,4.537-4.072,9.025-6.172,13.506
		c-2.098,4.482-4.276,8.925-6.411,13.389c-2.208,4.429-4.375,8.877-6.619,13.288l-3.383,6.608c-1.161,2.187-2.29,4.388-3.478,6.562
		c0.984-2.273,2.026-4.517,3.038-6.776l3.133-6.73c2.1-4.481,4.275-8.925,6.412-13.388c2.209-4.428,4.375-8.877,6.621-13.287
		C32.084,17.667,34.343,13.263,36.7,8.908z"/>
</g>
<g display="none">
	<path display="inline" fill="#1D1D1B" d="M25.7,9.976c-1.083,2.687-2.264,5.325-3.46,7.956c-1.186,2.636-2.442,5.237-3.699,7.839
		c-1.278,2.591-2.558,5.181-3.908,7.737l-2.027,3.833c-0.709,1.261-1.387,2.538-2.123,3.786c0.532-1.348,1.123-2.667,1.682-4.001
		l1.777-3.955c1.187-2.636,2.443-5.238,3.701-7.838c1.279-2.59,2.559-5.181,3.909-7.737C22.892,15.035,24.247,12.481,25.7,9.976z"/>
</g>
<path fill="none" stroke="#1D1D1B" stroke-width="2" stroke-miterlimit="10" d="M91.533,73.984
	c0,26.202-16.388,47.445-36.597,47.445c-20.21,0-36.594-21.243-36.594-47.445c0-26.204,16.384-47.439,36.594-47.439
	C75.145,26.544,91.533,47.78,91.533,73.984z"/>
<path fill="#1D1D1B" d="M73.235,73.75c0,14.612-9.142,26.456-20.408,26.456c-11.271,0-20.41-11.844-20.41-26.456
	c0-14.613,9.139-26.458,20.41-26.458C64.093,47.292,73.235,59.137,73.235,73.75z"/>
<polygon fill="none" stroke="#1D1D1B" stroke-miterlimit="10" points="106.756,133.386 3.583,123.611 3.583,23.423 106.39,16.091 
	"/>
<polygon fill="none" stroke="#1D1D1B" stroke-miterlimit="10" points="146.629,129.176 106.756,133.589 106.756,15.979 
	142.999,18.111 "/>
<g>
	<path fill="#1D1D1B" d="M3.363,24.431c8.73,8.853,17.381,17.781,26.02,26.721l25.828,26.905l25.66,27.064l12.771,13.588
		l12.694,13.662l-13.049-13.323l-12.973-13.396L54.488,78.746L28.829,51.68C20.306,42.63,11.795,33.568,3.363,24.431z"/>
</g>
<g>
	<path fill="#1D1D1B" d="M13.742,21.861c7.926,8.009,15.772,16.095,23.607,24.191l23.415,24.375l23.247,24.535l11.564,12.324
		l11.487,12.396L95.22,107.625L83.455,95.493L60.041,71.117L36.795,46.581C29.077,38.374,21.37,30.156,13.742,21.861z"/>
</g>
<g>
	<path fill="#1D1D1B" d="M26.306,21.004c6.879,6.912,13.679,13.9,20.466,20.899l20.274,21.083l20.106,21.243l9.994,10.678
		l9.917,10.751L96.791,95.245L86.595,84.76L66.323,63.675L46.218,42.432C39.546,35.322,32.886,28.201,26.306,21.004z"/>
</g>
<g>
	<path fill="#1D1D1B" d="M38.872,20.147c5.802,5.783,11.524,11.641,17.234,17.511l17.042,17.694l16.875,17.854l8.377,8.983
		l8.302,9.057l-8.656-8.718l-8.579-8.792L72.425,56.042L55.552,38.186C49.958,32.206,44.375,26.214,38.872,20.147z"/>
</g>
<g>
	<path fill="#1D1D1B" d="M53.347,20.147c4.625,4.55,9.172,9.176,13.706,13.813c4.536,4.635,9.007,9.333,13.513,13.996l13.347,14.157
		l6.613,7.135c2.178,2.403,4.381,4.783,6.537,7.208c-2.32-2.268-4.594-4.581-6.892-6.869l-6.815-6.942L79.843,48.646
		c-4.446-4.721-8.928-9.409-13.345-14.158C62.08,29.741,57.674,24.981,53.347,20.147z"/>
</g>
<g>
	<path fill="#1D1D1B" d="M65.639,18.435c3.556,3.429,7.032,6.933,10.497,10.449c3.466,3.514,6.867,7.09,10.304,10.632
		c3.378,3.598,6.787,7.166,10.136,10.792l5.009,5.453c1.644,1.843,3.312,3.662,4.933,5.525c-1.785-1.707-3.523-3.459-5.287-5.187
		l-5.211-5.26c-3.464-3.516-6.867-7.09-10.302-10.634c-3.377-3.6-6.788-7.165-10.135-10.793
		C72.232,25.786,68.896,22.148,65.639,18.435z"/>
</g>
<g>
	<path fill="#1D1D1B" d="M78.748,18.435c2.479,2.299,4.878,4.674,7.266,7.061c2.396,2.378,4.734,4.811,7.072,7.244
		c2.321,2.449,4.642,4.9,6.905,7.404l3.394,3.759c1.104,1.278,2.233,2.533,3.316,3.832c-1.247-1.143-2.446-2.33-3.672-3.493
		l-3.595-3.566c-2.395-2.379-4.734-4.812-7.071-7.246c-2.32-2.45-4.641-4.9-6.904-7.405C83.187,23.527,80.928,21.019,78.748,18.435z
		"/>
</g>
<g>
	<path fill="#1D1D1B" d="M90.766,17.149c2.94,2.512,5.661,5.233,8.329,8.005c2.646,2.793,5.236,5.639,7.605,8.695
		c-2.942-2.51-5.663-5.231-8.329-8.005C95.728,23.049,93.137,20.204,90.766,17.149z"/>
</g>
<g>
	<path fill="#1D1D1B" d="M3.636,39.422c7.343,7.533,14.606,15.142,21.857,22.761l21.663,22.943l21.494,23.101l10.687,11.607
		l10.61,11.679L78.98,120.17l-10.891-11.416L46.428,85.81L24.935,62.707C17.8,54.978,10.678,47.238,3.636,39.422z"/>
</g>
<g>
	<path fill="#1D1D1B" d="M3.636,55.27c6.038,6.141,11.996,12.356,17.942,18.583l17.748,18.766l17.579,18.924l8.729,9.518
		l8.652,9.591l-9.01-9.255l-8.933-9.327L38.597,93.302L21.02,74.377C15.19,68.04,9.373,61.692,3.636,55.27z"/>
</g>
<g>
	<path fill="#1D1D1B" d="M3.363,69.833c4.794,4.813,9.508,9.702,14.209,14.601c4.703,4.898,9.341,9.857,14.015,14.783l13.846,14.941
		l6.863,7.527c2.261,2.533,4.547,5.044,6.786,7.599c-2.404-2.399-4.762-4.844-7.144-7.264l-7.066-7.336L30.859,99.9
		c-4.613-4.982-9.262-9.932-13.845-14.942C12.429,79.949,7.856,74.929,3.363,69.833z"/>
</g>
<g>
	<path fill="#1D1D1B" d="M3.636,86.11c3.443,3.372,6.807,6.819,10.158,10.278c3.353,3.457,6.64,6.976,9.963,10.46
		c3.264,3.54,6.56,7.051,9.795,10.619l4.837,5.365c1.585,1.813,3.197,3.604,4.76,5.438c-1.729-1.679-3.411-3.402-5.118-5.103
		l-5.041-5.175c-3.351-3.459-6.641-6.975-9.962-10.461c-3.262-3.542-6.561-7.051-9.793-10.62
		C10.001,93.344,6.778,89.765,3.636,86.11z"/>
</g>
<g>
	<path fill="#1D1D1B" d="M3.363,99.388c2.252,2.102,4.424,4.277,6.584,6.465c2.168,2.18,4.28,4.413,6.391,6.647
		c2.094,2.25,4.186,4.501,6.221,6.805l3.051,3.459c0.99,1.178,2.005,2.333,2.974,3.531c-1.134-1.044-2.22-2.132-3.332-3.195
		l-3.254-3.269c-2.168-2.181-4.279-4.413-6.389-6.648c-2.093-2.25-4.185-4.502-6.22-6.807C7.346,104.079,5.314,101.771,3.363,99.388
		z"/>
</g>
<g>
	<path fill="#1D1D1B" d="M3.363,110.951c2.578,2.177,4.936,4.56,7.239,6.994c2.281,2.454,4.506,4.961,6.509,7.677
		c-2.58-2.175-4.937-4.559-7.239-6.994C7.593,116.172,5.368,113.665,3.363,110.951z"/>
</g>
<g>
	<path fill="#1D1D1B" d="M100.511,15.937c-5.101,9.391-10.297,18.728-15.507,28.056L69.266,71.917l-15.94,27.81l-8.041,13.864
		l-8.133,13.813l7.707-14.055l7.798-14.002l15.74-27.924l15.941-27.809C89.688,34.365,95.052,25.124,100.511,15.937z"/>
</g>
<g>
	<path fill="#1D1D1B" d="M106.348,26.942c-4.637,8.575-9.368,17.095-14.115,25.607L77.886,78.026l-14.547,25.361l-7.345,12.641
		l-7.437,12.588l7.011-12.83l7.103-12.778l14.348-25.476l14.55-25.36C96.453,43.738,101.353,35.313,106.348,26.942z"/>
</g>
<g>
	<path fill="#1D1D1B" d="M106.248,49.304c-3.632,6.807-7.358,13.559-11.101,20.303L83.815,89.778l-11.533,20.058l-5.838,9.988
		l-5.93,9.936l5.503-10.178l5.595-10.126l11.333-20.171l11.535-20.057C98.362,62.563,102.257,55.906,106.248,49.304z"/>
</g>
<g>
	<path fill="#1D1D1B" d="M106.406,71.213c-2.615,5.02-5.326,9.984-8.052,14.94c-2.723,4.958-5.524,9.872-8.283,14.81
		c-2.828,4.898-5.62,9.817-8.483,14.695l-4.313,7.307c-1.47,2.418-2.91,4.853-4.406,7.255c1.299-2.515,2.654-4.997,3.979-7.497
		l4.071-7.444c2.726-4.957,5.523-9.872,8.284-14.809c2.831-4.896,5.619-9.817,8.486-14.694
		C100.553,80.897,103.432,76.028,106.406,71.213z"/>
</g>
<g>
	<path fill="#1D1D1B" d="M107.161,93.886c-1.653,3.326-3.401,6.598-5.165,9.861c-1.753,3.27-3.574,6.5-5.396,9.729
		c-1.843,3.219-3.687,6.437-5.598,9.615l-2.87,4.768c-0.988,1.571-1.947,3.159-2.962,4.715c0.817-1.668,1.691-3.304,2.536-4.957
		l2.627-4.905c1.754-3.269,3.575-6.499,5.397-9.729c1.844-3.218,3.688-6.436,5.6-9.614
		C103.232,100.185,105.149,97.008,107.161,93.886z"/>
</g>
<g>
	<path fill="#1D1D1B" d="M106.914,117.41c-1.16,2.837-2.585,5.524-4.073,8.175c-1.515,2.636-3.095,5.234-4.941,7.682
		c1.158-2.838,2.583-5.525,4.073-8.175C103.489,122.457,105.069,119.858,106.914,117.41z"/>
</g>
<g>
	<path fill="#1D1D1B" d="M86.393,17.525c-5.05,9.138-10.194,18.221-15.353,27.295L55.457,71.982L39.673,99.027L31.71,112.51
		l-8.054,13.429l7.63-13.675l7.722-13.621l15.585-27.161l15.785-27.045C75.675,35.442,80.987,26.456,86.393,17.525z"/>
</g>
<g>
	<path fill="#1D1D1B" d="M71.445,18.75c-4.915,8.905-9.924,17.756-14.948,26.598L41.318,71.812L25.939,98.16l-7.76,13.134
		l-7.852,13.08l7.428-13.326l7.519-13.272l15.18-26.464l15.38-26.348C60.996,36.202,66.173,27.448,71.445,18.75z"/>
</g>
<g>
	<path fill="#1D1D1B" d="M57.697,19.448c-4.294,7.834-8.684,15.613-13.088,23.384L31.291,66.083L17.772,89.218l-6.831,11.526
		L4.02,112.218l6.498-11.719l6.589-11.666l13.32-23.25l13.521-23.134C48.489,34.758,53.046,27.075,57.697,19.448z"/>
</g>
<g>
	<path fill="#1D1D1B" d="M42.364,21.132c-3.026,5.642-6.147,11.228-9.283,16.806c-3.133,5.58-6.344,11.114-9.513,16.673
		c-3.239,5.519-6.44,11.059-9.713,16.557l-4.928,8.237c-1.674,2.728-3.318,5.473-5.019,8.185c1.504-2.826,3.064-5.619,4.595-8.43
		l4.686-8.377c3.136-5.578,6.344-11.114,9.515-16.672c3.241-5.518,6.439-11.059,9.715-16.556
		C35.693,32.057,38.981,26.567,42.364,21.132z"/>
</g>
<g>
	<path fill="#1D1D1B" d="M29.829,21.731c-1.975,3.825-4.044,7.595-6.128,11.356c-2.082,3.763-4.242,7.48-6.359,11.223
		c-2.187,3.702-4.337,7.425-6.559,11.107L7.431,60.93c-1.148,1.819-2.267,3.655-3.442,5.459c0.979-1.917,2.013-3.803,3.018-5.705
		l3.109-5.652c2.084-3.761,4.241-7.481,6.361-11.222c2.189-3.701,4.336-7.426,6.561-11.106
		C25.26,29.022,27.497,25.349,29.829,21.731z"/>
</g>
<g>
	<path fill="#1D1D1B" d="M18.924,22.626c-1.079,2.276-2.252,4.498-3.44,6.71c-1.178,2.219-2.424,4.398-3.671,6.577
		c-1.267,2.167-2.536,4.333-3.871,6.461l-2.007,3.189c-0.701,1.045-1.372,2.107-2.098,3.137c0.53-1.143,1.117-2.254,1.674-3.382
		l1.765-3.329c1.179-2.218,2.425-4.397,3.672-6.576c1.268-2.167,2.537-4.333,3.873-6.46C16.147,26.82,17.488,24.696,18.924,22.626z"
		/>
</g>
<rect x="35.271" y="98.709" display="none" fill="#1D1D1B" stroke="#1D1D1B" stroke-width="3" stroke-miterlimit="10" width="25.078" height="10.151"/>
<rect x="91.996" y="98.709" display="none" fill="#1D1D1B" stroke="#1D1D1B" stroke-width="3" stroke-miterlimit="10" width="25.078" height="10.151"/>
<path display="none" fill="none" stroke="#1D1D1B" stroke-width="4" stroke-miterlimit="10" d="M145.703,71.21
	c0,17.263,3.626,41.498-11.809,50.828c-7.389,4.465-28.184,13.094-59.647,13.094c-29.005,0-48.275-7.164-55.221-14.359
	C6.077,107.359,5.614,91.428,5.614,73.008c0-35.304,43.361-62.125,69.099-62.125C99.224,10.883,145.703,35.905,145.703,71.21z"/>
<rect x="69.902" y="28.997" display="none" fill="#1D1D1B" stroke="#1D1D1B" stroke-width="3" stroke-miterlimit="10" width="12.837" height="23.735"/>
<path display="none" fill="none" stroke="#1D1D1B" stroke-width="4" stroke-miterlimit="10" d="M145.703,71.21
	c0,17.263,3.626,41.498-11.809,50.828c-7.389,4.465-28.184,13.094-59.647,13.094c-29.005,0-48.275-7.164-55.221-14.359
	C6.077,107.359,5.614,91.428,5.614,73.008c0-35.304,43.361-62.125,69.099-62.125C99.224,10.883,145.703,35.905,145.703,71.21z"/>
<circle display="none" fill="#1D1D1B" stroke="#1D1D1B" stroke-width="3" stroke-miterlimit="10" cx="43.575" cy="76.556" r="12.859"/>
<circle display="none" fill="#1D1D1B" stroke="#1D1D1B" stroke-width="3" stroke-miterlimit="10" cx="110.992" cy="75.972" r="12.859"/>
<g display="none">
	<rect x="26.73" y="14.927" display="inline" fill="#FFFFFF" width="114.497" height="66.278"/>
	<g display="inline">
		<path fill="#1D1D1B" d="M141.227,79.455c-38.166,0-76.331,0-114.497,0c0.583,0.583,1.167,1.167,1.75,1.75
			c0-22.093,0-44.185,0-66.278c-0.583,0.583-1.167,1.167-1.75,1.75c38.166,0,76.331,0,114.497,0c-0.583-0.583-1.167-1.167-1.75-1.75
			c0,22.093,0,44.185,0,66.278c0,2.257,3.5,2.257,3.5,0c0-22.093,0-44.185,0-66.278c0-0.954-0.796-1.75-1.75-1.75
			c-38.166,0-76.331,0-114.497,0c-0.954,0-1.75,0.796-1.75,1.75c0,22.093,0,44.185,0,66.278c0,0.954,0.796,1.75,1.75,1.75
			c38.166,0,76.331,0,114.497,0C143.484,82.955,143.484,79.455,141.227,79.455z"/>
	</g>
</g>
<g display="none">
	<polygon display="inline" fill="#FFFFFF" points="115.593,119.998 1.768,119.998 27.103,81.576 140.929,81.575 	"/>
	<g display="inline">
		<path fill="#1D1D1B" d="M115.593,118.248c-37.942,0-75.884,0-113.826,0c0.504,0.878,1.007,1.756,1.511,2.633
			c6.771-10.268,13.542-20.536,20.312-30.805c1.369-2.075,2.737-4.15,4.105-6.226c1.517-2.301-0.381-0.524-0.183-0.524
			c3.152,0,6.304,0,9.456,0c29.396,0,58.792-0.001,88.189-0.001c5.258,0,10.515,0,15.771,0c-0.504-0.878-1.008-1.756-1.511-2.633
			c-8.445,12.808-16.891,25.615-25.336,38.423c-1.247,1.89,1.785,3.641,3.021,1.766c8.445-12.808,16.891-25.615,25.336-38.423
			c0.743-1.126-0.238-2.633-1.511-2.633c-23.751,0-47.502,0-71.252,0.001c-12.615,0-25.23,0-37.846,0
			c-1.524,0-5.212-0.691-6.24,0.867c-2.462,3.733-4.924,7.468-7.386,11.201c-5.983,9.073-11.966,18.146-17.949,27.221
			c-0.743,1.126,0.239,2.633,1.511,2.633c37.942,0,75.883,0,113.826,0C117.85,121.748,117.85,118.248,115.593,118.248z"/>
	</g>
</g>
<polygon display="none" fill="#FFFFFF" stroke="#1D1D1B" stroke-width="3" stroke-miterlimit="10" points="126.995,102.707 
	12.844,102.707 3.587,118.666 115.679,119.998 "/>
<line display="none" fill="#FFFFFF" stroke="#1D1D1B" stroke-width="0.5" stroke-miterlimit="10" x1="14.855" y1="97.665" x2="130.32" y2="97.665"/>
<line display="none" fill="#FFFFFF" stroke="#1D1D1B" stroke-width="0.5" stroke-miterlimit="10" x1="18.04" y1="92.262" x2="135.584" y2="92.262"/>
<line display="none" fill="#FFFFFF" stroke="#1D1D1B" stroke-width="0.5" stroke-miterlimit="10" x1="21.539" y1="87.398" x2="137.089" y2="87.398"/>
<line display="none" fill="#FFFFFF" stroke="#1D1D1B" stroke-width="0.5" stroke-miterlimit="10" x1="35.227" y1="82.266" x2="21.539" y2="102.258"/>
<line display="none" fill="#FFFFFF" stroke="#1D1D1B" stroke-width="0.5" stroke-miterlimit="10" x1="42.071" y1="82.716" x2="28.383" y2="102.707"/>
<line display="none" fill="#FFFFFF" stroke="#1D1D1B" stroke-width="0.5" stroke-miterlimit="10" x1="48.259" y1="82.716" x2="34.571" y2="102.707"/>
<line display="none" fill="#FFFFFF" stroke="#1D1D1B" stroke-width="0.5" stroke-miterlimit="10" x1="55.103" y1="82.716" x2="41.415" y2="102.707"/>
<line display="none" fill="#FFFFFF" stroke="#1D1D1B" stroke-width="0.5" stroke-miterlimit="10" x1="61.947" y1="82.266" x2="48.259" y2="102.258"/>
<line display="none" fill="#FFFFFF" stroke="#1D1D1B" stroke-width="0.5" stroke-miterlimit="10" x1="68.791" y1="82.266" x2="55.103" y2="102.258"/>
<line display="none" fill="#FFFFFF" stroke="#1D1D1B" stroke-width="0.5" stroke-miterlimit="10" x1="75.635" y1="82.716" x2="61.947" y2="102.707"/>
<line display="none" fill="#FFFFFF" stroke="#1D1D1B" stroke-width="0.5" stroke-miterlimit="10" x1="81.682" y1="82.266" x2="67.994" y2="102.258"/>
<line display="none" fill="#FFFFFF" stroke="#1D1D1B" stroke-width="0.5" stroke-miterlimit="10" x1="88.524" y1="82.266" x2="74.837" y2="102.258"/>
<line display="none" fill="#FFFFFF" stroke="#1D1D1B" stroke-width="0.5" stroke-miterlimit="10" x1="95.369" y1="82.716" x2="81.682" y2="102.707"/>
<path display="none" fill="#FFFFFF" stroke="#1D1D1B" stroke-width="0.5" stroke-miterlimit="10" d="M95.372,102.707l13.685-19.991
	L95.372,102.707z"/>
<polygon display="none" fill="#1D1D1B" stroke="#1D1D1B" stroke-miterlimit="10" points="114.828,82.716 101.143,102.707 
	95.372,102.707 109.056,82.716 "/>
<line display="none" fill="#FFFFFF" stroke="#1D1D1B" stroke-width="0.5" stroke-miterlimit="10" x1="121.674" y1="82.706" x2="108.977" y2="102.707"/>
<line display="none" fill="#FFFFFF" stroke="#1D1D1B" stroke-width="0.5" stroke-miterlimit="10" x1="129.958" y1="82.706" x2="117.11" y2="102.239"/>
<polygon display="none" fill="#FFFFFF" stroke="#1D1D1B" stroke-width="0.5" stroke-miterlimit="10" points="115.667,92.262 
	108.612,92.262 105.071,97.665 112.128,97.665 "/>
<polygon display="none" fill="#FFFFFF" stroke="#1D1D1B" stroke-width="0.5" stroke-miterlimit="10" points="131.977,92.262 
	123.673,92.262 120.36,97.665 128.314,97.665 "/>
<polyline display="none" fill="#FFFFFF" stroke="#1D1D1B" stroke-width="0.5" stroke-miterlimit="10" points="101.718,83.223 
	99.223,87.208 95.79,92.152 "/>
<line display="none" fill="#FFFFFF" stroke="#1D1D1B" stroke-width="0.5" stroke-miterlimit="10" x1="91.821" y1="97.665" x2="88.526" y2="102.707"/>
<polygon display="none" fill="#FFFFFF" stroke="#1D1D1B" stroke-width="0.5" stroke-miterlimit="10" points="75.323,114.235 
	42.952,114.235 50.157,106.55 82.529,106.55 "/>
</svg>
