<?xml version="1.0" encoding="utf-8"?>
<!-- Generator: Adobe Illustrator 15.0.0, SVG Export Plug-In  -->
<!DOCTYPE svg PUBLIC "-//W3C//DTD SVG 1.1//EN" "http://www.w3.org/Graphics/SVG/1.1/DTD/svg11.dtd" [
	<!ENTITY ns_flows "http://ns.adobe.com/Flows/1.0/">
]>
<svg version="1.1"
	 xmlns="http://www.w3.org/2000/svg" xmlns:xlink="http://www.w3.org/1999/xlink" xmlns:a="http://ns.adobe.com/AdobeSVGViewerExtensions/3.0/"
	 x="0px" y="0px" width="150px" height="80px" viewBox="-0.335 -1.374 150 80" enable-background="new -0.335 -1.374 150 80"
	 xml:space="preserve">
<defs>
</defs>
<polygon display="none" fill="#FFFFFF" stroke="#000000" stroke-miterlimit="10" points="4.008,38.469 15.961,25.602 21.938,25.602 
	9.984,38.469 "/>
<polygon display="none" fill="#FFFFFF" stroke="#000000" stroke-miterlimit="10" points="9.984,38.469 21.938,25.602 27.914,25.602 
	15.961,38.469 "/>
<polygon display="none" fill="#FFFFFF" stroke="#000000" stroke-miterlimit="10" points="15.961,38.469 27.914,25.602 33.89,25.602 
	21.938,38.469 "/>
<polygon display="none" fill="#FFFFFF" stroke="#000000" stroke-miterlimit="10" points="21.938,38.469 33.89,25.602 39.866,25.602 
	27.914,38.469 "/>
<polygon display="none" fill="#FFFFFF" stroke="#000000" stroke-miterlimit="10" points="27.914,38.469 39.866,25.602 
	45.842,25.602 33.89,38.469 "/>
<polygon display="none" fill="#FFFFFF" stroke="#000000" stroke-miterlimit="10" points="33.89,38.469 45.842,25.602 51.819,25.602 
	39.866,38.469 "/>
<polygon display="none" fill="#FFFFFF" stroke="#000000" stroke-miterlimit="10" points="39.866,38.469 51.819,25.602 
	57.795,25.602 45.842,38.469 "/>
<polygon display="none" fill="#FFFFFF" stroke="#000000" stroke-miterlimit="10" points="45.842,38.469 57.795,25.602 
	63.771,25.602 51.819,38.469 "/>
<polygon display="none" fill="#FFFFFF" stroke="#000000" stroke-miterlimit="10" points="51.819,38.469 63.771,25.602 
	69.749,25.602 57.795,38.469 "/>
<polygon display="none" fill="#FFFFFF" stroke="#000000" stroke-miterlimit="10" points="57.795,38.469 69.749,25.602 
	75.724,25.602 63.771,38.469 "/>
<polygon display="none" fill="#FFFFFF" stroke="#000000" stroke-miterlimit="10" points="63.771,38.469 75.724,25.602 
	81.702,25.602 69.749,38.469 "/>
<polygon display="none" fill="#FFFFFF" stroke="#000000" stroke-miterlimit="10" points="69.749,38.469 81.702,25.602 
	87.678,25.602 75.724,38.469 "/>
<polygon display="none" fill="#FFFFFF" stroke="#000000" stroke-miterlimit="10" points="75.724,38.469 87.678,25.602 
	93.652,25.602 81.702,38.469 "/>
<polygon display="none" fill="#FFFFFF" stroke="#000000" stroke-miterlimit="10" points="81.702,38.469 93.652,25.602 99.63,25.602 
	87.678,38.469 "/>
<polygon display="none" fill="#FFFFFF" stroke="#000000" stroke-miterlimit="10" points="87.678,38.469 99.63,25.602 
	105.605,25.602 93.652,38.469 "/>
<polygon display="none" fill="#FFFFFF" stroke="#000000" stroke-miterlimit="10" points="93.652,38.469 105.605,25.602 
	111.583,25.602 99.63,38.469 "/>
<polygon display="none" fill="#FFFFFF" stroke="#000000" stroke-miterlimit="10" points="99.63,38.469 111.583,25.602 
	117.56,25.602 105.605,38.469 "/>
<polygon display="none" fill="#FFFFFF" stroke="#000000" stroke-miterlimit="10" points="105.605,38.469 117.56,25.602 
	123.534,25.602 111.583,38.469 "/>
<polygon display="none" fill="#FFFFFF" stroke="#000000" stroke-miterlimit="10" points="111.583,38.469 123.534,25.602 
	129.511,25.602 117.56,38.469 "/>
<polygon display="none" fill="#FFFFFF" stroke="#000000" stroke-miterlimit="10" points="117.56,38.469 129.511,25.602 
	135.489,25.602 123.534,38.469 "/>
<polygon display="none" fill="#FFFFFF" stroke="#000000" stroke-miterlimit="10" points="123.534,38.469 135.489,25.602 
	141.466,25.602 129.511,38.469 "/>
<rect x="4.34" y="38.469" display="none" fill="#FFFFFF" stroke="#000000" stroke-miterlimit="10" width="5.645" height="6.076"/>
<rect x="10.317" y="38.469" display="none" fill="#FFFFFF" stroke="#000000" stroke-miterlimit="10" width="5.644" height="6.076"/>
<rect x="16.292" y="38.469" display="none" fill="#FFFFFF" stroke="#000000" stroke-miterlimit="10" width="5.646" height="6.076"/>
<rect x="21.938" y="38.469" display="none" fill="#FFFFFF" stroke="#000000" stroke-miterlimit="10" width="5.644" height="6.076"/>
<rect x="27.914" y="38.469" display="none" fill="#FFFFFF" stroke="#000000" stroke-miterlimit="10" width="5.643" height="6.076"/>
<rect x="34.223" y="38.469" display="none" fill="#FFFFFF" stroke="#000000" stroke-miterlimit="10" width="5.644" height="6.076"/>
<rect x="40.198" y="38.469" display="none" fill="#FFFFFF" stroke="#000000" stroke-miterlimit="10" width="5.644" height="6.076"/>
<rect x="46.174" y="38.469" display="none" fill="#FFFFFF" stroke="#000000" stroke-miterlimit="10" width="5.645" height="6.076"/>
<rect x="51.819" y="38.469" display="none" fill="#FFFFFF" stroke="#000000" stroke-miterlimit="10" width="5.644" height="6.076"/>
<rect x="57.795" y="38.469" display="none" fill="#FFFFFF" stroke="#000000" stroke-miterlimit="10" width="5.645" height="6.076"/>
<rect x="63.771" y="38.469" display="none" fill="#FFFFFF" stroke="#000000" stroke-miterlimit="10" width="5.645" height="6.076"/>
<rect x="69.416" y="38.469" display="none" fill="#FFFFFF" stroke="#000000" stroke-miterlimit="10" width="5.645" height="6.076"/>
<rect x="75.393" y="38.469" display="none" fill="#FFFFFF" stroke="#000000" stroke-miterlimit="10" width="5.645" height="6.076"/>
<rect x="81.702" y="38.469" display="none" fill="#FFFFFF" stroke="#000000" stroke-miterlimit="10" width="5.643" height="6.076"/>
<rect x="87.678" y="38.469" display="none" fill="#FFFFFF" stroke="#000000" stroke-miterlimit="10" width="5.644" height="6.076"/>
<rect x="93.652" y="38.469" display="none" fill="#FFFFFF" stroke="#000000" stroke-miterlimit="10" width="5.646" height="6.076"/>
<rect x="99.63" y="38.469" display="none" fill="#FFFFFF" stroke="#000000" stroke-miterlimit="10" width="5.644" height="6.076"/>
<rect x="105.605" y="38.469" display="none" fill="#FFFFFF" stroke="#000000" stroke-miterlimit="10" width="5.646" height="6.076"/>
<rect x="111.583" y="38.469" display="none" fill="#FFFFFF" stroke="#000000" stroke-miterlimit="10" width="5.645" height="6.076"/>
<rect x="117.228" y="38.469" display="none" fill="#FFFFFF" stroke="#000000" stroke-miterlimit="10" width="5.645" height="6.076"/>
<rect x="123.203" y="38.469" display="none" fill="#FFFFFF" stroke="#000000" stroke-miterlimit="10" width="5.644" height="6.076"/>
<polygon display="none" fill="#1D1D1B" points="18.617,33.621 25.701,25.625 29.242,25.513 22.158,33.732 "/>
<polygon display="none" fill="#1D1D1B" points="30.362,33.71 37.445,25.714 40.987,25.602 33.903,33.822 "/>
<polygon display="none" fill="#1D1D1B" points="36.462,33.621 43.546,25.625 47.087,25.513 40.005,33.732 "/>
<polygon display="none" fill="#1D1D1B" points="42.523,33.621 49.605,25.625 53.147,25.513 46.064,33.732 "/>
<polygon display="none" fill="#1D1D1B" points="72.113,33.531 79.197,25.535 82.738,25.422 75.654,33.643 "/>
<polygon display="none" fill="#1D1D1B" points="78.215,33.441 85.298,25.446 88.838,25.334 81.755,33.553 "/>
<polygon display="none" fill="#1D1D1B" points="84.273,33.441 91.356,25.446 94.897,25.334 87.816,33.553 "/>
<polygon display="none" fill="#1D1D1B" points="114.031,33.889 121.114,25.894 124.656,25.78 117.571,34.001 "/>
<polygon display="none" fill="#1D1D1B" points="120.133,33.8 127.214,25.804 130.758,25.691 123.673,33.913 "/>
<polygon display="none" fill="#1D1D1B" points="126.192,33.8 133.274,25.804 136.816,25.691 129.731,33.913 "/>
<polygon display="none" fill="#1D1D1B" points="12.806,33.621 19.889,25.625 23.432,25.513 16.348,33.732 "/>
<polygon display="none" fill="#1D1D1B" points="60.369,33.621 67.452,25.625 70.993,25.513 63.91,33.732 "/>
<polygon display="none" fill="#1D1D1B" points="54.558,33.621 61.642,25.625 65.182,25.513 58.1,33.732 "/>
<polygon display="none" fill="#1D1D1B" points="102.535,33.621 109.619,25.625 113.159,25.513 106.076,33.732 "/>
<polygon display="none" fill="#1D1D1B" points="96.726,33.621 103.809,25.625 107.35,25.513 100.265,33.732 "/>
<rect x="1.665" y="42.004" display="none" width="127.79" height="9.289"/>
<polygon display="none" fill="none" stroke="#000000" stroke-miterlimit="10" points="142.968,24.855 12.806,24.855 15.665,17.417 
	146.332,16.358 "/>
<path display="none" d="M15.515,25.748L4.008,38.469v3.804H1.709c0,0,0.046-5.592,0.046-5.718c0-2.589,5.278-6.876,10.016-10.808"/>
<path display="none" fill="#1D1D1B" d="M146.998,16.094l-2.021,23.265L132.29,51.095l-3.188,0.099c0,0-0.109-12.205-0.063-12.306
	c0.479-1.026,2.25-3.474,11.938-12.307"/>
<ellipse display="none" cx="19.29" cy="21.718" rx="0.75" ry="1.191"/>
<ellipse display="none" cx="29.415" cy="21.718" rx="0.75" ry="1.191"/>
<ellipse display="none" cx="38.415" cy="21.917" rx="0.75" ry="1.191"/>
<ellipse display="none" cx="47.415" cy="21.52" rx="0.75" ry="1.191"/>
<ellipse display="none" cx="56.415" cy="21.52" rx="0.75" ry="1.191"/>
<ellipse display="none" cx="66.29" cy="21.52" rx="0.75" ry="1.191"/>
<ellipse display="none" cx="76.04" cy="21.321" rx="0.75" ry="1.191"/>
<ellipse display="none" cx="86.665" cy="21.52" rx="0.75" ry="1.191"/>
<ellipse display="none" cx="100.29" cy="21.321" rx="0.75" ry="1.191"/>
<ellipse display="none" cx="115.165" cy="21.388" rx="0.75" ry="1.191"/>
<ellipse display="none" cx="126.332" cy="21.123" rx="0.75" ry="1.191"/>
<ellipse display="none" cx="139.999" cy="21.388" rx="0.75" ry="1.191"/>
<path display="none" fill="#1D1D1B" d="M28.193,20.355c1.179-0.145,2.634-0.065,4.433,0.376c7.994,1.963,72.006,16.33,72.006,16.33
	s25.51,6.378,27.179,16.523c0,0,0.717-21.45,4.053-31.307c0,0-5.722,9.277-43.63,3.48c-37.911-5.799-62.23-9.567-62.23-9.567
	s-4.522-0.262-7.633,2.821"/>
<path display="none" fill="#1D1D1B" stroke="#FFFFFF" stroke-width="0.5" stroke-miterlimit="10" d="M48.998,56.144
	c0,2.107-1.049,2.658-2.782,2.658h-0.894c-1.735,0-2.604-0.551-2.604-2.658V18.848c0-2.108,0.75-2.222,2.664-2.078h1.012
	c1.555-0.145,2.604-0.031,2.604,2.078V56.144z"/>
<path display="none" fill="#1D1D1B" stroke="#FFFFFF" stroke-width="0.5" stroke-miterlimit="10" d="M54.422,57.726
	c0,2.176-1.048,2.744-2.782,2.744h-0.895c-1.734,0-2.603-0.568-2.603-2.744v-38.52c0-2.177,0.75-2.294,2.664-2.145h1.012
	c1.555-0.149,2.604-0.032,2.604,2.145V57.726z"/>
<path display="none" fill="#1D1D1B" stroke="#FFFFFF" stroke-width="0.5" stroke-miterlimit="10" d="M60.681,59.588
	c0,2.194-1.048,2.768-2.781,2.768h-0.895c-1.733,0-2.603-0.573-2.603-2.768V20.77c0-2.192,0.75-2.313,2.664-2.163h1.013
	c1.555-0.15,2.603-0.03,2.603,2.163V59.588z"/>
<path display="none" fill="#1D1D1B" stroke="#FFFFFF" stroke-width="0.5" stroke-miterlimit="10" d="M20.174,22.595
	c-0.113,1.15-0.477,2.365-0.55,3.807c-0.15,2.988-3.277,15.885,14.247,20.244c15.362,3.819,54.307,15.348,54.307,15.348
	s14.188,4.128,14.544-10.439c0.386-15.646-9.298-17.681-13.589-18.261c-4.294-0.579-76.059-16.522-76.059-16.522
	s-2.622,3.479,0.239,4.348c2.862,0.87,75.82,16.813,75.82,16.813s10.734,1.491,9.774,13.914c-0.656,8.478-10.49,5.219-10.49,5.219
	s-57.08-15.633-59.266-16.262c-3.147-0.904-7.911-5.687-5.638-16.419c0,0,0.131-0.479,0.182-1.081"/>
<path display="none" fill="#1D1D1B" d="M12.725,16.461l-2.86-0.772c0,0-7.47-6.765-8.742-1.546
	c-1.272,5.218,1.272,6.184,8.106,5.796l2.702,0.388C11.931,20.327,11.453,18.008,12.725,16.461z"/>
<path display="none" fill="none" stroke="#000000" stroke-miterlimit="10" d="M147.793,40.598
	c-1.622,14.922-6.382,26.466-10.627,25.781c-4.244-0.681-6.374-13.33-4.75-28.254c1.622-14.919,6.381-26.461,10.627-25.78
	C147.287,13.029,149.413,25.679,147.793,40.598z"/>
<ellipse display="none" fill="#FFFFFF" stroke="#FFFFFF" stroke-width="0.5" stroke-miterlimit="10" cx="45.819" cy="17.253" rx="2.583" ry="0.725"/>
<path display="none" d="M47.885,11.276c0,0.365-0.744,0.673-1.751,0.757v5.512h-1.268v-5.529c-0.925-0.098-1.593-0.391-1.593-0.74
	c0-0.435,1.035-0.785,2.31-0.785C46.855,10.492,47.885,10.842,47.885,11.276z"/>
<ellipse display="none" fill="#FFFFFF" stroke="#FFFFFF" stroke-width="0.5" stroke-miterlimit="10" cx="51.223" cy="17.591" rx="2.583" ry="0.725"/>
<path display="none" d="M53.448,12.1c0,0.347-0.743,0.639-1.75,0.718v5.211h-1.268v-5.227c-0.926-0.094-1.593-0.37-1.593-0.702
	c0-0.41,1.035-0.741,2.308-0.741C52.418,11.359,53.448,11.69,53.448,12.1z"/>
<ellipse display="none" fill="#FFFFFF" stroke="#FFFFFF" stroke-width="0.5" stroke-miterlimit="10" cx="57.542" cy="19.041" rx="2.583" ry="0.725"/>
<path display="none" d="M59.607,13.112c0,0.365-0.744,0.673-1.75,0.758v5.511h-1.268v-5.527c-0.925-0.098-1.592-0.392-1.592-0.741
	c0-0.435,1.035-0.785,2.308-0.785C58.577,12.328,59.607,12.677,59.607,13.112z"/>
<path display="none" fill="none" stroke="#FFFFFF" stroke-width="0.5" stroke-miterlimit="10" d="M42.677,20.584
	c0,0,3.126,2.149,5.473,0.498c0,0,2.165,2.403,6.182,0.816c0,0,1.67,3.06,6.25,1.205"/>
<path display="none" fill="none" stroke="#FFFFFF" stroke-width="0.5" stroke-miterlimit="10" d="M42.581,53.952
	c0,0,3.048,2.306,5.452,0.777c0,0,2.08,2.507,6.147,1.127c0,0,1.565,3.143,6.205,1.52"/>
<ellipse display="none" fill="none" stroke="#FFFFFF" stroke-width="0.5" stroke-miterlimit="10" cx="64.178" cy="47.362" rx="2.819" ry="4.066"/>
<ellipse display="none" fill="none" stroke="#FFFFFF" stroke-width="0.5" stroke-miterlimit="10" cx="38.088" cy="40.031" rx="2.819" ry="4.065"/>
<line display="none" fill="none" stroke="#FFFFFF" stroke-width="0.5" stroke-miterlimit="10" x1="84.172" y1="36.127" x2="84.04" y2="56.847"/>
<path display="none" fill="none" stroke="#FFFFFF" stroke-width="0.5" stroke-miterlimit="10" d="M83.254,32.3
	c0,0-0.917,2.781-0.131,4.264"/>
<path display="none" fill="none" stroke="#FFFFFF" stroke-width="0.5" stroke-miterlimit="10" d="M82.86,55.612
	c0,0-0.786,1.58-0.263,4.543"/>
<path fill="#1D1D1B" d="M139.586,61.662c-2.479,8.563-14.937,5.398-20.384,3.821c-4.55-1.315-69.493-17.41-91.012-22.767
	c-0.135-0.032-0.453,0.227-0.584,0.194c-4.061-1.012-5.837-1.491-5.837-1.491s-3.244-3.114,0.843-2.984
	c0.522,0.017,2.739,0.715,6.162,1.557c0.136,0.034,0.183,0.355,0.324,0.391c22.026,5.43,90.978,22.613,90.978,22.613
	s15.733,4.722,16.884-2.378c0.789-4.841-14.142-8.213-14.142-8.213s-71.732-16.37-74.781-17.342
	c-1.352-0.43-7.213-1.771-14.497-3.546c-0.235-0.057-0.508,0.102-0.746,0.044c-6.845-1.673-14.792-3.922-21.446-5.932
	c-3.234-0.978-6.16-2.541-8.033-4.478c-1.952-2.019-2.648-3.945-2.724-6.324l0.076-1.47l0.259-1.773
	c0.843-4.377,5.618-3.728,5.618-3.728s18.525,2.354,47.411,5.994c28.195,3.542,33.024-1.917,33.231-2.172
	c-2.523,6.175-3.071,19.606-3.071,19.606c-1.272-6.358-20.708-10.35-20.708-10.35s-48.85-9.276-55-10.171
	C6.8,10.528,4.166,9.528,3.521,12.621c-0.01,0.025-0.389,2.163-0.259,3.2c0.103,0.818,0.669,2.582,1.988,3.935
	c1.069,1.095,3.153,2.351,4.584,2.854c5.847,2.054,14.412,4.157,23.934,6.551c0.2,0.049,0.295,0.35,0.496,0.4
	c5.938,1.486,12.27,2.987,18.625,4.439c20.102,4.597,70.581,15.981,70.581,15.981S141.902,53.679,139.586,61.662z"/>
<path fill="#1D1D1B" d="M21.976,38.579l-1.839-0.512c0,0-4.667-3.882-5.645-1.132c-0.978,2.749,0.651,3.354,5.11,3.384l1.748,0.302
	C21.349,40.622,21.104,39.364,21.976,38.579z"/>
<ellipse transform="matrix(0.9913 0.1313 -0.1313 0.9913 3.7156 -11.585)" fill="none" stroke="#000000" stroke-miterlimit="10" cx="89.72" cy="22.387" rx="5.054" ry="15.76"/>
<line fill="#FFFFFF" stroke="#050505" stroke-width="0.5" stroke-miterlimit="10" x1="24.982" y1="12.421" x2="24.865" y2="28.188"/>
<line fill="#FFFFFF" stroke="#050505" stroke-width="0.5" stroke-miterlimit="10" x1="32.506" y1="14.366" x2="32.389" y2="30.134"/>
<polygon fill="#1D1D1B" points="30.354,29.393 26.772,28.53 26.753,13.297 30.521,13.763 "/>
<line fill="#FFFFFF" stroke="#050505" stroke-miterlimit="10" x1="36.557" y1="31.431" x2="31.238" y2="41.548"/>
<line fill="#FFFFFF" stroke="#050505" stroke-width="2" stroke-miterlimit="10" x1="31.369" y1="29.744" x2="26.049" y2="39.862"/>
<path fill="none" stroke="#FFFFFF" stroke-width="0.25" stroke-miterlimit="10" d="M28.838,40.446c0,0-1.102,0.52-0.973,2.205"/>
<path fill="none" stroke="#FFFFFF" stroke-width="0.25" stroke-miterlimit="10" d="M34.028,29.55c0,0-0.519,0.065-0.844,1.751"/>
<g display="none">
	<path display="inline" fill="#1D1D1B" d="M98.011,37.44c-3.504,5.232-7.715,9.991-12.471,14.125
		c-2.374,2.071-4.891,3.988-7.575,5.653c-2.683,1.656-5.538,3.091-8.605,3.953c-1.534,0.411-3.126,0.681-4.737,0.63
		c-1.59-0.046-3.259-0.433-4.606-1.391c-1.365-0.942-2.271-2.437-2.702-3.995c-0.44-1.568-0.49-3.203-0.352-4.794
		c0.297-3.194,1.306-6.252,2.568-9.155c1.28-2.905,2.851-5.665,4.607-8.303c3.51-5.263,7.733-10.055,12.507-14.222
		c2.402-2.066,4.948-3.975,7.662-5.631c2.714-1.647,5.6-3.072,8.707-3.921c1.557-0.396,3.173-0.649,4.809-0.577
		c1.608,0.066,3.314,0.481,4.674,1.475c1.38,0.98,2.26,2.519,2.663,4.088c0.411,1.583,0.428,3.216,0.259,4.799
		c-0.354,3.179-1.425,6.198-2.727,9.065C101.384,32.112,99.787,34.841,98.011,37.44z M97.929,37.385
		c1.73-2.624,3.279-5.371,4.532-8.248c1.225-2.88,2.172-5.913,2.424-9.012c0.115-1.542,0.043-3.109-0.387-4.565
		c-0.423-1.452-1.264-2.769-2.483-3.599c-1.218-0.849-2.706-1.198-4.226-1.235c-1.513-0.041-3.038,0.223-4.518,0.629
		c-2.972,0.809-5.791,2.192-8.448,3.805c-2.659,1.621-5.166,3.498-7.534,5.532c-4.747,4.061-8.967,8.75-12.492,13.922
		c-1.75,2.584-3.325,5.302-4.605,8.147c-1.264,2.844-2.273,5.837-2.583,8.921c-0.146,1.535-0.106,3.099,0.294,4.569
		c0.396,1.464,1.211,2.823,2.446,3.692c1.229,0.884,2.755,1.264,4.292,1.321c1.538,0.062,3.087-0.186,4.589-0.576
		c3.012-0.796,5.863-2.17,8.55-3.772c2.689-1.612,5.225-3.481,7.622-5.51C90.168,47.312,94.398,42.588,97.929,37.385z"/>
</g>
<g display="none">
	<path display="inline" fill="#1D1D1B" d="M103.719,12.355l-22.146,16.67C77.88,31.8,74.22,34.621,70.456,37.3
		c-3.779,2.658-7.548,5.331-11.442,7.831l-0.06-0.08c3.556-2.963,7.239-5.752,10.911-8.557c3.687-2.784,7.478-5.426,11.236-8.113
		l22.56-16.106L103.719,12.355z"/>
</g>
<g display="none">
	<path display="inline" fill="#1D1D1B" d="M101.371,10.917c-6.598,4.984-13.212,9.946-19.842,14.885
		c-3.31,2.477-6.585,5.001-9.965,7.382c-3.395,2.36-6.779,4.735-10.289,6.937l-0.059-0.08c3.172-2.666,6.471-5.158,9.759-7.665
		c3.303-2.487,6.709-4.831,10.083-7.221c6.734-4.795,13.486-9.569,20.254-14.319L101.371,10.917z"/>
</g>
<g display="none">
	<path display="inline" fill="#1D1D1B" d="M97.208,10.541c-5.367,4.073-10.75,8.124-16.149,12.151
		c-2.694,2.022-5.354,4.09-8.119,6.015c-2.779,1.904-5.548,3.824-8.442,5.57l-0.059-0.081c2.558-2.21,5.241-4.247,7.913-6.298
		c2.688-2.031,5.479-3.919,8.236-5.853c5.504-3.884,11.024-7.746,16.561-11.585L97.208,10.541z"/>
</g>
<g display="none">
	<path display="inline" fill="#1D1D1B" d="M89.979,12.188c-3.096,2.462-6.209,4.902-9.339,7.319c-1.559,1.217-3.084,2.479-4.714,3.6
		c-1.632,1.117-3.288,2.204-5.041,3.156l-0.06-0.08c1.429-1.393,2.957-2.653,4.506-3.881c1.553-1.226,3.21-2.309,4.833-3.438
		c3.235-2.274,6.486-4.526,9.755-6.756L89.979,12.188z"/>
</g>
<g display="none">
	<path display="inline" fill="#1D1D1B" d="M105.004,14.925L81.515,32.548c-3.917,2.934-7.8,5.914-11.789,8.751
		c-4.003,2.816-7.995,5.648-12.114,8.307l-0.059-0.08c3.78-3.122,7.687-6.07,11.582-9.034c3.911-2.942,7.926-5.743,11.907-8.589
		l23.902-17.058L105.004,14.925z"/>
</g>
<g display="none">
	<path display="inline" fill="#1D1D1B" d="M105.229,18.626L81.74,36.249c-3.917,2.934-7.801,5.914-11.789,8.751
		c-4.003,2.816-7.995,5.648-12.114,8.307l-0.059-0.08c3.78-3.122,7.687-6.07,11.582-9.033c3.911-2.943,7.925-5.744,11.907-8.59
		l23.902-17.058L105.229,18.626z"/>
</g>
<g display="none">
	<path display="inline" fill="#1D1D1B" d="M104.686,22.873L81.628,40.226c-3.846,2.89-7.657,5.825-11.573,8.617
		c-3.932,2.771-7.852,5.559-11.898,8.173l-0.06-0.08c3.708-3.076,7.543-5.98,11.366-8.899c3.839-2.897,7.782-5.653,11.691-8.455
		l23.473-16.79L104.686,22.873z"/>
</g>
<g display="none">
	<path display="inline" fill="#1D1D1B" d="M103.578,26.76L81.479,43.434c-3.687,2.776-7.338,5.598-11.095,8.277
		c-3.771,2.658-7.532,5.332-11.419,7.833l-0.06-0.08c3.548-2.963,7.223-5.754,10.887-8.559c3.679-2.785,7.463-5.428,11.212-8.116
		l22.515-16.11L103.578,26.76z"/>
</g>
<g display="none">
	<path display="inline" fill="#1D1D1B" d="M101.412,31.778c-6.582,4.985-13.181,9.949-19.796,14.889
		c-3.302,2.479-6.57,5.003-9.942,7.385c-3.388,2.36-6.764,4.736-10.267,6.939l-0.059-0.08c3.165-2.666,6.456-5.159,9.736-7.667
		c3.295-2.487,6.694-4.832,10.061-7.223c6.72-4.798,13.456-9.572,20.209-14.325L101.412,31.778z"/>
</g>
<g display="none">
	<path display="inline" fill="#1D1D1B" d="M98.577,36.891c-5.511,4.213-11.037,8.404-16.581,12.572
		c-2.766,2.092-5.497,4.23-8.334,6.226c-2.852,1.975-5.692,3.965-8.66,5.781l-0.059-0.08c2.628-2.28,5.384-4.387,8.128-6.508
		c2.76-2.102,5.623-4.06,8.453-6.064c5.647-4.024,11.313-8.027,16.994-12.007L98.577,36.891z"/>
</g>
<g display="none">
	<path display="inline" fill="#1D1D1B" d="M92.677,44.181c-3.543,2.805-7.104,5.587-10.681,8.347
		c-1.783,1.388-3.531,2.821-5.386,4.113c-1.869,1.271-3.727,2.557-5.712,3.671l-0.06-0.08c1.645-1.574,3.417-2.977,5.177-4.395
		c1.775-1.396,3.657-2.651,5.504-3.952c3.683-2.617,7.382-5.212,11.099-7.784L92.677,44.181z"/>
</g>
<g display="none">
	<path display="inline" fill="#1D1D1B" d="M90.18,47.144c-0.286-5.838-0.544-11.676-0.773-17.515
		c-0.125-2.919-0.308-5.837-0.313-8.759c0.021-2.923,0.022-5.845,0.238-8.773l0.1-0.002c0.357,2.914,0.5,5.833,0.662,8.75
		c0.136,2.919,0.095,5.843,0.111,8.765c0.053,5.843,0.077,11.688,0.074,17.532L90.18,47.144z"/>
</g>
<g display="none">
	<path display="inline" fill="#1D1D1B" d="M94.238,42.296C93.991,36.998,93.771,31.7,93.58,26.4
		c-0.104-2.649-0.268-5.298-0.253-7.95c0.039-2.652,0.061-5.304,0.296-7.96l0.1-0.002c0.338,2.645,0.462,5.294,0.604,7.943
		c0.117,2.649,0.057,5.302,0.055,7.953c0.014,5.303-0.001,10.606-0.043,15.91L94.238,42.296z"/>
</g>
<g display="none">
	<path display="inline" fill="#1D1D1B" d="M98.507,36.393c-0.247-4.352-0.467-8.704-0.658-13.057
		c-0.105-2.176-0.269-4.351-0.254-6.53c0.04-2.18,0.061-4.359,0.296-6.543l0.1-0.002c0.338,2.17,0.462,4.346,0.604,6.522
		c0.116,2.176,0.057,4.356,0.054,6.535c0.014,4.357,0,8.715-0.042,13.074L98.507,36.393z"/>
</g>
<g display="none">
	<path display="inline" fill="#1D1D1B" d="M103.005,28.056c-0.229-2.61-0.429-5.221-0.602-7.833
		c-0.096-1.306-0.249-2.609-0.226-3.919c0.027-1.31,0.093-2.621,0.324-3.937l0.1-0.003c0.315,1.298,0.465,2.603,0.575,3.908
		c0.107,1.306,0.038,2.617,0.026,3.926c-0.005,2.618-0.038,5.236-0.099,7.856L103.005,28.056z"/>
</g>
<g display="none">
	<path display="inline" fill="#1D1D1B" d="M85.85,50.973c-0.265-6.144-0.502-12.287-0.711-18.432
		c-0.114-3.072-0.286-6.143-0.28-9.217c0.031-3.075,0.043-6.149,0.27-9.228l0.1-0.002c0.347,3.067,0.479,6.139,0.631,9.21
		c0.125,3.072,0.074,6.147,0.08,9.221c0.031,6.147,0.035,12.296,0.011,18.445L85.85,50.973z"/>
</g>
<g display="none">
	<path display="inline" fill="#1D1D1B" d="M80.954,54.671c-0.265-6.144-0.502-12.287-0.711-18.431
		c-0.113-3.072-0.285-6.143-0.279-9.217c0.03-3.075,0.043-6.149,0.27-9.228l0.1-0.002c0.347,3.067,0.479,6.139,0.63,9.21
		c0.126,3.072,0.074,6.147,0.081,9.221c0.031,6.148,0.034,12.296,0.01,18.445L80.954,54.671z"/>
</g>
<g display="none">
	<path display="inline" fill="#1D1D1B" d="M76.071,57.758c-0.252-6.027-0.475-12.056-0.67-18.083
		c-0.107-3.015-0.272-6.027-0.26-9.043c0.038-3.017,0.057-6.033,0.29-9.053l0.1-0.002c0.34,3.01,0.466,6.023,0.61,9.037
		c0.118,3.014,0.061,6.03,0.06,9.046c0.019,6.031,0.009,12.063-0.029,18.096L76.071,57.758z"/>
</g>
<g display="none">
	<path display="inline" fill="#1D1D1B" d="M72.151,59.784c-0.32-5.688-0.612-11.375-0.875-17.063
		c-0.142-2.845-0.341-5.687-0.363-8.534c0.003-2.849-0.012-5.696,0.187-8.551l0.1-0.003c0.374,2.836,0.534,5.68,0.713,8.522
		c0.153,2.844,0.129,5.693,0.163,8.54c0.086,5.694,0.145,11.389,0.176,17.084L72.151,59.784z"/>
</g>
<g display="none">
	<path display="inline" fill="#1D1D1B" d="M68.055,61.099c-0.234-5.169-0.439-10.339-0.618-15.509
		c-0.098-2.585-0.254-5.169-0.233-7.756c0.046-2.587,0.074-5.174,0.316-7.765l0.1-0.002c0.331,2.581,0.448,5.166,0.584,7.75
		c0.11,2.585,0.043,5.173,0.034,7.759c0,5.174-0.027,10.348-0.083,15.521L68.055,61.099z"/>
</g>
<g display="none">
	<path display="inline" fill="#1D1D1B" d="M63.694,61.166c-0.17-4.22-0.313-8.439-0.428-12.659c-0.067-2.109-0.191-4.219-0.139-6.33
		c0.078-2.11,0.137-4.221,0.411-6.333l0.1-0.001c0.3,2.109,0.385,4.218,0.489,6.328c0.079,2.109-0.02,4.221-0.061,6.331
		c-0.063,4.222-0.154,8.442-0.272,12.664H63.694z"/>
</g>
<g display="none">
	<path display="inline" fill="#1D1D1B" d="M60.115,59.772c-0.209-2.814-0.39-5.63-0.543-8.446c-0.086-1.408-0.23-2.814-0.197-4.226
		c0.037-1.41,0.112-2.822,0.353-4.237l0.1-0.002c0.306,1.402,0.445,2.81,0.547,4.217c0.098,1.407,0.019,2.819-0.003,4.229
		c-0.024,2.82-0.076,5.642-0.156,8.463L60.115,59.772z"/>
</g>
<g display="none">
	<path display="inline" fill="#1D1D1B" d="M49.821,28.881c-2.142,3.249-4.71,6.217-7.619,8.802
		c-1.458,1.289-3.004,2.482-4.659,3.521c-1.655,1.03-3.419,1.929-5.335,2.451c-0.957,0.254-1.957,0.41-2.973,0.351
		c-1.005-0.055-2.061-0.362-2.873-1.047c-0.822-0.674-1.305-1.662-1.522-2.645c-0.221-0.991-0.219-1.999-0.113-2.979
		c0.226-1.964,0.851-3.835,1.627-5.615c0.784-1.781,1.739-3.474,2.804-5.096c2.131-3.232,4.685-6.183,7.576-8.753
		c1.449-1.281,2.986-2.466,4.626-3.495c1.64-1.022,3.388-1.909,5.267-2.421c0.938-0.25,1.914-0.4,2.893-0.343
		c0.971,0.054,1.967,0.348,2.728,0.99c0.77,0.632,1.228,1.563,1.438,2.508c0.212,0.954,0.212,1.937,0.107,2.896
		c-0.221,1.926-0.838,3.778-1.607,5.542c-0.777,1.765-1.727,3.449-2.783,5.058L49.821,28.881z M49.404,28.606
		c1.039-1.621,1.97-3.313,2.726-5.083c0.749-1.768,1.343-3.62,1.541-5.529c0.094-0.952,0.083-1.921-0.135-2.849
		c-0.214-0.92-0.667-1.808-1.404-2.399c-0.729-0.602-1.679-0.874-2.621-0.916c-0.947-0.046-1.898,0.11-2.815,0.365
		c-1.837,0.521-3.555,1.416-5.166,2.444c-1.612,1.035-3.122,2.227-4.544,3.511c-2.837,2.578-5.335,5.528-7.409,8.749
		c-1.031,1.608-1.957,3.292-2.706,5.044c-0.742,1.751-1.328,3.585-1.521,5.457c-0.091,0.932-0.079,1.876,0.13,2.766
		c0.207,0.884,0.635,1.714,1.32,2.263c0.678,0.558,1.568,0.817,2.476,0.858c0.91,0.044,1.836-0.106,2.735-0.356
		c1.801-0.512,3.501-1.395,5.098-2.414c1.598-1.026,3.098-2.209,4.511-3.486c2.821-2.563,5.304-5.496,7.367-8.7L49.404,28.606z"/>
</g>
<g display="none">
	<polygon display="inline" fill="#1D1D1B" points="53.197,13.381 26.057,33.429 52.59,12.585 	"/>
</g>
<g display="none">
	<polygon display="inline" fill="#1D1D1B" points="51.794,12.489 27.424,30.308 51.191,11.692 	"/>
</g>
<g display="none">
	<polygon display="inline" fill="#1D1D1B" points="49.303,12.261 29.369,26.667 48.701,11.462 	"/>
</g>
<g display="none">
	<polygon display="inline" fill="#1D1D1B" points="44.977,13.292 33.211,21.675 44.368,12.499 	"/>
</g>
<g display="none">
	<polygon display="inline" fill="#1D1D1B" points="53.958,14.978 25.208,36.215 53.353,14.182 	"/>
</g>
<g display="none">
	<polygon display="inline" fill="#1D1D1B" points="54.082,17.281 25.333,38.517 53.476,16.485 	"/>
</g>
<g display="none">
	<polygon display="inline" fill="#1D1D1B" points="53.747,19.924 25.513,40.827 53.14,19.129 	"/>
</g>
<g display="none">
	<polygon display="inline" fill="#1D1D1B" points="53.075,22.344 25.99,42.398 52.468,21.549 	"/>
</g>
<g display="none">
	<polygon display="inline" fill="#1D1D1B" points="51.763,25.469 27.447,43.295 51.158,24.672 	"/>
</g>
<g display="none">
	<polygon display="inline" fill="#1D1D1B" points="50.054,28.654 29.598,43.587 49.449,27.858 	"/>
</g>
<g display="none">
	<polygon display="inline" fill="#1D1D1B" points="46.507,33.195 33.128,42.86 45.896,32.402 	"/>
</g>
<g display="none">
	<polygon display="inline" fill="#1D1D1B" points="44.247,34.678 44.332,12.864 45.247,34.659 	"/>
</g>
<g display="none">
	<polygon display="inline" fill="#1D1D1B" points="46.689,31.655 46.906,11.859 47.689,31.641 	"/>
</g>
<g display="none">
	<polygon display="inline" fill="#1D1D1B" points="49.257,27.979 49.459,11.712 50.257,27.961 	"/>
</g>
<g display="none">
	<polygon display="inline" fill="#1D1D1B" points="51.97,22.791 52.212,13.016 52.97,22.764 	"/>
</g>
<g display="none">
	<polygon display="inline" fill="#1D1D1B" points="41.646,37.063 41.813,14.112 42.646,37.049 	"/>
</g>
<g display="none">
	<polygon display="inline" fill="#1D1D1B" points="38.708,39.373 38.874,16.42 39.708,39.357 	"/>
</g>
<g display="none">
	<polygon display="inline" fill="#1D1D1B" points="35.778,41.295 35.991,18.781 36.778,41.282 	"/>
</g>
<g display="none">
	<polygon display="inline" fill="#1D1D1B" points="33.427,42.567 33.389,21.309 34.427,42.542 	"/>
</g>
<g display="none">
	<polygon display="inline" fill="#1D1D1B" points="30.972,43.383 31.235,24.071 31.972,43.372 	"/>
</g>
<g display="none">
	<polygon display="inline" fill="#1D1D1B" points="28.364,43.424 28.837,27.668 29.364,43.422 	"/>
</g>
<g display="none">
	<polygon display="inline" fill="#1D1D1B" points="26.225,42.57 26.539,32.041 27.225,42.552 	"/>
</g>
<polygon display="none" fill="none" stroke="#1D1D1B" stroke-width="5" stroke-miterlimit="10" points="83.425,74.328 4.165,47.333 
	39.774,2.535 130.521,5.119 "/>
<path display="none" fill="#1D1D1B" stroke="#1D1D1B" stroke-miterlimit="10" d="M135.709,3.645c0,0,25.863,60.534,3.656,67.36
	l-53.738,6.011L135.709,3.645z"/>
<ellipse display="none" fill="none" stroke="#1D1D1B" stroke-width="2" stroke-miterlimit="10" cx="35.051" cy="37.023" rx="16.177" ry="24.241"/>
<ellipse display="none" fill="#1D1D1B" cx="34.118" cy="36.903" rx="9.021" ry="13.521"/>
<ellipse display="none" fill="none" stroke="#1D1D1B" stroke-width="2" stroke-miterlimit="10" cx="82.563" cy="38.191" rx="16.957" ry="25.409"/>
<path display="none" fill="#1D1D1B" d="M91.042,38.066c0,7.827-4.237,14.169-9.457,14.169c-5.223,0-9.457-6.342-9.457-14.169
	c0-7.827,4.234-14.17,9.457-14.17C86.805,23.896,91.042,30.239,91.042,38.066z"/>
<polygon display="none" fill="none" stroke="#1D1D1B" stroke-miterlimit="10" points="110.336,75.212 10.127,69.158 10.127,7.107 
	109.983,2.566 "/>
<polygon display="none" fill="none" stroke="#1D1D1B" stroke-miterlimit="10" points="135.742,73.413 110.336,75.338 110.336,2.575 
	134.564,3.217 "/>
<g display="none">
	<path display="inline" fill="#1D1D1B" d="M9.915,7.731c8.449,5.399,16.837,10.89,25.216,16.395l25.068,16.616l24.94,16.809
		l12.424,8.473l12.365,8.561L97.29,66.431L84.711,58.19L59.644,41.573L34.706,24.762C26.416,19.125,18.135,13.474,9.915,7.731z"/>
</g>
<g display="none">
	<path display="inline" fill="#1D1D1B" d="M19.996,6.139c7.668,4.877,15.275,9.846,22.873,14.829l22.725,15.05l22.596,15.242
		l11.253,7.689l11.193,7.777L99.17,59.357l-11.408-7.458L65.038,36.848L42.443,21.604C34.934,16.489,27.435,11.359,19.996,6.139z"/>
</g>
<g display="none">
	<path display="inline" fill="#1D1D1B" d="M32.199,5.609c6.651,4.198,13.241,8.487,19.822,12.79l19.674,13.011L91.24,44.612
		l9.728,6.67l9.668,6.758l-9.94-6.35l-9.883-6.438L71.14,32.239L51.595,19.035C45.103,14.599,38.621,10.149,32.199,5.609z"/>
</g>
<g display="none">
	<path display="inline" fill="#1D1D1B" d="M44.402,5.078c5.604,3.498,11.148,7.087,16.682,10.69
		c5.536,3.602,11.021,7.277,16.535,10.912l16.405,11.104l8.157,5.621c2.699,1.903,5.417,3.779,8.099,5.708
		c-2.808-1.74-5.58-3.535-8.371-5.301l-8.313-5.388L77.063,27.511c-5.466-3.705-10.96-7.368-16.404-11.106
		C55.214,12.669,49.777,8.919,44.402,5.078z"/>
</g>
<g display="none">
	<path display="inline" fill="#1D1D1B" d="M58.462,5.078c4.462,2.735,8.864,5.561,13.256,8.4c4.393,2.838,8.737,5.75,13.108,8.622
		c4.326,2.939,8.677,5.842,12.979,8.814l6.444,4.476c2.128,1.522,4.274,3.016,6.386,4.563c-2.237-1.359-4.438-2.771-6.658-4.156
		l-6.599-4.243c-4.393-2.84-8.738-5.75-13.107-8.623c-4.325-2.941-8.677-5.841-12.979-8.815
		C66.989,11.142,62.695,8.156,58.462,5.078z"/>
</g>
<g display="none">
	<path display="inline" fill="#1D1D1B" d="M70.4,4.017c3.423,2.04,6.786,4.171,10.139,6.317c3.354,2.143,6.659,4.361,9.99,6.538
		c3.287,2.244,6.599,4.453,9.862,6.73l4.886,3.433c1.608,1.175,3.235,2.321,4.827,3.521c-1.718-1.012-3.398-2.077-5.1-3.114
		l-5.04-3.202c-3.354-2.146-6.66-4.36-9.99-6.54c-3.285-2.246-6.599-4.452-9.861-6.732C76.849,8.692,73.594,6.4,70.4,4.017z"/>
</g>
<g display="none">
	<path display="inline" fill="#1D1D1B" d="M83.134,4.017c2.377,1.341,4.692,2.773,6.999,4.218c2.313,1.437,4.583,2.938,6.852,4.44
		c2.256,1.521,4.511,3.045,6.723,4.632l3.316,2.384c1.085,0.825,2.188,1.622,3.257,2.472c-1.194-0.662-2.353-1.377-3.529-2.064
		l-3.471-2.152c-2.313-1.437-4.582-2.938-6.851-4.441c-2.256-1.522-4.511-3.045-6.722-4.634C87.49,7.293,85.281,5.7,83.134,4.017z"
		/>
</g>
<g display="none">
	<path display="inline" fill="#1D1D1B" d="M94.807,3.221c2.798,1.397,5.427,3.046,8.015,4.756c2.571,1.736,5.1,3.535,7.459,5.587
		c-2.799-1.395-5.428-3.044-8.015-4.756C99.695,7.071,97.167,5.272,94.807,3.221z"/>
</g>
<g display="none">
	<path display="inline" fill="#1D1D1B" d="M10.18,17.016c7.102,4.583,14.142,9.256,21.173,13.943l21.023,14.163L73.27,59.476
		l10.4,7.245l10.341,7.332l-10.617-6.927l-10.557-7.015L51.814,45.948L30.922,31.592C23.981,26.772,17.05,21.94,10.18,17.016z"/>
</g>
<g display="none">
	<path display="inline" fill="#1D1D1B" d="M10.18,26.832c5.834,3.72,11.607,7.531,17.371,11.355l17.221,11.576L61.863,61.53
		l8.499,5.951c2.813,2.015,5.644,4,8.44,6.039c-2.923-1.852-5.81-3.757-8.716-5.634l-8.656-5.721L44.21,50.588L27.12,38.82
		C21.447,34.863,15.783,30.893,10.18,26.832z"/>
</g>
<g display="none">
	<path display="inline" fill="#1D1D1B" d="M9.915,35.852c4.626,2.898,9.19,5.886,13.745,8.888c4.556,3.001,9.062,6.075,13.595,9.109
		c4.488,3.101,9,6.166,13.465,9.3l6.687,4.718c2.208,1.604,4.436,3.178,6.627,4.806c-2.319-1.44-4.601-2.935-6.903-4.4l-6.843-4.487
		c-4.555-3.002-9.063-6.074-13.594-9.109c-4.487-3.104-9.001-6.165-13.464-9.302C18.765,42.239,14.309,39.09,9.915,35.852z"/>
</g>
<g display="none">
	<path display="inline" fill="#1D1D1B" d="M10.18,45.932c3.314,2.006,6.567,4.102,9.81,6.212c3.244,2.107,6.438,4.29,9.66,6.432
		c3.176,2.208,6.377,4.381,9.53,6.623l4.719,3.379c1.552,1.157,3.124,2.285,4.659,3.467c-1.663-0.994-3.29-2.042-4.935-3.062
		l-4.876-3.148c-3.243-2.11-6.438-4.29-9.659-6.434c-3.175-2.21-6.377-4.38-9.529-6.624C16.406,50.535,13.262,48.279,10.18,45.932z"
		/>
</g>
<g display="none">
	<path display="inline" fill="#1D1D1B" d="M9.915,54.156c2.157,1.219,4.253,2.527,6.339,3.85c2.093,1.313,4.141,2.691,6.189,4.07
		c2.035,1.398,4.069,2.798,6.059,4.262l2.983,2.198c0.974,0.764,1.967,1.498,2.924,2.286c-1.084-0.601-2.132-1.255-3.2-1.881
		l-3.14-1.968c-2.092-1.313-4.141-2.691-6.188-4.071c-2.034-1.399-4.068-2.799-6.058-4.263C13.827,57.184,11.84,55.715,9.915,54.156
		z"/>
</g>
<g display="none">
	<path display="inline" fill="#1D1D1B" d="M9.915,61.319c2.447,1.189,4.723,2.629,6.958,4.129c2.218,1.526,4.393,3.115,6.396,4.956
		c-2.448-1.188-4.724-2.627-6.958-4.129C14.094,64.747,11.919,63.158,9.915,61.319z"/>
</g>
<g display="none">
	<path display="inline" fill="#1D1D1B" d="M104.272,2.471c-4.975,5.89-10.03,11.708-15.1,17.514L73.875,37.322L58.404,54.504
		l-7.797,8.537l-7.875,8.467l7.51-8.793l7.588-8.723l15.299-17.335l15.472-17.182C93.79,13.775,98.99,8.086,104.272,2.471z"/>
</g>
<g display="none">
	<path display="inline" fill="#1D1D1B" d="M109.94,9.288c-4.523,5.385-9.129,10.696-13.747,15.997l-13.946,15.82L68.129,56.771
		l-7.121,7.778c-2.401,2.568-4.776,5.16-7.199,7.708c2.254-2.699,4.557-5.355,6.833-8.034l6.912-7.964L81.502,40.44l14.12-15.665
		C100.359,19.581,105.108,14.398,109.94,9.288z"/>
</g>
<g display="none">
	<path display="inline" fill="#1D1D1B" d="M109.844,23.136c-3.548,4.29-7.177,8.507-10.819,12.712
		c-3.64,4.208-7.347,8.355-11.018,12.536c-3.73,4.126-7.43,8.281-11.19,12.381l-5.657,6.137c-1.913,2.021-3.8,4.064-5.735,6.065
		c1.766-2.151,3.581-4.261,5.37-6.392l5.448-6.322c3.642-4.206,7.347-8.355,11.019-12.534c3.733-4.125,7.43-8.282,11.192-12.38
		C102.215,31.239,105.988,27.151,109.844,23.136z"/>
</g>
<g display="none">
	<path display="inline" fill="#1D1D1B" d="M109.994,36.707c-2.561,3.183-5.203,6.292-7.857,9.391
		c-2.653,3.101-5.373,6.141-8.057,9.214c-2.743,3.02-5.455,6.067-8.229,9.06l-4.176,4.475c-1.42,1.468-2.813,2.958-4.255,4.405
		c1.272-1.598,2.594-3.153,3.889-4.731l3.968-4.66c2.654-3.099,5.372-6.142,8.058-9.213c2.745-3.018,5.454-6.067,8.23-9.059
		C104.339,42.595,107.126,39.615,109.994,36.707z"/>
</g>
<g display="none">
	<path display="inline" fill="#1D1D1B" d="M110.729,50.748c-1.626,2.134-3.334,4.195-5.054,6.245
		c-1.712,2.058-3.482,4.063-5.253,6.068c-1.788,1.989-3.578,3.978-5.426,5.914l-2.774,2.902c-0.951,0.943-1.878,1.909-2.853,2.832
		c0.806-1.074,1.659-2.104,2.487-3.158l2.565-3.088c1.712-2.058,3.482-4.063,5.254-6.067c1.789-1.988,3.579-3.977,5.427-5.913
		C106.943,54.54,108.796,52.607,110.729,50.748z"/>
</g>
<g display="none">
	<path display="inline" fill="#1D1D1B" d="M110.488,65.317c-1.164,1.899-2.558,3.595-4.004,5.242
		c-1.47,1.628-2.994,3.205-4.749,4.578c1.163-1.9,2.556-3.597,4.004-5.242C107.21,68.269,108.735,66.691,110.488,65.317z"/>
</g>
<g display="none">
	<path display="inline" fill="#1D1D1B" d="M90.557,3.453c-4.925,5.734-9.931,11.395-14.949,17.044L60.46,37.362L45.143,54.071
		l-7.72,8.3l-7.798,8.229l7.435-8.558l7.513-8.487L59.721,36.69L75.04,19.982C80.177,14.44,85.326,8.91,90.557,3.453z"/>
</g>
<g display="none">
	<path display="inline" fill="#1D1D1B" d="M76.04,4.212c-4.794,5.59-9.669,11.107-14.557,16.612L46.729,37.258L31.803,53.536
		l-7.524,8.084l-7.602,8.013l7.239-8.342l7.317-8.271l14.756-16.432L60.916,20.31C65.922,14.912,70.94,9.525,76.04,4.212z"/>
</g>
<g display="none">
	<path display="inline" fill="#1D1D1B" d="M62.688,4.645c-4.192,4.927-8.465,9.78-12.75,14.622
		c-4.284,4.843-8.634,9.626-12.948,14.442L23.871,47.997l-6.62,7.088c-2.234,2.339-4.442,4.7-6.699,7.018
		c2.088-2.471,4.225-4.897,6.335-7.347l6.414-7.276L36.25,33.038c4.375-4.76,8.715-9.553,13.121-14.286
		C53.775,14.018,58.191,9.294,62.688,4.645z"/>
</g>
<g display="none">
	<path display="inline" fill="#1D1D1B" d="M47.795,5.688c-2.96,3.569-6,7.063-9.054,10.547c-3.052,3.485-6.17,6.911-9.251,10.369
		c-3.141,3.404-6.251,6.836-9.422,10.213l-4.772,5.051c-1.618,1.659-3.21,3.342-4.85,4.98c1.472-1.791,2.993-3.539,4.487-5.31
		l4.565-5.239c3.053-3.483,6.169-6.911,9.252-10.367c3.143-3.402,6.25-6.837,9.423-10.212C41.346,12.345,44.53,8.98,47.795,5.688z"
		/>
</g>
<g display="none">
	<path display="inline" fill="#1D1D1B" d="M35.62,6.06c-1.938,2.443-3.958,4.813-5.991,7.172c-2.023,2.366-4.105,4.68-6.188,6.993
		c-2.1,2.297-4.201,4.593-6.359,6.837l-3.241,3.364c-1.107,1.097-2.188,2.216-3.318,3.292c0.962-1.229,1.971-2.414,2.956-3.622
		l3.034-3.551c2.024-2.366,4.106-4.679,6.189-6.992c2.101-2.296,4.201-4.593,6.36-6.836C31.212,10.466,33.375,8.226,35.62,6.06z"/>
</g>
<g display="none">
	<path display="inline" fill="#1D1D1B" d="M25.028,6.613c-2.151,2.956-4.526,5.708-6.957,8.411
		c-2.453,2.682-4.961,5.313-7.697,7.739c2.149-2.958,4.525-5.709,6.957-8.411C19.785,11.671,22.294,9.041,25.028,6.613z"/>
</g>
<path display="none" fill="none" stroke="#1D1D1B" stroke-width="2" stroke-miterlimit="10" d="M59.021,69.495
	c-0.102,5.098-2.282,7.096-6.364,7.096l-2.875,0.103c-4.082,0-8.725-0.6-9.956-7l0.102-26.096c0-3.975,4.414-7.299,9.444-9.698
	l2.772-1.401c1.672-0.209,3.167-0.627,4.331-0.263c1.622,0.507,2.605,2.536,2.546,8.762V69.495z"/>
<path display="none" fill="#1D1D1B" d="M56.475,32.24l-8.233-4.452c0,0-2.771-2.976-8.52,1.746
	c-5.749,4.722-6.467,5.441-6.467,5.441s-1.847,0.512-1.643,8.52c0.206,8.006,0,16.117,0,16.117s-1.128,6.98,2.772,10.059
	c3.9,3.08,8.212,6.569,8.212,6.569s-2.875-1.128-2.771-10.264c0.102-9.14,0-20.017,0-20.017s-1.028-4.928,4.208-8.829l6.468-3.8
	C50.502,33.33,54.649,31.457,56.475,32.24z"/>
<path display="none" fill="#1D1D1B" d="M46.266,26.761c0,0-2.078-1.617-2.771-2.08c-0.693-0.461-5.388-3.232-5.388-3.232
	s-3.543-1.924-6.314,0L24.633,27.3c0,0-2.848,2.155-2.695,8.239c0.154,6.08,0.309,17.012,0.309,17.012l-0.077,3.156
	c0,0-0.693,3.312,2.233,5.776c2.925,2.462,7.083,6.081,8.236,6.313c0,0-4.849-1.694-4.926-9.471
	c-0.077-7.775-0.155-17.324-0.155-17.324s-0.038-7.504,3.35-10.082l6.276-4.735C37.183,26.184,42.186,22.95,46.266,26.761z"/>
<path display="none" fill="#1D1D1B" d="M36.592,20.859c0,0-3.413-2.31-4.106-2.772c-0.692-0.462-4.722-2.925-4.722-2.925
	s-2.568-1.464-5.337,0.46l-6.672,5.288c0,0-2.927,0.897-2.773,6.981c0.154,6.082,0.104,17.039,0.104,17.039l0.102,3.697
	c0,0-0.205,2.872,1.489,4.412c2.83,2.572,7.494,6.931,8.622,7.29c0,0-4.567-2.569-4.567-8.469c0-7.777-0.412-17.966-0.412-17.966
	s-0.717-6.146,2.669-8.724l6.724-5.39C27.712,19.781,32.512,17.048,36.592,20.859z"/>
<path display="none" fill="#1D1D1B" d="M27.097,14.75c0,0-8.212-4.927-8.725-5.133c-0.513-0.204-2.977-2.668-7.392,0.515
	l-4.722,4.106L4.205,16.29c0,0-1.231,2.362-1.027,4.928c0.206,2.566,0.72,17.862,0.72,17.862l0.206,2.359
	c0,0-0.104,3.799,2.051,5.339c2.157,1.538,8.008,6.059,8.008,6.059s-3.696-2.62-3.696-6.778c0-4.156-0.411-16.268-0.411-16.268
	l-0.051-4.671c0,0-0.309-3.745,3.233-6.466c3.541-2.72,5.595-4.311,5.595-4.311S21.501,11.773,27.097,14.75z"/>
<path display="none" fill="none" stroke="#1D1D1B" stroke-width="2" stroke-miterlimit="10" d="M146.788,55.995
	c0,3.505-2.979,5.512-7.288,7.185l-5.338,1.279c-3.658,0-3.183-2.202-3.183-5.71l0.309-29.867c0.101-3.395,1.747-5.265,5.441-5.756
	l2.466,0.394c3.23,0.984,8.62,4.562,8.62,8.071L146.788,55.995z"/>
<path display="none" fill="#1D1D1B" d="M139.195,22.348l-11.397-4.825c0,0-3.695-2.258-7.186,3.183v4.002l8.418,4.312l-0.822,28.333
	l-7.905-0.308c0,0,8.728,6.774,11.191,7.697c0,0-0.412-2.361-0.515-4.002c-0.102-1.644,0.309-23.201,0.309-23.201l-0.102-8.829
	l0.51-3.387C131.696,25.324,133.854,20.808,139.195,22.348z"/>
<path display="none" fill="#1D1D1B" d="M127.285,17.317l-10.367-4.927c0,0-3.493-1.743-5.646,0.412l-2.259,2.464l-0.409,3.695
	l7.696,4.003v-4.209c0,0,2.258-2.361,3.078-2.565C120.202,15.984,122.563,15.369,127.285,17.317z"/>
<path display="none" fill="#1D1D1B" d="M115.482,12.185L105.11,7.257c0,0-3.488-1.744-5.646,0.412l-2.259,2.463l-0.204,2.977
	l7.596,3.798l-0.104-3.284c0,0,2.26-2.361,3.082-2.566C108.397,10.852,110.758,10.235,115.482,12.185z"/>
<path display="none" fill="#1D1D1B" d="M103.981,6.643L93.615,1.714c0,0-3.079-2.053-5.749-0.103L85.61,3.768l-0.104,3.799
	l7.596,3.798L92.999,8.08c0,0,2.258-2.362,3.078-2.566C96.899,5.309,99.261,4.692,103.981,6.643z"/>
<path display="none" fill="none" stroke="#1D1D1B" stroke-width="2" stroke-miterlimit="10" d="M24.633,13.212L57.276,32.15
	c0,0,1.848,2.771,1.848,4.002c0,0,22.327-11.7,32.025-12.008c0,0,27.718-2.722,37.881,4.875L85.506,7.567
	C85.506,7.567,59.842-4.752,24.633,13.212z"/>
<path display="none" fill="none" stroke="#1D1D1B" stroke-width="2" stroke-miterlimit="10" d="M59.227,66.899l-0.103-30.747
	c0,0,31.308-22.016,69.906-7.132l-0.822,28.333C128.208,57.353,89.817,55.401,59.227,66.899z"/>
<g display="none">
	<path display="inline" fill="#1D1D1B" d="M102.546,41.646c-0.012,2.218-0.545,4.639-2.169,6.453
		c-1.694,1.692-4.05,2.683-6.467,2.669c-2.366,0.012-4.762-0.974-6.438-2.672c-1.698-1.688-2.684-4.047-2.672-6.463
		c-0.012-2.366,0.974-4.762,2.672-6.438c1.684-1.698,4.061-2.683,6.451-2.671c2.392-0.012,4.769,0.974,6.451,2.671
		C101.988,37.015,102.534,39.426,102.546,41.646z M102.546,41.646c0-1.13-0.293-2.255-0.826-3.229
		c-0.54-0.971-1.239-1.824-2.053-2.514c-1.501-1.514-3.612-2.389-5.744-2.379c-2.132-0.009-4.242,0.865-5.744,2.378
		c-1.514,1.507-2.389,3.6-2.379,5.757c-0.01,2.106,0.865,4.235,2.379,5.73c1.507,1.514,3.6,2.388,5.757,2.379
		c2.105,0.009,4.238-0.862,5.729-2.381c0.809-0.694,1.509-1.544,2.049-2.515C102.251,43.901,102.547,42.776,102.546,41.646z"/>
</g>
<g display="none">
	<path display="inline" fill="#1D1D1B" d="M82.478,47.191c-0.01,1.449-0.443,2.963-1.453,4.141
		c-0.979,1.194-2.579,1.894-4.142,1.818c-1.574-0.068-3.017-0.844-4.035-1.926c-1.028-1.08-1.698-2.5-1.782-4.042
		c-0.107-1.509,0.462-3.118,1.564-4.246c1.086-1.144,2.643-1.846,4.267-1.823c1.562,0.009,3.167,0.717,4.14,1.924
		C82.04,44.225,82.479,45.737,82.478,47.191z M82.378,47.189c0.012-1.454-0.745-2.827-1.807-3.687
		c-1.075-0.856-2.355-1.346-3.701-1.323c-1.284,0.008-2.614,0.501-3.574,1.422c-0.963,0.92-1.589,2.196-1.683,3.595
		c-0.098,1.366,0.429,2.832,1.464,3.799c1.029,0.983,2.472,1.405,3.805,1.323c1.346-0.062,2.631-0.561,3.698-1.43
		C81.637,50.019,82.401,48.648,82.378,47.189z"/>
</g>
<g display="none">
	<path display="inline" fill="#1D1D1B" d="M116.761,42.467c-0.01,1.448-0.441,2.963-1.45,4.142
		c-0.984,1.195-2.569,1.894-4.152,1.818c-1.554-0.068-3.011-0.844-4.024-1.925c-1.029-1.077-1.698-2.507-1.783-4.035
		c-0.107-1.522,0.463-3.122,1.564-4.252c1.08-1.144,2.655-1.847,4.252-1.825c1.589,0.009,3.176,0.716,4.153,1.924
		C116.323,39.501,116.763,41.013,116.761,42.467z M116.661,42.465c0.012-1.454-0.745-2.827-1.807-3.687
		c-1.069-0.857-2.368-1.346-3.688-1.323c-1.311,0.009-2.621,0.502-3.587,1.423c-0.963,0.917-1.59,2.203-1.683,3.588
		c-0.098,1.38,0.43,2.835,1.466,3.806c1.033,0.982,2.461,1.404,3.815,1.322c1.324-0.062,2.625-0.56,3.688-1.43
		C115.921,45.296,116.685,43.924,116.661,42.465z"/>
</g>
</svg>
